<?xml version="1.0" encoding="UTF-8" standalone="no"?>
<!-- Created with Inkscape (http://www.inkscape.org/) -->

<svg
   xmlns:dc="http://purl.org/dc/elements/1.1/"
   xmlns:cc="http://creativecommons.org/ns#"
   xmlns:rdf="http://www.w3.org/1999/02/22-rdf-syntax-ns#"
   xmlns:svg="http://www.w3.org/2000/svg"
   xmlns="http://www.w3.org/2000/svg"
   xmlns:xlink="http://www.w3.org/1999/xlink"
   xmlns:sodipodi="http://sodipodi.sourceforge.net/DTD/sodipodi-0.dtd"
   xmlns:inkscape="http://www.inkscape.org/namespaces/inkscape"
   width="16"
   height="16"
   id="svg2"
   version="1.1"
   inkscape:version="0.48.0 r9654"
   sodipodi:docname="Application.svg">
  <defs
     id="defs4">
    <linearGradient
       gradientTransform="translate(0,3.0397883e-5)"
       y2="1046.3622"
       x2="2"
       y1="1040.3622"
       x1="2"
       gradientUnits="userSpaceOnUse"
       id="linearGradient17920"
       xlink:href="#linearGradient18598"
       inkscape:collect="always" />
    <linearGradient
       inkscape:collect="always"
       id="linearGradient18598">
      <stop
         style="stop-color:#b0843d;stop-opacity:1;"
         offset="0"
         id="stop18600" />
      <stop
         style="stop-color:#827353;stop-opacity:1"
         offset="1"
         id="stop18602" />
    </linearGradient>
    <linearGradient
       inkscape:collect="always"
       xlink:href="#linearGradient4910-4-0-6"
       id="linearGradient17825"
       gradientUnits="userSpaceOnUse"
       gradientTransform="translate(16.998645,-9.0373696)"
       x1="-13"
       y1="1047.3622"
       x2="-15"
       y2="1047.3622" />
    <linearGradient
       id="linearGradient4910-4-0-6"
       inkscape:collect="always">
      <stop
         id="stop4912-8-5-7"
         offset="0"
         style="stop-color:#ffffff;stop-opacity:0" />
      <stop
         id="stop4914-8-1-8"
         offset="1"
         style="stop-color:#c5dff4;stop-opacity:1" />
    </linearGradient>
    <linearGradient
       inkscape:collect="always"
       xlink:href="#linearGradient4994-4-5-3"
       id="linearGradient17822"
       gradientUnits="userSpaceOnUse"
       gradientTransform="translate(16.070568,-3.0061696)"
       x1="-11"
       y1="1042.3622"
       x2="-11"
       y2="1044.3622" />
    <linearGradient
       inkscape:collect="always"
       id="linearGradient4994-4-5-3">
      <stop
         style="stop-color:#c5dff4;stop-opacity:1"
         offset="0"
         id="stop4996-5-9-7" />
      <stop
         style="stop-color:#ffffff;stop-opacity:0;"
         offset="1"
         id="stop4998-5-0-9" />
    </linearGradient>
    <linearGradient
       inkscape:collect="always"
       xlink:href="#linearGradient8287-6"
       id="linearGradient17817"
       gradientUnits="userSpaceOnUse"
       gradientTransform="translate(18.990402,-1.0302696)"
       x1="-16.963362"
       y1="1038.8951"
       x2="-4.9919548"
       y2="1038.8951" />
    <linearGradient
       id="linearGradient8287-6"
       inkscape:collect="always">
      <stop
         id="stop8289-6"
         offset="0"
         style="stop-color:#6eb6e2;stop-opacity:1;" />
      <stop
         id="stop8291-34"
         offset="1"
         style="stop-color:#d3e5f4;stop-opacity:1" />
    </linearGradient>
    <linearGradient
       inkscape:collect="always"
       xlink:href="#linearGradient4082-3-1"
       id="linearGradient17819"
       gradientUnits="userSpaceOnUse"
       gradientTransform="translate(-1.885763,-2.9987696)"
       x1="8.0137892"
       y1="1039.876"
       x2="8.0137892"
       y2="1041.8765" />
    <linearGradient
       id="linearGradient4082-3-1">
      <stop
         id="stop4084-8-1"
         offset="0"
         style="stop-color:#4476aa;stop-opacity:1" />
      <stop
         style="stop-color:#5a9ccc;stop-opacity:1"
         offset="0.5"
         id="stop4864-7-00" />
      <stop
         id="stop4086-2-0"
         offset="1"
         style="stop-color:#4476aa;stop-opacity:1" />
    </linearGradient>
    <mask
       maskUnits="userSpaceOnUse"
       id="mask18689">
      <path
         sodipodi:nodetypes="ccccc"
         inkscape:connector-curvature="0"
         id="path18691"
         d="m 1.495586,1036.8977 12.004414,0 0,10.0292 -12.004414,0 z"
         style="fill:#ffffff;fill-opacity:1;stroke:#ffffff;stroke-width:1;stroke-linecap:butt;stroke-linejoin:miter;stroke-miterlimit:4;stroke-opacity:1;stroke-dashoffset:0;display:inline" />
    </mask>
    <filter
       color-interpolation-filters="sRGB"
       inkscape:collect="always"
       id="filter18648"
       x="-0.23950206"
       width="1.4790041"
       y="-0.24050002"
       height="1.4809999">
      <feGaussianBlur
         inkscape:collect="always"
         stdDeviation="0.9983657"
         id="feGaussianBlur18650" />
    </filter>
    <filter
       color-interpolation-filters="sRGB"
       inkscape:collect="always"
       id="filter3809">
      <feGaussianBlur
         inkscape:collect="always"
         stdDeviation="1.7520611"
         id="feGaussianBlur3811" />
    </filter>
    <linearGradient
       gradientTransform="matrix(0.08320777,0,0,0.08320777,-25.132681,985.34583)"
       inkscape:collect="always"
       xlink:href="#linearGradient3820"
       id="linearGradient3826"
       x1="641.42853"
       y1="340.57645"
       x2="641.42853"
       y2="437.8479"
       gradientUnits="userSpaceOnUse" />
    <linearGradient
       inkscape:collect="always"
       id="linearGradient3820">
      <stop
         style="stop-color:#4291fa;stop-opacity:1;"
         offset="0"
         id="stop3822" />
      <stop
         style="stop-color:#f8fdff;stop-opacity:1"
         offset="1"
         id="stop3824" />
    </linearGradient>
    <linearGradient
       gradientTransform="matrix(0.08320777,0,0,0.08320777,-25.132681,985.34583)"
       inkscape:collect="always"
       xlink:href="#linearGradient3864"
       id="linearGradient3870"
       x1="663.49005"
       y1="387.33957"
       x2="663.49005"
       y2="439.7843"
       gradientUnits="userSpaceOnUse" />
    <linearGradient
       inkscape:collect="always"
       id="linearGradient3864">
      <stop
         style="stop-color:#d1f7fe;stop-opacity:1;"
         offset="0"
         id="stop3866" />
      <stop
         style="stop-color:#ffffff;stop-opacity:1"
         offset="1"
         id="stop3868" />
    </linearGradient>
    <linearGradient
       inkscape:collect="always"
       xlink:href="#linearGradient3834"
       id="linearGradient3840"
       x1="413.07144"
       y1="427.22427"
       x2="508.35715"
       y2="427.22427"
       gradientUnits="userSpaceOnUse"
       gradientTransform="matrix(0.08320777,0,0,0.08320777,-6.826971,985.34583)" />
    <linearGradient
       inkscape:collect="always"
       id="linearGradient3834">
      <stop
         style="stop-color:#92c2ef;stop-opacity:1"
         offset="0"
         id="stop3836" />
      <stop
         style="stop-color:#83b3e2;stop-opacity:1"
         offset="1"
         id="stop3838" />
    </linearGradient>
    <linearGradient
       gradientTransform="matrix(0.08320777,0,0,0.08320777,-25.132681,985.34583)"
       inkscape:collect="always"
       xlink:href="#linearGradient3842"
       id="linearGradient3848"
       x1="573.99994"
       y1="443.73007"
       x2="578.35712"
       y2="412.30148"
       gradientUnits="userSpaceOnUse" />
    <linearGradient
       inkscape:collect="always"
       id="linearGradient3842">
      <stop
         style="stop-color:#294844;stop-opacity:1;"
         offset="0"
         id="stop3844" />
      <stop
         style="stop-color:#5a8d6a;stop-opacity:1"
         offset="1"
         id="stop3846" />
    </linearGradient>
    <linearGradient
       gradientTransform="matrix(0.08320777,0,0,0.08320777,-25.132681,985.34583)"
       inkscape:collect="always"
       xlink:href="#linearGradient3852"
       id="linearGradient3858"
       x1="589.55371"
       y1="482.23877"
       x2="739.09076"
       y2="440.92401"
       gradientUnits="userSpaceOnUse" />
    <linearGradient
       inkscape:collect="always"
       id="linearGradient3852">
      <stop
         style="stop-color:#316493;stop-opacity:1"
         offset="0"
         id="stop3854" />
      <stop
         style="stop-color:#e5ecf3;stop-opacity:1"
         offset="1"
         id="stop3856" />
    </linearGradient>
    <linearGradient
       gradientTransform="matrix(0.08320777,0,0,0.08320777,-25.132681,985.34583)"
       inkscape:collect="always"
       xlink:href="#linearGradient3872"
       id="linearGradient3878"
       x1="683.38342"
       y1="346.80713"
       x2="683.38342"
       y2="371.16574"
       gradientUnits="userSpaceOnUse" />
    <linearGradient
       inkscape:collect="always"
       id="linearGradient3872">
      <stop
         style="stop-color:#e5fdfa;stop-opacity:1;"
         offset="0"
         id="stop3874" />
      <stop
         style="stop-color:#94d1fd;stop-opacity:1"
         offset="1"
         id="stop3876" />
    </linearGradient>
    <linearGradient
       gradientTransform="matrix(0.08320777,0,0,0.08320777,-25.132681,985.34583)"
       inkscape:collect="always"
       xlink:href="#linearGradient3880"
       id="linearGradient3886"
       x1="716.55231"
       y1="340.45145"
       x2="716.55231"
       y2="376.95331"
       gradientUnits="userSpaceOnUse" />
    <linearGradient
       inkscape:collect="always"
       id="linearGradient3880">
      <stop
         style="stop-color:#ffffff;stop-opacity:1;"
         offset="0"
         id="stop3882" />
      <stop
         style="stop-color:#80b6fc;stop-opacity:1"
         offset="1"
         id="stop3884" />
    </linearGradient>
    <linearGradient
       inkscape:collect="always"
       xlink:href="#linearGradient3820-4"
       id="linearGradient18917"
       gradientUnits="userSpaceOnUse"
       gradientTransform="matrix(0.08320777,0,0,0.08320777,-40.132681,1015.3458)"
       x1="641.42853"
       y1="340.57645"
       x2="641.42853"
       y2="437.8479" />
    <linearGradient
       inkscape:collect="always"
       id="linearGradient3820-4">
      <stop
         style="stop-color:#4291fa;stop-opacity:1;"
         offset="0"
         id="stop3822-1" />
      <stop
         style="stop-color:#f8fdff;stop-opacity:1"
         offset="1"
         id="stop3824-6" />
    </linearGradient>
    <linearGradient
       inkscape:collect="always"
       xlink:href="#linearGradient3864-0"
       id="linearGradient18919"
       gradientUnits="userSpaceOnUse"
       gradientTransform="matrix(0.08320777,0,0,0.08320777,-40.132681,1015.3458)"
       x1="663.49005"
       y1="387.33957"
       x2="663.49005"
       y2="439.7843" />
    <linearGradient
       inkscape:collect="always"
       id="linearGradient3864-0">
      <stop
         style="stop-color:#d1f7fe;stop-opacity:1;"
         offset="0"
         id="stop3866-2" />
      <stop
         style="stop-color:#ffffff;stop-opacity:1"
         offset="1"
         id="stop3868-3" />
    </linearGradient>
    <linearGradient
       inkscape:collect="always"
       xlink:href="#linearGradient3834-4"
       id="linearGradient18921"
       gradientUnits="userSpaceOnUse"
       gradientTransform="matrix(0.08320777,0,0,0.08320777,-21.826971,1015.3458)"
       x1="413.07144"
       y1="427.22427"
       x2="508.35715"
       y2="427.22427" />
    <linearGradient
       inkscape:collect="always"
       id="linearGradient3834-4">
      <stop
         style="stop-color:#92c2ef;stop-opacity:1"
         offset="0"
         id="stop3836-8" />
      <stop
         style="stop-color:#83b3e2;stop-opacity:1"
         offset="1"
         id="stop3838-7" />
    </linearGradient>
    <linearGradient
       inkscape:collect="always"
       xlink:href="#linearGradient3842-5"
       id="linearGradient18923"
       gradientUnits="userSpaceOnUse"
       gradientTransform="matrix(0.08320777,0,0,0.08320777,-40.132681,1015.3458)"
       x1="573.99994"
       y1="443.73007"
       x2="578.35712"
       y2="412.30148" />
    <linearGradient
       inkscape:collect="always"
       id="linearGradient3842-5">
      <stop
         style="stop-color:#294844;stop-opacity:1;"
         offset="0"
         id="stop3844-7" />
      <stop
         style="stop-color:#5a8d6a;stop-opacity:1"
         offset="1"
         id="stop3846-9" />
    </linearGradient>
    <linearGradient
       inkscape:collect="always"
       xlink:href="#linearGradient3852-0"
       id="linearGradient18925"
       gradientUnits="userSpaceOnUse"
       gradientTransform="matrix(0.08320777,0,0,0.08320777,-40.132681,1015.3458)"
       x1="589.55371"
       y1="482.23877"
       x2="739.09076"
       y2="440.92401" />
    <linearGradient
       inkscape:collect="always"
       id="linearGradient3852-0">
      <stop
         style="stop-color:#316493;stop-opacity:1"
         offset="0"
         id="stop3854-9" />
      <stop
         style="stop-color:#e5ecf3;stop-opacity:1"
         offset="1"
         id="stop3856-8" />
    </linearGradient>
    <linearGradient
       inkscape:collect="always"
       xlink:href="#linearGradient3872-3"
       id="linearGradient18927"
       gradientUnits="userSpaceOnUse"
       gradientTransform="matrix(0.08320777,0,0,0.08320777,-40.132681,1015.3458)"
       x1="683.38342"
       y1="346.80713"
       x2="683.38342"
       y2="371.16574" />
    <linearGradient
       inkscape:collect="always"
       id="linearGradient3872-3">
      <stop
         style="stop-color:#e5fdfa;stop-opacity:1;"
         offset="0"
         id="stop3874-4" />
      <stop
         style="stop-color:#94d1fd;stop-opacity:1"
         offset="1"
         id="stop3876-0" />
    </linearGradient>
    <linearGradient
       inkscape:collect="always"
       xlink:href="#linearGradient3880-7"
       id="linearGradient18929"
       gradientUnits="userSpaceOnUse"
       gradientTransform="matrix(0.08320777,0,0,0.08320777,-40.132681,1015.3458)"
       x1="716.55231"
       y1="340.45145"
       x2="716.55231"
       y2="376.95331" />
    <linearGradient
       inkscape:collect="always"
       id="linearGradient3880-7">
      <stop
         style="stop-color:#ffffff;stop-opacity:1;"
         offset="0"
         id="stop3882-5" />
      <stop
         style="stop-color:#80b6fc;stop-opacity:1"
         offset="1"
         id="stop3884-5" />
    </linearGradient>
    <linearGradient
       inkscape:collect="always"
       xlink:href="#linearGradient4810-5-87-7"
       id="linearGradient17765"
       gradientUnits="userSpaceOnUse"
       gradientTransform="translate(0.071593,1.0367304)"
       x1="8.0137892"
       y1="1042.3622"
       x2="8.0137892"
       y2="1050.0707" />
    <linearGradient
       inkscape:collect="always"
       id="linearGradient4810-5-87-7">
      <stop
         style="stop-color:#a79c68;stop-opacity:1"
         offset="0"
         id="stop4812-0-1-4" />
      <stop
         style="stop-color:#687692;stop-opacity:1"
         offset="1"
         id="stop4814-4-5-0" />
    </linearGradient>
    <linearGradient
       y2="1047.3622"
       x2="-15"
       y1="1047.3622"
       x1="-13"
       gradientTransform="translate(20.998645,-7.0373696)"
       gradientUnits="userSpaceOnUse"
       id="linearGradient17787"
       xlink:href="#linearGradient4910-4-0-6-1"
       inkscape:collect="always" />
    <linearGradient
       id="linearGradient4910-4-0-6-1"
       inkscape:collect="always">
      <stop
         id="stop4912-8-5-7-89"
         offset="0"
         style="stop-color:#ffffff;stop-opacity:0" />
      <stop
         id="stop4914-8-1-8-2"
         offset="1"
         style="stop-color:#c5dff4;stop-opacity:1" />
    </linearGradient>
    <linearGradient
       y2="1044.3622"
       x2="-11"
       y1="1042.3622"
       x1="-11"
       gradientTransform="translate(20.070568,-1.0061696)"
       gradientUnits="userSpaceOnUse"
       id="linearGradient8881-0-1"
       xlink:href="#linearGradient4994-4-5-3-6"
       inkscape:collect="always" />
    <linearGradient
       inkscape:collect="always"
       id="linearGradient4994-4-5-3-6">
      <stop
         style="stop-color:#c5dff4;stop-opacity:1"
         offset="0"
         id="stop4996-5-9-7-8" />
      <stop
         style="stop-color:#ffffff;stop-opacity:0;"
         offset="1"
         id="stop4998-5-0-9-57" />
    </linearGradient>
    <linearGradient
       y2="1046.3622"
       x2="2"
       y1="1040.3622"
       x1="2"
       gradientTransform="translate(0,3.0397883e-5)"
       gradientUnits="userSpaceOnUse"
       id="linearGradient3506"
       xlink:href="#linearGradient18598"
       inkscape:collect="always" />
  </defs>
  <sodipodi:namedview
     id="base"
     pagecolor="#ffffff"
     bordercolor="#666666"
     borderopacity="1.0"
     inkscape:pageopacity="0.0"
     inkscape:pageshadow="2"
     inkscape:zoom="20.48"
     inkscape:cx="2.9255652"
     inkscape:cy="12.766785"
     inkscape:document-units="px"
     inkscape:current-layer="layer1"
     showgrid="true"
     inkscape:window-width="953"
     inkscape:window-height="789"
     inkscape:window-x="275"
     inkscape:window-y="275"
     inkscape:window-maximized="0">
    <inkscape:grid
       type="xygrid"
       id="grid2985"
       empspacing="5"
       visible="true"
       enabled="true"
       snapvisiblegridlinesonly="true" />
  </sodipodi:namedview>
  <metadata
     id="metadata7">
    <rdf:RDF>
      <cc:Work
         rdf:about="">
        <dc:format>image/svg+xml</dc:format>
        <dc:type
           rdf:resource="http://purl.org/dc/dcmitype/StillImage" />
        <dc:title />
      </cc:Work>
    </rdf:RDF>
  </metadata>
  <g
     inkscape:label="Layer 1"
     inkscape:groupmode="layer"
     id="layer1"
     transform="translate(0,-1036.3622)">
    <path
       sodipodi:nodetypes="ccccc"
       inkscape:connector-curvature="0"
       id="rect3997-9"
       d="m 1.495586,1036.8977 12.004414,0 0,10.0292 -12.004414,0 z"
       style="fill:#f4fcff;fill-opacity:1;stroke:url(#linearGradient3506);stroke-width:1;stroke-linecap:butt;stroke-linejoin:miter;stroke-miterlimit:4;stroke-opacity:1;stroke-dashoffset:0;display:inline" />
    <path
       sodipodi:nodetypes="ccccc"
       inkscape:connector-curvature="0"
       id="rect4853-82-7"
       d="m 2.998646,1040.355 0,6 -1,0 0,-7 z"
       style="fill:url(#linearGradient17825);fill-opacity:1;stroke:none;display:inline" />
    <path
       sodipodi:nodetypes="ccccc"
       inkscape:connector-curvature="0"
       id="rect4853-82-0"
       d="m 2.998646,1040.355 10,0 0,-1 -11,0 z"
       style="fill:url(#linearGradient17822);fill-opacity:1;stroke:none;display:inline" />
    <path
       sodipodi:nodetypes="ccccc"
       inkscape:connector-curvature="0"
       id="rect3997-9-9"
       d="m 1.499533,1036.8622 11.998914,0 0,2.0053 -11.998914,0 z"
       style="fill:url(#linearGradient17817);fill-opacity:1;stroke:url(#linearGradient17819);stroke-width:1;stroke-linecap:butt;stroke-linejoin:miter;stroke-miterlimit:4;stroke-opacity:1;stroke-dashoffset:0;display:inline" />
    <g
       transform="translate(0,3.0397883e-5)"
       style="display:inline"
       id="g18686"
       mask="url(#mask18689)">
      <path
         style="opacity:0.5;fill:#ffffff;fill-opacity:1;stroke:#ffffff;stroke-width:2;stroke-linecap:butt;stroke-linejoin:miter;stroke-miterlimit:4;stroke-opacity:1;stroke-dasharray:none;stroke-dashoffset:0;display:inline;filter:url(#filter18648)"
         d="m 5.495586,1040.8977 10.004414,0 0,9.9629 -10.004414,0 z"
         id="rect3997-9-2-7"
         inkscape:connector-curvature="0"
         sodipodi:nodetypes="ccccc" />
    </g>
    <rect
       style="opacity:0.5;fill:#000000;fill-opacity:0.73936169;stroke:none;display:inline;filter:url(#filter3809)"
       id="rect2996-1"
       width="195.56343"
       height="154.84879"
       x="-80.924561"
       y="965.15204"
       transform="matrix(0.08320777,0,0,0.08320777,27.787461,932.50887)" />
    <rect
       style="fill:url(#linearGradient3826);fill-opacity:1;stroke:none;display:inline"
       id="rect2996-1-3"
       width="14.26419"
       height="10.923296"
       x="22.058008"
       y="1013.6312" />
    <path
       style="fill:url(#linearGradient3870);fill-opacity:1;stroke:#ffffff;stroke-width:0.16641554;stroke-linecap:butt;stroke-linejoin:miter;stroke-miterlimit:4;stroke-opacity:1;stroke-dasharray:none;display:inline"
       d="m 36.351917,1017.6665 c -0.59434,-0.416 -0.683492,-0.6835 -1.30755,-0.6835 -0.624058,0 -0.713209,-0.1189 -0.980663,0 -0.267453,0.1189 -0.475473,0.2675 -0.861795,0.2675 -0.386322,0 -0.683493,-0.03 -0.950946,-0.03 -0.267454,0 -0.237736,-0.1783 -0.683492,0.089 -0.445756,0.2675 -0.594341,0.3863 -1.040098,0.4755 -0.445755,0.089 -0.267453,0.03 -0.832077,-0.1486 -0.564624,-0.1783 -0.653775,-0.2378 -1.010381,-0.6538 -0.356604,-0.416 -0.624058,-0.416 -1.129247,-0.3863 -0.505191,0.03 -0.564625,0.208 -0.683493,0.208 -0.118868,0 -0.20802,0.03 -0.594342,-0.2377 -0.386321,-0.2675 -0.564623,-0.1189 -0.534907,-0.3566 0.02972,-0.2378 -0.267453,-0.3864 -0.653775,-0.3566 -0.386322,0.03 -0.416039,0 -0.802361,0.089 -0.386322,0.089 -0.534907,-0.1189 -0.891511,0.1486 -0.356605,0.2674 0.237736,-0.089 -0.71321,0.416 -0.950945,0.5052 -1.069814,0.3566 -1.01038,0.5647 0.05944,0.208 0.05944,0.6537 0.05944,1.0995 0,0.4457 0,4.3387 0,4.3387 l 14.947682,0 z"
       id="path3862"
       inkscape:connector-curvature="0" />
    <path
       style="fill:url(#linearGradient3840);fill-opacity:1;stroke:#bbe4f7;stroke-width:0.08320777px;stroke-linecap:butt;stroke-linejoin:miter;stroke-opacity:1;display:inline"
       d="m 27.674536,1021.0097 c 0.08915,-0.06 0.861794,-0.5944 0.995521,-0.7132 0.133727,-0.1189 0.04458,-0.4161 0.267454,-0.4458 0.222878,-0.03 0.71321,-0.074 0.832078,0.015 0.118868,0.089 0.193161,0.1634 0.326887,0.089 0.133727,-0.074 0.460615,-0.1931 0.579483,-0.104 0.118868,0.089 0.178302,0.1783 0.312029,0.1932 0.133727,0.015 0.282312,-0.03 0.416039,-0.104 0.133727,-0.074 0.282312,-0.1189 0.445756,-0.1189 0.163444,0 0.312029,0.074 0.430897,0.1783 0.118868,0.104 0.297171,0.2377 0.430897,0.2229 0.133728,-0.015 0.193161,-0.059 0.31203,0.045 0.118868,0.1041 0.356605,0.3121 0.594341,0.3566 0.237736,0.045 0.683493,0.1041 0.787503,0.1635 0.104009,0.059 0.19316,0.1337 0.297169,0.1932 0.10401,0.059 0.549767,0.416 0.549767,0.416 l 0.178301,0.2229 c 0,0 -1.322408,0.2823 -1.456136,0.2823 -0.133726,0 -5.631383,0.074 -5.690816,0.074 -0.05944,0 -0.698352,-0.4161 -0.698352,-0.4161 z"
       id="path3832"
       inkscape:connector-curvature="0" />
    <path
       style="fill:#537c7b;fill-opacity:1;stroke:#649093;stroke-width:0.08320777px;stroke-linecap:butt;stroke-linejoin:miter;stroke-opacity:1;display:inline"
       d="m 21.671689,1017.8151 c 0,0 1.456136,0.5052 1.753307,0.4755 0.297171,-0.03 0.445756,-0.535 0.921229,-0.2675 0.475472,0.2675 0.742926,1.0104 1.277833,1.159 0.534907,0.1486 0.326888,-0.089 0.832078,0.1783 0.50519,0.2674 0.683493,0.3269 0.891512,0.3269 0.20802,0 0.276907,-9e-4 0.549766,0.2526 0.208018,0.1931 0.29717,0.2674 0.386322,0.4754 0.08915,0.208 0.401179,0.2229 0.609199,0.3715 0.775064,0.4976 2.162717,0.4304 2.94199,0.3566 0.475472,0 1.753306,0.1486 2.139627,0.1783 0.386322,0.03 0.594342,0.03 0.980664,0.03 0.386322,0 0.475472,-0.03 0.772643,0 0.297171,0.03 0.832078,0.03 0.832078,0.03 l 0.148586,0.4755 -0.832078,0.5646 -14.204756,0 z"
       id="path3830"
       inkscape:connector-curvature="0"
       sodipodi:nodetypes="csssssssccsssccccc" />
    <path
       style="fill:url(#linearGradient3848);fill-opacity:1;stroke:#5e8f71;stroke-width:0.08320777px;stroke-linecap:butt;stroke-linejoin:miter;stroke-opacity:1;display:inline"
       d="m 22.028294,1019.6873 c 0.445756,0 0.80236,0.208 1.01038,0.1783 0.208019,-0.03 1.01038,-0.4755 1.634438,-0.2378 0.624059,0.2378 1.188683,0.7727 1.485853,0.8321 0.297171,0.059 1.158966,0.208 1.693873,0.208 0.534907,0 1.01038,-0.3269 1.456136,-0.2971 0.445756,0.03 0.772644,0.2377 1.040097,0.2971 0.267454,0.06 0.564625,-0.1188 0.772644,-0.059 0.208019,0.059 0.475473,0.3269 0.475473,0.3269 0,0 1.129248,-0.3269 1.396702,-0.1783 0.267454,0.1486 0.594341,0.416 1.069814,0.416 0.475473,0 0.416039,-0.208 0.832077,-0.03 0.416039,0.1783 0.891513,0.6835 0.891513,0.6835 l 0.118868,0.3269 c 0,0 -3.655199,0 -3.774067,0.03 -0.118868,0.03 -6.953792,0.1783 -7.132095,0.1783 -0.178303,0 -2.02076,-0.03 -2.169346,-0.059 -0.148585,-0.03 -1.188682,-0.1486 -1.188682,-0.1486 0,0 -0.29717,-2.2882 -0.148585,-2.2882 0.148585,0 0.534907,-0.1783 0.534907,-0.1783 z"
       id="path3828"
       inkscape:connector-curvature="0" />
    <rect
       style="fill:url(#linearGradient3858);fill-opacity:1;stroke:#316493;stroke-width:0.08320777;stroke-linecap:round;stroke-linejoin:round;stroke-miterlimit:4;stroke-opacity:1;stroke-dasharray:none;stroke-dashoffset:0;display:inline"
       id="rect3850"
       width="14.961353"
       height="2.8577864"
       x="21.792915"
       y="1021.8483" />
    <path
       style="fill:url(#linearGradient3878);fill-opacity:1;stroke:url(#linearGradient3886);stroke-width:0.16641554;stroke-linecap:butt;stroke-linejoin:miter;stroke-miterlimit:4;stroke-opacity:1;stroke-dasharray:none;display:inline"
       d="m 32.696719,1016.4778 c -0.297171,0.208 -0.71321,0.3566 -1.129248,0.3269 -0.416039,-0.03 -1.010381,0.1783 -1.069814,-0.2674 -0.05944,-0.4458 -0.267454,-0.2675 -0.416039,-0.6241 -0.148586,-0.3566 -0.237736,-0.5646 -0.118868,-0.7726 0.118868,-0.2081 0.356604,-0.1784 0.50519,-0.3566 0.148585,-0.1784 0.267453,-0.535 0.534907,-0.5647 0.267453,-0.03 0.50519,0 0.653775,-0.03 0.148586,-0.03 0.534907,-0.4457 0.772644,-0.2674 0.237736,0.1783 0.178302,0.5349 0.416039,0.5646 0.237736,0.03 0.208019,0.1486 0.534907,-0.1783 0.326887,-0.3269 0.475472,-0.5646 0.832077,-0.6835 0.356605,-0.1189 0.71321,-0.208 1.040098,-0.1189 0.326887,0.089 0.475472,0.1189 0.742926,0.2378 0.267453,0.1188 -0.08915,0.624 -0.594341,0.7726 -0.505191,0.1486 -0.505191,0.089 -0.891512,0.416 -0.386322,0.3269 -1.040097,0.4161 -0.950946,0.5944 0.08915,0.1783 0,0.1783 0.326888,0.1783 0.326887,0 0.861794,-0.03 0.653775,0.2377 -0.208019,0.2675 0.08915,0.4458 -0.386322,0.5349 -0.475472,0.089 -0.594341,-0.1486 -0.594341,0.089 0,0.2377 -0.148585,0.624 -0.326888,0.2377 -0.178302,-0.3863 -0.534907,-0.3269 -0.534907,-0.3269 z"
       id="path3860"
       inkscape:connector-curvature="0" />
    <path
       style="fill:#ffffff;fill-opacity:1;stroke:none;display:inline"
       d="m 21.047631,1012.6146 0,12.957 16.285321,0 0,-12.957 -16.285321,0 z m 1.011494,1.0166 14.262333,0 0,10.9237 -14.262333,0 0,-10.9237 z"
       id="rect2996"
       inkscape:connector-curvature="0" />
    <g
       style="display:inline"
       id="g18908"
       transform="matrix(0.66395267,0,0,0.66395267,1.301545,349.14964)">
      <rect
         y="1043.6312"
         x="7.0580087"
         height="10.923296"
         width="14.26419"
         id="rect2996-1-3-2"
         style="fill:url(#linearGradient18917);fill-opacity:1;stroke:none;display:inline" />
      <path
         inkscape:connector-curvature="0"
         id="path3862-9"
         d="m 21.351917,1047.6665 c -0.59434,-0.416 -0.683492,-0.6835 -1.30755,-0.6835 -0.624058,0 -0.713209,-0.1189 -0.980663,0 -0.267453,0.1189 -0.475473,0.2675 -0.861795,0.2675 -0.386322,0 -0.683493,-0.03 -0.950946,-0.03 -0.267454,0 -0.237736,-0.1783 -0.683492,0.089 -0.445756,0.2675 -0.594341,0.3863 -1.040098,0.4755 -0.445755,0.089 -0.267453,0.03 -0.832077,-0.1486 -0.564624,-0.1783 -0.653775,-0.2378 -1.010381,-0.6538 -0.356604,-0.416 -0.624058,-0.416 -1.129247,-0.3863 -0.505191,0.03 -0.564625,0.208 -0.683493,0.208 -0.118868,0 -0.20802,0.03 -0.594342,-0.2377 -0.386321,-0.2675 -0.564623,-0.1189 -0.534907,-0.3566 0.02972,-0.2378 -0.267453,-0.3864 -0.653775,-0.3566 -0.3863215,0.03 -0.4160385,0 -0.8023605,0.089 -0.386322,0.089 -0.534907,-0.1189 -0.891511,0.1486 -0.356605,0.2674 0.237736,-0.089 -0.71321,0.416 -0.950945,0.5052 -1.0698141,0.3566 -1.0103801,0.5647 0.05944,0.208 0.05944,0.6537 0.05944,1.0995 0,0.4457 0,4.3387 0,4.3387 l 14.9476816,0 z"
         style="fill:url(#linearGradient18919);fill-opacity:1;stroke:#ffffff;stroke-width:0.16641554;stroke-linecap:butt;stroke-linejoin:miter;stroke-miterlimit:4;stroke-opacity:1;stroke-dasharray:none;display:inline" />
      <path
         inkscape:connector-curvature="0"
         id="path3832-1"
         d="m 12.674536,1051.0097 c 0.08915,-0.06 0.861794,-0.5944 0.995521,-0.7132 0.133727,-0.1189 0.04458,-0.4161 0.267454,-0.4458 0.222878,-0.03 0.71321,-0.074 0.832078,0.015 0.118868,0.089 0.193161,0.1634 0.326887,0.089 0.133727,-0.074 0.460615,-0.1931 0.579483,-0.104 0.118868,0.089 0.178302,0.1783 0.312029,0.1932 0.133727,0.015 0.282312,-0.03 0.416039,-0.104 0.133727,-0.074 0.282312,-0.1189 0.445756,-0.1189 0.163444,0 0.312029,0.074 0.430897,0.1783 0.118868,0.104 0.297171,0.2377 0.430897,0.2229 0.133728,-0.015 0.193161,-0.059 0.31203,0.045 0.118868,0.1041 0.356605,0.3121 0.594341,0.3566 0.237736,0.045 0.683493,0.1041 0.787503,0.1635 0.104009,0.059 0.19316,0.1337 0.297169,0.1932 0.10401,0.059 0.549767,0.416 0.549767,0.416 l 0.178301,0.2229 c 0,0 -1.322408,0.2823 -1.456136,0.2823 -0.133726,0 -5.631383,0.074 -5.690816,0.074 -0.05944,0 -0.698352,-0.4161 -0.698352,-0.4161 z"
         style="fill:url(#linearGradient18921);fill-opacity:1;stroke:#bbe4f7;stroke-width:0.08320777px;stroke-linecap:butt;stroke-linejoin:miter;stroke-opacity:1;display:inline" />
      <path
         sodipodi:nodetypes="csssssssccsssccccc"
         inkscape:connector-curvature="0"
         id="path3830-2"
         d="m 6.6716894,1047.8151 c 0,0 1.4561361,0.5052 1.7533071,0.4755 0.297171,-0.03 0.445756,-0.535 0.921229,-0.2675 0.475472,0.2675 0.7429255,1.0104 1.2778325,1.159 0.534907,0.1486 0.326888,-0.089 0.832078,0.1783 0.50519,0.2674 0.683493,0.3269 0.891512,0.3269 0.20802,0 0.276907,-9e-4 0.549766,0.2526 0.208018,0.1931 0.29717,0.2674 0.386322,0.4754 0.08915,0.208 0.401179,0.2229 0.609199,0.3715 0.775064,0.4976 2.162717,0.4304 2.94199,0.3566 0.475472,0 1.753306,0.1486 2.139627,0.1783 0.386322,0.03 0.594342,0.03 0.980664,0.03 0.386322,0 0.475472,-0.03 0.772643,0 0.297171,0.03 0.832078,0.03 0.832078,0.03 l 0.148586,0.4755 -0.832078,0.5646 -14.2047556,0 z"
         style="fill:#537c7b;fill-opacity:1;stroke:#649093;stroke-width:0.08320777px;stroke-linecap:butt;stroke-linejoin:miter;stroke-opacity:1;display:inline" />
      <path
         inkscape:connector-curvature="0"
         id="path3828-4"
         d="m 7.0282945,1049.6873 c 0.445756,0 0.80236,0.208 1.01038,0.1783 0.208019,-0.03 1.01038,-0.4755 1.634438,-0.2378 0.6240585,0.2378 1.1886825,0.7727 1.4858525,0.8321 0.297171,0.059 1.158966,0.208 1.693873,0.208 0.534907,0 1.01038,-0.3269 1.456136,-0.2971 0.445756,0.03 0.772644,0.2377 1.040097,0.2971 0.267454,0.06 0.564625,-0.1188 0.772644,-0.059 0.208019,0.059 0.475473,0.3269 0.475473,0.3269 0,0 1.129248,-0.3269 1.396702,-0.1783 0.267454,0.1486 0.594341,0.416 1.069814,0.416 0.475473,0 0.416039,-0.208 0.832077,-0.03 0.416039,0.1783 0.891513,0.6835 0.891513,0.6835 l 0.118868,0.3269 c 0,0 -3.655199,0 -3.774067,0.03 -0.118868,0.03 -6.953792,0.1783 -7.132095,0.1783 -0.1783025,0 -2.0207595,-0.03 -2.1693455,-0.059 -0.148585,-0.03 -1.1886821,-0.1486 -1.1886821,-0.1486 0,0 -0.29717,-2.2882 -0.148585,-2.2882 0.148585,0 0.5349071,-0.1783 0.5349071,-0.1783 z"
         style="fill:url(#linearGradient18923);fill-opacity:1;stroke:#5e8f71;stroke-width:0.08320777px;stroke-linecap:butt;stroke-linejoin:miter;stroke-opacity:1;display:inline" />
      <rect
         y="1051.8485"
         x="6.7929158"
         height="2.8577864"
         width="14.961353"
         id="rect3850-9"
         style="fill:url(#linearGradient18925);fill-opacity:1;stroke:#316493;stroke-width:0.08320777;stroke-linecap:round;stroke-linejoin:round;stroke-miterlimit:4;stroke-opacity:1;stroke-dasharray:none;stroke-dashoffset:0;display:inline" />
      <path
         inkscape:connector-curvature="0"
         id="path3860-9"
         d="m 17.696719,1046.4778 c -0.297171,0.208 -0.71321,0.3566 -1.129248,0.3269 -0.416039,-0.03 -1.010381,0.1783 -1.069814,-0.2674 -0.05944,-0.4458 -0.267454,-0.2675 -0.416039,-0.6241 -0.148586,-0.3566 -0.237736,-0.5646 -0.118868,-0.7726 0.118868,-0.2081 0.356604,-0.1784 0.50519,-0.3566 0.148585,-0.1784 0.267453,-0.535 0.534907,-0.5647 0.267453,-0.03 0.50519,0 0.653775,-0.03 0.148586,-0.03 0.534907,-0.4457 0.772644,-0.2674 0.237736,0.1783 0.178302,0.5349 0.416039,0.5646 0.237736,0.03 0.208019,0.1486 0.534907,-0.1783 0.326887,-0.3269 0.475472,-0.5646 0.832077,-0.6835 0.356605,-0.1189 0.71321,-0.208 1.040098,-0.1189 0.326887,0.089 0.475472,0.1189 0.742926,0.2378 0.267453,0.1188 -0.08915,0.624 -0.594341,0.7726 -0.505191,0.1486 -0.505191,0.089 -0.891512,0.416 -0.386322,0.3269 -1.040097,0.4161 -0.950946,0.5944 0.08915,0.1783 0,0.1783 0.326888,0.1783 0.326887,0 0.861794,-0.03 0.653775,0.2377 -0.208019,0.2675 0.08915,0.4458 -0.386322,0.5349 -0.475472,0.089 -0.594341,-0.1486 -0.594341,0.089 0,0.2377 -0.148585,0.624 -0.326888,0.2377 -0.178302,-0.3863 -0.534907,-0.3269 -0.534907,-0.3269 z"
         style="fill:url(#linearGradient18927);fill-opacity:1;stroke:url(#linearGradient18929);stroke-width:0.16641554;stroke-linecap:butt;stroke-linejoin:miter;stroke-miterlimit:4;stroke-opacity:1;stroke-dasharray:none;display:inline" />
    </g>
    <path
       inkscape:connector-curvature="0"
       style="fill:#f4fcff;fill-opacity:1;stroke:none;display:inline"
       d="m 6,1041.3934 0,8.9688 9,0 0,-8.9688 -9,0 z m 0.96875,0.9688 7.0625,0 0,7.0312 -7.0625,0 0,-7.0312 z"
       id="rect3997-9-2-8-1" />
    <path
       sodipodi:nodetypes="ccccc"
       inkscape:connector-curvature="0"
       id="rect3997-9-2"
       d="m 5.495586,1040.8977 10.004414,0 0,9.9629 -10.004414,0 z"
       style="fill:none;stroke:url(#linearGradient17765);stroke-width:1;stroke-linecap:butt;stroke-linejoin:miter;stroke-miterlimit:4;stroke-opacity:1;stroke-dashoffset:0;display:inline" />
    <path
       style="fill:url(#linearGradient17787);fill-opacity:1;stroke:none;display:inline"
       d="m 6.998646,1042.355 0.00135,8.0072 -1,0 -0.00135,-9.0072 z"
       id="rect4853-82-7-7"
       inkscape:connector-curvature="0"
       sodipodi:nodetypes="ccccc" />
    <path
       style="fill:url(#linearGradient8881-0-1);fill-opacity:1;stroke:none;display:inline"
       d="m 6.998646,1042.355 8.001354,0.01 0,-1 -9.001354,-0.01 z"
       id="rect4853-82-0-9"
       inkscape:connector-curvature="0"
       sodipodi:nodetypes="ccccc" />
  </g>
</svg>
