<?xml version="1.0" encoding="UTF-8" standalone="no"?>
<!-- Created with Inkscape (http://www.inkscape.org/) -->

<svg
   xmlns:dc="http://purl.org/dc/elements/1.1/"
   xmlns:cc="http://creativecommons.org/ns#"
   xmlns:rdf="http://www.w3.org/1999/02/22-rdf-syntax-ns#"
   xmlns:svg="http://www.w3.org/2000/svg"
   xmlns="http://www.w3.org/2000/svg"
   xmlns:sodipodi="http://sodipodi.sourceforge.net/DTD/sodipodi-0.dtd"
   xmlns:inkscape="http://www.inkscape.org/namespaces/inkscape"
   width="16"
   height="16"
   id="svg27656"
   version="1.1"
   inkscape:version="0.48.5 r10040"
   sodipodi:docname="annotation_alt_obj.svg">
  <defs
     id="defs27658" />
  <sodipodi:namedview
     id="base"
     pagecolor="#ffffff"
     bordercolor="#666666"
     borderopacity="1.0"
     inkscape:pageopacity="0.0"
     inkscape:pageshadow="2"
     inkscape:zoom="3.959798"
     inkscape:cx="37.262164"
     inkscape:cy="-10.904334"
     inkscape:document-units="px"
     inkscape:current-layer="layer1"
     showgrid="true"
     inkscape:window-width="903"
     inkscape:window-height="828"
     inkscape:window-x="744"
     inkscape:window-y="231"
     inkscape:window-maximized="0"
     inkscape:snap-global="false">
    <inkscape:grid
       type="xygrid"
       id="grid27664"
       empspacing="5"
       visible="true"
       enabled="true"
       snapvisiblegridlinesonly="true" />
  </sodipodi:namedview>
  <metadata
     id="metadata27661">
    <rdf:RDF>
      <cc:Work
         rdf:about="">
        <dc:format>image/svg+xml</dc:format>
        <dc:type
           rdf:resource="http://purl.org/dc/dcmitype/StillImage" />
        <dc:title />
      </cc:Work>
    </rdf:RDF>
  </metadata>
  <g
     inkscape:label="Layer 1"
     inkscape:groupmode="layer"
     id="layer1"
     transform="translate(0,-1036.3622)">
    <path
       style="fill:#ffffff;stroke:none;stroke-width:1px;stroke-linecap:butt;stroke-linejoin:miter;stroke-opacity:1;fill-opacity:1"
       d="m 11.111678,6.7192236 0.505076,-1.5783634 c 0,0 -0.06313,-1.2626907 -0.06313,-1.5152288 0,-0.2525381 -0.505077,-1.2626907 -0.505077,-1.2626907 L 9.7227182,0.7845774 8.523162,0.46890473 7.2604714,0.34263566 6.3765879,0.40577019 5.4295699,0.65830833 3.8512066,1.7315954 c 0,0 -0.6313454,0.6313453 -0.820749,0.8838835 -0.1894036,0.2525381 -0.947018,1.8309014 -0.947018,1.8309014 0,0 -0.1894036,1.5783634 -0.2525381,1.9571706 -0.063135,0.3788072 -0.063135,1.4520943 -0.063135,1.8309015 0,0.3788072 0.820749,2.3359776 0.820749,2.3359776 l 1.0101525,0.883884 1.767767,1.26269 2.3991122,-0.126269 1.5152288,-0.315672 1.641498,-1.262691 0.883884,-0.69448 z"
       id="path3008"
       inkscape:connector-curvature="0"
       transform="translate(0,1036.3622)" />
    <path
       style="font-size:11.05178356000000051px;font-style:normal;font-variant:normal;font-weight:normal;font-stretch:normal;text-align:start;line-height:125%;letter-spacing:0px;word-spacing:0px;writing-mode:lr-tb;text-anchor:start;fill:#696969;fill-opacity:1;stroke:#696969;stroke-width:0.28257137999999998;stroke-miterlimit:4;stroke-opacity:1;stroke-dasharray:none;display:inline;font-family:AustralianFlyingCorpsStencil;-inkscape-font-specification:AustralianFlyingCorpsStencil"
       d="m 11.585709,1039.703 c -0.09375,-0.4062 -0.177236,-0.9957 -0.552237,-1.4333 -0.374998,-0.4374 -0.614324,-0.6074 -1.022557,-0.8388 -0.4082329,-0.2315 -1.6921372,-0.7906 -2.8906247,-0.8594 -0.3994958,-0.023 -0.8168984,0.026 -1.1875,0.125 -1.8098211,0.485 -2.6365843,1.3182 -3.59375,2.8125 -0.9918191,1.5427 -1.1888372,3.5663 -0.6562501,5.3437 0.5272319,1.7597 1.5558151,2.9532 3.0937501,3.5938 1.4108866,0.5774 2.6810837,0.706 4.5,0.2187 1.6733897,-0.4485 2.0169647,-0.7866 3.2187497,-1.8437 l -0.4375,-0.3438 c -1.553801,1.2177 -1.622762,1.2332 -2.9687497,1.5938 -1.5005895,0.4027 -3.1035995,0.1736 -4.25,-0.4063 -1.1463954,-0.5798 -1.9388113,-1.5073 -2.4375,-3.0937 -0.4986888,-1.5864 -0.022863,-3.521 0.5625,-4.5313 0.5853631,-1.0103 1.2965074,-2.1937 2.90625,-2.625 1.282323,-0.3436 2.8157521,0.1597 3.788182,0.7279 0.9724297,0.5683 1.2922387,1.6526 1.2580417,2.5824 -0.0342,0.9299 -0.664674,1.9657 -1.1330417,2.3681 -0.4683686,0.4027 -1.475682,0.4154 -1.475682,0.4154 0,0 0.1240658,-0.6579 0.125,-1.4688 0.030258,-0.6627 -0.1295408,-1.6952 -0.59375,-2.125 -0.4642092,-0.431 -1.2172197,-0.4322 -1.6875,-0.4062 -0.5523523,0.031 -0.932751,0.349 -1.34375,1.125 -0.4594324,0.8674 -0.5953852,2.7604 -0.4375,3.4687 0.1578852,0.7083 0.2457352,0.8708 0.65625,1.2813 0.4105148,0.4103 1.4233638,0.419 1.96875,0.094 0.8226727,-0.5067 0.5968097,-1.091 1.21875,-1.125 0,0 1.2730873,-0.2595 2.0678617,-0.8125 0.815373,-0.5226 1.093629,-1.2093 1.265854,-1.9428 0.172226,-0.7336 0.131703,-1.4881 0.03795,-1.8944 z m -5.3091687,0.5872 c 0.1214058,0 0.264899,0.01 0.40625,0.031 0.5654037,0.1018 0.65625,1.125 0.65625,1.125 0,0 0.075363,0.6861 0.03125,1.5937 -0.044113,0.9079 -0.00335,1.2629 -0.34375,1.5313 -0.3403969,0.2684 -1.2509038,0.4277 -1.6875,-0.2813 -0.4365972,-0.7089 -0.3169368,-2.8026 0.0625,-3.4375 0.238137,-0.3999 0.5107825,-0.5487 0.875,-0.5625 z"
       id="path4719-2"
       inkscape:connector-curvature="0"
       sodipodi:nodetypes="cczscccccccccssczzccccccscccczcssccsccs" />
  </g>
</svg>
