<?xml version="1.0" encoding="UTF-8" standalone="no"?>
<!-- Created with Inkscape (http://www.inkscape.org/) -->

<svg
   xmlns:dc="http://purl.org/dc/elements/1.1/"
   xmlns:cc="http://creativecommons.org/ns#"
   xmlns:rdf="http://www.w3.org/1999/02/22-rdf-syntax-ns#"
   xmlns:svg="http://www.w3.org/2000/svg"
   xmlns="http://www.w3.org/2000/svg"
   xmlns:sodipodi="http://sodipodi.sourceforge.net/DTD/sodipodi-0.dtd"
   xmlns:inkscape="http://www.inkscape.org/namespaces/inkscape"
   width="16"
   height="16"
   viewBox="0 0 16 16"
   id="svg4061"
   version="1.1"
   inkscape:version="0.91 r13725"
   sodipodi:docname="annotation_obj.svg">
  <defs
     id="defs4063" />
  <sodipodi:namedview
     id="base"
     pagecolor="#ffffff"
     bordercolor="#666666"
     borderopacity="1.0"
     inkscape:pageopacity="0.0"
     inkscape:pageshadow="2"
     inkscape:zoom="33.3125"
     inkscape:cx="8"
     inkscape:cy="8"
     inkscape:document-units="px"
     inkscape:current-layer="layer1"
     showgrid="false"
     units="px"
     inkscape:window-width="816"
     inkscape:window-height="758"
     inkscape:window-x="679"
     inkscape:window-y="370"
     inkscape:window-maximized="0" />
  <metadata
     id="metadata4066">
    <rdf:RDF>
      <cc:Work
         rdf:about="">
        <dc:format>image/svg+xml</dc:format>
        <dc:type
           rdf:resource="http://purl.org/dc/dcmitype/StillImage" />
        <dc:title></dc:title>
      </cc:Work>
    </rdf:RDF>
  </metadata>
  <g
     inkscape:label="Layer 1"
     inkscape:groupmode="layer"
     id="layer1"
     transform="translate(0,-1036.3622)">
    <path
       style="fill:#ffffff;fill-opacity:1;stroke:none;stroke-width:1px;stroke-linecap:butt;stroke-linejoin:miter;stroke-opacity:1"
       d="m 11.458315,1046.4119 0,-2.7842 0.574525,-0.8839 c 0,0 0.08839,-1.9004 0.04419,-2.1213 -0.04419,-0.221 -0.88388,-2.6517 -0.88388,-2.6517 l -1.7677667,-1.1048 -1.1932427,-0.442 -1.1490485,-0.044 -2.032932,0.5746 -1.8561553,0.5745 -1.3700194,1.8561 -0.7954951,2.3865 0.088388,1.812 0.7071068,1.6352 1.016466,1.5468 c 0,0 1.4584077,0.8839 1.7235728,0.8397 0.265165,-0.044 2.0771261,0.5745 2.0771261,0.5745 l 1.767767,-0.3094 2.474874,-0.8839 z"
       id="path3840"
       inkscape:connector-curvature="0" />
    <path
       style="font-size:11.05178356px;font-style:normal;font-variant:normal;font-weight:normal;font-stretch:normal;text-align:start;line-height:125%;letter-spacing:0px;word-spacing:0px;writing-mode:lr-tb;text-anchor:start;fill:#236298;fill-opacity:1;stroke:#236298;stroke-width:0.28257138;stroke-miterlimit:4;stroke-opacity:1;stroke-dasharray:none;display:inline;font-family:AustralianFlyingCorpsStencil;-inkscape-font-specification:AustralianFlyingCorpsStencil"
       d="m 11.309169,1039.7124 c -0.09375,-0.4062 -0.177236,-0.9956 -0.552237,-1.4332 -0.374998,-0.4374 -0.614324,-0.6075 -1.022557,-0.8389 -0.4082332,-0.2314 -1.6921375,-0.7905 -2.890625,-0.8594 -0.3994958,-0.023 -0.8168984,0.026 -1.1875,0.125 -1.8098211,0.485 -2.6365843,1.3182 -3.59375,2.8125 -0.991819,1.5427 -1.18883707,3.5664 -0.65625,5.3438 0.5272319,1.7597 1.555815,2.9531 3.09375,3.5937 1.4108866,0.5774 2.6810837,0.7061 4.5,0.2188 1.67339,-0.4485 2.016965,-0.7867 3.21875,-1.8438 l -0.4375,-0.3437 c -1.553801,1.2177 -1.622762,1.2331 -2.96875,1.5937 -1.5005895,0.4027 -3.1035995,0.1737 -4.25,-0.4062 -1.1463954,-0.5798 -1.9388113,-1.5074 -2.4375,-3.0938 -0.4986887,-1.5864 -0.022863,-3.5209 0.5625,-4.5312 0.5853631,-1.0103 1.2965074,-2.1937 2.90625,-2.625 1.282323,-0.3436 2.8157521,0.1597 3.788182,0.7279 0.97243,0.5683 1.292239,1.6525 1.258042,2.5824 -0.0342,0.9298 -0.664674,1.9656 -1.133042,2.368 -0.4683686,0.4027 -1.475682,0.4154 -1.475682,0.4154 0,0 0.1240658,-0.6578 0.125,-1.4687 0.030258,-0.6627 -0.1295408,-1.6952 -0.59375,-2.125 -0.4642092,-0.431 -1.2172197,-0.4323 -1.6875,-0.4063 -0.5523523,0.031 -0.932751,0.349 -1.34375,1.125 -0.4594324,0.8674 -0.5953852,2.7605 -0.4375,3.4688 0.1578852,0.7083 0.2457352,0.8707 0.65625,1.2812 0.4105148,0.4103 1.4233638,0.4191 1.96875,0.094 0.8226727,-0.5067 0.5968097,-1.091 1.21875,-1.125 0,0 1.2730873,-0.2595 2.067862,-0.8125 0.815373,-0.5226 1.093629,-1.2093 1.265854,-1.9429 0.172226,-0.7335 0.131703,-1.4881 0.03795,-1.8944 z M 6,1040.2997 c 0.1214058,0 0.264899,0.01 0.40625,0.031 0.5654037,0.1018 0.65625,1.125 0.65625,1.125 0,0 0.075363,0.6862 0.03125,1.5938 -0.044113,0.9079 -0.00335,1.2628 -0.34375,1.5312 -0.3403969,0.2684 -1.2509038,0.4278 -1.6875,-0.2812 -0.4365972,-0.7089 -0.3169368,-2.8026 0.0625,-3.4375 0.238137,-0.4 0.5107825,-0.5487 0.875,-0.5625 z"
       id="path4719-2"
       inkscape:connector-curvature="0"
       sodipodi:nodetypes="cczscccccccccssczzccccccscccczcssccsccs" />
  </g>
</svg>
