<?xml version="1.0" encoding="UTF-8" standalone="no"?>
<!-- Created with Inkscape (http://www.inkscape.org/) -->

<svg
   xmlns:dc="http://purl.org/dc/elements/1.1/"
   xmlns:cc="http://creativecommons.org/ns#"
   xmlns:rdf="http://www.w3.org/1999/02/22-rdf-syntax-ns#"
   xmlns:svg="http://www.w3.org/2000/svg"
   xmlns="http://www.w3.org/2000/svg"
   xmlns:xlink="http://www.w3.org/1999/xlink"
   xmlns:sodipodi="http://sodipodi.sourceforge.net/DTD/sodipodi-0.dtd"
   xmlns:inkscape="http://www.inkscape.org/namespaces/inkscape"
   width="16"
   height="16"
   id="svg2"
   version="1.1"
   inkscape:version="0.48.4 r9939"
   sodipodi:docname="New document 1">
  <defs
     id="defs4">
    <linearGradient
       y2="462.11539"
       x2="388.63736"
       y1="478.18777"
       x1="388.63736"
       gradientUnits="userSpaceOnUse"
       id="linearGradient3929-5"
       xlink:href="#linearGradient10798-1-9-3-7-6-8-9-0-9-1"
       inkscape:collect="always" />
    <linearGradient
       id="linearGradient10798-1-9-3-7-6-8-9-0-9-1">
      <stop
         style="stop-color:#4f9e55;stop-opacity:1"
         offset="0"
         id="stop10800-5-2-1-8-20-6-4-9-8-2" />
      <stop
         id="stop10806-6-8-5-3-9-24-8-4-3-2"
         offset="0.5"
         style="stop-color:#418a4d;stop-opacity:1" />
      <stop
         style="stop-color:#a4c589;stop-opacity:1"
         offset="1"
         id="stop10802-1-5-3-0-4-8-4-2-9-2" />
    </linearGradient>
    <linearGradient
       y2="462.11539"
       x2="388.63736"
       y1="478.18777"
       x1="388.63736"
       gradientUnits="userSpaceOnUse"
       id="linearGradient3986"
       xlink:href="#linearGradient10798-1-9-3-7-6-8-9-0-9-1"
       inkscape:collect="always" />
  </defs>
  <sodipodi:namedview
     id="base"
     pagecolor="#ffffff"
     bordercolor="#666666"
     borderopacity="1.0"
     inkscape:pageopacity="0.0"
     inkscape:pageshadow="2"
     inkscape:zoom="5.6"
     inkscape:cx="0.14116252"
     inkscape:cy="1.9302136"
     inkscape:document-units="px"
     inkscape:current-layer="layer1"
     showgrid="true"
     inkscape:window-width="1281"
     inkscape:window-height="1015"
     inkscape:window-x="50"
     inkscape:window-y="50"
     inkscape:window-maximized="0">
    <inkscape:grid
       type="xygrid"
       id="grid2985"
       empspacing="5"
       visible="true"
       enabled="true"
       snapvisiblegridlinesonly="true" />
  </sodipodi:namedview>
  <metadata
     id="metadata7">
    <rdf:RDF>
      <cc:Work
         rdf:about="">
        <dc:format>image/svg+xml</dc:format>
        <dc:type
           rdf:resource="http://purl.org/dc/dcmitype/StillImage" />
        <dc:title></dc:title>
      </cc:Work>
    </rdf:RDF>
  </metadata>
  <g
     inkscape:label="Layer 1"
     inkscape:groupmode="layer"
     id="layer1"
     transform="translate(0,-1036.3622)">
    <path
       sodipodi:type="arc"
       style="font-size:13.58917427px;font-style:normal;font-weight:normal;line-height:125%;letter-spacing:0px;word-spacing:0px;fill:url(#linearGradient3986);fill-opacity:1;stroke:#14733c;stroke-width:2.16621375;stroke-linecap:round;stroke-linejoin:round;stroke-miterlimit:4;stroke-opacity:1;stroke-dasharray:none;stroke-dashoffset:0;display:inline;font-family:Sans"
       id="path10796-2-6-2"
       sodipodi:cx="388.125"
       sodipodi:cy="468.23718"
       sodipodi:rx="10.625"
       sodipodi:ry="10.625"
       d="m 398.75,468.23718 a 10.625,10.625 0 1 1 -21.25,0 10.625,10.625 0 1 1 21.25,0 z"
       transform="matrix(0.55436961,0,0,0.55436961,-207.63295,783.27811)" />
    <path
       inkscape:connector-curvature="0"
       id="path6435"
       style="font-size:13.58917427px;font-style:normal;font-variant:normal;font-weight:bold;font-stretch:normal;line-height:125%;letter-spacing:0px;word-spacing:0px;fill:#ffffff;fill-opacity:1;stroke:none;display:inline;font-family:Sans;-inkscape-font-specification:Sans Bold"
       d="m 10.156289,1046.0078 c -0.3559319,0.1747 -0.726967,0.3065 -1.1131062,0.3954 -0.3861509,0.089 -0.7890848,0.1334 -1.2088032,0.1334 -1.2524574,0 -2.2446837,-0.3303 -2.9766774,-0.991 -0.7319982,-0.6637 -1.097997,-1.5624 -1.097996,-2.6963 -1e-6,-1.137 0.3659978,-2.0358 1.097996,-2.6964 0.7319937,-0.6637 1.72422,-0.9955 2.9766774,-0.9955 0.4197184,0 0.8226523,0.044 1.2088032,0.1333 0.3861392,0.089 0.7571743,0.2208 1.1131062,0.3954 l 0,1.472 c -0.3592897,-0.2317 -0.7135359,-0.4018 -1.0627396,-0.5097 -0.3492152,-0.1079 -0.7168923,-0.162 -1.1030327,-0.162 -0.6917079,0 -1.2356689,0.2097 -1.6318845,0.6289 -0.3962207,0.4193 -0.5943298,0.9971 -0.594327,1.734 -2.8e-6,0.7337 0.1981063,1.3102 0.594327,1.7294 0.3962156,0.4191 0.9401766,0.6288 1.6318845,0.6288 0.3861404,0 0.7538175,-0.053 1.1030327,-0.1621 0.3492037,-0.1079 0.7034499,-0.2778 1.0627396,-0.5098 l 0,1.4722" />
  </g>
</svg>
