<?xml version="1.0" encoding="UTF-8" standalone="no"?>
<!-- Created with Inkscape (http://www.inkscape.org/) -->

<svg
   xmlns:dc="http://purl.org/dc/elements/1.1/"
   xmlns:cc="http://creativecommons.org/ns#"
   xmlns:rdf="http://www.w3.org/1999/02/22-rdf-syntax-ns#"
   xmlns:svg="http://www.w3.org/2000/svg"
   xmlns="http://www.w3.org/2000/svg"
   xmlns:xlink="http://www.w3.org/1999/xlink"
   xmlns:sodipodi="http://sodipodi.sourceforge.net/DTD/sodipodi-0.dtd"
   xmlns:inkscape="http://www.inkscape.org/namespaces/inkscape"
   width="16"
   height="16"
   id="svg2"
   version="1.1"
   inkscape:version="0.48.0 r9654"
   sodipodi:docname="empty_pack_fldr_obj.svg">
  <defs
     id="defs4">
    <linearGradient
       inkscape:collect="always"
       id="linearGradient4976">
      <stop
         style="stop-color:#696969;stop-opacity:1;"
         offset="0"
         id="stop4978" />
      <stop
         style="stop-color:#4f504f;stop-opacity:1"
         offset="1"
         id="stop4980" />
    </linearGradient>
    <linearGradient
       id="linearGradient4905">
      <stop
         style="stop-color:#494949;stop-opacity:1"
         offset="0"
         id="stop4907" />
      <stop
         id="stop4918"
         offset="0.15384205"
         style="stop-color:#666665;stop-opacity:1" />
      <stop
         id="stop4916"
         offset="0.38461128"
         style="stop-color:#666665;stop-opacity:1" />
      <stop
         id="stop4914"
         offset="0.5"
         style="stop-color:#494949;stop-opacity:1" />
      <stop
         style="stop-color:#686867;stop-opacity:1"
         offset="0.61538053"
         id="stop4921" />
      <stop
         id="stop4925"
         offset="0.84614974"
         style="stop-color:#696969;stop-opacity:1" />
      <stop
         style="stop-color:#494949;stop-opacity:1"
         offset="1"
         id="stop4910" />
    </linearGradient>
    <linearGradient
       inkscape:collect="always"
       xlink:href="#linearGradient4905"
       id="linearGradient4912"
       x1="-2.7798836"
       y1="1064.2668"
       x2="-2.7798836"
       y2="1051.2668"
       gradientUnits="userSpaceOnUse"
       gradientTransform="translate(19,0)" />
    <linearGradient
       id="linearGradient4905-4">
      <stop
         style="stop-color:#494949;stop-opacity:1"
         offset="0"
         id="stop4907-0" />
      <stop
         id="stop4918-9"
         offset="0.15384205"
         style="stop-color:#666665;stop-opacity:1" />
      <stop
         id="stop4916-4"
         offset="0.38461128"
         style="stop-color:#666665;stop-opacity:1" />
      <stop
         id="stop4914-8"
         offset="0.5"
         style="stop-color:#494949;stop-opacity:1" />
      <stop
         style="stop-color:#686867;stop-opacity:1"
         offset="0.61538053"
         id="stop4921-8" />
      <stop
         id="stop4925-2"
         offset="0.84614974"
         style="stop-color:#696969;stop-opacity:1" />
      <stop
         style="stop-color:#494949;stop-opacity:1"
         offset="1"
         id="stop4910-4" />
    </linearGradient>
    <linearGradient
       gradientTransform="translate(1061.0467,-1073.4853)"
       y2="1051.2668"
       x2="-2.7798836"
       y1="1064.2668"
       x1="-2.7798836"
       gradientUnits="userSpaceOnUse"
       id="linearGradient4947"
       xlink:href="#linearGradient4905-4"
       inkscape:collect="always" />
    <linearGradient
       inkscape:collect="always"
       xlink:href="#linearGradient4976"
       id="linearGradient4982"
       x1="-1.7798837"
       y1="1052.2668"
       x2="-1.7798837"
       y2="1063.2668"
       gradientUnits="userSpaceOnUse"
       gradientTransform="translate(19,0)" />
    <mask
       maskUnits="userSpaceOnUse"
       id="mask5102">
      <path
         style="fill:#ffffff;fill-opacity:1;stroke:none;display:inline"
         d="m 15.220116,1051.2669 0,1 -5,0 0,5 -0.9999997,0 0,1 0.9999997,0 0,5 5,0 0,1 1,0 0,-1 5,0 0,-5 1,0 0,-1 -1,0 0,-5 -5,0 0,-1 -1,0 z"
         id="path5104"
         inkscape:connector-curvature="0" />
    </mask>
    <filter
       inkscape:collect="always"
       id="filter5106"
       x="-0.14360571"
       width="1.2872114"
       y="-0.24110329"
       height="1.4822066">
      <feGaussianBlur
         inkscape:collect="always"
         stdDeviation="0.59880184"
         id="feGaussianBlur5108" />
    </filter>
  </defs>
  <sodipodi:namedview
     id="base"
     pagecolor="#ffffff"
     bordercolor="#666666"
     borderopacity="1.0"
     inkscape:pageopacity="0.0"
     inkscape:pageshadow="2"
     inkscape:zoom="7.9999996"
     inkscape:cx="15.231402"
     inkscape:cy="23.356522"
     inkscape:document-units="px"
     inkscape:current-layer="g8159"
     showgrid="true"
     inkscape:window-width="1171"
     inkscape:window-height="959"
     inkscape:window-x="1185"
     inkscape:window-y="403"
     inkscape:window-maximized="0"
     showguides="true"
     inkscape:guide-bbox="true"
     inkscape:snap-global="false">
    <inkscape:grid
       type="xygrid"
       id="grid4099" />
  </sodipodi:namedview>
  <metadata
     id="metadata7">
    <rdf:RDF>
      <cc:Work
         rdf:about="">
        <dc:format>image/svg+xml</dc:format>
        <dc:type
           rdf:resource="http://purl.org/dc/dcmitype/StillImage" />
        <dc:title />
      </cc:Work>
    </rdf:RDF>
  </metadata>
  <g
     inkscape:label="Layer 1"
     inkscape:groupmode="layer"
     id="layer1"
     style="display:inline"
     transform="translate(0,-1036.3622)">
    <g
       style="display:inline"
       id="g8159"
       transform="translate(-8.2201163,-12.904699)">
      <path
         style="fill:url(#linearGradient4982);fill-opacity:1;stroke:none;display:inline"
         d="m 10.220116,1052.2669 0,11 11,0 0,-11 -11,0 z m 1,1 9,0 0,9 -9,0 0,-9 z"
         id="rect4112-1"
         inkscape:connector-curvature="0" />
      <rect
         style="fill:url(#linearGradient4912);fill-opacity:1;stroke:none"
         id="rect4903"
         width="1"
         height="13"
         x="15.220116"
         y="1051.2668" />
      <rect
         style="fill:url(#linearGradient4947);fill-opacity:1;stroke:none;display:inline"
         id="rect4903-5"
         width="1"
         height="13"
         x="1057.2668"
         y="-22.220116"
         transform="matrix(0,1,-1,0,0,0)" />
      <rect
         style="fill:#e3ebf8;fill-opacity:1;stroke:none"
         id="rect4986"
         width="4"
         height="4"
         x="11.220117"
         y="1058.2668" />
      <rect
         style="fill:#ffffff;fill-opacity:1;stroke:none;display:inline"
         id="rect4986-5"
         width="1.9998934"
         height="1.9998934"
         x="12.22017"
         y="1059.2668" />
      <rect
         style="fill:#e3ebf8;fill-opacity:1;stroke:none;display:inline"
         id="rect4986-1"
         width="4"
         height="4"
         x="16.220116"
         y="1058.2668" />
      <rect
         style="fill:#ffffff;fill-opacity:1;stroke:none;display:inline"
         id="rect4986-5-7"
         width="1.9998934"
         height="1.9998934"
         x="17.220169"
         y="1059.2668" />
      <rect
         style="fill:#e3ebf8;fill-opacity:1;stroke:none;display:inline"
         id="rect4986-11"
         width="4"
         height="4"
         x="11.220117"
         y="1053.2668" />
      <rect
         style="fill:#ffffff;fill-opacity:1;stroke:none;display:inline"
         id="rect4986-5-5"
         width="1.9998934"
         height="1.9998934"
         x="12.22017"
         y="1054.2667" />
      <rect
         style="fill:#e3ebf8;fill-opacity:1;stroke:none;display:inline"
         id="rect4986-1-2"
         width="4"
         height="4"
         x="16.220116"
         y="1053.2667" />
      <rect
         style="fill:#ffffff;fill-opacity:1;stroke:none;display:inline"
         id="rect4986-5-7-7"
         width="1.9998934"
         height="1.9998934"
         x="17.220169"
         y="1054.2667" />
      <g
         id="g5097"
         mask="url(#mask5102)">
        <g
           id="g4987"
           style="filter:url(#filter5106);stroke:#ffffff;stroke-width:2;stroke-miterlimit:4;stroke-dasharray:none">
          <path
             style="fill:#ffffff;stroke:#ffffff;stroke-width:2;stroke-linecap:butt;stroke-linejoin:round;stroke-opacity:1;display:inline;stroke-miterlimit:4;stroke-dasharray:none"
             d="m 14.738757,1061.753 0,-2.9835 c 0,-0.723 0.30837,-1.0403 0.822507,-1.0403 0.430028,0 0.520145,-0.9365 0.841842,-0.9365 l 1.452911,0 c 0.641386,0 0.423649,0.9888 0.832594,0.9888 l 3.032826,0 c 0.515862,0 1.024752,0.4466 1.024752,1.0248 l 0,2.9693 c 0,0.5312 -0.334077,0.9764 -0.976415,0.9764 l -6.058745,0 c -0.471088,0 -0.972272,-0.4831 -0.972272,-0.999 z"
             id="path4140-7-0"
             inkscape:connector-curvature="0"
             sodipodi:nodetypes="ccsccccccccc" />
          <path
             style="fill:#ffffff;fill-opacity:1;stroke:#ffffff;stroke-width:2;stroke-linecap:butt;stroke-linejoin:round;stroke-opacity:1;display:inline;stroke-miterlimit:4;stroke-dasharray:none"
             d="m 15.114407,1062.2833 1.62435,-1.5138 8.007432,0.037 -2.58579,1.9457 -6.44937,0 c -0.471088,0 -0.596622,0.047 -0.596622,-0.4687 z"
             id="path4140-1-9"
             inkscape:connector-curvature="0"
             sodipodi:nodetypes="ccccccc" />
        </g>
      </g>
      <path
         style="fill:#ffffff;fill-opacity:1;stroke:#696969;stroke-width:1px;stroke-linecap:butt;stroke-linejoin:round;stroke-opacity:1"
         d="m 14.738757,1061.753 0,-2.9835 c 0,-0.723 0.30837,-1.0403 0.822507,-1.0403 0.430028,0 0.520145,-0.9365 0.841842,-0.9365 l 1.452911,0 c 0.641386,0 0.423649,0.9888 0.832594,0.9888 l 3.032826,0 c 0.515862,0 1.024752,0.4466 1.024752,1.0248 l 0,2.9693 c 0,0.5312 -0.334077,0.9764 -0.976415,0.9764 l -6.058745,0 c -0.471088,0 -0.972272,-0.4831 -0.972272,-0.999 z"
         id="path4140"
         inkscape:connector-curvature="0"
         sodipodi:nodetypes="ccsccccccccc" />
      <path
         style="fill:none;stroke:#e3ebf8;stroke-width:0.8086499px;stroke-linecap:butt;stroke-linejoin:round;stroke-opacity:1;display:inline"
         d="m 15.504868,1061.374 0,-2.1253 c 0,-0.5847 0.249364,-0.8412 0.665121,-0.8412 0.347742,0 0.420615,-0.7573 0.680755,-0.7573 l 0.600372,0 c 0.518657,0 0.342584,0.7995 0.673277,0.7995 l 3.027019,0 c 0.417152,0 0.828666,0.3612 0.828666,0.8288 l 0,2.1138 c 0,0.4295 -0.270152,0.7895 -0.789578,0.7895 l -4.899404,0 c -0.380945,0 -0.786228,-0.3906 -0.786228,-0.8078 z"
         id="path4140-7-4"
         inkscape:connector-curvature="0"
         sodipodi:nodetypes="ccsccccccccc" />
      <path
         style="fill:none;fill-opacity:1;stroke:#696969;stroke-width:1px;stroke-linecap:butt;stroke-linejoin:round;stroke-opacity:1;display:inline"
         d="m 14.738757,1061.753 0,-2.9835 c 0,-0.723 0.30837,-1.0403 0.822507,-1.0403 0.430028,0 0.520145,-0.9365 0.841842,-0.9365 l 1.452911,0 c 0.641386,0 0.423649,0.9888 0.832594,0.9888 l 3.032826,0 c 0.515862,0 1.024752,0.4466 1.024752,1.0248 l 0,2.9693 c 0,0.5312 -0.334077,0.9764 -0.976415,0.9764 l -6.058745,0 c -0.471088,0 -0.972272,-0.4831 -0.972272,-0.999 z"
         id="path4140-7"
         inkscape:connector-curvature="0"
         sodipodi:nodetypes="ccsccccccccc" />
      <path
         style="fill:#ffffff;fill-opacity:1;stroke:#696969;stroke-width:1px;stroke-linecap:butt;stroke-linejoin:round;stroke-opacity:1;display:inline"
         d="m 15.114407,1062.2833 1.62435,-1.5138 8.007432,0.037 -2.58579,1.9457 -6.44937,0 c -0.471088,0 -0.596622,0.047 -0.596622,-0.4687 z"
         id="path4140-1"
         inkscape:connector-curvature="0"
         sodipodi:nodetypes="ccccccc" />
    </g>
  </g>
</svg>
