<?xml version="1.0" encoding="UTF-8" standalone="no"?>
<!-- Created with Inkscape (http://www.inkscape.org/) -->

<svg
   xmlns:dc="http://purl.org/dc/elements/1.1/"
   xmlns:cc="http://creativecommons.org/ns#"
   xmlns:rdf="http://www.w3.org/1999/02/22-rdf-syntax-ns#"
   xmlns:svg="http://www.w3.org/2000/svg"
   xmlns="http://www.w3.org/2000/svg"
   xmlns:xlink="http://www.w3.org/1999/xlink"
   xmlns:sodipodi="http://sodipodi.sourceforge.net/DTD/sodipodi-0.dtd"
   xmlns:inkscape="http://www.inkscape.org/namespaces/inkscape"
   width="16"
   height="16"
   id="svg2"
   version="1.1"
   inkscape:version="0.48.5 r10040"
   sodipodi:docname="error_alt_obj.svg">
  <defs
     id="defs4">
    <linearGradient
       inkscape:collect="always"
       id="linearGradient4913">
      <stop
         style="stop-color:#6d6d6d;stop-opacity:1"
         offset="0"
         id="stop4915" />
      <stop
         style="stop-color:#7b7b7b;stop-opacity:1"
         offset="1"
         id="stop4917" />
    </linearGradient>
    <linearGradient
       inkscape:collect="always"
       xlink:href="#linearGradient4913"
       id="linearGradient4919"
       x1="12"
       y1="1.999999"
       x2="12"
       y2="12.999999"
       gradientUnits="userSpaceOnUse" />
    <linearGradient
       inkscape:collect="always"
       xlink:href="#linearGradient4913-7"
       id="linearGradient4919-4"
       x1="12"
       y1="1.999999"
       x2="12"
       y2="12.999999"
       gradientUnits="userSpaceOnUse" />
    <linearGradient
       inkscape:collect="always"
       id="linearGradient4913-7">
      <stop
         style="stop-color:#6d6d6d;stop-opacity:1"
         offset="0"
         id="stop4915-8" />
      <stop
         style="stop-color:#7b7b7b;stop-opacity:1"
         offset="1"
         id="stop4917-2" />
    </linearGradient>
  </defs>
  <sodipodi:namedview
     id="base"
     pagecolor="#ffffff"
     bordercolor="#666666"
     borderopacity="1.0"
     inkscape:pageopacity="0.0"
     inkscape:pageshadow="2"
     inkscape:zoom="15.999999"
     inkscape:cx="-3.0523684"
     inkscape:cy="11.173044"
     inkscape:document-units="px"
     inkscape:current-layer="layer1"
     showgrid="true"
     inkscape:window-width="1171"
     inkscape:window-height="959"
     inkscape:window-x="125"
     inkscape:window-y="125"
     inkscape:window-maximized="0"
     showguides="true"
     inkscape:guide-bbox="true"
     inkscape:snap-global="false">
    <inkscape:grid
       type="xygrid"
       id="grid4099" />
  </sodipodi:namedview>
  <metadata
     id="metadata7">
    <rdf:RDF>
      <cc:Work
         rdf:about="">
        <dc:format>image/svg+xml</dc:format>
        <dc:type
           rdf:resource="http://purl.org/dc/dcmitype/StillImage" />
        <dc:title />
      </cc:Work>
    </rdf:RDF>
  </metadata>
  <g
     inkscape:label="Layer 1"
     inkscape:groupmode="layer"
     id="layer1"
     style="display:inline"
     transform="translate(0,-1036.3622)">
    <g
       style="display:inline"
       id="g8159"
       transform="translate(-8.2201163,-12.904699)">
      <path
         sodipodi:type="arc"
         style="fill:#ffffff;fill-opacity:1;stroke:#ffffff;stroke-width:1;stroke-linejoin:round;stroke-miterlimit:4;stroke-opacity:1;stroke-dasharray:none"
         id="path3791"
         sodipodi:cx="8.5"
         sodipodi:cy="7.5"
         sodipodi:rx="6.000001"
         sodipodi:ry="6.000001"
         d="m 14.500001,7.5 a 6.000001,6.000001 0 1 1 -12.000002,0 6.000001,6.000001 0 1 1 12.000002,0 z"
         transform="translate(8.2201163,1049.2669)" />
      <path
         style="font-size:medium;font-style:normal;font-variant:normal;font-weight:normal;font-stretch:normal;text-indent:0;text-align:start;text-decoration:none;line-height:normal;letter-spacing:normal;word-spacing:normal;text-transform:none;direction:ltr;block-progression:tb;writing-mode:lr-tb;text-anchor:start;baseline-shift:baseline;color:#000000;fill:url(#linearGradient4919);fill-opacity:1;stroke:none;stroke-width:1px;marker:none;visibility:visible;display:inline;overflow:visible;enable-background:accumulate;font-family:Sans;-inkscape-font-specification:Sans"
         d="M 8.5 2 C 5.466525 2 3 4.4665 3 7.5 C 3 10.5334 5.466525 13 8.5 13 C 11.533474 13 14 10.5334 14 7.5 C 14 4.4665 11.533474 2 8.5 2 z M 8.5 3 C 9.2878932 3 10.013305 3.2082896 10.65625 3.5625 L 8.25 6.4375 C 8.1221691 5.9953936 7.979775 5.54679 7.78125 5.15625 C 7.615813 4.83085 7.39554 4.50335 7.09375 4.28125 C 6.79196 4.05915 6.39022 3.94825 5.96875 3.96875 L 6.03125 4.96875 C 6.25478 4.95775 6.372497 4.99975 6.5 5.09375 C 6.627503 5.18775 6.753587 5.35495 6.875 5.59375 C 7.0935425 6.02368 7.2712941 6.6817147 7.46875 7.375 L 5 10.34375 C 4.3704993 9.5690579 4 8.5809392 4 7.5 C 4 5.0026 6.002645 3 8.5 3 z M 11.5 4.15625 C 12.418115 4.9839352 13 6.1631565 13 7.5 C 13 9.9973 10.997354 12.03125 8.5 12.03125 C 7.4276064 12.03125 6.4594186 11.620528 5.6875 11 L 5.75 11 L 7.84375 8.5 C 8.025978 8.9878595 8.2372821 9.4630962 8.5625 9.875 C 9.088655 10.5415 9.927776 11.0235 11.03125 11 L 11 10 C 10.162031 10.018 9.717017 9.7229 9.34375 9.25 C 9.0183342 8.837811 8.7923907 8.2362655 8.59375 7.59375 L 11.5 4.15625 z "
         transform="translate(8.2201163,1049.2669)"
         id="path4911-7" />
    </g>
  </g>
</svg>
