<?xml version="1.0" encoding="UTF-8" standalone="no"?>
<!-- Created with Inkscape (http://www.inkscape.org/) -->

<svg
   xmlns:dc="http://purl.org/dc/elements/1.1/"
   xmlns:cc="http://creativecommons.org/ns#"
   xmlns:rdf="http://www.w3.org/1999/02/22-rdf-syntax-ns#"
   xmlns:svg="http://www.w3.org/2000/svg"
   xmlns="http://www.w3.org/2000/svg"
   xmlns:xlink="http://www.w3.org/1999/xlink"
   xmlns:sodipodi="http://sodipodi.sourceforge.net/DTD/sodipodi-0.dtd"
   xmlns:inkscape="http://www.inkscape.org/namespaces/inkscape"
   width="16"
   height="16"
   id="svg2"
   version="1.1"
   inkscape:version="0.48.5 r10040"
   sodipodi:docname="info_obj.svg">
  <defs
     id="defs4">
    <linearGradient
       inkscape:collect="always"
       id="linearGradient4996">
      <stop
         style="stop-color:#02468c;stop-opacity:1"
         offset="0"
         id="stop4998" />
      <stop
         style="stop-color:#0e62a4;stop-opacity:1"
         offset="1"
         id="stop5000" />
    </linearGradient>
    <linearGradient
       inkscape:collect="always"
       xlink:href="#linearGradient4996"
       id="linearGradient5002"
       x1="13.903196"
       y1="1062.1353"
       x2="13.903196"
       y2="1051.7347"
       gradientUnits="userSpaceOnUse"
       gradientTransform="translate(2,0)" />
    <linearGradient
       inkscape:collect="always"
       id="linearGradient4996-4">
      <stop
         style="stop-color:#02468c;stop-opacity:1"
         offset="0"
         id="stop4998-5" />
      <stop
         style="stop-color:#0e62a4;stop-opacity:1"
         offset="1"
         id="stop5000-5" />
    </linearGradient>
    <linearGradient
       y2="1051.7347"
       x2="13.903196"
       y1="1062.1353"
       x1="13.903196"
       gradientTransform="translate(38.469436,55.035191)"
       gradientUnits="userSpaceOnUse"
       id="linearGradient5028"
       xlink:href="#linearGradient4996-4"
       inkscape:collect="always" />
    <linearGradient
       inkscape:collect="always"
       xlink:href="#linearGradient4996"
       id="linearGradient2996"
       gradientUnits="userSpaceOnUse"
       gradientTransform="matrix(0.97704778,0,0,1,2.2500552,0)"
       x1="13.903196"
       y1="1062.1353"
       x2="13.903196"
       y2="1051.7347" />
    <linearGradient
       inkscape:collect="always"
       xlink:href="#linearGradient4996-8"
       id="linearGradient2996-2"
       gradientUnits="userSpaceOnUse"
       gradientTransform="matrix(0.97704778,0,0,1,2.2500552,0)"
       x1="13.903196"
       y1="1062.1353"
       x2="13.903196"
       y2="1051.7347" />
    <linearGradient
       id="linearGradient4996-8">
      <stop
         style="stop-color:#ffffff;stop-opacity:1;"
         offset="0"
         id="stop4998-51" />
      <stop
         style="stop-color:#ffffff;stop-opacity:0;"
         offset="1"
         id="stop5000-6" />
    </linearGradient>
    <linearGradient
       y2="1057.5728"
       x2="14.694597"
       y1="1057.5728"
       x1="16.1101"
       gradientTransform="matrix(0.97704778,0,0,1,2.250055,-1.0000001e-6)"
       gradientUnits="userSpaceOnUse"
       id="linearGradient3798"
       xlink:href="#linearGradient4996-8"
       inkscape:collect="always" />
  </defs>
  <sodipodi:namedview
     id="base"
     pagecolor="#ffffff"
     bordercolor="#666666"
     borderopacity="1.0"
     inkscape:pageopacity="0.0"
     inkscape:pageshadow="2"
     inkscape:zoom="31.999999"
     inkscape:cx="4.1275963"
     inkscape:cy="8.047133"
     inkscape:document-units="px"
     inkscape:current-layer="text4140-1-8"
     showgrid="true"
     inkscape:window-width="1171"
     inkscape:window-height="959"
     inkscape:window-x="277"
     inkscape:window-y="450"
     inkscape:window-maximized="0"
     showguides="true"
     inkscape:guide-bbox="true"
     inkscape:snap-global="false">
    <inkscape:grid
       type="xygrid"
       id="grid4099" />
  </sodipodi:namedview>
  <metadata
     id="metadata7">
    <rdf:RDF>
      <cc:Work
         rdf:about="">
        <dc:format>image/svg+xml</dc:format>
        <dc:type
           rdf:resource="http://purl.org/dc/dcmitype/StillImage" />
        <dc:title />
      </cc:Work>
    </rdf:RDF>
  </metadata>
  <g
     inkscape:label="Layer 1"
     inkscape:groupmode="layer"
     id="layer1"
     style="display:inline"
     transform="translate(0,-1036.3622)">
    <g
       style="display:inline"
       id="g8159"
       transform="translate(-8.2201163,-12.904699)">
      <g
         style="font-size:15.07241726px;font-style:normal;font-variant:normal;font-weight:900;font-stretch:normal;text-align:start;line-height:125%;letter-spacing:0px;word-spacing:0px;writing-mode:lr-tb;text-anchor:start;fill:url(#linearGradient5002);fill-opacity:1;stroke:none;display:inline;font-family:Kozuka Mincho Pr6N H;-inkscape-font-specification:Kozuka Mincho Pr6N H Heavy"
         id="text4140-1-8">
        <path
           d="m 16.168743,1050.9177 c -0.347298,0.01 -0.635687,0.1291 -0.86517,0.3674 -0.229485,0.2383 -0.348523,0.5529 -0.357112,0.9439 0.0086,0.3981 0.127627,0.7172 0.357113,0.9571 0.229482,0.2399 0.517871,0.363 0.865169,0.3692 0.354348,-0.01 0.647032,-0.1293 0.878054,-0.3692 0.231015,-0.2399 0.350665,-0.559 0.358954,-0.9571 -0.0056,-0.3778 -0.119655,-0.6886 -0.342387,-0.9326 -0.222739,-0.244 -0.520945,-0.3702 -0.894621,-0.3787 z m 0.927756,3.3912 c -1.016117,0.4346 -1.973323,0.6808 -2.871626,0.7386 l 0,0.6029 c 0.425835,-0.02 0.693362,0.039 0.802582,0.1771 0.109219,0.1381 0.155852,0.476 0.139901,1.0136 l 0,3.4515 c 0.01504,0.5401 -0.03345,0.888 -0.145422,1.0438 -0.111982,0.1557 -0.377669,0.2248 -0.797061,0.2072 l 0,0.633 3.990823,0 0,-0.633 c -0.377672,0.017 -0.620042,-0.051 -0.727111,-0.2054 -0.107076,-0.1541 -0.154322,-0.4977 -0.141739,-1.0305 l 0,-5.8631 z"
           style="fill:url(#linearGradient2996)"
           id="path5058"
           inkscape:connector-curvature="0" />
        <path
           d="m 16.168743,1050.9177 c -0.347298,0.01 -0.635687,0.1291 -0.86517,0.3674 -0.229485,0.2383 -0.348523,0.5529 -0.357112,0.9439 0.0086,0.3981 0.127627,0.7172 0.357113,0.9571 0.229482,0.2399 0.517871,0.363 0.865169,0.3692 0.354348,-0.01 0.647032,-0.1293 0.878054,-0.3692 0.231015,-0.2399 0.350665,-0.559 0.358954,-0.9571 -0.0056,-0.3778 -0.119655,-0.6886 -0.342387,-0.9326 -0.222739,-0.244 -0.520945,-0.3702 -0.894621,-0.3787 z m 0.927756,3.3912 c -1.016117,0.4346 -1.973323,0.6808 -2.871626,0.7386 l 0,0.6029 c 0.425835,-0.02 0.693362,0.039 0.802582,0.1771 0.109219,0.1381 0.155852,0.476 0.139901,1.0136 l 0,3.4515 c 0.01504,0.5401 -0.03345,0.888 -0.145422,1.0438 -0.111982,0.1557 -0.377669,0.2248 -0.797061,0.2072 l 0,0.633 3.990823,0 0,-0.633 c -0.377672,0.017 -0.620042,-0.051 -0.727111,-0.2054 -0.107076,-0.1541 -0.154322,-0.4977 -0.141739,-1.0305 l 0,-5.8631 z"
           style="font-size:15.07241725999999993px;font-style:normal;font-variant:normal;font-weight:900;font-stretch:normal;text-align:start;line-height:125%;letter-spacing:0px;word-spacing:0px;writing-mode:lr-tb;text-anchor:start;fill:url(#linearGradient3798);fill-opacity:1;stroke:none;display:inline;font-family:Kozuka Mincho Pr6N H;-inkscape-font-specification:Kozuka Mincho Pr6N H Heavy"
           id="path5058-7"
           inkscape:connector-curvature="0" />
      </g>
      <text
         xml:space="preserve"
         style="font-size:15.07241726px;font-style:normal;font-variant:normal;font-weight:900;font-stretch:normal;text-align:start;line-height:125%;letter-spacing:0px;word-spacing:0px;writing-mode:lr-tb;text-anchor:start;fill:url(#linearGradient5028);fill-opacity:1;stroke:none;display:inline;font-family:Kozuka Mincho Pr6N H;-inkscape-font-specification:Kozuka Mincho Pr6N H Heavy"
         x="50.288464"
         y="1117.2119"
         id="text4140-1-8-1"
         sodipodi:linespacing="125%"><tspan
           sodipodi:role="line"
           id="tspan4142-7-8-7"
           x="50.288464"
           y="1117.2119"
           style="fill:url(#linearGradient5028);fill-opacity:1">Kozuka Mincho Pr6N H</tspan></text>
    </g>
  </g>
</svg>
