<?xml version="1.0" encoding="UTF-8" standalone="no"?>
<!-- Created with Inkscape (http://www.inkscape.org/) -->

<svg
   xmlns:dc="http://purl.org/dc/elements/1.1/"
   xmlns:cc="http://creativecommons.org/ns#"
   xmlns:rdf="http://www.w3.org/1999/02/22-rdf-syntax-ns#"
   xmlns:svg="http://www.w3.org/2000/svg"
   xmlns="http://www.w3.org/2000/svg"
   xmlns:xlink="http://www.w3.org/1999/xlink"
   xmlns:sodipodi="http://sodipodi.sourceforge.net/DTD/sodipodi-0.dtd"
   xmlns:inkscape="http://www.inkscape.org/namespaces/inkscape"
   width="16"
   height="16"
   id="svg2"
   version="1.1"
   inkscape:version="0.48.5 r10040"
   sodipodi:docname="javadoc_location_attrib.svg">
  <defs
     id="defs4">
    <linearGradient
       inkscape:collect="always"
       xlink:href="#linearGradient4902-3"
       id="linearGradient4908-2"
       x1="10.544736"
       y1="1038.5779"
       x2="10.544736"
       y2="1052.3228"
       gradientUnits="userSpaceOnUse"
       gradientTransform="translate(-1.977903,-1.044194)" />
    <linearGradient
       inkscape:collect="always"
       id="linearGradient4902-3">
      <stop
         style="stop-color:#b28a30;stop-opacity:1"
         offset="0"
         id="stop4904-2" />
      <stop
         style="stop-color:#7c703e;stop-opacity:1"
         offset="1"
         id="stop4906-2" />
    </linearGradient>
    <linearGradient
       inkscape:collect="always"
       xlink:href="#linearGradient4894-6"
       id="linearGradient4900-1"
       x1="7.9987183"
       y1="1042.2307"
       x2="9.9874563"
       y2="1040.3303"
       gradientUnits="userSpaceOnUse"
       gradientTransform="translate(2.022097,-1.044194)" />
    <linearGradient
       inkscape:collect="always"
       id="linearGradient4894-6">
      <stop
         style="stop-color:#e0c88f;stop-opacity:1"
         offset="0"
         id="stop4896-8" />
      <stop
         style="stop-color:#d5b269;stop-opacity:1"
         offset="1"
         id="stop4898-5" />
    </linearGradient>
    <linearGradient
       inkscape:collect="always"
       id="linearGradient4994-6">
      <stop
         style="stop-color:#f9fafc;stop-opacity:1;"
         offset="0"
         id="stop4996-1" />
      <stop
         style="stop-color:#dce7f7;stop-opacity:1"
         offset="1"
         id="stop4998-89" />
    </linearGradient>
    <linearGradient
       y2="1051.8378"
       x2="9.8946028"
       y1="1039.153"
       x1="9.8946028"
       gradientUnits="userSpaceOnUse"
       id="linearGradient4101"
       xlink:href="#linearGradient4994-6"
       inkscape:collect="always"
       gradientTransform="translate(-1.977903,-1.044194)" />
    <filter
       inkscape:collect="always"
       id="filter4875"
       x="-0.17896049"
       width="1.357921"
       y="-0.18105166"
       height="1.3621033">
      <feGaussianBlur
         inkscape:collect="always"
         stdDeviation="0.71366792"
         id="feGaussianBlur4877" />
    </filter>
    <mask
       maskUnits="userSpaceOnUse"
       id="mask4917">
      <path
         style="fill:#ffffff;stroke:#ffffff;stroke-width:1;stroke-linecap:butt;stroke-linejoin:miter;stroke-miterlimit:4;stroke-opacity:1;stroke-dashoffset:0;display:inline"
         d="m 3.5193795,1037.8597 7.0096695,0 3.062057,3.0066 0,9.9546 -10.0717265,0 z"
         id="path4919"
         inkscape:connector-curvature="0"
         sodipodi:nodetypes="cccccc" />
    </mask>
  </defs>
  <sodipodi:namedview
     id="base"
     pagecolor="#ffffff"
     bordercolor="#666666"
     borderopacity="1.0"
     inkscape:pageopacity="0.0"
     inkscape:pageshadow="2"
     inkscape:zoom="42.6875"
     inkscape:cx="4.4834794"
     inkscape:cy="6.7865478"
     inkscape:document-units="px"
     inkscape:current-layer="layer1"
     showgrid="true"
     inkscape:window-width="1280"
     inkscape:window-height="900"
     inkscape:window-x="1233"
     inkscape:window-y="570"
     inkscape:window-maximized="0"
     showguides="true"
     inkscape:guide-bbox="true"
     inkscape:snap-global="false">
    <inkscape:grid
       type="xygrid"
       id="grid3999" />
  </sodipodi:namedview>
  <metadata
     id="metadata7">
    <rdf:RDF>
      <cc:Work
         rdf:about="">
        <dc:format>image/svg+xml</dc:format>
        <dc:type
           rdf:resource="http://purl.org/dc/dcmitype/StillImage" />
        <dc:title />
      </cc:Work>
    </rdf:RDF>
  </metadata>
  <g
     inkscape:label="Layer 1"
     inkscape:groupmode="layer"
     id="layer1"
     style="display:inline"
     transform="translate(0,-1036.3622)">
    <path
       style="fill:url(#linearGradient4101);fill-opacity:1;stroke:none;display:inline"
       d="m 3.5193795,1037.8597 7.0096695,0 3.062057,3.0066 0,9.9546 -10.0717265,0 z"
       id="rect4001-3"
       inkscape:connector-curvature="0"
       sodipodi:nodetypes="cccccc" />
    <path
       style="fill:url(#linearGradient4900-1);fill-opacity:1;stroke:none;display:inline"
       d="m 9.998718,1037.397 0,3.9112 3.977478,0 z"
       id="path4884"
       inkscape:connector-curvature="0" />
    <path
       style="fill:none;stroke:url(#linearGradient4908-2);stroke-width:1;stroke-linecap:butt;stroke-linejoin:miter;stroke-miterlimit:4;stroke-opacity:1;stroke-dashoffset:0;display:inline"
       d="m 3.5193795,1037.8597 7.0096695,0 3.062057,3.0066 0,9.9546 -10.0717265,0 z"
       id="rect4001"
       inkscape:connector-curvature="0"
       sodipodi:nodetypes="cccccc" />
    <g
       id="g4913"
       mask="url(#mask4917)">
      <g
         transform="translate(17.171238,-0.006311)"
         id="text3909-7-7-1-1"
         style="font-size:11.05178356000000100px;font-style:normal;font-variant:normal;font-weight:normal;font-stretch:normal;text-align:start;line-height:125%;letter-spacing:0px;word-spacing:0px;writing-mode:lr-tb;text-anchor:start;fill:#ffffff;fill-opacity:1;stroke:#ffffff;stroke-width:1.50000000000000000;stroke-miterlimit:4;stroke-opacity:1;display:inline;font-family:AustralianFlyingCorpsStencil;-inkscape-font-specification:AustralianFlyingCorpsStencil;stroke-dasharray:none;filter:url(#filter4875);opacity:0.75">
        <path
           style="fill:#ffffff;stroke:#ffffff;stroke-width:1.50000000000000000;stroke-miterlimit:4;stroke-dasharray:none"
           inkscape:connector-curvature="0"
           id="path4719-7"
           d="m -7.2191854,1043.532 c -9.8e-6,0.8694 -0.2357809,1.6504 -0.7073142,2.343 -0.5231262,0.7883 -1.2009683,1.1825 -2.0335281,1.1825 -0.3315603,0 -0.6115383,-0.085 -0.8399353,-0.2542 -0.250513,-0.1916 -0.379451,-0.4494 -0.386813,-0.7736 -0.397869,0.6778 -0.902567,1.0167 -1.514094,1.0167 -0.552593,0 -0.987296,-0.1694 -1.304111,-0.5083 -0.31682,-0.3463 -0.475229,-0.7995 -0.475226,-1.3594 -3e-6,-0.7736 0.279976,-1.4699 0.839935,-2.0888 0.559953,-0.6189 1.219376,-0.9283 1.97827,-0.9283 0.729411,0 1.123591,0.3094 1.18254,0.9283 l 0.24314,-0.8068 1.259903,0 c -0.2063077,0.6558 -0.4089236,1.3115 -0.6078481,1.9672 -0.2799856,0.9358 -0.4199749,1.5657 -0.4199679,1.8899 -7e-6,0.3389 0.1215627,0.5084 0.364709,0.5084 0.1105104,0 0.2615513,-0.059 0.4531231,-0.1769 1.0167553,-0.6262 1.5251368,-1.6025 1.5251461,-2.9287 -9.3e-6,-1.0241 -0.3462981,-1.8382 -1.0388676,-2.4424 -0.6631146,-0.5673 -1.5141016,-0.851 -2.5529616,-0.851 -1.304115,0 -2.379821,0.4605 -3.227121,1.3815 -0.817834,0.8915 -1.226749,1.9967 -1.226748,3.3155 -10e-7,1.201 0.372075,2.144 1.11623,2.8293 0.714679,0.6557 1.679867,0.9836 2.895567,0.9836 1.090437,0 2.232453,-0.3721 3.4260531,-1.1163 l 0.2431393,0.3537 c -1.0757148,0.8252 -2.2914094,1.2378 -3.6470884,1.2378 -1.473575,0 -2.674534,-0.361 -3.602882,-1.0831 -1.009397,-0.7957 -1.514094,-1.9119 -1.514094,-3.3487 0,-1.4514 0.545221,-2.6598 1.635664,-3.625 1.0536,-0.9357 2.313503,-1.4035 3.77971,-1.4035 1.200954,0 2.1808775,0.3205 2.9397744,0.9615 0.8104548,0.6926 1.2156864,1.6246 1.2156962,2.7961 m -3.6139336,-0.3537 c -6e-6,-0.361 -0.162098,-0.5415 -0.486278,-0.5415 -0.456812,0 -0.869412,0.4236 -1.2378,1.2709 -0.32419,0.7295 -0.486282,1.3594 -0.486278,1.8899 -4e-6,0.5084 0.198928,0.7626 0.596796,0.7626 0.397859,0 0.780987,-0.4716 1.149385,-1.4147 0.309444,-0.8104 0.464169,-1.4662 0.464175,-1.9672" />
      </g>
    </g>
    <path
       style="fill:#ffffff;fill-opacity:1;stroke:none"
       d="m 9.0072318,1048.5889 0,-2.05 0.6911577,-2.0245 -0.2047875,-2.3576 -0.8703466,-1.025 -1.6894965,-0.8969 -1.9966776,-0.3588 -2.4830477,0.7944 c 0,0 -2.02227604,2.4857 -2.02227604,2.6395 0,0.1537 -0.20478745,3.9208 -0.0767951,3.972 0.12799215,0.051 0.89594513,1.1019 0.89594513,1.1019 l 1.075134,0.6919 1.3567169,0.6151 1.6127011,0.2818 1.5871027,-0.3843 c 0,0 1.0495356,-0.4101 1.2031263,-0.4101 0.1535906,0 0.9215434,-0.5894 0.9215434,-0.5894 z"
       id="path3007"
       inkscape:connector-curvature="0" />
    <g
       style="font-size:11.05178356px;font-style:normal;font-variant:normal;font-weight:normal;font-stretch:normal;text-align:start;line-height:125%;letter-spacing:0px;word-spacing:0px;writing-mode:lr-tb;text-anchor:start;fill:#005597;fill-opacity:1;stroke:#005597;stroke-width:0.1;stroke-miterlimit:4;stroke-opacity:1;display:inline;font-family:AustralianFlyingCorpsStencil;-inkscape-font-specification:AustralianFlyingCorpsStencil"
       id="text3909-7-7-1"
       transform="translate(17.171238,-0.00631064)">
      <path
         d="m -7.2237588,1043.7401 c -1e-5,0.9975 -0.2419038,1.8936 -0.725682,2.6882 -0.536711,0.9045 -1.2321556,1.3567 -2.0863352,1.3567 -0.340171,0 -0.627419,-0.097 -0.861748,-0.2916 -0.257018,-0.2198 -0.389304,-0.5156 -0.396858,-0.8876 -0.408201,0.7777 -0.926005,1.1665 -1.553412,1.1665 -0.566943,0 -1.012935,-0.1944 -1.337976,-0.5832 -0.325048,-0.3974 -0.487571,-0.9173 -0.487568,-1.5596 -3e-6,-0.8876 0.287247,-1.6865 0.861747,-2.3966 0.574494,-0.7102 1.251042,-1.0651 2.029642,-1.0651 0.748353,0 1.15277,0.3549 1.21325,1.0651 l 0.249454,-0.9258 1.29262,0 c -0.2116652,0.7525 -0.4195427,1.5048 -0.6236329,2.2572 -0.2872564,1.0736 -0.4308811,1.7964 -0.4308741,2.1683 -7e-6,0.3888 0.1247197,0.5833 0.3741801,0.5833 0.1133802,0 0.2683434,-0.068 0.4648901,-0.203 1.0431588,-0.7185 1.5647421,-1.8386 1.5647517,-3.3602 -9.6e-6,-1.175 -0.355291,-2.109 -1.0658454,-2.8023 -0.6803347,-0.6508 -1.5534205,-0.9763 -2.6192585,-0.9763 -1.337981,0 -2.44162,0.5283 -3.310924,1.585 -0.839071,1.0228 -1.258606,2.2909 -1.258605,3.804 -10e-7,1.3779 0.381737,2.4599 1.145217,3.2462 0.733238,0.7523 1.723491,1.1285 2.970761,1.1285 1.118753,0 2.2904259,-0.4269 3.5150219,-1.2808 l 0.2494533,0.4058 c -1.1036494,0.9468 -2.3509132,1.4202 -3.7417972,1.4202 -1.511842,0 -2.743988,-0.4142 -3.696444,-1.2427 -1.035609,-0.9129 -1.553412,-2.1936 -1.553412,-3.842 0,-1.6653 0.559379,-3.0517 1.67814,-4.1591 1.08096,-1.0736 2.37358,-1.6104 3.877863,-1.6104 1.232141,0 2.237511,0.3678 3.0161153,1.1032 0.8315011,0.7947 1.2472559,1.864 1.2472659,3.2081 m -3.7077822,-0.4058 c -6e-6,-0.4142 -0.166307,-0.6213 -0.498905,-0.6213 -0.468675,0 -0.89199,0.486 -1.269945,1.4582 -0.332608,0.837 -0.498909,1.5596 -0.498905,2.1683 -4e-6,0.5833 0.204094,0.875 0.612294,0.875 0.408191,0 0.801268,-0.5411 1.179233,-1.6232 0.31748,-0.9298 0.476222,-1.6822 0.476228,-2.257"
         id="path4719"
         inkscape:connector-curvature="0"
         style="stroke-width:0.10849548" />
    </g>
  </g>
</svg>
