<?xml version="1.0" encoding="UTF-8" standalone="no"?>
<!-- Created with Inkscape (http://www.inkscape.org/) -->

<svg
   xmlns:dc="http://purl.org/dc/elements/1.1/"
   xmlns:cc="http://creativecommons.org/ns#"
   xmlns:rdf="http://www.w3.org/1999/02/22-rdf-syntax-ns#"
   xmlns:svg="http://www.w3.org/2000/svg"
   xmlns="http://www.w3.org/2000/svg"
   xmlns:xlink="http://www.w3.org/1999/xlink"
   xmlns:sodipodi="http://sodipodi.sourceforge.net/DTD/sodipodi-0.dtd"
   xmlns:inkscape="http://www.inkscape.org/namespaces/inkscape"
   width="16"
   height="16"
   id="svg2"
   version="1.1"
   inkscape:version="0.48.0 r9654"
   sodipodi:docname="nls_search_obj.svg">
  <defs
     id="defs4">
    <linearGradient
       inkscape:collect="always"
       id="linearGradient5184">
      <stop
         style="stop-color:#7d6f79;stop-opacity:1"
         offset="0"
         id="stop5186" />
      <stop
         style="stop-color:#aaa2a9;stop-opacity:1"
         offset="1"
         id="stop5188" />
    </linearGradient>
    <linearGradient
       inkscape:collect="always"
       id="linearGradient5448">
      <stop
         style="stop-color:#ad8e5f;stop-opacity:1"
         offset="0"
         id="stop5450" />
      <stop
         style="stop-color:#8f6e4d;stop-opacity:1"
         offset="1"
         id="stop5452" />
    </linearGradient>
    <linearGradient
       inkscape:collect="always"
       id="linearGradient5440">
      <stop
         style="stop-color:#ad8e5f;stop-opacity:1"
         offset="0"
         id="stop5442" />
      <stop
         style="stop-color:#8f6e4d;stop-opacity:1"
         offset="1"
         id="stop5444" />
    </linearGradient>
    <linearGradient
       id="linearGradient5428">
      <stop
         style="stop-color:#f0a53b;stop-opacity:1;"
         offset="0"
         id="stop5430" />
      <stop
         id="stop5438"
         offset="0.26895422"
         style="stop-color:#f2d58f;stop-opacity:1" />
      <stop
         id="stop5436"
         offset="0.60424823"
         style="stop-color:#efb965;stop-opacity:1" />
      <stop
         style="stop-color:#df9833;stop-opacity:1"
         offset="1"
         id="stop5432" />
    </linearGradient>
    <linearGradient
       id="linearGradient5378">
      <stop
         id="stop5380"
         offset="0"
         style="stop-color:#f4d684;stop-opacity:1" />
      <stop
         style="stop-color:#fcf4c6;stop-opacity:1"
         offset="0.25"
         id="stop5382" />
      <stop
         style="stop-color:#fbeebc;stop-opacity:1"
         offset="0.5"
         id="stop5384" />
      <stop
         id="stop5386"
         offset="1"
         style="stop-color:#eeb960;stop-opacity:1" />
    </linearGradient>
    <linearGradient
       inkscape:collect="always"
       id="linearGradient5351">
      <stop
         style="stop-color:#e4a239;stop-opacity:1;"
         offset="0"
         id="stop5353" />
      <stop
         style="stop-color:#fada7d;stop-opacity:1"
         offset="1"
         id="stop5355" />
    </linearGradient>
    <linearGradient
       id="linearGradient5331">
      <stop
         style="stop-color:#fef48d;stop-opacity:1"
         offset="0"
         id="stop5333" />
      <stop
         id="stop5341"
         offset="0.3251386"
         style="stop-color:#fffffe;stop-opacity:1" />
      <stop
         id="stop5339"
         offset="0.66393197"
         style="stop-color:#fffffe;stop-opacity:1" />
      <stop
         style="stop-color:#fef48d;stop-opacity:1"
         offset="1"
         id="stop5335" />
    </linearGradient>
    <linearGradient
       id="linearGradient5206">
      <stop
         style="stop-color:#bbb8bb;stop-opacity:1"
         offset="0"
         id="stop5208" />
      <stop
         id="stop5216"
         offset="0.25"
         style="stop-color:#ccc8cb;stop-opacity:1" />
      <stop
         id="stop5214"
         offset="0.5"
         style="stop-color:#bdb6bc;stop-opacity:1" />
      <stop
         style="stop-color:#9b8c98;stop-opacity:1"
         offset="1"
         id="stop5210" />
    </linearGradient>
    <linearGradient
       inkscape:collect="always"
       id="linearGradient5109">
      <stop
         style="stop-color:#906f4e;stop-opacity:1"
         offset="0"
         id="stop5111" />
      <stop
         style="stop-color:#dfbd7f;stop-opacity:1"
         offset="1"
         id="stop5113" />
    </linearGradient>
    <linearGradient
       inkscape:collect="always"
       xlink:href="#linearGradient5109"
       id="linearGradient5368"
       gradientUnits="userSpaceOnUse"
       gradientTransform="translate(1.3742784e-7,-0.01182114)"
       x1="29.714636"
       y1="1041.3262"
       x2="29.714636"
       y2="1039.1387" />
    <linearGradient
       inkscape:collect="always"
       xlink:href="#linearGradient5378"
       id="linearGradient5370"
       gradientUnits="userSpaceOnUse"
       x1="27.009878"
       y1="1046.1316"
       x2="32.176903"
       y2="1046.1316" />
    <linearGradient
       inkscape:collect="always"
       xlink:href="#linearGradient5331"
       id="linearGradient5372"
       gradientUnits="userSpaceOnUse"
       x1="26.880592"
       y1="1056.9694"
       x2="32.471878"
       y2="1056.9694" />
    <linearGradient
       inkscape:collect="always"
       xlink:href="#linearGradient5351"
       id="linearGradient5374"
       gradientUnits="userSpaceOnUse"
       x1="25.982219"
       y1="1056.9694"
       x2="33.275511"
       y2="1056.9694" />
    <linearGradient
       inkscape:collect="always"
       xlink:href="#linearGradient5206"
       id="linearGradient5376"
       gradientUnits="userSpaceOnUse"
       gradientTransform="translate(1.3742784e-7,-4.4137428e-5)"
       x1="26.45211"
       y1="1052.0043"
       x2="32.842041"
       y2="1052.0043" />
    <linearGradient
       inkscape:collect="always"
       xlink:href="#linearGradient5428"
       id="linearGradient5434"
       x1="26.107269"
       y1="1045.9496"
       x2="33.162997"
       y2="1045.9496"
       gradientUnits="userSpaceOnUse" />
    <linearGradient
       inkscape:collect="always"
       xlink:href="#linearGradient5440"
       id="linearGradient5446"
       x1="25.367371"
       y1="1051.4068"
       x2="33.890359"
       y2="1051.4068"
       gradientUnits="userSpaceOnUse" />
    <linearGradient
       inkscape:collect="always"
       xlink:href="#linearGradient5448"
       id="linearGradient5454"
       x1="25.367543"
       y1="1054.8198"
       x2="33.890187"
       y2="1054.8198"
       gradientUnits="userSpaceOnUse" />
    <radialGradient
       inkscape:collect="always"
       xlink:href="#linearGradient8374"
       id="radialGradient8380"
       cx="-1022.4374"
       cy="440.14304"
       fx="-1022.4374"
       fy="440.14304"
       r="232.85715"
       gradientUnits="userSpaceOnUse"
       gradientTransform="matrix(1.3824195,0,0,1.3824195,391.00002,-168.31929)" />
    <linearGradient
       inkscape:collect="always"
       id="linearGradient8374">
      <stop
         style="stop-color:#6fd9ff;stop-opacity:1"
         offset="0"
         id="stop8376" />
      <stop
         style="stop-color:#4364a7;stop-opacity:1"
         offset="1"
         id="stop8378" />
    </linearGradient>
    <linearGradient
       inkscape:collect="always"
       xlink:href="#linearGradient8382"
       id="linearGradient8388"
       x1="9.3787851"
       y1="7.2738252"
       x2="14.059898"
       y2="12.665515"
       gradientUnits="userSpaceOnUse"
       gradientTransform="matrix(291.00443,0,0,291.00443,-5596.7922,-2906.466)" />
    <linearGradient
       id="linearGradient8382">
      <stop
         style="stop-color:#fffcf2;stop-opacity:1"
         offset="0"
         id="stop8384" />
      <stop
         id="stop8392"
         offset="0.35072023"
         style="stop-color:#adc977;stop-opacity:1" />
      <stop
         id="stop8390"
         offset="0.7120198"
         style="stop-color:#7f9f3f;stop-opacity:1" />
      <stop
         style="stop-color:#77775c;stop-opacity:1"
         offset="1"
         id="stop8386" />
    </linearGradient>
    <linearGradient
       inkscape:collect="always"
       id="linearGradient8349">
      <stop
         style="stop-color:#ffffff;stop-opacity:1;"
         offset="0"
         id="stop8351" />
      <stop
         style="stop-color:#ffffff;stop-opacity:0;"
         offset="1"
         id="stop8353" />
    </linearGradient>
    <radialGradient
       r="232.85715"
       fy="395.31625"
       fx="-992.8103"
       cy="395.31625"
       cx="-992.8103"
       gradientTransform="matrix(0.79448227,-0.50275619,0.3921194,0.61964809,-359.0513,-348.78223)"
       gradientUnits="userSpaceOnUse"
       id="radialGradient7906"
       xlink:href="#linearGradient8349"
       inkscape:collect="always" />
    <linearGradient
       inkscape:collect="always"
       xlink:href="#linearGradient5184"
       id="linearGradient5190"
       x1="3.6013324"
       y1="3.5372436"
       x2="5.583477"
       y2="1.5550991"
       gradientUnits="userSpaceOnUse" />
    <mask
       maskUnits="userSpaceOnUse"
       id="mask5504">
      <g
         style="fill:#ffffff;stroke:#ffffff;display:inline"
         id="g5506"
         transform="matrix(0.67171308,0.67171308,-0.67171308,0.67171308,694.64989,319.66946)">
        <path
           sodipodi:nodetypes="ccccc"
           inkscape:connector-curvature="0"
           id="path5508"
           d="m 28.565245,1040.0695 -1.069887,2.1398 4.279549,0 -1.069887,-2.1398 c -0.472828,-0.9477 -1.844257,-0.7625 -2.139775,0 z"
           style="fill:#ffffff;stroke:#ffffff;stroke-width:1.06988704;stroke-miterlimit:4;stroke-opacity:1;stroke-dasharray:none;display:inline" />
        <path
           sodipodi:nodetypes="ccccc"
           inkscape:connector-curvature="0"
           id="path5510"
           d="m 26.607269,1042.2428 c 1.259438,-1.6377 4.858466,-1.5046 6.055728,0 l 0,8.5925 -6.055728,0 z"
           style="fill:#ffffff;fill-opacity:1;stroke:#ffffff;stroke-opacity:1" />
        <path
           sodipodi:nodetypes="ccccc"
           inkscape:connector-curvature="0"
           id="path5512"
           d="m 29.411544,1042.9075 c -0.368467,0.01 -0.72715,0.043 -1.069887,0.1003 l 0,2.4073 c 0.342737,-0.057 0.70142,-0.09 1.069887,-0.1003 z"
           style="font-size:medium;font-style:normal;font-variant:normal;font-weight:normal;font-stretch:normal;text-indent:0;text-align:start;text-decoration:none;line-height:normal;letter-spacing:normal;word-spacing:normal;text-transform:none;direction:ltr;block-progression:tb;writing-mode:lr-tb;text-anchor:start;baseline-shift:baseline;color:#000000;fill:#ffffff;fill-opacity:1;stroke:#ffffff;stroke-width:1px;marker:none;visibility:visible;display:inline;overflow:visible;enable-background:accumulate;font-family:Sans;-inkscape-font-specification:Sans" />
        <path
           sodipodi:nodetypes="sccccs"
           inkscape:connector-curvature="0"
           id="path5514"
           d="m 29.645582,1053.51 c -1.546954,0 -3.096933,0.3554 -3.778039,1.0365 l 0,0.5683 c 1.362214,1.3622 6.178977,1.3438 7.522644,0 l 0,-0.5683 c -0.671834,-0.6719 -2.197651,-1.0342 -3.744605,-1.0365 z"
           style="fill:#ffffff;fill-opacity:1;stroke:#ffffff;stroke-width:1;stroke-opacity:1;display:inline" />
        <path
           sodipodi:nodetypes="ccccc"
           inkscape:connector-curvature="0"
           id="path5516"
           d="m 26.422196,1052.4196 0,12.1257 6.413338,0 0,-12.1257 z"
           style="fill:#ffffff;fill-opacity:1;stroke:#ffffff;stroke-width:0.87995493;stroke-opacity:1;display:inline" />
        <path
           inkscape:connector-curvature="0"
           id="path5518"
           d="m 25.867543,1050.1666 0,4.3799 c 1.778049,-1.9187 5.89609,-1.8666 7.522644,0 l 0,-4.3799 c -1.258456,-2.537 -6.051006,-2.5281 -7.522644,0 z"
           style="fill:#ffffff;fill-opacity:1;stroke:#ffffff;stroke-width:1.0003444;stroke-linejoin:round;stroke-miterlimit:3;stroke-opacity:1;stroke-dasharray:none;display:inline"
           sodipodi:nodetypes="ccccc" />
      </g>
    </mask>
    <filter
       inkscape:collect="always"
       id="filter5520"
       x="-0.19949992"
       width="1.3989998"
       y="-0.16397266"
       height="1.3279453">
      <feGaussianBlur
         inkscape:collect="always"
         stdDeviation="0.72762114"
         id="feGaussianBlur5522" />
    </filter>
  </defs>
  <sodipodi:namedview
     id="base"
     pagecolor="#ffffff"
     bordercolor="#666666"
     borderopacity="1.0"
     inkscape:pageopacity="0.0"
     inkscape:pageshadow="2"
     inkscape:zoom="2.8284273"
     inkscape:cx="-109.29123"
     inkscape:cy="72.969974"
     inkscape:document-units="px"
     inkscape:current-layer="g8421"
     showgrid="true"
     inkscape:window-width="472"
     inkscape:window-height="455"
     inkscape:window-x="125"
     inkscape:window-y="125"
     inkscape:window-maximized="0"
     showguides="true"
     inkscape:guide-bbox="true"
     inkscape:snap-global="true">
    <inkscape:grid
       type="xygrid"
       id="grid4161" />
  </sodipodi:namedview>
  <metadata
     id="metadata7">
    <rdf:RDF>
      <cc:Work
         rdf:about="">
        <dc:format>image/svg+xml</dc:format>
        <dc:type
           rdf:resource="http://purl.org/dc/dcmitype/StillImage" />
        <dc:title />
      </cc:Work>
    </rdf:RDF>
  </metadata>
  <g
     inkscape:label="Layer 1"
     inkscape:groupmode="layer"
     id="layer1"
     style="display:inline"
     transform="translate(0,-1036.3622)">
    <g
       style="display:inline"
       id="g8472"
       transform="matrix(0.9346781,0,0,0.9346781,-14.571811,69.044514)">
      <g
         transform="translate(15.600543,0)"
         id="g8421">
        <g
           id="g5359"
           transform="matrix(0.67171308,0.67171308,-0.67171308,0.67171308,694.64989,319.66946)">
          <path
             sodipodi:nodetypes="ccccc"
             inkscape:connector-curvature="0"
             id="rect4221-4"
             d="m 28.565245,1040.0695 -1.069887,2.1398 4.279549,0 -1.069887,-2.1398 c -0.472828,-0.9477 -1.844257,-0.7625 -2.139775,0 z"
             style="fill:none;stroke:url(#linearGradient5368);stroke-width:1.06988704;stroke-miterlimit:4;stroke-opacity:1;stroke-dasharray:none;display:inline" />
          <path
             sodipodi:nodetypes="ccccc"
             inkscape:connector-curvature="0"
             id="rect4221"
             d="m 26.607269,1042.2428 c 1.259438,-1.6377 4.858466,-1.5046 6.055728,0 l 0,8.5925 -6.055728,0 z"
             style="fill:url(#linearGradient5370);fill-opacity:1;stroke:url(#linearGradient5434);stroke-opacity:1" />
          <path
             sodipodi:nodetypes="ccccc"
             inkscape:connector-curvature="0"
             id="path5028"
             d="m 29.411544,1042.9075 c -0.368467,0.01 -0.72715,0.043 -1.069887,0.1003 l 0,2.4073 c 0.342737,-0.057 0.70142,-0.09 1.069887,-0.1003 z"
             style="font-size:medium;font-style:normal;font-variant:normal;font-weight:normal;font-stretch:normal;text-indent:0;text-align:start;text-decoration:none;line-height:normal;letter-spacing:normal;word-spacing:normal;text-transform:none;direction:ltr;block-progression:tb;writing-mode:lr-tb;text-anchor:start;baseline-shift:baseline;color:#000000;fill:#496da1;fill-opacity:1;stroke:none;stroke-width:1px;marker:none;visibility:visible;display:inline;overflow:visible;enable-background:accumulate;font-family:Sans;-inkscape-font-specification:Sans" />
          <path
             sodipodi:nodetypes="sccccs"
             inkscape:connector-curvature="0"
             id="rect4221-7-1"
             d="m 29.645582,1053.51 c -1.546954,0 -3.096933,0.3554 -3.778039,1.0365 l 0,0.5683 c 1.362214,1.3622 6.178977,1.3438 7.522644,0 l 0,-0.5683 c -0.671834,-0.6719 -2.197651,-1.0342 -3.744605,-1.0365 z"
             style="fill:#ffffc9;fill-opacity:1;stroke:url(#linearGradient5454);stroke-width:1;stroke-opacity:1;display:inline" />
          <path
             sodipodi:nodetypes="ccccc"
             inkscape:connector-curvature="0"
             id="rect4221-7-1-2"
             d="m 26.422196,1052.4196 0,12.1257 6.413338,0 0,-12.1257 z"
             style="fill:url(#linearGradient5372);fill-opacity:1;stroke:url(#linearGradient5374);stroke-width:0.87995493;stroke-opacity:1;display:inline" />
          <path
             inkscape:connector-curvature="0"
             id="rect4221-7"
             d="m 25.867543,1050.1666 0,4.3799 c 1.778049,-1.9187 5.89609,-1.8666 7.522644,0 l 0,-4.3799 c -1.258456,-2.537 -6.051006,-2.5281 -7.522644,0 z"
             style="fill:url(#linearGradient5376);fill-opacity:1;stroke:url(#linearGradient5446);stroke-width:1.0003444;stroke-linejoin:round;stroke-miterlimit:3;stroke-opacity:1;stroke-dasharray:none;display:inline"
             sodipodi:nodetypes="ccccc" />
        </g>
        <g
           id="g5495"
           mask="url(#mask5504)"
           style="opacity:0.75">
          <g
             id="g5487"
             style="filter:url(#filter5520)">
            <g
               id="g5480"
               style="fill:#ffffff;stroke:#ffffff;stroke-width:1.06988704000000000;stroke-miterlimit:4;stroke-dasharray:none"
               transform="translate(21.397741,0)">
              <path
                 id="path5477"
                 transform="matrix(1.0698871,0,0,1.0698871,-0.01035104,1034.9207)"
                 d="m -14.46875,1 c -0.652835,-5.842e-5 -1.315972,0.253499 -1.8125,0.75 -0.993056,0.9930955 -0.993055,2.600748 0,3.59375 0.993055,0.9930955 2.600694,0.9930955 3.59375,0 0.993055,-0.993002 0.993055,-2.600748 0,-3.59375 C -13.184028,1.2534523 -13.815915,1.0000584 -14.46875,1 z"
                 style="font-size:medium;font-style:normal;font-variant:normal;font-weight:normal;font-stretch:normal;text-indent:0;text-align:start;text-decoration:none;line-height:normal;letter-spacing:normal;word-spacing:normal;text-transform:none;direction:ltr;block-progression:tb;writing-mode:lr-tb;text-anchor:start;baseline-shift:baseline;color:#000000;fill:#ffffff;fill-opacity:1;fill-rule:nonzero;stroke:#ffffff;stroke-width:0.99999994000000003;stroke-miterlimit:4;stroke-dasharray:none;marker:none;visibility:visible;display:inline;overflow:visible;enable-background:accumulate;font-family:Sans;-inkscape-font-specification:Sans"
                 inkscape:connector-curvature="0" />
              <rect
                 y="1043.4797"
                 x="-16.058657"
                 height="2.1398046"
                 width="1.0698872"
                 id="rect4243-4-2"
                 style="fill:#ffffff;fill-opacity:1;stroke:#ffffff;stroke-width:1.06988704000000000;stroke-miterlimit:4;stroke-dasharray:none;display:inline" />
              <rect
                 y="1044.5497"
                 x="-18.198431"
                 height="1.069887"
                 width="5.3494353"
                 id="rect4243-0"
                 style="fill:#ffffff;fill-opacity:1;stroke:#ffffff;stroke-width:1.06988704000000000;stroke-miterlimit:4;stroke-dasharray:none;display:inline" />
              <path
                 inkscape:connector-curvature="0"
                 id="path4245-1-8"
                 d="m -19.029837,1035.1471 c -1.964435,1.9644 -2.022368,5.1613 -0.05793,7.1257 1.964435,1.9645 5.219254,1.9645 7.183689,0 a 0.52274034,0.52274034 0 0 0 0.05793,-0.1738 0.52274034,0.52274034 0 0 0 0.05793,-0.058 0.52274034,0.52274034 0 0 0 0,-0.1159 0.52274034,0.52274034 0 0 0 0,-0.1158 0.52274034,0.52274034 0 0 0 -0.115866,-0.2318 0.52274034,0.52274034 0 0 0 -0.05793,-0.058 l -3.186313,-3.1863 -3.186314,-3.1863 a 0.52274034,0.52274034 0 0 0 -0.05793,-0.058 0.52274034,0.52274034 0 0 0 -0.05793,-0.058 0.52274034,0.52274034 0 0 0 -0.173799,-0.058 0.52274034,0.52274034 0 0 0 -0.115866,0 0.52274034,0.52274034 0 0 0 -0.231732,0.1158 0.52274034,0.52274034 0 0 0 -0.05793,0.058 z m 0.463464,1.2745 2.664917,2.6649 2.664917,2.6649 c -1.563043,1.1228 -3.691193,1.1752 -5.098102,-0.2317 -1.408451,-1.4084 -1.358493,-3.5347 -0.231732,-5.0981 z"
                 style="font-size:medium;font-style:normal;font-variant:normal;font-weight:normal;font-stretch:normal;text-indent:0;text-align:start;text-decoration:none;line-height:normal;letter-spacing:normal;word-spacing:normal;text-transform:none;direction:ltr;block-progression:tb;writing-mode:lr-tb;text-anchor:start;baseline-shift:baseline;color:#000000;fill:#ffffff;fill-opacity:1;stroke:#ffffff;stroke-width:1.06988704000000000;stroke-miterlimit:4;stroke-dasharray:none;marker:none;visibility:visible;display:inline;overflow:visible;enable-background:accumulate;font-family:Sans;-inkscape-font-specification:Sans" />
              <path
                 id="rect4243-6-9"
                 d="m -18.198431,1044.5497 c -0.592701,0 -1.069887,0.4771 -1.069887,1.0698 l 7.489209,0 c 0,-0.5927 -0.477185,-1.0698 -1.069887,-1.0698 l -5.349435,0 z"
                 style="fill:#ffffff;fill-opacity:1;stroke:#ffffff;stroke-width:1.06988704000000000;stroke-miterlimit:4;stroke-dasharray:none;display:inline"
                 inkscape:connector-curvature="0" />
            </g>
          </g>
        </g>
        <rect
           style="fill:#7d6f79;fill-opacity:1;stroke:none;display:inline"
           id="rect4243-4"
           width="1.0698872"
           height="2.1398048"
           x="5.3390841"
           y="1043.4797" />
        <rect
           style="fill:#958892;fill-opacity:1;stroke:none;stroke-width:2;stroke-linecap:round;stroke-linejoin:round;stroke-miterlimit:4;stroke-opacity:1;stroke-dasharray:none"
           id="rect4243"
           width="5"
           height="1"
           x="3"
           y="9"
           transform="matrix(1.0698871,0,0,1.0698871,-0.01035104,1034.9207)" />
        <path
           sodipodi:type="arc"
           style="fill:none;stroke:url(#linearGradient5190);stroke-width:0.39873263;stroke-linecap:round;stroke-linejoin:round;stroke-miterlimit:4;stroke-opacity:1;stroke-dasharray:none;display:inline"
           id="path4245-1"
           sodipodi:cx="5.5242715"
           sodipodi:cy="3.5372436"
           sodipodi:rx="1.7235727"
           sodipodi:ry="1.7235727"
           d="m 5.5242715,5.2608163 c -0.9519029,1e-7 -1.7235727,-0.7716697 -1.7235727,-1.7235726 -1e-7,-0.951903 0.7716697,-1.7235728 1.7235726,-1.7235728 1e-7,0 1e-7,0 1e-7,0 l 0,1.7235727 z"
           transform="matrix(1.8538553,-1.8538553,1.8538553,1.8538553,-10.898748,1042.3887)"
           sodipodi:start="1.5707963"
           sodipodi:end="4.712389" />
        <g
           id="g5073"
           transform="matrix(1.0698871,0,0,1.0698871,-0.01035104,1034.9207)" />
        <g
           id="g5084"
           transform="matrix(1.0698871,0,0,1.0698871,-0.01035104,1034.9207)" />
        <g
           id="g5095"
           transform="matrix(1.0698871,0,0,1.0698871,-0.01035104,1034.9207)" />
        <g
           style="display:inline"
           transform="matrix(0.0013164,-0.0013164,0.0013164,0.0013164,8.6623152,1035.5493)"
           id="g3894">
          <path
             transform="matrix(5.0547893,0,0,5.0547893,2315.9335,-2512.6526)"
             d="m -669.99997,526.64789 c 0,128.60345 -104.2537,232.85715 -232.85715,232.85715 -128.60348,0 -232.85718,-104.2537 -232.85718,-232.85715 0,-128.60345 104.2537,-232.85715 232.85718,-232.85715 128.60345,0 232.85715,104.2537 232.85715,232.85715 z"
             sodipodi:ry="232.85715"
             sodipodi:rx="232.85715"
             sodipodi:cy="526.64789"
             sodipodi:cx="-902.85712"
             id="path3800-3-8"
             style="fill:url(#radialGradient8380);fill-opacity:1;stroke:none"
             sodipodi:type="arc" />
          <path
             style="fill:url(#linearGradient8388);fill-opacity:1;stroke:none;display:inline"
             d="m -2122.9267,-1014.9371 c -16.8317,-0.038 -29.539,4.911 0,9.0939 20.51,2.7849 -11.7158,12.13751 18.1878,9.09389 15.141,-13.02679 -3.3379,-18.15339 -18.1878,-18.18779 z m -363.7555,9.0939 c -16.2818,3.332 -29.4398,14.19112 -45.4695,18.18778 33.6701,-8.46445 65.2808,-12.69478 100.0328,-18.18778 -17.8531,2.8024 -36.9852,-3.5971 -54.5633,0 z m 145.5021,0 c -20.3062,3.8936 -25.2882,7.43953 0,9.09389 17.2712,-7.97699 18.0453,-9.65549 27.2818,-9.09389 -10.1212,1.3037 -18.7524,-1.6354 -27.2818,0 z m 327.38,0 c -1.8333,-0.1523 -7.4205,9.22105 -9.0938,9.09389 -3.233,6.13787 -26.045,9.81296 9.0938,9.09389 0.9604,3.84796 2.881,13.30123 9.0939,9.09389 2.3281,-3.67598 3.9927,-15.42701 9.0939,-18.18778 -6.4108,-1.42592 -11.739,-7.77389 -18.1878,-9.09389 z m -227.3471,9.09389 c -4.8656,0.10431 -6.8823,10.32455 -9.0939,18.18778 -19.4566,-13.24739 -59.8794,-10.91965 -72.7511,-9.09389 -11.1804,5.44556 -10.0688,11.10619 27.2817,9.09389 20.9348,-0.44233 -3.012,6.39133 -18.1878,9.09389 4.5338,0.40158 3.5706,0.20501 18.1878,0 19.9017,-0.21069 125.2264,-11.03227 63.6571,-18.18778 4.7376,-8.19731 -5.3427,-8.91026 -9.0938,-9.09389 z m 145.5022,0 c -2.2699,2.88676 4.397,9.6631 27.2816,9.09389 6.3294,-8.45368 7.3828,-9.19021 0,-9.09389 -7.5573,0.0988 -25.0031,-2.88676 -27.2816,0 z m -90.9389,9.09389 c -3.0236,0.11911 0.015,7.83588 0,9.09389 0,0 9.0938,0 9.0938,0 0,0 -9.0938,-9.09389 -9.0938,-9.09389 z m 9.0938,9.09389 c -9.3267,1.61798 -8.797,6.55749 18.1878,9.09389 -6.5126,1.14365 -24.9419,12.3767 9.094,9.09388 26.6967,-8.1781 35.4754,-27.56918 9.0939,-27.28166 -2.7355,0.0298 -5.6049,8.68997 -9.0939,9.09389 3.3669,3.44898 -17.9551,-1.61799 -27.2818,0 z m 227.3473,-9.09389 c -2.7937,3.5488 -7.8193,5.47118 -9.0939,9.09389 -1.8042,5.28726 2.0662,15.51258 0,18.18777 -1.4551,0.89629 -6.3469,0.82645 -9.0938,0 -10.9535,-0.0522 -32.6409,2.53465 -36.3757,0 -30.9663,-2.11851 -15.1408,4.90808 -9.0939,9.0939 27.8434,2.38332 59.8296,15.90572 63.6573,18.18777 27.529,2.07486 7.374,-31.87505 54.5633,-18.18777 -1.193,-4.94476 0.213,-7.94996 9.0939,-9.0939 -21.1706,-6.88982 -41.9786,-21.57827 -63.6572,-27.28166 z m -145.5022,9.09389 c 3.1399,1.64709 0.4073,6.70212 9.0939,9.09389 13.1068,-7.60774 1.3968,-9.00281 -9.0939,-9.09389 z m -327.38,9.09389 c -51.0186,23.00127 -85.8236,36.5886 -81.8451,54.56333 36.2534,-3.86687 74.778,-34.54261 118.2206,-36.37555 45.0889,-15.11419 -10.6158,-17.14045 -36.3755,-18.18778 z m 291.0045,9.09388 c -8.2355,3.17602 -3.4805,14.87441 18.1877,18.18778 5.9714,-10.79219 -1.8333,-18.26256 -9.0939,-18.18778 -3.0294,0.0311 -6.3497,-1.05925 -9.0938,0 z m -136.4084,9.0939 c -9.024,0.006 -11.419,7.33767 0,18.18777 34.7296,-6.51675 13.1912,-18.20059 0,-18.18777 z m 63.6572,9.09388 c -27.756,7.56961 9.9233,4.89877 -18.1878,18.18778 -41.7801,-13.70311 -6.37,33.37434 0,36.37555 8.5905,-0.4365 26.3825,-17.7242 36.3756,-27.28166 -7.3013,-5.20345 3.1545,-14.13583 9.0938,-18.18778 0.076,-1.53941 -2.1534,-8.17606 -9.0938,-9.09389 -3.9461,-0.32592 -12.2048,0.18776 -18.1878,0 z m 345.5678,0 c -0.8148,1.15238 -3.9169,5.91613 0,9.09389 15.7433,6.59561 5.0489,6.84035 9.0938,9.09389 7.2519,14.27696 63.1652,33.21734 36.3756,27.28167 27.3224,5.53693 83.8143,67.94499 72.7511,45.46944 8.3838,13.86753 22.4627,65.35618 18.1878,45.46944 2.0953,1.35608 18.8571,12.44801 18.1878,18.18778 14.7073,3.4097 18.5108,13.24739 18.1877,18.18778 2.7937,1.10872 7.9561,12.06737 0,9.09388 0,0 -9.0938,0 -9.0938,0 1.3386,0.57037 -1.2222,8.61956 0,9.09389 24.8925,9.01269 1.1349,25.79783 9.0938,27.28166 -9.0531,0.0776 -9.2655,7.27191 -9.0938,9.0939 1.5714,1.00396 -1.1641,8.33408 0,9.09388 4.0042,1.42593 -6.149,9.38111 18.1877,9.09389 -4.5774,-0.17018 -20.5914,1.7664 -27.2816,0 2.2116,1.30662 1.3385,5.4508 9.0939,9.09389 -11.4452,1.7111 -17.6989,13.82853 -18.1878,18.18778 31.4393,-10.71333 19.1015,4.3511 9.0939,9.09389 9.7836,0.96905 17.9172,3.70652 18.1877,9.09388 3.0149,-0.66931 7.7844,6.7839 0,9.0939 -0.4364,1.4201 0.8148,7.95692 0,9.09388 1.4551,0.90502 -0.9312,8.1458 0,9.09389 -17.6145,6.18646 -6.9753,20.88161 0,27.28166 -0.4074,0.15864 8.5382,1.68492 9.0939,0 -1.6878,18.14588 9.0939,44.47319 9.0939,36.37556 17.8648,16.85672 35.4697,23.63189 36.3755,18.18777 5.957,-0.73914 28.4022,14.35671 27.2818,18.18778 9.0909,2.78782 14.9896,1.46376 9.0939,-9.09388 0.8439,-3.97658 -1.9498,-10.92955 0,-18.18778 2.5608,-9.64389 3.2359,-13.34227 0,-9.09389 -8.5469,-7.5472 17.2914,-15.09673 9.0939,-18.18778 8.0666,-7.87749 4.525,-62.02881 9.0938,-36.37555 25.1079,-9.14103 33.7158,8.39926 36.3756,-9.09389 0.071,13.92194 12.8333,1.96719 18.1877,0 1.2804,0.51217 8.1831,0.74206 9.0939,0 6.9375,-5.64956 -2.9944,-37.21629 9.0939,-27.28167 14.8733,23.42295 67.1364,24.06723 81.8451,9.0939 -13.4503,-6.84384 -20.2511,-14.35584 -27.2818,-18.18778 -11.2938,-4.01878 -15.1351,-15.78438 -18.1877,-18.18778 3.0002,-0.28032 6.8153,5.74529 18.1877,9.09389 4.7842,4.33393 6.2567,-2.23782 9.0939,0 -8.7329,-11.88113 -16.9044,-29.0015 -18.1878,-27.28167 -9.6758,-8.92161 -11.8293,-10.79509 -9.0938,-9.09389 -15.045,-10.47063 -1.3969,-14.30374 18.1877,0 -101.4196,-93.92683 -215.8792,-173.57852 -345.5678,-227.34721 -7.7877,0.006 -47.5264,-7.99462 -63.6571,-9.09389 z m -527.4456,9.09389 c -11.6896,6.90117 -20.7747,13.27126 -36.3755,18.18778 16.6454,1.39682 -87.8051,23.84693 9.0939,18.18778 -12.746,7.22854 -108.8537,11.82903 -36.3756,36.37555 -25.8266,41.06174 118.1845,-13.67779 81.845,0 12.4463,-3.41988 19.7796,18.35162 45.4695,18.18778 32.7243,-6.23448 26.0885,-24.60501 18.1878,-27.28167 6.4835,-4.07902 13.8779,-9.46725 18.1877,-9.09389 -10.4412,-11.79819 -16.9016,-17.37529 0,-36.37555 -11.9836,8.05005 -39.1043,17.71518 -36.3755,0 1.6587,-11.93264 3.5764,-35.00379 -9.094,-18.18778 -18.5224,5.07919 -35.565,2.72962 -45.4694,0 -2.0953,0.89921 -8.8057,-0.94576 -9.0939,0 z m 309.1923,18.18778 c -21.7148,6.625 -69.4022,44.62783 -18.1878,54.56333 -8.7709,-1.80132 -14.4688,-0.17618 -18.1878,0 8.896,7.45844 22.5848,21.56954 18.1878,18.18778 9.4256,1.46375 29.71,6.38958 45.4694,9.09388 21.2084,3.6911 38.9535,6.54557 27.2817,9.0939 26.2195,11.74872 11.6343,-38.10081 27.2816,9.09388 25.7918,4.20588 55.4129,22.84153 27.2818,27.28167 -1.3969,0.0528 -3.1546,16.20749 0,9.09388 8.0956,12.37031 30.3068,31.80548 27.2816,18.18778 16.7443,13.20316 -22.2618,31.60867 -36.3755,36.37555 3.5648,11.8436 -7.8223,22.44925 -18.1879,27.28167 12.6151,-2.95253 49.6288,49.58011 36.3756,36.37556 -5.7735,1.70819 -4.6299,4.37524 0,9.09388 -1.9789,0.30555 4.4,12.2673 9.0939,9.0939 19.6196,13.17813 49.4778,25.29818 54.5633,27.28166 2.008,-7.32284 -8.9222,-25.30953 -18.1877,-36.37556 2.3862,1.03889 4.8161,-2.38623 9.0938,0 9.6003,2.24656 29.6022,5.6001 27.2817,18.18778 8.3955,-7.38831 -0.9894,-36.37555 0,-36.37555 -23.1786,-32.45453 -21.8631,-19.81827 -27.2817,-45.46944 -5.4592,-4.74629 33.7472,-2.10688 27.2817,0 4.1235,6.50947 8.1365,12.59147 9.0939,18.18777 -3.172,-1.44921 28.2041,-13.63851 27.2816,9.09389 7.3247,-4.71543 6.9696,-12.283 9.0939,-18.18778 33.9728,-0.7537 -10.8515,-10.42435 0,-9.09388 2.8227,-20.44598 -23.8449,-10.77416 -18.1878,-27.28167 -9.0153,-10.24365 -26.3474,-23.16017 -18.1877,-9.09389 -3.5299,0.26872 -14.1108,-11.74116 -18.1878,-18.18777 1.5715,-4.10869 -0.3493,-11.77637 27.2817,-9.0939 -11.1979,-3.34101 -16.887,-6.49172 -18.1878,-9.09388 3.6201,-3.28981 6.4603,-10.94294 -18.1878,-9.09389 -6.0209,-6.0948 3.7016,-7.52596 9.0939,-9.09389 -0.1234,-2.11851 -2.3571,-3.99404 -9.0939,-9.09389 -21.9796,9.64767 -1.9788,-3.60612 -9.0939,-9.09388 -4.3388,1.64999 -9.3907,1.59761 -9.0938,0 18.8949,-8.82588 3.46,-21.2442 -9.0939,-18.18778 4.0915,-3.72079 -5.957,-13.42811 -18.1878,-9.09389 -21.4179,-4.8752 3.1923,-0.73625 -18.1878,-18.18778 -3.3756,-7.54255 -3.0235,-18.19738 -9.0938,-18.18778 -11.0903,0.0174 -15.8714,8.8026 -18.1879,9.09389 -3.3291,-9.18527 -7.0278,-12.5935 -9.0939,-9.09389 0.9312,-11.28573 -7.1441,-21.40163 -36.3755,-9.09388 -15.2631,3.93234 -10.3249,31.76546 -18.1878,18.18777 -7.9939,-6.49696 -13.7471,-5.38911 -18.1878,0 -4.4407,5.38911 -5.1595,14.11983 0,18.18778 -16.8869,3.42134 -9.379,-6.92765 0,-18.18778 14.0701,-16.89019 29.0336,-36.86564 9.0939,-36.37555 -4.0828,0.10038 -9.8621,-2.35423 -18.1877,0 z m -509.2578,18.18778 c -8.3925,3.27554 -27.9626,12.23469 -45.4694,18.18777 -17.0122,4.16776 -35.7369,2.73835 -27.2817,0 -6.9317,-1.62962 -45.3604,20.9305 -63.6573,-9.09389 -31.1631,2.84894 -46.3127,-0.83809 -63.6572,0 -2.36,1.23095 -6.7423,-1.2455 -9.0938,0 -104.3313,55.26462 -199.1515,126.40028 -281.9106,209.15944 -10.3624,9.72653 -18.7515,24.61868 -27.2817,36.37556 -12.1861,16.7956 -14.4231,29.08822 0,18.18777 -16.1528,17.84381 -21.4973,52.25393 9.0939,27.28166 -25.73,39.22647 -65.4106,72.59088 -90.9388,100.03278 41.7084,-33.99432 78.6702,-72.2241 118.2206,-109.12666 3.1724,-17.01212 27.0046,-26.78347 45.4694,-36.37555 -18.3727,16.93005 -36.2859,44.95247 -18.1878,27.28166 17.7614,-6.86072 42.8032,-33.59204 54.5633,-45.46944 -0.2276,-0.24847 8.9254,0.67221 9.0939,0 2.8169,-0.0856 4.3724,-0.75662 0,9.09388 8.5566,2.09523 37.315,15.28065 45.4694,18.18778 9.1862,-4.5871 29.7783,17.21204 27.2817,27.28167 2.4968,-1.64126 6.5331,-4.39417 9.0938,-18.18778 1.9847,-7.87546 -6.3258,41.43865 0,36.37556 -2.5666,5.70077 -7.1077,12.31588 -9.0938,18.18777 0,0 -9.0939,9.09389 -9.0939,9.09389 -1.6267,3.7787 -1.2834,7.9095 0,9.09389 0,0 9.0939,-9.09389 9.0939,-9.09389 -0.6955,3.03634 -0.2998,6.89157 0,9.09389 -1.001,0.10169 -4.8117,12.04787 0,9.09388 0.9167,0.64313 7.5798,-0.0789 9.0938,0 -5.3422,5.4802 -3.299,7.29781 0,9.0939 2.9966,2.5201 0.012,8.04278 -9.0938,18.18777 -2.9287,2.82566 4.7754,4.97647 0,9.09389 -5.8114,19.19553 2.7034,27.43706 9.0938,27.28167 -3.6218,15.85974 -3.7605,31.81228 0,36.37555 -8.3573,11.96203 -15.4438,28.53357 -9.0938,18.18778 14.8581,-1.53069 0.2275,25.19254 -9.0939,36.37555 5.7081,-2.36878 15.4529,-5.1662 36.3755,-18.18777 -1.6442,4.92088 24.933,16.56513 9.094,27.28167 6.5711,10.1578 5.8302,25.90724 0,36.37554 -3.8419,6.71318 -8.5387,7.56612 -9.094,9.09389 -10.1678,-45.19115 -36.6759,72.54357 -36.3755,45.46945 -18.6899,43.71157 -37.0689,80.75594 -45.4694,127.31444 -16.3894,35.01429 -4.1797,94.870208 9.0938,81.844995 8.0579,30.789026 3.4394,74.5769286 36.3756,81.8449963 31.2781,30.6261797 21.7829,86.8156447 54.5634,118.2205487 4.1243,24.06607 -25.9308,38.87965 9.0939,45.46945 22.7975,50.37461 26.8067,82.75205 54.5633,72.75111 -18.4645,-21.19386 -51.615,-104.37661 -45.4695,-100.03278 -15.9717,-26.03034 -34.9634,-97.195481 0,-72.751108 14.5647,30.648293 26.7651,73.122428 54.5633,100.032778 0.8672,31.48813 45.4226,62.11751 54.5633,109.12666 -7.6161,31.66332 5.0935,54.22664 36.3757,72.75111 43.9721,12.33859 87.8224,58.68075 136.4082,36.37555 31.4867,-5.55527 58.2315,61.67868 100.0328,54.56333 46.1155,4.57459 44.4291,16.44758 72.7511,54.56333 -2.3281,36.81875 22.5907,-9.6788 27.2817,36.37556 14.5183,-2.85184 61.9155,12.39678 72.7511,18.18777 1.6005,-37.93795 54.2535,-25.99833 45.4695,9.0939 15.0419,31.69736 12.5685,74.7765 -18.1878,100.03277 -20.3761,8.21215 -40.3982,47.23467 -45.4694,63.65722 45.889,-4.94999 26.4028,66.15258 9.0939,72.75111 41.425,23.45204 55.5955,74.72033 81.8449,109.12666 17.3613,37.41532 78.2424,37.40571 100.0328,72.75111 5.6659,40.35419 -2.7937,70.48449 0,109.12669 -17.4982,30.2638 3.5648,64.5916 -9.0939,90.9388 -15.0478,23.9643 -23.2309,70.5428 9.0939,72.7512 -1.6878,7.9414 -14.6317,18.5631 -18.1877,27.2817 -1.135,2.9711 0,7.6591 0,9.0938 -22.6344,0.7275 -17.114,4.4961 -9.0939,9.0939 0,0 9.0939,9.0939 9.0939,9.0939 2.6772,0.1248 5.8316,1.6587 9.0938,0 2.8228,1.7751 -2.0079,7.4323 0,9.0939 27.4039,-2.9974 55.04,-4.2487 81.845,-9.0939 -36.7161,-5.1799 47.8525,-28.5505 0,-36.3755 19.8756,-5.3167 15.5862,-18.2664 36.3755,-27.2817 1.6878,-8.3285 39.4917,-44.8671 72.7512,-45.4695 82.7925,-14.1864 -41.016,-67.5069 36.3755,-45.4694 23.5539,13.1213 59.0498,-27.8928 72.7511,-45.4695 -11.9603,31.9404 56.736,-69.7435 54.5634,-72.7511 30.7518,-23.0213 122.7415,-54.44282 90.9388,-54.56329 41.7699,-29.0597 56.7136,-85.66239 63.6572,-136.40833 35.1857,-29.36846 59.594,-86.12131 63.6573,-100.03277 -7.1849,-24.96237 -101.583,-47.78235 -72.7512,-45.46945 -19.6485,-9.41108 -47.0423,-13.70921 -54.5633,0 -1.8915,-18.38566 -61.3207,-24.02823 -45.4694,-18.18778 -10.0658,7.33332 -13.6161,3.88491 -18.1878,9.0939 -16.2031,18.46423 -7.7116,28.14303 -27.2816,9.09388 15.2893,-2.91004 23.4636,-4.44072 27.2816,-9.09388 5.7241,-6.97829 0.2305,-16.82297 -9.0938,-18.18778 -1.5424,0.12687 -8.2908,-1.16402 -9.0939,0 -1.1349,0.72751 -8.64,-0.75662 -9.0939,0 -6.1431,2.82274 -12.3125,10.13277 -18.1878,18.18778 -17.0209,-5.02274 -12.033,-81.26212 18.1878,-63.65723 -8.4741,-33.11572 -36.3881,-49.48704 -72.7512,-54.56333 -45.7036,10.91558 -53.9242,-17.62905 -81.8449,-45.46945 -25.1079,5.78809 -45.6185,-35.05205 -45.4694,-36.37554 -34.4219,24.27268 -121.2404,-1.57143 -136.4084,-9.09389 -14.1865,0.90212 -22.806,10.16187 -18.1878,36.37555 -41.5598,16.34863 21.8457,-68.44541 -18.1877,-45.46945 -25.9693,32.63529 -56.4706,4.13518 -63.6573,45.46945 -26.9411,40.30033 -19.7039,16.69202 -63.6572,0 -50.6761,27.60759 -91.1915,-4.65025 -81.8449,-36.37555 10.9184,-27.0867 -2.0663,-69.56432 0,-72.75111 -12.2718,-2.70635 -39.3361,-17.36133 -72.7512,-9.0939 -49.6308,15.93833 13.6219,-30.55487 0,-45.46943 -3.2593,-15.19626 -24.3454,-63.10228 9.0939,-63.65723 -49.8633,-7.98516 -53.2536,35.15829 -72.7511,63.65723 -17.3788,-14.82668 -61.01,15.00128 -81.8451,-18.18778 -36.1381,-33.68667 -32.9391,-85.82594 -18.1877,-127.31444 13.8344,-15.89757 -0.8148,-70.04593 36.3755,-72.75111 34.7373,-19.3809 23.8421,-25.62003 72.7512,-18.18777 11.0727,1.89152 25.4221,-20.428513 45.4694,0 1.8915,-29.147592 88.4706,-17.044131 63.6572,-18.187782 17.2914,22.154162 49.699,2.851846 54.5634,45.469442 -2.7064,15.18462 28.6231,48.8803 36.3755,63.65722 34.2312,-42.35454 -37.6606,-109.594885 18.1878,-145.502217 32.1115,-21.444117 86.3276,-60.1713069 81.8449,-63.6572197 2.6191,-0.942855 5.2352,-8.3544463 9.0939,-9.0938893 -2.7062,-1.786766 -2.0661,-6.191119 -9.0939,-9.093888 17.1547,-12.822819 2.916,-47.400025 0,-54.563331 1.1059,1.027245 20.3704,-39.288535 18.1878,9.093888 6.9696,49.623968 13.6103,-20.526288 18.1879,-36.375553 9.1026,-6.13263 16.5581,-14.89564 27.2816,-27.28167 1.5424,-1.72565 6.5534,1.05926 9.0939,0 9.0852,-8.82151 20.5594,-21.91641 36.3755,-18.18778 33.6255,-2.87221 14.9257,-2.27274 18.1878,-36.37555 22.8177,-26.79859 52.1058,-35.58297 63.6572,-36.37555 -9.283,-14.55662 31.478,-2.70925 45.4695,-9.09389 -15.3011,7.76953 -45.0286,35.33375 -9.0939,45.46944 6.7804,-28.65958 69.1752,-28.1119 63.6572,-45.46944 -0.7857,-2.47935 -4.9704,3.78131 -9.0939,0 -42.4543,18.36006 -66.4467,-42.32846 -54.5633,-45.46944 -42.7411,-9.21408 77.4305,-26.4136 0,-36.37556 -63.9858,18.35277 -120.3414,70.87801 -45.4695,0 35.745,-11.20367 39.5167,-44.56191 81.8451,-27.28167 27.4009,4.16922 69.9234,23.14039 90.9388,-9.09388 21.0134,5.93969 46.9998,-16.48569 36.3756,-27.28166 11.873,-16.15133 -5.8638,-33.3728 -9.094,-27.28167 -2.1243,-14.70824 -23.2861,-6.8229 -36.3755,0 1.0767,-1.69366 -3.7393,-4.85192 0,-9.0939 10.1037,-6.16347 49.9789,-8.87592 9.0939,-27.28166 -13.3425,4.90866 -31.6557,-10.36238 -18.1878,-9.09389 -26.7142,-16.86982 -14.5618,-58.4391 -18.1877,-45.46944 9.5769,-13.83726 16.3689,-37.76807 0,-27.28167 -23.3706,3.27934 0.9603,-14.06278 -18.1878,-36.37555 -0.5238,-5.96123 -7.9706,-7.16482 -9.0939,-9.09389 -5.2613,9.35289 -18.3566,24.1234 -18.1878,18.18778 -0.7857,14.19345 -35.1358,22.26126 -36.3755,18.18778 -14.6521,6.08082 6.9347,-14.33168 -27.2816,-18.18778 -2.9727,-5.2588 -3.5334,-21.29181 -9.0939,-27.28167 31.5515,13.02507 41.5972,-30.4809 9.0939,-27.28166 -10.9535,-8.39228 -72.0714,-28.23064 -45.4696,-36.37555 -40.4117,-21.58613 -49.785,-2.18254 -63.6571,27.28166 12.5771,0.91085 -13.7763,24.67368 0,27.28167 -18.9968,26.36209 -4.4582,80.32021 0,90.93888 -1.0476,20.98171 -48.3132,72.70681 -63.6572,45.46944 -8.2414,21.07192 -20.8534,72.75841 -9.0939,54.56333 6.3992,23.7352 -17.3847,6.17948 -27.2818,9.09389 -24.1011,-20.07272 -22.003,-43.91941 -9.0938,-81.845 -7.0056,-34.32254 -45.0836,-5.70583 -63.6572,-45.46944 -14.978,-19.48478 -56.1022,-37.60909 -72.7511,-36.37555 9.5449,-56.36291 -38.0256,-5.61639 -18.1879,-45.46945 7.6214,-30.99673 33.5474,-57.5328 54.5634,-72.7511 15.432,-10.94962 27.6425,-2.84894 18.1878,-27.28167 36.8219,35.43078 17.2595,-4.69768 18.1878,-9.09389 33.9454,19.53863 26.0856,-18.10047 54.5633,0 13.7266,-1.95263 23.2803,-5.37398 27.2816,-9.09388 7.0802,-6.58136 -0.6401,-19.77928 -9.0939,-27.28167 35.9295,18.67957 39.6483,-44.04515 63.6573,-18.18778 1.0186,1.18148 5.4301,-8.44291 9.0939,0 35.0015,5.83231 28.6551,-56.70029 36.3755,-36.37555 2.9887,0.48306 -1.2803,-8.83519 0,-9.09389 -7.1907,-6.32993 -14.233,-13.20665 -18.1877,-18.18777 -12.8712,10.12084 -34.3243,25.85341 -45.4694,36.37555 -6.9376,3.62154 -10.875,11.55811 -9.0939,9.09388 -16.724,-2.92314 15.5715,-72.19266 -18.1879,-45.46943 -7.889,6.47019 -13.7644,8.99232 -18.1878,9.09388 -2.0951,-6.9681 -1.8041,-22.67099 9.0939,-27.28166 -24.1329,-12.04467 20.5944,-12.17999 0,-45.46945 -13.4996,-13.72813 -42.6658,32.78994 -36.3755,18.18778 -41.103,14.57088 43.6952,30.39859 -9.0939,36.37555 37.4707,7.07578 -22.6489,58.09813 -27.2816,36.37556 -19.3751,18.74068 16.3224,-43.84817 0,-27.28166 -5.2993,-0.49762 -20.0531,1.26877 -27.2817,0 -0.2451,1.38227 -5.692,4.21985 0,9.09388 1.1059,7.7221 -66.5318,-7.50006 -81.8449,-9.09388 -10.8226,-10.51109 -13.5405,-18.69937 -27.2818,-18.18778 -25.0119,1.19602 -30.341,30.14328 -36.3755,36.37555 -22.4568,24.35417 -27.7356,-19.54996 -9.0939,-18.18777 -27.107,-4.53531 -45.4301,-12.10521 -54.5633,-18.18778 -0.6694,-3.37304 -4.4466,-15.2015 -9.0939,-18.18778 -23.0767,-30.44788 -46.2071,-49.05025 -63.6573,-27.28167 -32.0901,32.65282 -17.9492,-9.84816 -27.2816,-9.09388 -1.7169,0.13973 -4.8627,-3.87386 -9.0939,0 z m 345.5678,72.75111 9.0938,0 c 17.824,4.41511 3.4164,-36.03372 -9.0938,-36.37556 -2.037,-0.056 -7.0453,7.13542 -9.0939,9.09389 -22.8846,10.09145 -32.4142,4.70204 0,18.18777 l 9.0939,9.0939 z m 72.751,109.12666 c -1.6005,2.03994 -2.3571,14.6186 0,9.09388 0.9604,7.03241 16.2643,22.44284 18.1879,18.18778 31.0603,-39.24413 33.1596,9.21641 63.6572,0 -6.8765,-8.2459 -45.7532,-52.56215 -45.4694,-54.56333 -11.6519,-0.0554 -31.6002,21.16534 -36.3757,27.28167 z m 281.9106,481.97609 c 0.3201,2.52883 2.5899,-1.0709 9.0939,0 5.9627,-9.48937 20.8679,3.05962 9.0939,-27.28167 -0.7566,2.63359 -19.1685,19.69868 -18.1878,27.28167 z M -2914.095,-387.45878 c 4.4692,9.24929 2.36,23.04261 0,18.18778 12.7989,6.65207 17.4329,25.31535 36.3755,18.18778 5.7116,-16.33757 -22.7309,-25.48122 -36.3755,-36.37556 z m 936.6706,-391.03721 c -12.2281,-0.026 -46.6515,18.95341 -9.094,18.18778 13.36,-13.0757 15.0653,-18.17497 9.094,-18.18778 z m 263.7227,18.18778 c -10.8224,-0.0432 -13.7529,28.31939 18.1878,27.28167 -8.2675,-18.09961 -12.9032,-27.26014 -18.1878,-27.28167 z m 309.1922,190.97166 c 4.0916,3.17952 5.6135,14.86247 9.0939,18.18778 -6.0558,-8.18596 -5.2264,-18.25151 -9.0939,-18.18778 z m 9.0939,18.18778 c 16.0635,13.80962 -7.4991,24.06141 27.2817,36.37555 l 9.0939,9.09389 c 21.0454,2.19418 10.1793,-36.7135 9.0938,-45.46944 -17.8735,-2.90713 -35.7489,14.1498 -36.3755,0 -2.2699,-3.72544 -7.0744,2.72962 -9.0939,0 z m -727.5111,36.37555 c -6.0325,0.41614 -22.1949,23.90922 0,18.18778 7.0191,-8.0681 2.5608,-18.36296 0,-18.18778 z m -63.6572,81.84501 c -9.3617,0.0878 -8.4973,13.18278 18.1877,9.09388 -3.1463,-6.9106 -14.235,-9.13064 -18.1877,-9.09388 z m 991.2339,63.65721 c 4.6008,13.2346 7.6097,23.63422 18.1877,45.46945 3.1137,-1.02726 5.0315,5.29743 9.0939,9.09388 -8.1598,-18.7337 -18.1907,-36.35192 -27.2816,-54.56333 z m -36.3756,9.09388 c -0.5239,17.61625 8.087,51.30453 18.1878,72.75112 1.6587,3.51998 -1.4842,6.22458 0,9.09389 -0.9022,0.12416 -2.7646,9.78008 0,9.09389 0.6111,1.00978 8.5874,-0.75952 9.0939,0 -8.7622,29.62352 11.3753,34.48178 0,45.46944 40.5413,8.38006 17.1823,-47.22085 9.0939,-63.65722 -10.2667,-33.59826 -33.678,-62.66746 -36.3756,-72.75112 z m -682.0416,27.28167 c -11.0495,0.0417 -6.8503,16.20487 36.3755,27.28168 -11.131,-16.50549 -28.3119,-27.31224 -36.3755,-27.28168 z m 109.1267,0 c -9.4811,16.06782 -19.7505,33.76714 -36.3757,36.37556 -11.4015,14.88051 20.7516,36.45319 54.5634,27.28167 -0.2645,8.45833 -12.7809,23.62432 18.1878,9.09388 3.2155,-7.5117 -1.1932,-9.4236 0,-9.09388 0,0 9.0939,9.09388 9.0939,9.09388 1.1057,8.1717 2.3279,19.50283 9.0939,18.18778 24.4647,-23.94181 -8.3345,-18.85767 -9.0939,-27.28166 -0.2529,-2.8082 0.2429,-11.01278 9.0939,-18.18778 -29.3607,16.44262 -42.5153,-11.98385 -18.1878,-18.18777 -38.312,-3.24064 -4.5891,-6.14835 -18.1878,-18.18778 -20.8039,12.41715 -23.295,2.56956 -18.1877,-9.0939 z m 563.821,18.18778 c -2.9566,0.18266 -7.0511,3.01568 -9.0938,9.0939 -2.3573,11.7231 4.787,57.43422 9.0938,45.46943 3.009,2.65979 2.7936,12.66772 9.0939,9.0939 28.5039,-4.33394 5.1537,-64.53732 -9.0939,-63.65723 z m 81.845,27.28167 c 3.3931,28.37904 -0.4074,64.69375 0,72.75111 -11.451,15.55564 -29.1741,24.2331 -36.3755,27.28166 14.7829,15.94762 -3.2739,65.75079 9.0938,81.845 -24.7208,-3.2674 -28.3059,46.75053 -27.2816,63.657219 -2.9305,47.1124532 30.2153,64.550894 36.3755,63.657219 33.2787,0.698412 39.122,-98.764431 36.3756,-72.751108 4.3709,-45.560615 35.7138,-57.5158 45.4694,0 -14.4055,-83.23707 -32.7461,-160.17574 -63.6572,-236.4411 z m 0,309.192208 c -14.8645,3.640467 -21.9068,11.477215 -9.0939,18.187777 -31.2329,-4.431997 -54.2991,137.706205 -54.5633,109.126665 -35.215,32.24765 -55.1658,80.47 -63.6573,127.31444 18.6214,38.81329 10.0601,153.82669 0,136.40832 8.1948,23.69068 28.6902,82.66331 27.2818,54.56333 10.5662,32.01166 44.3705,62.98966 72.751,27.28167 39.5999,-32.17751 74.4288,-39.83326 45.4695,27.28166 40.4327,-118.93961 72.7511,-240.23638 72.7511,-372.84942 0,-12.69362 -8.6953,-23.78089 -9.094,-36.37555 -25.489,-28.911297 -71.1755,-88.643157 -36.3755,-90.938892 -13.651,-4.164272 -30.6061,-3.640465 -45.4694,0 z M -2313.8983,249.11342 c -14.3961,-0.0923 -21.9941,8.8669 -36.3755,18.18778 -8.0842,9.83304 4.2136,11.05525 18.1876,9.09389 0,0 9.094,0 9.094,0 9.5595,-2.29894 17.856,-7.42352 18.1878,-9.09389 1.8041,2.12434 123.6413,51.78191 72.751,36.37555 5.6572,3.96058 9.9785,6.54178 9.0939,9.09389 1.0767,1.51323 7.2519,9.79521 36.3756,9.09389 41.9445,-13.21451 -38.3352,-37.56023 -36.3756,-36.37556 -3.9401,-2.09523 -5.043,-6.92589 -9.0939,-9.09388 -5.142,-7.46717 -6.3584,-9.02987 -9.0938,-9.09389 -21.3307,-10.8923 -49.9498,-18.04228 -72.7511,-18.18778 z m -1036.7033,18.18778 c -3.9969,0.22786 -10.3653,11.31134 0,18.18777 3.7257,-12.69942 2.7354,-18.34491 0,-18.18777 z m 1209.4872,45.46944 c -6.4633,0.11324 -11.0728,6.78331 -9.0939,9.09389 4.6269,3.29126 -2.008,6.75422 0,9.09389 -1.8916,-0.0317 -3.818,11.88462 0,9.09388 -4.2574,0.49472 -5.6223,8.61373 -9.094,9.0939 24.6103,-13.36292 22.3434,15.66767 36.3756,9.09388 5.756,-19.3256 75.5436,-6.42828 54.5633,-27.28166 -4.3942,-10.18806 -53.3644,-18.52826 -72.751,-18.18778 z m 118.2205,27.28166 c -11.7507,0.34921 -37.6665,23.66449 0,18.18778 3.5909,-7.99971 4.9616,-18.33328 0,-18.18778 z m -218.2533,9.0939 c 1.9497,1.77513 3.8499,6.29734 9.0938,9.09388 l 9.0939,0 c 34.7445,-3.07883 -2.8227,-9.28886 -18.1877,-9.09388 z m -245.535,327.37998 c -3.2825,0.40741 -0.2279,24.00497 9.0939,18.18778 -1.5715,-12.34732 -7.6563,-18.05974 -9.0939,-18.18778 z"
             id="path3800-3-8-0"
             inkscape:connector-curvature="0" />
          <path
             transform="matrix(5.0547906,0,0,5.0547906,2315.9351,-2512.6529)"
             d="m -669.99997,526.64789 c 0,128.60345 -104.2537,232.85715 -232.85715,232.85715 -128.60348,0 -232.85718,-104.2537 -232.85718,-232.85715 0,-128.60345 104.2537,-232.85715 232.85718,-232.85715 128.60345,0 232.85715,104.2537 232.85715,232.85715 z"
             sodipodi:ry="232.85715"
             sodipodi:rx="232.85715"
             sodipodi:cy="526.64789"
             sodipodi:cx="-902.85712"
             id="path3800-3-8-9"
             style="fill:url(#radialGradient7906);fill-opacity:1;stroke:none;display:inline"
             sodipodi:type="arc" />
          <path
             transform="matrix(5.6109154,0,0,5.6109154,2818.0362,-2805.5348)"
             d="m -669.99997,526.64789 c 0,128.60345 -104.2537,232.85715 -232.85715,232.85715 -128.60348,0 -232.85718,-104.2537 -232.85718,-232.85715 0,-128.60345 104.2537,-232.85715 232.85718,-232.85715 128.60345,0 232.85715,104.2537 232.85715,232.85715 z"
             sodipodi:ry="232.85715"
             sodipodi:rx="232.85715"
             sodipodi:cy="526.64789"
             sodipodi:cx="-902.85712"
             id="path3800-3-8-1"
             style="fill:none;stroke:#3176ab;stroke-width:56.39807892;stroke-miterlimit:4;stroke-opacity:1;stroke-dasharray:none;display:inline"
             sodipodi:type="arc" />
        </g>
        <path
           style="fill:#958892;fill-opacity:1;stroke:none;display:inline"
           d="M 3 9 C 2.4460148 9 2 9.4460148 2 10 L 9 10 C 9 9.4460148 8.5539852 9 8 9 L 3 9 z "
           transform="matrix(1.0698871,0,0,1.0698871,-0.01035104,1034.9207)"
           id="rect4243-6" />
      </g>
    </g>
  </g>
</svg>
