<?xml version="1.0" encoding="UTF-8" standalone="no"?>
<!-- Created with Inkscape (http://www.inkscape.org/) -->

<svg
   xmlns:dc="http://purl.org/dc/elements/1.1/"
   xmlns:cc="http://creativecommons.org/ns#"
   xmlns:rdf="http://www.w3.org/1999/02/22-rdf-syntax-ns#"
   xmlns:svg="http://www.w3.org/2000/svg"
   xmlns="http://www.w3.org/2000/svg"
   xmlns:xlink="http://www.w3.org/1999/xlink"
   xmlns:sodipodi="http://sodipodi.sourceforge.net/DTD/sodipodi-0.dtd"
   xmlns:inkscape="http://www.inkscape.org/namespaces/inkscape"
   width="16"
   height="16"
   id="svg2"
   version="1.1"
   inkscape:version="0.91 r13725"
   sodipodi:docname="quickfix_warning_obj.svg">
  <defs
     id="defs4">
    <linearGradient
       y2="0.39338252"
       x2="6.3885393"
       y1="7.2369323"
       x1="6.3885393"
       gradientUnits="userSpaceOnUse"
       id="linearGradient4200"
       xlink:href="#linearGradient5091"
       inkscape:collect="always" />
    <linearGradient
       y2="0.98171616"
       x2="3.3833356"
       y1="7.0159616"
       x1="3.3833356"
       gradientUnits="userSpaceOnUse"
       id="linearGradient4198"
       xlink:href="#linearGradient5081"
       inkscape:collect="always" />
    <linearGradient
       id="linearGradient5081">
      <stop
         id="stop5083"
         offset="0"
         style="stop-color:#ffe296;stop-opacity:1" />
      <stop
         style="stop-color:#f8d880;stop-opacity:1"
         offset="0.5"
         id="stop5089" />
      <stop
         id="stop5085"
         offset="1"
         style="stop-color:#fffcd3;stop-opacity:1" />
    </linearGradient>
    <linearGradient
       id="linearGradient5091"
       inkscape:collect="always">
      <stop
         id="stop5093"
         offset="0"
         style="stop-color:#c6852e;stop-opacity:1" />
      <stop
         id="stop5095"
         offset="1"
         style="stop-color:#e1a555;stop-opacity:1" />
    </linearGradient>
    <filter
       height="1.4790674"
       y="-0.23953372"
       width="1.4809362"
       x="-0.2404681"
       id="filter7038"
       inkscape:collect="always">
      <feGaussianBlur
         id="feGaussianBlur7040"
         stdDeviation="0.66240056"
         inkscape:collect="always" />
    </filter>
    <linearGradient
       y2="1051.0419"
       x2="28.898684"
       y1="1047.3513"
       x1="26.384804"
       gradientTransform="translate(-21.875,0)"
       gradientUnits="userSpaceOnUse"
       id="linearGradient6268"
       xlink:href="#linearGradient5925-1"
       inkscape:collect="always" />
    <linearGradient
       y2="1050.1135"
       x2="28.339197"
       y1="1048.96"
       x1="27.739658"
       gradientTransform="translate(-21.875,0)"
       gradientUnits="userSpaceOnUse"
       id="linearGradient6266"
       xlink:href="#linearGradient5933-5"
       inkscape:collect="always" />
    <linearGradient
       y2="1046.9003"
       x2="3.2902069"
       y1="1038.3929"
       x1="3.2902069"
       gradientTransform="translate(-1.875,0)"
       gradientUnits="userSpaceOnUse"
       id="linearGradient6264"
       xlink:href="#linearGradient5894-4"
       inkscape:collect="always" />
    <radialGradient
       r="4.5"
       fy="1046.2943"
       fx="28.6875"
       cy="1046.2943"
       cx="28.6875"
       gradientTransform="matrix(1.4312189,0,0,1.9064579,-34.245592,-947.65067)"
       gradientUnits="userSpaceOnUse"
       id="radialGradient6262"
       xlink:href="#linearGradient5992-4"
       inkscape:collect="always" />
    <linearGradient
       id="linearGradient5925-1"
       inkscape:collect="always">
      <stop
         id="stop5927-1"
         offset="0"
         style="stop-color:#9eacbc;stop-opacity:1;" />
      <stop
         id="stop5929-5"
         offset="1"
         style="stop-color:#667480;stop-opacity:1" />
    </linearGradient>
    <linearGradient
       id="linearGradient5933-5"
       inkscape:collect="always">
      <stop
         id="stop5935-1"
         offset="0"
         style="stop-color:#ffffff;stop-opacity:1;" />
      <stop
         id="stop5937-7"
         offset="1"
         style="stop-color:#abb6c2;stop-opacity:1" />
    </linearGradient>
    <linearGradient
       id="linearGradient5992-4">
      <stop
         id="stop5994-8"
         offset="0"
         style="stop-color:#ffffff;stop-opacity:1" />
      <stop
         style="stop-color:#fdfbeb;stop-opacity:1"
         offset="0.38312635"
         id="stop6002-8" />
      <stop
         style="stop-color:#f8eb99;stop-opacity:1"
         offset="0.59470785"
         id="stop6000-2" />
      <stop
         id="stop5996-45"
         offset="1"
         style="stop-color:#ffe4b1;stop-opacity:1" />
    </linearGradient>
    <linearGradient
       id="linearGradient5894-4"
       inkscape:collect="always">
      <stop
         id="stop5896-0"
         offset="0"
         style="stop-color:#e9a328;stop-opacity:1" />
      <stop
         id="stop5898-9"
         offset="1"
         style="stop-color:#f9c537;stop-opacity:1" />
    </linearGradient>
  </defs>
  <sodipodi:namedview
     id="base"
     pagecolor="#ffffff"
     bordercolor="#666666"
     borderopacity="1.0"
     inkscape:pageopacity="0.0"
     inkscape:pageshadow="2"
     inkscape:zoom="22.627417"
     inkscape:cx="2.642261"
     inkscape:cy="9.778595"
     inkscape:document-units="px"
     inkscape:current-layer="layer1"
     showgrid="true"
     inkscape:window-width="842"
     inkscape:window-height="680"
     inkscape:window-x="185"
     inkscape:window-y="464"
     inkscape:window-maximized="0"
     inkscape:snap-global="false">
    <inkscape:grid
       type="xygrid"
       id="grid3966" />
  </sodipodi:namedview>
  <metadata
     id="metadata7">
    <rdf:RDF>
      <cc:Work
         rdf:about="">
        <dc:format>image/svg+xml</dc:format>
        <dc:type
           rdf:resource="http://purl.org/dc/dcmitype/StillImage" />
        <dc:title />
      </cc:Work>
    </rdf:RDF>
  </metadata>
  <g
     inkscape:label="Layer 1"
     inkscape:groupmode="layer"
     id="layer1"
     style="display:inline"
     transform="translate(0,-1036.3622)">
    <path
       style="fill:#ffffff;fill-rule:evenodd;stroke:none;stroke-width:1px;stroke-linecap:butt;stroke-linejoin:miter;stroke-opacity:1;fill-opacity:1"
       d="m 0.8396893,1040.9159 c 0,-0.221 0.751301,-2.0329 1.3258252,-2.4307 0.5745243,-0.3977 2.1655145,-0.9722 2.5632621,-1.0164 0.3977476,-0.044 2.2097087,-0.3094 2.6958446,0.088 0.4861359,0.3977 1.767767,1.5909 2.032932,2.3422 0.265165,0.7513 0.4861359,1.5468 0.4861359,1.5468 0,0 1.0606599,-0.3535 1.5467959,0.088 0.486136,0.442 3.447146,5.3033 3.49134,6.0104 0.04419,0.7071 -0.08839,2.8727 -0.574524,3.1378 -0.486136,0.2652 -1.37002,0.7955 -1.767767,0.7955 -0.397748,0 -4.5520002,0.1768 -4.9497478,-0.044 -0.3977475,-0.2209 -1.1048543,-0.9722 -1.1048543,-0.9722 0,0 -2.298097,0.3977 -2.6958446,0 -0.3977476,-0.3978 -1.5026019,-1.2817 -1.5467961,-1.6352 -0.044194,-0.3536 -0.044194,-2.3865 -0.044194,-2.3865 0,0 0.044194,-0.7513 0,-1.1049 -0.044194,-0.3535 -1.1048543,-1.6352 -1.2374368,-2.3865 -0.13258255,-0.7513 -0.2209709,-2.0329 -0.2209709,-2.0329 z"
       id="path3395"
       inkscape:connector-curvature="0" />
    <g
       style="display:inline"
       id="layer1-0"
       inkscape:label="Layer 1"
       transform="translate(-0.51245454,0.0390477)">
      <path
         sodipodi:nodetypes="sccccs"
         inkscape:connector-curvature="0"
         id="path5108-6-7"
         d="m 5.5022998,1038.5281 c -1.8240601,0 -3.3055556,1.4814 -3.3055556,3.3055 0,2.1067 1.6593104,1.1418 1.6786025,3.3314 l 3.2539062,0 c 0,-2.089 1.6786025,-1.1771 1.6786025,-3.3314 0,-1.8241 -1.4814955,-3.3055 -3.3055556,-3.3055 z"
         style="display:inline;fill:none;stroke:#edaa2b;stroke-width:0.8263889;stroke-linecap:round;stroke-linejoin:round;stroke-miterlimit:4;stroke-dasharray:none;stroke-dashoffset:0;stroke-opacity:1;filter:url(#filter7038)" />
      <g
         transform="matrix(0.77997385,0,0,0.73483496,0.928723,276.05573)"
         id="g6257">
        <path
           style="fill:url(#radialGradient6262);fill-opacity:1;stroke:url(#linearGradient6264);stroke-width:1.32088518;stroke-linecap:round;stroke-linejoin:round;stroke-miterlimit:4;stroke-dasharray:none;stroke-dashoffset:0;stroke-opacity:1"
           d="m 6.625,1037.8622 c -2.207266,0 -4,1.7927 -4,4 0,2.5493 2.007905,3.3816 2.03125,6.0313 l 3.9375,0 c 0,-2.5279 2.03125,-3.4244 2.03125,-6.0313 0,-2.2073 -1.792734,-4 -4,-4 z"
           id="path5108-3"
           inkscape:connector-curvature="0"
           sodipodi:nodetypes="sccccs" />
        <rect
           style="display:inline;fill:#4a607a;fill-opacity:1;stroke:#4a607a;stroke-width:1;stroke-linecap:round;stroke-linejoin:round;stroke-miterlimit:4;stroke-dasharray:none;stroke-dashoffset:0;stroke-opacity:1"
           id="rect5896-7-0"
           width="2.03125"
           height="3.4375"
           x="5.59375"
           y="1048.4247" />
        <rect
           style="fill:url(#linearGradient6266);fill-opacity:1;stroke:url(#linearGradient6268);stroke-width:1.32088518;stroke-linecap:round;stroke-linejoin:round;stroke-miterlimit:4;stroke-dasharray:none;stroke-dashoffset:0;stroke-opacity:1"
           id="rect5896-73"
           width="3.9375"
           height="3"
           x="4.65625"
           y="1047.8622" />
      </g>
    </g>
    <g
       style="display:inline"
       id="layer1-5"
       inkscape:label="Layer 1"
       transform="matrix(0.70552057,0,0,0.70552057,4.8741663,309.9897)">
      <g
         transform="matrix(0.9346781,0,0,0.9346781,-14.571811,69.044514)"
         id="g8472"
         style="display:inline">
        <g
           transform="matrix(1.4166388,0,0,1.4166388,-3.2411359,-441.5072)"
           id="g4193">
          <path
             style="fill:url(#linearGradient4198);fill-opacity:1;stroke:url(#linearGradient4200);stroke-width:1px;stroke-linecap:butt;stroke-linejoin:miter;stroke-opacity:1"
             d="M 2.8125,0.90625 0.78125,5 C 0.17522066,6.0251238 0.58843406,7.4816983 1.71875,7.5 L 3,7.5 l 1,0 1.28125,0 C 6.4115665,7.4817738 6.8247794,6.0250615 6.21875,5 L 4.1875,0.90625 c -0.2942923,-0.55673837 -1.1188077,-0.46727236 -1.375,0 z"
             id="path4292"
             inkscape:connector-curvature="0"
             sodipodi:nodetypes="ccccccccc"
             transform="matrix(1.0698871,0,0,1.0698871,15.590192,1043.4798)" />
          <path
             sodipodi:type="arc"
             style="fill:#502800;fill-opacity:1;stroke:none"
             id="path4253"
             sodipodi:cx="3.484375"
             sodipodi:cy="5.484375"
             sodipodi:rx="0.625"
             sodipodi:ry="0.625"
             d="m 4.109375,5.484375 a 0.625,0.625 0 0 1 -0.625,0.625 0.625,0.625 0 0 1 -0.625,-0.625 0.625,0.625 0 0 1 0.625,-0.625 0.625,0.625 0 0 1 0.625,0.625 z"
             transform="matrix(1.125929,0,0,1.125929,15.411638,1043.3738)" />
          <path
             style="fill:#502800;fill-opacity:1;stroke:none;display:inline"
             d="m 19.350026,1045.5028 c -0.378471,0 -0.700512,0.3368 -0.700512,0.774 l 0.09137,1.4889 c 0,0.3887 0.272722,0.7037 0.609141,0.7037 0.336419,0 0.609139,-0.315 0.609139,-0.7037 l 0.06091,-1.4889 c 0,-0.4372 -0.291583,-0.774 -0.670056,-0.774 z"
             id="path4253-7"
             inkscape:connector-curvature="0"
             sodipodi:nodetypes="sccsccs" />
        </g>
      </g>
    </g>
  </g>
</svg>
