<?xml version="1.0" encoding="UTF-8" standalone="no"?>
<!-- Created with Inkscape (http://www.inkscape.org/) -->

<svg
   xmlns:dc="http://purl.org/dc/elements/1.1/"
   xmlns:cc="http://creativecommons.org/ns#"
   xmlns:rdf="http://www.w3.org/1999/02/22-rdf-syntax-ns#"
   xmlns:svg="http://www.w3.org/2000/svg"
   xmlns="http://www.w3.org/2000/svg"
   xmlns:sodipodi="http://sodipodi.sourceforge.net/DTD/sodipodi-0.dtd"
   xmlns:inkscape="http://www.inkscape.org/namespaces/inkscape"
   width="16"
   height="16"
   id="svg2"
   version="1.1"
   inkscape:version="0.48.5 r10040"
   sodipodi:docname="warning_alt_obj.svg">
  <defs
     id="defs4" />
  <sodipodi:namedview
     id="base"
     pagecolor="#ffffff"
     bordercolor="#666666"
     borderopacity="1.0"
     inkscape:pageopacity="0.0"
     inkscape:pageshadow="2"
     inkscape:zoom="45.254835"
     inkscape:cx="5.8546526"
     inkscape:cy="7.3286565"
     inkscape:document-units="px"
     inkscape:current-layer="g4193"
     showgrid="true"
     inkscape:window-width="1280"
     inkscape:window-height="1024"
     inkscape:window-x="10"
     inkscape:window-y="87"
     inkscape:window-maximized="0"
     showguides="true"
     inkscape:guide-bbox="true"
     inkscape:snap-global="false">
    <inkscape:grid
       type="xygrid"
       id="grid4202"
       empspacing="5"
       visible="true"
       enabled="true"
       snapvisiblegridlinesonly="true" />
  </sodipodi:namedview>
  <metadata
     id="metadata7">
    <rdf:RDF>
      <cc:Work
         rdf:about="">
        <dc:format>image/svg+xml</dc:format>
        <dc:type
           rdf:resource="http://purl.org/dc/dcmitype/StillImage" />
        <dc:title />
      </cc:Work>
    </rdf:RDF>
  </metadata>
  <g
     inkscape:label="Layer 1"
     inkscape:groupmode="layer"
     id="layer1"
     style="display:inline"
     transform="translate(0,-1036.3622)">
    <g
       style="display:inline"
       id="g8472"
       transform="matrix(0.9346781,0,0,0.9346781,-14.571811,69.044514)">
      <g
         id="g4193"
         transform="matrix(1.4166388,0,0,1.4166388,-3.2411359,-441.5072)"
         style="opacity:1">
        <path
           sodipodi:nodetypes="ccccccccc"
           inkscape:connector-curvature="0"
           id="path4292"
           d="m 18.599249,1044.4966 -2.362015,4.3798 c -0.648383,1.0968 -0.206291,2.7732 1.003019,2.7928 l 1.5596,0 1.069887,0 1.5596,0 c 1.209311,-0.019 1.651402,-1.6961 1.003019,-2.7928 l -2.362015,-4.3798 c -0.314859,-0.5957 -1.196998,-0.4999 -1.471095,0 z"
           style="fill:#ffffff;fill-opacity:1;stroke:#8b8b8b;stroke-width:0.75522922999999986;stroke-linecap:butt;stroke-linejoin:miter;stroke-miterlimit:4;stroke-opacity:1;stroke-dasharray:none" />
        <path
           transform="matrix(1.125929,0,0,1.125929,15.411638,1043.5862)"
           d="m 4.109375,5.484375 c 0,0.345178 -0.279822,0.625 -0.625,0.625 -0.345178,0 -0.625,-0.279822 -0.625,-0.625 0,-0.345178 0.279822,-0.625 0.625,-0.625 0.345178,0 0.625,0.279822 0.625,0.625 z"
           sodipodi:ry="0.625"
           sodipodi:rx="0.625"
           sodipodi:cy="5.484375"
           sodipodi:cx="3.484375"
           id="path4253"
           style="fill:#959595;fill-opacity:1;stroke:none"
           sodipodi:type="arc" />
        <path
           sodipodi:nodetypes="sccsccs"
           inkscape:connector-curvature="0"
           id="path4253-7"
           d="m 19.350026,1045.7152 c -0.378471,0 -0.700512,0.3368 -0.700512,0.774 l 0.09137,1.4889 c 0,0.3887 0.272722,0.7037 0.609141,0.7037 0.336419,0 0.609139,-0.315 0.609139,-0.7037 l 0.06091,-1.4889 c 0,-0.4372 -0.291583,-0.774 -0.670056,-0.774 z"
           style="fill:#959595;fill-opacity:1;stroke:none;display:inline" />
        <path
           sodipodi:nodetypes="csccccccc"
           inkscape:connector-curvature="0"
           id="path4292-0"
           d="m 18.178397,1043.7929 -2.567473,4.8431 c -0.708883,1.3372 -0.568271,3.0914 1.210739,3.7614 l 1.882584,0 1.291456,0 1.882584,0 c 1.475897,-0.5865 2.033682,-2.2112 1.210739,-3.7614 l -2.534096,-4.7764 c -0.763898,-0.7368 -1.628463,-0.6904 -2.376533,-0.067 z"
           style="fill:none;stroke:#ffffff;stroke-width:0.75896406000000005;stroke-linecap:butt;stroke-linejoin:miter;stroke-miterlimit:4;stroke-opacity:1;stroke-dasharray:none;display:inline" />
      </g>
    </g>
  </g>
</svg>
