<?xml version="1.0" encoding="UTF-8" standalone="no"?>
<!-- Created with Inkscape (http://www.inkscape.org/) -->

<svg
   xmlns:dc="http://purl.org/dc/elements/1.1/"
   xmlns:cc="http://creativecommons.org/ns#"
   xmlns:rdf="http://www.w3.org/1999/02/22-rdf-syntax-ns#"
   xmlns:svg="http://www.w3.org/2000/svg"
   xmlns="http://www.w3.org/2000/svg"
   xmlns:xlink="http://www.w3.org/1999/xlink"
   xmlns:sodipodi="http://sodipodi.sourceforge.net/DTD/sodipodi-0.dtd"
   xmlns:inkscape="http://www.inkscape.org/namespaces/inkscape"
   width="16"
   height="16"
   id="svg2"
   version="1.1"
   inkscape:version="0.48.0 r9654"
   sodipodi:docname="next_thread_nav.svg">
  <defs
     id="defs4">
    <linearGradient
       inkscape:collect="always"
       id="linearGradient7552">
      <stop
         style="stop-color:#c08c29;stop-opacity:1"
         offset="0"
         id="stop7554" />
      <stop
         style="stop-color:#b17813;stop-opacity:1"
         offset="1"
         id="stop7556" />
    </linearGradient>
    <linearGradient
       inkscape:collect="always"
       id="linearGradient5291">
      <stop
         style="stop-color:#83706b;stop-opacity:1"
         offset="0"
         id="stop5293" />
      <stop
         style="stop-color:#83706b;stop-opacity:1"
         offset="1"
         id="stop5295" />
    </linearGradient>
    <linearGradient
       id="linearGradient5281">
      <stop
         style="stop-color:#e0b575;stop-opacity:1;"
         offset="0"
         id="stop5283" />
      <stop
         id="stop5289"
         offset="0.5"
         style="stop-color:#f5ca75;stop-opacity:1" />
      <stop
         style="stop-color:#f5f5b5;stop-opacity:1"
         offset="1"
         id="stop5285" />
    </linearGradient>
    <linearGradient
       inkscape:collect="always"
       xlink:href="#linearGradient5281"
       id="linearGradient5287"
       x1="31.543701"
       y1="11.3844"
       x2="31.543701"
       y2="3.9463863"
       gradientUnits="userSpaceOnUse"
       gradientTransform="translate(-19.96875,1036.3466)" />
    <linearGradient
       inkscape:collect="always"
       xlink:href="#linearGradient5291"
       id="linearGradient5297"
       x1="35.168701"
       y1="11.4469"
       x2="35.168701"
       y2="3.5787904"
       gradientUnits="userSpaceOnUse"
       gradientTransform="translate(-19.96875,1036.3466)" />
    <linearGradient
       gradientUnits="userSpaceOnUse"
       y2="1044.7997"
       x2="14.749893"
       y1="1044.7997"
       x1="5.5311432"
       id="linearGradient5109"
       xlink:href="#linearGradient5103"
       inkscape:collect="always" />
    <linearGradient
       id="linearGradient5103">
      <stop
         id="stop5105"
         offset="0"
         style="stop-color:#fefdef;stop-opacity:1" />
      <stop
         style="stop-color:#fef5d4;stop-opacity:1"
         offset="0.26694915"
         id="stop7550" />
      <stop
         style="stop-color:#fbe08e;stop-opacity:1"
         offset="0.51694918"
         id="stop7548" />
      <stop
         id="stop5107"
         offset="1"
         style="stop-color:#fbdd83;stop-opacity:1" />
    </linearGradient>
    <linearGradient
       inkscape:collect="always"
       xlink:href="#linearGradient7552"
       id="linearGradient7558"
       x1="4.2581833"
       y1="1064.8306"
       x2="16.46875"
       y2="1064.8306"
       gradientUnits="userSpaceOnUse"
       gradientTransform="translate(0,-20)" />
    <mask
       maskUnits="userSpaceOnUse"
       id="mask7862">
      <g
         id="g7864">
        <path
           inkscape:connector-curvature="0"
           id="path7866"
           d="m 11.5,1039.6591 c -0.18722,10e-5 -0.383743,0.04 -0.65625,0.094 l 0,0.875 c -0.213492,0.042 -0.422114,0.072 -0.625,0.1562 -0.194391,0.083 -0.388449,0.2275 -0.5625,0.3438 l -0.625,-0.6252 c -0.462167,0.3084 -0.597312,0.4445 -0.90625,0.9062 l 0.625,0.625 c -0.121067,0.1808 -0.2597,0.3909 -0.34375,0.5938 -0.08385,0.2029 -0.113627,0.4115 -0.15625,0.625 l -0.90625,0 c -0.108682,0.5449 -0.108112,0.7362 0,1.2812 l 0.90625,0 c 0.08465,0.427 0.258374,0.8566 0.5,1.2188 l -0.625,0.5937 c 0.308933,0.4619 0.444082,0.5977 0.90625,0.9063 l 0.625,-0.5938 c 0.361804,0.2421 0.760581,0.4148 1.1875,0.5 l 0,0.875 c 0.545014,0.1081 0.76758,0.1087 1.3125,0 l 0,-0.875 c 0.426989,-0.085 0.8255,-0.2582 1.1875,-0.5 l 0.625,0.5938 c 0.46183,-0.309 0.597782,-0.4441 0.90625,-0.9063 l -0.625,-0.5937 c 0.242113,-0.3618 0.414842,-0.792 0.5,-1.2188 l 0.90625,0 c 0.108112,-0.545 0.108682,-0.7363 0,-1.2812 l -0.90625,0 c -0.08469,-0.4271 -0.258169,-0.8568 -0.5,-1.2188 l 0.625,-0.625 c -0.154067,-0.2313 -0.242615,-0.3988 -0.375,-0.5312 -0.13245,-0.1323 -0.299966,-0.2209 -0.53125,-0.375 l -0.625,0.625 c -0.361809,-0.2421 -0.760526,-0.415 -1.1875,-0.5 l 0,-0.875 c -0.27246,-0.054 -0.46903,-0.094 -0.65625,-0.094 z m 0,3.3125 c 0.500508,0 0.90625,0.4057 0.90625,0.9063 0,0.5005 -0.405742,0.9062 -0.90625,0.9062 -0.500508,0 -0.90625,-0.4057 -0.90625,-0.9062 0,-0.5006 0.405742,-0.9063 0.90625,-0.9063 z"
           style="fill:#ffffff;fill-opacity:1;stroke:#ffffff;stroke-width:0.5;stroke-miterlimit:4;stroke-opacity:1;stroke-dasharray:none;display:inline" />
      </g>
    </mask>
    <filter
       inkscape:collect="always"
       id="filter7880"
       x="-0.21219946"
       width="1.4243989"
       y="-0.15628507"
       height="1.3125701">
      <feGaussianBlur
         inkscape:collect="always"
         stdDeviation="0.79567018"
         id="feGaussianBlur7882" />
    </filter>
  </defs>
  <sodipodi:namedview
     id="base"
     pagecolor="#ffffff"
     bordercolor="#666666"
     borderopacity="1.0"
     inkscape:pageopacity="0.0"
     inkscape:pageshadow="2"
     inkscape:zoom="16"
     inkscape:cx="22.432178"
     inkscape:cy="14.292592"
     inkscape:document-units="px"
     inkscape:current-layer="layer1"
     showgrid="true"
     inkscape:window-width="1916"
     inkscape:window-height="1174"
     inkscape:window-x="0"
     inkscape:window-y="0"
     inkscape:window-maximized="0"
     showguides="true"
     inkscape:guide-bbox="true"
     inkscape:snap-global="false">
    <inkscape:grid
       type="xygrid"
       id="grid3971" />
  </sodipodi:namedview>
  <metadata
     id="metadata7">
    <rdf:RDF>
      <cc:Work
         rdf:about="">
        <dc:format>image/svg+xml</dc:format>
        <dc:type
           rdf:resource="http://purl.org/dc/dcmitype/StillImage" />
        <dc:title />
      </cc:Work>
    </rdf:RDF>
  </metadata>
  <g
     inkscape:label="Layer 1"
     inkscape:groupmode="layer"
     id="layer1"
     style="display:inline"
     transform="translate(0,-1036.3622)">
    <path
       style="fill:url(#linearGradient5287);fill-opacity:1;stroke:url(#linearGradient5297);stroke-width:0.5;stroke-miterlimit:4;stroke-opacity:1;stroke-dasharray:none;display:inline"
       d="m 11.5,1039.6591 c -0.18722,10e-5 -0.383743,0.04 -0.65625,0.094 l 0,0.875 c -0.213492,0.042 -0.422114,0.072 -0.625,0.1562 -0.194391,0.083 -0.388449,0.2275 -0.5625,0.3438 l -0.625,-0.6252 c -0.462167,0.3084 -0.597312,0.4445 -0.90625,0.9062 l 0.625,0.625 c -0.121067,0.1808 -0.2597,0.3909 -0.34375,0.5938 -0.08385,0.2029 -0.113627,0.4115 -0.15625,0.625 l -0.90625,0 c -0.108682,0.5449 -0.108112,0.7362 0,1.2812 l 0.90625,0 c 0.08465,0.427 0.258374,0.8566 0.5,1.2188 l -0.625,0.5937 c 0.308933,0.4619 0.444082,0.5977 0.90625,0.9063 l 0.625,-0.5938 c 0.361804,0.2421 0.760581,0.4148 1.1875,0.5 l 0,0.875 c 0.545014,0.1081 0.76758,0.1087 1.3125,0 l 0,-0.875 c 0.426989,-0.085 0.8255,-0.2582 1.1875,-0.5 l 0.625,0.5938 c 0.46183,-0.309 0.597782,-0.4441 0.90625,-0.9063 l -0.625,-0.5937 c 0.242113,-0.3618 0.414842,-0.792 0.5,-1.2188 l 0.90625,0 c 0.108112,-0.545 0.108682,-0.7363 0,-1.2812 l -0.90625,0 c -0.08469,-0.4271 -0.258169,-0.8568 -0.5,-1.2188 l 0.625,-0.625 c -0.154067,-0.2313 -0.242615,-0.3988 -0.375,-0.5312 -0.13245,-0.1323 -0.299966,-0.2209 -0.53125,-0.375 l -0.625,0.625 c -0.361809,-0.2421 -0.760526,-0.415 -1.1875,-0.5 l 0,-0.875 c -0.27246,-0.054 -0.46903,-0.094 -0.65625,-0.094 z m 0,3.3125 c 0.500508,0 0.90625,0.4057 0.90625,0.9063 0,0.5005 -0.405742,0.9062 -0.90625,0.9062 -0.500508,0 -0.90625,-0.4057 -0.90625,-0.9062 0,-0.5006 0.405742,-0.9063 0.90625,-0.9063 z"
       id="path4059-7-6-6"
       inkscape:connector-curvature="0" />
    <g
       id="g7859"
       mask="url(#mask7862)">
      <path
         id="path4108-1-0"
         transform="translate(0,1036.3622)"
         d="M 4.5 0 C 3.5011625 0.0006875 2.49315 0.25685 2 0.75 L 2 1.75 L 2 6 L 0.46875 6 C -0.18315 6 -0.16875 6.7409 0.46875 7.5 L 4.46875 12.21875 L 8.5 7.5 C 9.2602 6.7398 9.0203 6 8.5 6 L 7 6 L 7 1.75 L 7 0.75 C 6.5041 0.2541 5.4988375 -0.0006875 4.5 0 z "
         style="fill:#ffffff;fill-opacity:1;stroke:#ffffff;display:inline;filter:url(#filter7880);stroke-width:1;stroke-miterlimit:4;stroke-dasharray:none" />
    </g>
    <g
       style="display:inline"
       id="layer1-7"
       inkscape:label="Layer 1"
       transform="matrix(0,1,-1,0,1049.3309,1032.1121)">
      <path
         sodipodi:nodetypes="cccccccc"
         inkscape:connector-curvature="0"
         id="path4108-1"
         d="m 5,1043.3309 0,2.9844 6.25,0 0,1.5313 3.781143,-2.9844 -3.781143,-3.0469 0,1.5156 z"
         style="fill:url(#linearGradient5109);fill-opacity:1;stroke:none;display:inline" />
      <path
         sodipodi:nodetypes="cccccccccccccccccccc"
         inkscape:connector-curvature="0"
         id="path4108-1-6"
         d="m 10.25,1040.8153 0,1.5156 -4.25,0 -1,0 c -0.99185,0.9918 -0.986324,3.9981 0,4.9844 l 1,0 4.25,0 0,1.5313 c 0,0.6519 0.740915,0.6375 1.5,0 l 4.71875,-3.9844 -4.71875,-4.0469 c -0.760225,-0.7602 -1.5,-0.5203 -1.5,0 z m 1,1 3.78125,3.0469 -3.78125,2.9844 0,-1.5313 -5.6875,0 c -0.276214,-0.2099 -0.277444,-2.7126 0,-2.9844 l 5.6875,0 z"
         style="fill:url(#linearGradient7558);fill-opacity:1;stroke:none;display:inline" />
    </g>
  </g>
</svg>
