<?xml version="1.0" encoding="UTF-8" standalone="no"?>
<!-- Created with Inkscape (http://www.inkscape.org/) -->

<svg
   xmlns:dc="http://purl.org/dc/elements/1.1/"
   xmlns:cc="http://creativecommons.org/ns#"
   xmlns:rdf="http://www.w3.org/1999/02/22-rdf-syntax-ns#"
   xmlns:svg="http://www.w3.org/2000/svg"
   xmlns="http://www.w3.org/2000/svg"
   xmlns:xlink="http://www.w3.org/1999/xlink"
   xmlns:sodipodi="http://sodipodi.sourceforge.net/DTD/sodipodi-0.dtd"
   xmlns:inkscape="http://www.inkscape.org/namespaces/inkscape"
   width="16"
   height="16"
   id="svg2"
   version="1.1"
   inkscape:version="0.48.0 r9654"
   sodipodi:docname="restart_co.svg">
  <defs
     id="defs4">
    <linearGradient
       id="linearGradient5275"
       inkscape:collect="always">
      <stop
         id="stop5277"
         offset="0"
         style="stop-color:#fce5a6;stop-opacity:1" />
      <stop
         id="stop5279"
         offset="1"
         style="stop-color:#f9f2db;stop-opacity:1" />
    </linearGradient>
    <linearGradient
       inkscape:collect="always"
       xlink:href="#linearGradient7255-7"
       id="linearGradient7263-1"
       x1="27.4375"
       y1="1049.0347"
       x2="27.4375"
       y2="1046.4401"
       gradientUnits="userSpaceOnUse"
       gradientTransform="matrix(-1,0,0,-1,31.965001,2092.7307)" />
    <linearGradient
       inkscape:collect="always"
       id="linearGradient7255-7">
      <stop
         style="stop-color:#fce8b0;stop-opacity:1"
         offset="0"
         id="stop7257-4" />
      <stop
         style="stop-color:#c28a1d;stop-opacity:0;"
         offset="1"
         id="stop7259-0" />
    </linearGradient>
    <linearGradient
       inkscape:collect="always"
       id="linearGradient7076-1">
      <stop
         style="stop-color:#956413;stop-opacity:1"
         offset="0"
         id="stop7078-7" />
      <stop
         style="stop-color:#c38b1d;stop-opacity:1"
         offset="1"
         id="stop7080-11" />
    </linearGradient>
    <linearGradient
       inkscape:collect="always"
       xlink:href="#linearGradient5275"
       id="linearGradient5268"
       gradientUnits="userSpaceOnUse"
       gradientTransform="matrix(0,-0.58432111,-0.58432111,0,614.70201,1051.4874)"
       x1="1.1375329"
       y1="1045.2078"
       x2="10.01024"
       y2="1045.2078" />
    <linearGradient
       inkscape:collect="always"
       xlink:href="#linearGradient7076-1"
       id="linearGradient5273"
       gradientUnits="userSpaceOnUse"
       gradientTransform="matrix(-1,0,0,-1,31.965001,2092.7307)"
       x1="30.125"
       y1="1049.1434"
       x2="30.125"
       y2="1040.6693" />
    <linearGradient
       id="linearGradient8164-4">
      <stop
         id="stop8166-0"
         offset="0"
         style="stop-color:#accf8e;stop-opacity:1;" />
      <stop
         style="stop-color:#93c586;stop-opacity:1"
         offset="0.29019928"
         id="stop8176-3" />
      <stop
         style="stop-color:#58ab71;stop-opacity:1"
         offset="0.4292171"
         id="stop8174-7" />
      <stop
         style="stop-color:#4da766;stop-opacity:1"
         offset="0.57545984"
         id="stop8172-8" />
      <stop
         id="stop8178-3"
         offset="0.70769268"
         style="stop-color:#61af61;stop-opacity:1" />
      <stop
         id="stop8168-1"
         offset="1"
         style="stop-color:#78ba5e;stop-opacity:1" />
    </linearGradient>
    <linearGradient
       id="linearGradient8180-2"
       inkscape:collect="always">
      <stop
         id="stop8182-5"
         offset="0"
         style="stop-color:#36825e;stop-opacity:1" />
      <stop
         id="stop8184-7"
         offset="1"
         style="stop-color:#257550;stop-opacity:1" />
    </linearGradient>
    <linearGradient
       y2="1065.103"
       x2="20.303318"
       y1="1056.0222"
       x1="20.303318"
       gradientTransform="matrix(0.59667546,0,0,0.59667546,-3.1664719,408.06501)"
       gradientUnits="userSpaceOnUse"
       id="linearGradient14026"
       xlink:href="#linearGradient8164-4"
       inkscape:collect="always" />
    <linearGradient
       gradientTransform="matrix(0.59667546,0,0,0.59667546,-2.9255466,408.06501)"
       y2="1066.1039"
       x2="21.469872"
       y1="1054.8516"
       x1="21.469872"
       gradientUnits="userSpaceOnUse"
       id="linearGradient14028"
       xlink:href="#linearGradient8180-2"
       inkscape:collect="always" />
  </defs>
  <sodipodi:namedview
     id="base"
     pagecolor="#ffffff"
     bordercolor="#666666"
     borderopacity="1.0"
     inkscape:pageopacity="0.0"
     inkscape:pageshadow="2"
     inkscape:zoom="22.627418"
     inkscape:cx="17.420656"
     inkscape:cy="13.533892"
     inkscape:document-units="px"
     inkscape:current-layer="layer1"
     showgrid="true"
     inkscape:window-width="1164"
     inkscape:window-height="982"
     inkscape:window-x="104"
     inkscape:window-y="89"
     inkscape:window-maximized="0"
     inkscape:snap-global="false">
    <inkscape:grid
       type="xygrid"
       id="grid3966" />
  </sodipodi:namedview>
  <metadata
     id="metadata7">
    <rdf:RDF>
      <cc:Work
         rdf:about="">
        <dc:format>image/svg+xml</dc:format>
        <dc:type
           rdf:resource="http://purl.org/dc/dcmitype/StillImage" />
        <dc:title />
      </cc:Work>
    </rdf:RDF>
  </metadata>
  <g
     inkscape:label="Layer 1"
     inkscape:groupmode="layer"
     id="layer1"
     style="display:inline"
     transform="translate(0,-1036.3622)">
    <path
       style="fill:url(#linearGradient5268);fill-opacity:1;stroke:url(#linearGradient5273);stroke-width:0.58432114000000002;stroke-linecap:round;stroke-linejoin:round;stroke-miterlimit:4;stroke-opacity:1;stroke-dasharray:none;stroke-dashoffset:0;display:inline"
       d="m 11.9375,1051.8937 c 1.7874,0 3.46875,-1.7831 3.46875,-3.5313 l 0,-1.7187 c 0,-0.3903 -0.2972,-0.7188 -0.6875,-0.7188 l -0.53125,0 c -0.3903,0 -0.71875,0.3284 -0.71875,0.7188 l 0,0.75 c 0,2.0179 -0.50225,2.5468 -2.53125,2.5468 -0.968012,0.035 -1.9599802,0 -2.96875,0 -2.017902,0 -2.53125,-0.4866 -2.53125,-2.5156 l 0,-0.5 2.25,0 0,-1 -3.21875,-3.2187 -3.21875,3.2187 0,1 2.21875,0 0,1.5 c 0,1.7874 1.783035,3.4688 3.53125,3.4688 l 3.4375,0 0.28125,0 z"
       id="rect3968"
       inkscape:connector-curvature="0"
       sodipodi:nodetypes="sssssssccscccccccssccs" />
    <path
       style="font-size:medium;font-style:normal;font-variant:normal;font-weight:normal;font-stretch:normal;text-indent:0;text-align:start;text-decoration:none;line-height:normal;letter-spacing:normal;word-spacing:normal;text-transform:none;direction:ltr;block-progression:tb;writing-mode:lr-tb;text-anchor:start;baseline-shift:baseline;opacity:0.5;color:#000000;fill:url(#linearGradient7263-1);fill-opacity:1;stroke:none;stroke-width:1.5;marker:none;visibility:visible;display:inline;overflow:visible;enable-background:accumulate;font-family:Sans;-inkscape-font-specification:Sans"
       d="m 5.152501,1049.4929 0,-2.5625 a 0.29218979,0.29218979 0 0 1 0.031,-0.125 0.29218979,0.29218979 0 0 1 0.062,-0.094 0.29218979,0.29218979 0 0 1 0.062,-0.031 0.29218979,0.29218979 0 0 1 0.125,-0.031 l 1.9687003,0 0,-0.5625 -2.9375003,-2.9375 -2.9375,2.9375 0,0.5625 1.9375,0 a 0.29218979,0.29218979 0 0 1 0.062,0 0.29218979,0.29218979 0 0 1 0.1563,0.094 0.29218979,0.29218979 0 0 1 0.031,0.062 0.29218979,0.29218979 0 0 1 0.031,0.094 0.29218979,0.29218979 0 0 1 0,0.031 l 0,2.5625 0.4687,0 0,-2.5625 a 0.750075,0.750075 0 0 0 -0.75,-0.75 l -1.4062,0 2.4062,-2.4063 2.4063,2.4063 -1.4375,0 a 0.750075,0.750075 0 0 0 -0.75,0.75 l 0,2.5625 0.4687,0 z"
       id="rect3968-7"
       inkscape:connector-curvature="0" />
    <path
       sodipodi:nodetypes="cccc"
       inkscape:connector-curvature="0"
       id="path8117"
       d="m 8.3965203,1037.4096 6.4339577,3.47 -6.3966655,3.4636 z"
       style="fill:url(#linearGradient14026);fill-opacity:1;stroke:url(#linearGradient14028);stroke-width:0.77096093;stroke-linejoin:round;stroke-miterlimit:4;stroke-opacity:1;stroke-dasharray:none;display:inline" />
  </g>
</svg>
