<?xml version="1.0" encoding="UTF-8" standalone="no"?>
<!-- Created with Inkscape (http://www.inkscape.org/) -->

<svg
   xmlns:dc="http://purl.org/dc/elements/1.1/"
   xmlns:cc="http://creativecommons.org/ns#"
   xmlns:rdf="http://www.w3.org/1999/02/22-rdf-syntax-ns#"
   xmlns:svg="http://www.w3.org/2000/svg"
   xmlns="http://www.w3.org/2000/svg"
   xmlns:xlink="http://www.w3.org/1999/xlink"
   xmlns:sodipodi="http://sodipodi.sourceforge.net/DTD/sodipodi-0.dtd"
   xmlns:inkscape="http://www.inkscape.org/namespaces/inkscape"
   width="16"
   height="16"
   id="svg2"
   version="1.1"
   inkscape:version="0.48.0 r9654"
   sodipodi:docname="ant_targets.svg">
  <defs
     id="defs4">
    <radialGradient
       inkscape:collect="always"
       xlink:href="#linearGradient5328-5"
       id="radialGradient5366-0"
       gradientUnits="userSpaceOnUse"
       gradientTransform="matrix(0.43860549,0,0,0.40879915,4.4038399,1.7465522)"
       cx="7.8444657"
       cy="3.0830808"
       fx="7.8444657"
       fy="3.0830808"
       r="2.3503494" />
    <linearGradient
       id="linearGradient5328-5">
      <stop
         style="stop-color:#ffffff;stop-opacity:1;"
         offset="0"
         id="stop5330-9" />
      <stop
         style="stop-color:#464646;stop-opacity:1;"
         offset="1"
         id="stop5332-8" />
    </linearGradient>
    <linearGradient
       inkscape:collect="always"
       xlink:href="#linearGradient5209-0"
       id="linearGradient5368-1"
       gradientUnits="userSpaceOnUse"
       x1="7.8304267"
       y1="5.5753322"
       x2="7.8304267"
       y2="1.5043108" />
    <linearGradient
       id="linearGradient5209-0">
      <stop
         style="stop-color:#5c5c5c;stop-opacity:1;"
         offset="0"
         id="stop5211-9" />
      <stop
         style="stop-color:#aeaeae;stop-opacity:1;"
         offset="1"
         id="stop5213-4" />
    </linearGradient>
    <radialGradient
       inkscape:collect="always"
       xlink:href="#linearGradient5328-5"
       id="radialGradient5370-9"
       gradientUnits="userSpaceOnUse"
       gradientTransform="matrix(0.57492068,0,0,0.56784337,3.3251271,1.624137)"
       cx="7.8992386"
       cy="3.0519018"
       fx="7.8992386"
       fy="3.0519018"
       r="2.3503494" />
    <linearGradient
       inkscape:collect="always"
       xlink:href="#linearGradient5209-0"
       id="linearGradient5372-5"
       gradientUnits="userSpaceOnUse"
       x1="7.8304267"
       y1="5.9680095"
       x2="7.8304267"
       y2="2.8697674" />
    <radialGradient
       inkscape:collect="always"
       xlink:href="#linearGradient5328-5"
       id="radialGradient5374-4"
       gradientUnits="userSpaceOnUse"
       gradientTransform="matrix(0.46051529,0,0,0.4056276,4.2200483,1.9923988)"
       cx="7.8223686"
       cy="2.5272996"
       fx="7.8223686"
       fy="2.5272996"
       r="2.3503494" />
    <linearGradient
       inkscape:collect="always"
       xlink:href="#linearGradient5209-0"
       id="linearGradient5376-4"
       gradientUnits="userSpaceOnUse"
       x1="7.8451643"
       y1="5.6525216"
       x2="7.8451643"
       y2="1.0179684" />
  </defs>
  <sodipodi:namedview
     id="base"
     pagecolor="#ffffff"
     bordercolor="#666666"
     borderopacity="1.0"
     inkscape:pageopacity="0.0"
     inkscape:pageshadow="2"
     inkscape:zoom="1.4142136"
     inkscape:cx="-83.247723"
     inkscape:cy="7.0034183"
     inkscape:document-units="px"
     inkscape:current-layer="layer1"
     showgrid="false"
     inkscape:window-width="1241"
     inkscape:window-height="814"
     inkscape:window-x="1304"
     inkscape:window-y="477"
     inkscape:window-maximized="0"
     showguides="true"
     inkscape:guide-bbox="true" />
  <metadata
     id="metadata7">
    <rdf:RDF>
      <cc:Work
         rdf:about="">
        <dc:format>image/svg+xml</dc:format>
        <dc:type
           rdf:resource="http://purl.org/dc/dcmitype/StillImage" />
        <dc:title />
      </cc:Work>
    </rdf:RDF>
  </metadata>
  <g
     inkscape:label="Layer 1"
     inkscape:groupmode="layer"
     id="layer1"
     style="display:inline"
     transform="translate(0,-1036.3622)">
    <g
       style="display:inline"
       id="g5354"
       transform="translate(-10.5625,-0.1875003)">
      <path
         style="fill:#464646;fill-opacity:1;stroke:none;display:inline"
         d="m 15.879507,1051.0355 1.0625,0 c 0,0 -0.01559,-1.2145 0,-1.6421 0.03102,-0.8506 0.735541,-1.4322 1.781631,-1.5285 l 0.56007,-1.0026 c -0.259641,0.041 -1.880308,0.1681 -2.53656,0.6184 -0.68501,0.4699 -0.867641,1.0111 -0.867641,1.5343 0,0.8495 0,2.0205 0,2.0205 z"
         id="path5232-8"
         inkscape:connector-curvature="0"
         sodipodi:nodetypes="ccsccssc" />
      <path
         style="fill:#464646;fill-opacity:1;stroke:none"
         d="m 15.879507,1040.7372 1.0625,0 c 0,0 -0.01559,0.9707 0,1.3125 0.03102,0.6799 0.757638,0.8798 1.803728,0.9568 l -0.368927,1.0914 c -0.259641,-0.033 -0.973408,-0.1594 -1.62966,-0.5193 -0.68501,-0.3756 -0.867641,-0.8082 -0.867641,-1.2264 0,-0.679 0,-1.615 0,-1.615 z"
         id="path5232"
         inkscape:connector-curvature="0"
         sodipodi:nodetypes="ccsccssc" />
      <path
         style="fill:#464646;fill-opacity:1;stroke:none;display:inline"
         d="m 24.96266,1051.0355 -1.0625,0 c 0,0 0.01559,-1.2145 0,-1.6421 -0.03102,-0.8506 -0.735542,-1.4322 -1.781631,-1.5285 l -0.670556,-1.0026 c 0.259641,0.041 1.990794,0.1681 2.647046,0.6184 0.68501,0.4699 0.867641,1.0111 0.867641,1.5343 0,0.8495 0,2.0205 0,2.0205 z"
         id="path5232-8-6"
         inkscape:connector-curvature="0"
         sodipodi:nodetypes="ccsccssc" />
      <rect
         style="fill:#464646;fill-opacity:1;stroke:none"
         id="rect5291"
         width="3.4692426"
         height="0.9722718"
         x="15.202796"
         y="1044.6693" />
      <rect
         style="fill:#464646;fill-opacity:1;stroke:none;display:inline"
         id="rect5291-0"
         width="3.4692426"
         height="0.9722718"
         x="22.141281"
         y="1044.6693" />
      <path
         style="fill:#464646;fill-opacity:1;stroke:none;display:inline"
         d="m 25.026985,1040.7372 -1.0625,0 c 0,0 0.01559,0.9707 0,1.3125 -0.03102,0.6799 -0.757638,0.8798 -1.803728,0.9568 l 0.368927,1.0914 c 0.259641,-0.033 0.973408,-0.1594 1.62966,-0.5193 0.68501,-0.3756 0.867641,-0.8082 0.867641,-1.2264 0,-0.679 0,-1.615 0,-1.615 z"
         id="path5232-0"
         inkscape:connector-curvature="0"
         sodipodi:nodetypes="ccsccssc" />
      <g
         id="g5221"
         transform="translate(2.7545071,0)">
        <path
           transform="translate(9.8218299,1036.1412)"
           d="m 9.7227181,3.7582138 c 0,1.1959806 -0.8508154,2.1655144 -1.9003495,2.1655144 -1.049534,0 -1.9003495,-0.9695338 -1.9003495,-2.1655144 0,-1.1959807 0.8508155,-2.1655145 1.9003495,-2.1655145 1.0495341,0 1.9003495,0.9695338 1.9003495,2.1655145 z"
           sodipodi:ry="2.1655145"
           sodipodi:rx="1.9003495"
           sodipodi:cy="3.7582138"
           sodipodi:cx="7.8223686"
           id="path5160"
           style="fill:url(#radialGradient5366-0);fill-opacity:1;stroke:url(#linearGradient5368-1);stroke-width:0.89999998;stroke-miterlimit:4;stroke-opacity:1;stroke-dasharray:none"
           sodipodi:type="arc" />
        <path
           transform="translate(9.82183,1045.3778)"
           d="m 9.7227181,3.7582138 c 0,1.1959806 -0.8508154,2.1655144 -1.9003495,2.1655144 -1.049534,0 -1.9003495,-0.9695338 -1.9003495,-2.1655144 0,-1.1959807 0.8508155,-2.1655145 1.9003495,-2.1655145 1.0495341,0 1.9003495,0.9695338 1.9003495,2.1655145 z"
           sodipodi:ry="2.1655145"
           sodipodi:rx="1.9003495"
           sodipodi:cy="3.7582138"
           sodipodi:cx="7.8223686"
           id="path5160-4"
           style="fill:url(#radialGradient5370-9);fill-opacity:1;stroke:url(#linearGradient5372-5);stroke-width:0.89999998;stroke-miterlimit:4;stroke-opacity:1;stroke-dasharray:none;display:inline"
           sodipodi:type="arc" />
        <path
           transform="matrix(0.95654474,0,0,0.95654474,10.148006,1040.9638)"
           d="m 9.7227181,3.7582138 c 0,1.1959806 -0.8508154,2.1655144 -1.9003495,2.1655144 -1.049534,0 -1.9003495,-0.9695338 -1.9003495,-2.1655144 0,-1.1959807 0.8508155,-2.1655145 1.9003495,-2.1655145 1.0495341,0 1.9003495,0.9695338 1.9003495,2.1655145 z"
           sodipodi:ry="2.1655145"
           sodipodi:rx="1.9003495"
           sodipodi:cy="3.7582138"
           sodipodi:cx="7.8223686"
           id="path5160-2"
           style="fill:url(#radialGradient5374-4);fill-opacity:1;stroke:url(#linearGradient5376-4);stroke-width:0.89999998;stroke-miterlimit:4;stroke-opacity:1;stroke-dasharray:none;display:inline"
           sodipodi:type="arc" />
      </g>
    </g>
    <path
       style="fill:#005596;fill-opacity:1;stroke:#3fa6ff;stroke-width:0.60000002;stroke-linecap:butt;stroke-linejoin:miter;stroke-miterlimit:4;stroke-opacity:1;stroke-dasharray:none;display:inline"
       d="m 9.1875,1041.081 -5.25,5 -2.0625,-2.0625 -1.125,1.125 3.046875,3.0468 6.078125,-6.3593 z"
       id="path5730"
       inkscape:connector-curvature="0" />
  </g>
</svg>
