<?xml version="1.0" encoding="UTF-8" standalone="no"?>
<!-- Created with Inkscape (http://www.inkscape.org/) -->

<svg
   xmlns:dc="http://purl.org/dc/elements/1.1/"
   xmlns:cc="http://creativecommons.org/ns#"
   xmlns:rdf="http://www.w3.org/1999/02/22-rdf-syntax-ns#"
   xmlns:svg="http://www.w3.org/2000/svg"
   xmlns="http://www.w3.org/2000/svg"
   xmlns:xlink="http://www.w3.org/1999/xlink"
   xmlns:sodipodi="http://sodipodi.sourceforge.net/DTD/sodipodi-0.dtd"
   xmlns:inkscape="http://www.inkscape.org/namespaces/inkscape"
   width="16"
   height="16"
   id="svg2"
   version="1.1"
   inkscape:version="0.48.5 r10040"
   sodipodi:docname="javadoc.svg">
  <defs
     id="defs4">
    <linearGradient
       inkscape:collect="always"
       xlink:href="#linearGradient4994-6"
       id="linearGradient30755"
       gradientUnits="userSpaceOnUse"
       gradientTransform="matrix(0.89838983,0,0,0.89838983,1.5637657,103.4707)"
       x1="9.8946028"
       y1="1039.153"
       x2="9.8946028"
       y2="1051.8378" />
    <linearGradient
       inkscape:collect="always"
       id="linearGradient4994-6">
      <stop
         style="stop-color:#f9fafc;stop-opacity:1;"
         offset="0"
         id="stop4996-1" />
      <stop
         style="stop-color:#dce7f7;stop-opacity:1"
         offset="1"
         id="stop4998-89" />
    </linearGradient>
    <linearGradient
       inkscape:collect="always"
       xlink:href="#linearGradient4894-6"
       id="linearGradient4900-1"
       x1="7.9987183"
       y1="1042.2307"
       x2="9.9874563"
       y2="1040.3303"
       gradientUnits="userSpaceOnUse"
       gradientTransform="translate(4.011373,-2.0259004)" />
    <linearGradient
       inkscape:collect="always"
       id="linearGradient4894-6">
      <stop
         style="stop-color:#e0c88f;stop-opacity:1"
         offset="0"
         id="stop4896-8" />
      <stop
         style="stop-color:#d5b269;stop-opacity:1"
         offset="1"
         id="stop4898-5" />
    </linearGradient>
    <linearGradient
       inkscape:collect="always"
       xlink:href="#linearGradient4902-3"
       id="linearGradient30752"
       gradientUnits="userSpaceOnUse"
       gradientTransform="matrix(0.89838983,0,0,0.89838983,1.5637657,103.47065)"
       x1="10.544736"
       y1="1038.5779"
       x2="10.544736"
       y2="1052.3228" />
    <linearGradient
       inkscape:collect="always"
       id="linearGradient4902-3">
      <stop
         style="stop-color:#bfb688;stop-opacity:1"
         offset="0"
         id="stop4904-2" />
      <stop
         style="stop-color:#8392b0;stop-opacity:1"
         offset="1"
         id="stop4906-2" />
    </linearGradient>
    <linearGradient
       inkscape:collect="always"
       xlink:href="#linearGradient4922-7-7-5"
       id="linearGradient7131-4"
       gradientUnits="userSpaceOnUse"
       gradientTransform="matrix(-1,0,0,-1,9,2100.7403)"
       x1="8.5"
       y1="1048.8934"
       x2="6.9999828"
       y2="1050.3622" />
    <linearGradient
       inkscape:collect="always"
       id="linearGradient4922-7-7-5">
      <stop
         style="stop-color:#0d5c9a;stop-opacity:1"
         offset="0"
         id="stop4924-2-1-3" />
      <stop
         style="stop-color:#4077a7;stop-opacity:1"
         offset="1"
         id="stop4926-0-0-32" />
    </linearGradient>
    <mask
       maskUnits="userSpaceOnUse"
       id="mask30820">
      <path
         style="fill:#ffffff;stroke:#ffffff;stroke-width:1;stroke-linecap:butt;stroke-linejoin:miter;stroke-miterlimit:4;stroke-opacity:1;stroke-dasharray:none;stroke-dashoffset:0;display:inline"
         d="m 6.502468,1036.8739 6.297416,0 2.719671,2.6386 0,9.3494 -9.017087,0 z"
         id="path30822"
         inkscape:connector-curvature="0"
         sodipodi:nodetypes="cccccc" />
    </mask>
    <filter
       color-interpolation-filters="sRGB"
       inkscape:collect="always"
       id="filter30832"
       x="-0.17523594"
       width="1.3504719"
       y="-0.18343621"
       height="1.3668724">
      <feGaussianBlur
         inkscape:collect="always"
         stdDeviation="0.72306731"
         id="feGaussianBlur30834" />
    </filter>
    <linearGradient
       y2="1051.8378"
       x2="9.8946028"
       y1="1039.153"
       x1="9.8946028"
       gradientTransform="matrix(0.89838983,0,0,0.89838983,1.5637657,103.47065)"
       gradientUnits="userSpaceOnUse"
       id="linearGradient17063"
       xlink:href="#linearGradient4994-6"
       inkscape:collect="always" />
  </defs>
  <sodipodi:namedview
     id="base"
     pagecolor="#ffffff"
     bordercolor="#666666"
     borderopacity="1.0"
     inkscape:pageopacity="0.0"
     inkscape:pageshadow="2"
     inkscape:zoom="7.919596"
     inkscape:cx="47.015393"
     inkscape:cy="-4.0317442"
     inkscape:document-units="px"
     inkscape:current-layer="text3909-7-7-1"
     showgrid="true"
     inkscape:window-width="1046"
     inkscape:window-height="1028"
     inkscape:window-x="874"
     inkscape:window-y="24"
     inkscape:window-maximized="0"
     inkscape:snap-global="false">
    <inkscape:grid
       type="xygrid"
       id="grid2985"
       empspacing="5"
       visible="true"
       enabled="true"
       snapvisiblegridlinesonly="true" />
  </sodipodi:namedview>
  <metadata
     id="metadata7">
    <rdf:RDF>
      <cc:Work
         rdf:about="">
        <dc:format>image/svg+xml</dc:format>
        <dc:type
           rdf:resource="http://purl.org/dc/dcmitype/StillImage" />
        <dc:title />
      </cc:Work>
    </rdf:RDF>
  </metadata>
  <g
     inkscape:label="Layer 1"
     inkscape:groupmode="layer"
     id="layer1"
     transform="translate(0,-1036.3622)">
    <path
       style="fill:url(#linearGradient17063);fill-opacity:1;stroke:none;display:inline"
       d="m 6.5024684,1036.8114 6.2974156,0 2.750921,2.7011 0,8.9431 -9.0483366,0 z"
       id="rect4001-3"
       inkscape:connector-curvature="0"
       sodipodi:nodetypes="cccccc" />
    <path
       style="fill:url(#linearGradient4900-1);fill-opacity:1;stroke:none;display:inline"
       d="m 11.987995,1036.4153 0,3.9112 3.977478,0 z"
       id="path4884"
       inkscape:connector-curvature="0" />
    <path
       style="fill:none;stroke:url(#linearGradient30752);stroke-width:1;stroke-linecap:butt;stroke-linejoin:miter;stroke-miterlimit:4;stroke-opacity:1;stroke-dasharray:none;stroke-dashoffset:0;display:inline"
       d="m 6.5024684,1036.8739 6.2974156,0 2.719671,2.6386 0,9.3494 -9.0170866,0 z"
       id="rect4001"
       inkscape:connector-curvature="0"
       sodipodi:nodetypes="cccccc" />
    <g
       style="display:inline"
       id="layer1-98"
       inkscape:label="Layer 1"
       transform="matrix(-1,0,0,-1,4.9891378,2100.729)">
      <path
         style="fill:url(#linearGradient7131-4);fill-opacity:1;stroke:none;display:inline"
         d="m 4.25,1052.3781 -4.25,0 0,-4.2813 z"
         id="path4920-9"
         inkscape:connector-curvature="0"
         sodipodi:nodetypes="cccc" />
    </g>
    <g
       style="display:inline"
       id="g30815"
       mask="url(#mask30820)">
      <g
         transform="matrix(0.80449962,0,-0.10385877,0.80449962,109.00448,202.05682)"
         inkscape:label="Layer 1"
         id="layer1-9-8"
         style="opacity:0.85;fill:#ffffff;fill-opacity:1;stroke:#ffffff;stroke-width:2.48601723;stroke-miterlimit:4;stroke-opacity:1;stroke-dasharray:none;display:inline;filter:url(#filter30832)">
        <g
           style="font-size:11.05178356px;font-style:normal;font-variant:normal;font-weight:normal;font-stretch:normal;text-align:start;line-height:125%;letter-spacing:0px;word-spacing:0px;writing-mode:lr-tb;text-anchor:start;fill:#ffffff;fill-opacity:1;stroke:#ffffff;stroke-width:2.48601723;stroke-miterlimit:4;stroke-opacity:1;stroke-dasharray:none;display:inline;font-family:AustralianFlyingCorpsStencil;-inkscape-font-specification:AustralianFlyingCorpsStencil"
           id="text3909-7-7-1-7"
           transform="translate(20,0)">
          <path
             style="fill:#ffffff;fill-opacity:1;stroke:#ffffff;stroke-width:2.48601723;stroke-miterlimit:4;stroke-opacity:1;stroke-dasharray:none"
             d="m -7.2191854,1043.532 c -9.8e-6,0.8694 -0.2357809,1.6504 -0.7073142,2.343 -0.5231262,0.7883 -1.2009683,1.1825 -2.0335281,1.1825 -0.3315603,0 -0.6115383,-0.085 -0.8399353,-0.2542 -0.250513,-0.1916 -0.379451,-0.4494 -0.386813,-0.7736 -0.397869,0.6778 -0.902567,1.0167 -1.514094,1.0167 -0.552593,0 -0.987296,-0.1694 -1.304111,-0.5083 -0.31682,-0.3463 -0.475229,-0.7995 -0.475226,-1.3594 -3e-6,-0.7736 0.279976,-1.4699 0.839935,-2.0888 0.559953,-0.6189 1.219376,-0.9283 1.97827,-0.9283 0.729411,0 1.123591,0.3094 1.18254,0.9283 l 0.24314,-0.8068 1.259903,0 c -0.2063077,0.6558 -0.4089236,1.3115 -0.6078481,1.9672 -0.2799856,0.9358 -0.4199749,1.5657 -0.4199679,1.8899 -7e-6,0.3389 0.1215627,0.5084 0.364709,0.5084 0.1105104,0 0.2615513,-0.059 0.4531231,-0.1769 1.0167553,-0.6262 1.5251368,-1.6025 1.5251461,-2.9287 -9.3e-6,-1.0241 -0.3462981,-1.8382 -1.0388676,-2.4424 -0.6631146,-0.5673 -1.5141016,-0.851 -2.5529616,-0.851 -1.304115,0 -2.379821,0.4605 -3.227121,1.3815 -0.817834,0.8915 -1.226749,1.9967 -1.226748,3.3155 -10e-7,1.201 0.372075,2.144 1.11623,2.8293 0.714679,0.6557 1.679867,0.9836 2.895567,0.9836 1.090437,0 2.232453,-0.3721 3.4260531,-1.1163 l 0.2431393,0.3537 c -1.0757148,0.8252 -2.2914094,1.2378 -3.6470884,1.2378 -1.473575,0 -2.674534,-0.361 -3.602882,-1.0831 -1.009397,-0.7957 -1.514094,-1.9119 -1.514094,-3.3487 0,-1.4514 0.545221,-2.6598 1.635664,-3.625 1.0536,-0.9357 2.313503,-1.4035 3.77971,-1.4035 1.200954,0 2.1808775,0.3205 2.9397744,0.9615 0.8104548,0.6926 1.2156864,1.6246 1.2156962,2.7961 m -3.6139336,-0.3537 c -6e-6,-0.361 -0.162098,-0.5415 -0.486278,-0.5415 -0.456812,0 -0.869412,0.4236 -1.2378,1.2709 -0.32419,0.7295 -0.486282,1.3594 -0.486278,1.8899 -4e-6,0.5084 0.198928,0.7626 0.596796,0.7626 0.397859,0 0.780987,-0.4716 1.149385,-1.4147 0.309444,-0.8104 0.464169,-1.4662 0.464175,-1.9672"
             id="path4719-4"
             inkscape:connector-curvature="0" />
        </g>
      </g>
    </g>
    <path
       style="fill:#ffffff;stroke:none;stroke-width:1px;stroke-linecap:butt;stroke-linejoin:miter;stroke-opacity:1;fill-opacity:1"
       d="m 9.7767857,8.5446429 0,-1.3839286 L 10.357143,6.4910714 10.803571,5.1964286 10.580357,3.9017857 9.9107143,2.9196429 8.9732143,2.3839286 7.4553571,2.25 c 0,0 -1.0267857,0.3125 -1.2053571,0.3125 -0.1785714,0 -1.5625,1.1607143 -1.5625,1.1607143 L 3.7946429,5.0625 c 0,0 -0.3125,1.2053571 -0.3125,1.6517857 0,0.4464286 0.4464285,1.5625 0.4464285,1.5625 L 4.9107143,9.0357143 5.7142857,9.4375 6.6964286,9.6607143 7.9910714,9.3035714 9.1517857,9.0803571 z"
       id="path3016"
       inkscape:connector-curvature="0"
       transform="translate(0,1036.3622)" />
    <g
       style="fill:#236298;fill-opacity:1;stroke:#236298;stroke-width:0.24860173;stroke-miterlimit:4;stroke-opacity:1;stroke-dasharray:none;display:inline"
       id="layer1-9"
       inkscape:label="Layer 1"
       transform="matrix(0.80449962,0,-0.10385877,0.80449962,109.00448,202.05677)">
      <g
         transform="translate(20,0)"
         id="text3909-7-7-1"
         style="font-size:11.05178356px;font-style:normal;font-variant:normal;font-weight:normal;font-stretch:normal;text-align:start;line-height:125%;letter-spacing:0px;word-spacing:0px;writing-mode:lr-tb;text-anchor:start;fill:#236298;fill-opacity:1;stroke:#236298;stroke-width:0.24860173;stroke-miterlimit:4;stroke-opacity:1;stroke-dasharray:none;display:inline;font-family:AustralianFlyingCorpsStencil;-inkscape-font-specification:AustralianFlyingCorpsStencil">
        <path
           inkscape:connector-curvature="0"
           id="path4719"
           d="m -7.2293165,1043.4535 c -9.8e-6,0.8694 -0.2357809,1.6504 -0.7073142,2.343 -0.5231262,0.7883 -1.2009683,1.1825 -2.0335281,1.1825 -0.3315602,0 -0.6115382,-0.085 -0.8399352,-0.2542 -0.250513,-0.1916 -0.379451,-0.4494 -0.386813,-0.7736 -0.397869,0.6778 -0.902567,1.0167 -1.514094,1.0167 -0.552593,0 -0.707553,-0.1265 -1.065203,-0.5574 -0.35765,-0.4309 -0.410361,-0.8289 -0.410358,-1.3888 -3e-6,-0.7736 0.263675,-1.5282 0.833603,-2.1378 0.450158,-0.4816 0.921932,-0.8008 1.680826,-0.8008 0.729411,0 1.123591,0.3094 1.18254,0.9283 l 0.24314,-0.8068 0.7694231,0 c -0.2063077,0.6558 -0.4089236,1.3115 -0.6078481,1.9672 -0.279986,0.9358 -0.351978,1.3406 -0.216821,1.7918 0.135158,0.4512 0.4088956,0.6065 0.6520419,0.6065 0.1105104,0 0.2615513,-0.059 0.4531231,-0.1769 1.0167553,-0.6262 1.5251368,-1.6025 1.5251461,-2.9287 -9.3e-6,-1.0241 -0.3462981,-1.8382 -1.0388676,-2.4424 -0.6631146,-0.5673 -1.8723125,-0.8902 -2.9111725,-0.8902 -1.304115,0 -2.379821,0.4605 -3.227121,1.3815 -0.817834,0.8915 -1.226749,1.9967 -1.226748,3.3155 -1e-6,1.201 0.372075,2.144 1.11623,2.8293 0.714679,0.6557 2.038078,1.0228 3.253778,1.0228 1.090437,0 2.2324529,-0.3721 3.426053,-1.1163 l 0.2431393,0.3537 c -1.0757148,0.8252 -2.2914093,1.2378 -3.6470883,1.2378 -1.473575,0 -2.674534,-0.361 -3.602882,-1.0831 -1.009397,-0.7957 -1.514094,-1.9119 -1.514094,-3.3487 0,-1.4514 0.545221,-2.6598 1.635664,-3.625 1.0536,-0.9357 2.313503,-1.4035 3.77971,-1.4035 1.200954,0 2.1808774,0.3205 2.9397743,0.9615 0.8104548,0.6926 1.2156864,1.6246 1.2156962,2.7961 m -3.6139335,-0.3537 c -6e-6,-0.361 -0.583657,-0.5831 -0.907837,-0.5831 -0.456812,0 -1.078426,0.2143 -1.482368,0.9397 -0.403942,0.7254 -0.378698,1.2809 -0.378694,1.8114 0.0048,0.7733 0.530584,1.2041 1.155339,1.2139 0.398618,0.01 0.780987,-0.4716 1.149385,-1.4147 0.309444,-0.8104 0.464169,-1.4662 0.464175,-1.9672"
           style="fill:#236298;fill-opacity:1;stroke:#236298;stroke-width:0.24860173;stroke-miterlimit:4;stroke-opacity:1;stroke-dasharray:none"
           sodipodi:nodetypes="ccsccszssscccczscccscscsccscscscccszcscc" />
      </g>
    </g>
  </g>
</svg>
