<?xml version="1.0" encoding="UTF-8" standalone="no"?>
<svg
   xmlns:dc="http://purl.org/dc/elements/1.1/"
   xmlns:cc="http://creativecommons.org/ns#"
   xmlns:rdf="http://www.w3.org/1999/02/22-rdf-syntax-ns#"
   xmlns:svg="http://www.w3.org/2000/svg"
   xmlns="http://www.w3.org/2000/svg"
   xmlns:xlink="http://www.w3.org/1999/xlink"
   xmlns:sodipodi="http://sodipodi.sourceforge.net/DTD/sodipodi-0.dtd"
   xmlns:inkscape="http://www.inkscape.org/namespaces/inkscape"
   version="1.1"
   id="svg2"
   height="16"
   width="16"
   inkscape:version="0.91 r13725"
   sodipodi:docname="att_req_obj.svg">
  <sodipodi:namedview
     pagecolor="#ffffff"
     bordercolor="#666666"
     borderopacity="1"
     objecttolerance="10"
     gridtolerance="10"
     guidetolerance="10"
     inkscape:pageopacity="0"
     inkscape:pageshadow="2"
     inkscape:window-width="1289"
     inkscape:window-height="835"
     id="namedview16"
     showgrid="false"
     inkscape:zoom="20.85965"
     inkscape:cx="7.2258713"
     inkscape:cy="5.1617109"
     inkscape:window-x="1050"
     inkscape:window-y="728"
     inkscape:window-maximized="0"
     inkscape:current-layer="g3353" />
  <defs
     id="defs4">
    <linearGradient
       gradientTransform="translate(-5.8885488,2.5382812e-5)"
       gradientUnits="userSpaceOnUse"
       y2="1039.3397"
       x2="8.3145638"
       y1="1040.4003"
       x1="8.3145638"
       id="linearGradient4212"
       xlink:href="#linearGradient4158" />
    <linearGradient
       id="linearGradient4158">
      <stop
         id="stop4160"
         offset="0"
         style="stop-color:#fdae35;stop-opacity:1;" />
      <stop
         id="stop4162"
         offset="1"
         style="stop-color:#fef0db;stop-opacity:1" />
    </linearGradient>
  </defs>
  <metadata
     id="metadata7">
    <rdf:RDF>
      <cc:Work
         rdf:about="">
        <dc:format>image/svg+xml</dc:format>
        <dc:type
           rdf:resource="http://purl.org/dc/dcmitype/StillImage" />
        <dc:title />
      </cc:Work>
    </rdf:RDF>
  </metadata>
  <g
     transform="translate(0,-1036.3622)"
     id="layer1">
    <g
       id="g4242">
      <g
         id="g3353"
         transform="translate(-9.5563496,1.5893083)">
        <g
           transform="matrix(0.99875325,0,0,1.1286622,-0.97054126,-82.693534)"
           style="font-style:normal;font-variant:normal;font-weight:normal;font-stretch:normal;font-size:8.9916935px;line-height:125%;font-family:Serif;text-align:start;letter-spacing:0px;word-spacing:0px;writing-mode:lr-tb;text-anchor:start;fill:#387838;fill-opacity:1;stroke:#266923;stroke-width:0.27821511;stroke-miterlimit:4;stroke-dasharray:none;stroke-opacity:1"
           id="g4159">
          <circle
             r="4.4886336"
             cy="1044.7421"
             cx="20.544279"
             style="font-style:normal;font-weight:normal;font-size:13.58917427px;line-height:125%;font-family:Sans;letter-spacing:0px;word-spacing:0px;display:inline;fill:#ffffff;fill-opacity:1;stroke:#266923;stroke-width:1;stroke-linecap:round;stroke-linejoin:round;stroke-miterlimit:4;stroke-dasharray:none;stroke-dashoffset:0;stroke-opacity:1"
             id="path10796-2-6-2"
             transform="matrix(1.0012483,0,0,0.88600469,0.97175283,73.294583)" />
          <path
             sodipodi:open="true"
             d="m 24.43155,1046.9864 a 4.4886336,4.4886336 0 0 1 -1.642954,1.6429"
             sodipodi:end="1.0471976"
             sodipodi:start="0.52359878"
             sodipodi:ry="4.4886336"
             sodipodi:rx="4.4886336"
             sodipodi:cy="1044.7421"
             sodipodi:cx="20.544279"
             sodipodi:type="arc"
             style="font-style:normal;font-weight:normal;font-size:13.58917427px;line-height:125%;font-family:Sans;letter-spacing:0px;word-spacing:0px;display:inline;fill:none;fill-opacity:1;stroke:#ffffff;stroke-width:1;stroke-linecap:round;stroke-linejoin:miter;stroke-miterlimit:4;stroke-dasharray:none;stroke-dashoffset:0;stroke-opacity:1"
             id="path10796-2-6-2-2"
             transform="matrix(1.0012483,0,0,0.88600469,0.97175283,73.294583)" />
          <path
             d="m 22.620507,999.74158 0,-0.98021 -1.040788,0 c -0.401091,0 -0.699714,0.0857 -0.895868,0.25704 -0.196155,0.17135 -0.294232,0.43419 -0.294232,0.78852 0,0.32237 0.09954,0.57797 0.298623,0.76677 0.199082,0.1887 0.468428,0.2831 0.808038,0.2831 0.336682,0 0.607492,-0.1031 0.812429,-0.3093 0.207865,-0.2062 0.311798,-0.4748 0.311798,-0.80592 z m 0.808037,-1.43764 -0.01946,1.97066 1.6957,1.5699 -0.444853,0.3635 -1.601857,-1.6986 -0.459711,0.2744 c -0.244962,0.1855 -0.362864,0.285 -0.597079,0.3867 -0.234214,0.1017 -0.507951,0.1525 -0.821211,0.1525 -0.518199,0 -0.929537,-0.1365 -1.234015,-0.4095 -0.304478,-0.2731 -0.456717,-0.6419 -0.456717,-1.10657 0,-0.47921 0.174196,-0.85097 0.522589,-1.11526 0.348394,-0.26429 0.840243,-0.39644 1.475548,-0.39644 l 1.13301,0 0,-0.31802 c 0,-0.35143 -0.108324,-0.62298 -0.324973,-0.81467 -0.213719,-0.19459 -0.51527,-0.29188 -0.904651,-0.29188 -0.322044,0 -0.578215,0.0726 -0.768514,0.21782 -0.190299,0.14521 -0.308869,0.36013 -0.355712,0.64476 l -0.417193,0 0,-0.93664 c 0.281057,-0.11908 0.55333,-0.20766 0.816821,-0.26575 0.266418,-0.061 0.525517,-0.0915 0.777297,-0.0915 0.647015,0 1.138864,0.15974 1.475547,0.47921 0.33961,0.31657 0.509415,0.77836 0.509415,1.38537 z"
             style="fill:#266923;fill-opacity:1;stroke:#266923;stroke-width:0.27716896;stroke-miterlimit:4;stroke-dasharray:none;stroke-opacity:1"
             id="path4156"
             inkscape:connector-curvature="0"
             sodipodi:nodetypes="scscscscsccccccsscssscscssccccscsc" />
        </g>
      </g>
      <rect
         ry="0.90977556"
         rx="0.90977556"
         y="1037.8778"
         x="0.50490195"
         height="3.984375"
         width="3.984375"
         id="rect4204"
         style="opacity:0.99715307;fill:url(#linearGradient4212);fill-opacity:1;stroke:#8d602e;stroke-width:1;stroke-miterlimit:4;stroke-dasharray:none;stroke-opacity:1" />
    </g>
  </g>
</svg>
