<?xml version="1.0" encoding="UTF-8" standalone="no"?>
<!-- Created with Inkscape (http://www.inkscape.org/) -->

<svg
   xmlns:dc="http://purl.org/dc/elements/1.1/"
   xmlns:cc="http://creativecommons.org/ns#"
   xmlns:rdf="http://www.w3.org/1999/02/22-rdf-syntax-ns#"
   xmlns:svg="http://www.w3.org/2000/svg"
   xmlns="http://www.w3.org/2000/svg"
   xmlns:xlink="http://www.w3.org/1999/xlink"
   xmlns:sodipodi="http://sodipodi.sourceforge.net/DTD/sodipodi-0.dtd"
   xmlns:inkscape="http://www.inkscape.org/namespaces/inkscape"
   width="16"
   height="16"
   id="svg2"
   version="1.1"
   inkscape:version="0.91 r13725"
   sodipodi:docname="element.svg">
  <defs
     id="defs4">
    <linearGradient
       inkscape:collect="always"
       id="linearGradient4163">
      <stop
         style="stop-color:#1c65a2;stop-opacity:1"
         offset="0"
         id="stop4165" />
      <stop
         style="stop-color:#6a9ac2;stop-opacity:1"
         offset="1"
         id="stop4167" />
    </linearGradient>
    <linearGradient
       inkscape:collect="always"
       id="linearGradient4883">
      <stop
         style="stop-color:#eefaff;stop-opacity:1"
         offset="0"
         id="stop4885" />
      <stop
         style="stop-color:#fcffff;stop-opacity:1"
         offset="1"
         id="stop4887" />
    </linearGradient>
    <linearGradient
       inkscape:collect="always"
       xlink:href="#linearGradient4883"
       id="linearGradient4889"
       x1="28"
       y1="1039.3622"
       x2="28"
       y2="1049.3622"
       gradientUnits="userSpaceOnUse"
       gradientTransform="translate(-20,0)" />
    <linearGradient
       inkscape:collect="always"
       xlink:href="#linearGradient4163"
       id="linearGradient4169"
       x1="8"
       y1="1050.3622"
       x2="8"
       y2="1038.3622"
       gradientUnits="userSpaceOnUse" />
  </defs>
  <sodipodi:namedview
     id="base"
     pagecolor="#ffffff"
     bordercolor="#666666"
     borderopacity="1.0"
     inkscape:pageopacity="0.0"
     inkscape:pageshadow="2"
     inkscape:zoom="22.627417"
     inkscape:cx="7.8349134"
     inkscape:cy="4.0598941"
     inkscape:document-units="px"
     inkscape:current-layer="layer1"
     showgrid="true"
     inkscape:window-width="1006"
     inkscape:window-height="814"
     inkscape:window-x="1208"
     inkscape:window-y="639"
     inkscape:window-maximized="0"
     showguides="true"
     inkscape:guide-bbox="true"
     inkscape:snap-global="false">
    <inkscape:grid
       type="xygrid"
       id="grid3999" />
  </sodipodi:namedview>
  <metadata
     id="metadata7">
    <rdf:RDF>
      <cc:Work
         rdf:about="">
        <dc:format>image/svg+xml</dc:format>
        <dc:type
           rdf:resource="http://purl.org/dc/dcmitype/StillImage" />
        <dc:title />
      </cc:Work>
    </rdf:RDF>
  </metadata>
  <g
     inkscape:label="Layer 1"
     inkscape:groupmode="layer"
     id="layer1"
     style="display:inline"
     transform="translate(0,-1036.3622)">
    <path
       style="font-size:medium;font-style:normal;font-variant:normal;font-weight:normal;font-stretch:normal;text-indent:0;text-align:start;text-decoration:none;line-height:normal;letter-spacing:normal;word-spacing:normal;text-transform:none;direction:ltr;block-progression:tb;writing-mode:lr-tb;text-anchor:start;baseline-shift:baseline;color:#000000;fill:url(#linearGradient4169);fill-opacity:1;fill-rule:nonzero;stroke:none;stroke-width:1;marker:none;visibility:visible;display:inline;overflow:visible;enable-background:accumulate;font-family:Sans;-inkscape-font-specification:Sans"
       d="m 2,1038.3622 0.03125,12 11.96875,0 -0.03125,-12 z m 1,1 9.96875,0 0.03125,10 -9.96875,0 z"
       id="rect3997-9-1"
       inkscape:connector-curvature="0"
       sodipodi:nodetypes="cccccccccc"
       inkscape:export-filename="C:\Users\jmietling\Documents\rect3997-9-1.png"
       inkscape:export-xdpi="90"
       inkscape:export-ydpi="90" />
    <path
       style="font-size:medium;font-style:normal;font-variant:normal;font-weight:normal;font-stretch:normal;text-indent:0;text-align:start;text-decoration:none;line-height:normal;letter-spacing:normal;word-spacing:normal;text-transform:none;direction:ltr;block-progression:tb;writing-mode:lr-tb;text-anchor:start;baseline-shift:baseline;color:#000000;fill:url(#linearGradient4889);fill-opacity:1;fill-rule:nonzero;stroke:none;stroke-width:1;marker:none;visibility:visible;display:inline;overflow:visible;enable-background:accumulate;font-family:Sans;-inkscape-font-specification:Sans"
       d="m 3,1039.3622 9.96875,0 0.03125,10 -9.96875,0 z"
       id="rect3997-9-1-1"
       inkscape:connector-curvature="0" />
    <g
       transform="matrix(0.92701985,0,0,0.92908308,1.1505214,-11.113055)"
       style="font-style:normal;font-weight:normal;font-size:11.40601158px;line-height:125%;font-family:sans-serif;letter-spacing:0px;word-spacing:0px;fill:#113d95;fill-opacity:1;stroke:none;stroke-width:1px;stroke-linecap:butt;stroke-linejoin:miter;stroke-opacity:1"
       id="text4162">
      <path
         d="m 7.390042,1133.8908 c 0,0 -0.4093235,0.015 -1.0483383,0.015 0,0.926 0.022627,0.4658 0.00406,1.0827 l 2.0895325,0 c 0,-0.2934 0.00827,-0.5662 0.00827,-0.8019 0,-0.7536 0.015047,0.1258 0.015047,-0.268 -0.5059218,0 -1.0685709,-0.028 -1.0685709,-0.028 z m 0.2488377,5.372 c -0.4826763,0 -0.9096591,-0.072 -1.2809485,-0.2145 -0.3675765,-0.143 -0.6757468,-0.3499 -0.9245107,-0.6207 -0.2487639,-0.2708 -0.4362651,-0.6019 -0.5625035,-0.9931 -0.1262384,-0.3951 -0.1893576,-0.8446 -0.1893576,-1.3487 0,-0.5417 0.063119,-1.0175 0.1893576,-1.4276 0.1262384,-0.41 0.3100267,-0.7524 0.5513648,-1.027 0.2413381,-0.2746 0.5365132,-0.4796 0.8855253,-0.6151 0.352725,-0.1392 0.7537176,-0.2088 1.2029778,-0.2088 0.4121313,0 0.7834207,0.06 1.1138683,0.1806 0.3304476,0.1166 0.6107711,0.2916 0.8409706,0.5248 0.2301995,0.2332 0.4065619,0.5229 0.5290874,0.869 0.1225258,0.3461 0.1837888,0.7487 0.1837888,1.2075 l 0,0.5926 -3.7370287,0 c 0.011139,0.3874 0.05198,0.7203 0.1225255,0.9988 0.074258,0.2783 0.174506,0.5078 0.3007445,0.6883 0.1299513,0.1807 0.2858928,0.1937 0.4678247,0.2802 0.1856447,0.086 0.3972796,0.058 0.6349049,0.058 0.1967834,0 0.5457955,-0.019 0.5457955,-0.019 0,0 0.013833,-0.3359 0.081648,-0.4462 0.1217967,-0.1981 0.2050718,-0.3195 0.3480104,-0.3686 0.3070312,-0.1055 0.432417,-0.031 0.558238,0.015 0.125821,0.046 0.3821617,0.3767 0.3821617,0.64 0,0.1655 -0.044555,0.3235 -0.1336642,0.474 -0.089109,0.1467 -0.2264866,0.2765 -0.4121313,0.3893 -0.1856447,0.1129 -0.4195571,0.2032 -0.701737,0.2709 -0.2784671,0.068 -0.6107711,0.1016 -0.9969122,0.1016 z"
         style="font-style:normal;font-variant:normal;font-weight:bold;font-stretch:normal;font-family:'Droid Serif';-inkscape-font-specification:'Droid Serif Bold';fill:#113d95;fill-opacity:1"
         id="path4167"
         inkscape:connector-curvature="0"
         sodipodi:nodetypes="ccccsccccscscccscssscccccsccsszcscccc" />
    </g>
  </g>
</svg>
