<?xml version="1.0" encoding="UTF-8" standalone="no"?>
<!-- Created with Inkscape (http://www.inkscape.org/) -->

<svg
   xmlns:dc="http://purl.org/dc/elements/1.1/"
   xmlns:cc="http://creativecommons.org/ns#"
   xmlns:rdf="http://www.w3.org/1999/02/22-rdf-syntax-ns#"
   xmlns:svg="http://www.w3.org/2000/svg"
   xmlns="http://www.w3.org/2000/svg"
   xmlns:xlink="http://www.w3.org/1999/xlink"
   xmlns:sodipodi="http://sodipodi.sourceforge.net/DTD/sodipodi-0.dtd"
   xmlns:inkscape="http://www.inkscape.org/namespaces/inkscape"
   width="16"
   height="16"
   id="svg2"
   version="1.1"
   inkscape:version="0.91 r13725"
   sodipodi:docname="environment.svg">
  <defs
     id="defs4">
    <linearGradient
       inkscape:collect="always"
       id="linearGradient4361">
      <stop
         style="stop-color:#665d92;stop-opacity:1"
         offset="0"
         id="stop4364" />
      <stop
         style="stop-color:#429db9;stop-opacity:1"
         offset="1"
         id="stop4366" />
    </linearGradient>
    <linearGradient
       id="linearGradient8396">
      <stop
         id="stop8398"
         offset="0"
         style="stop-color:#6fd9ff;stop-opacity:1" />
      <stop
         style="stop-color:#55add0;stop-opacity:1"
         offset="0.5"
         id="stop8400" />
      <stop
         id="stop8402"
         offset="1"
         style="stop-color:#4364a7;stop-opacity:1" />
    </linearGradient>
    <linearGradient
       id="linearGradient8382">
      <stop
         style="stop-color:#adc270;stop-opacity:1"
         offset="0"
         id="stop8384" />
      <stop
         id="stop8392"
         offset="0.30035156"
         style="stop-color:#adc977;stop-opacity:1" />
      <stop
         style="stop-color:#af9a4d;stop-opacity:1;"
         offset="0.50022781"
         id="stop4363" />
      <stop
         id="stop8390"
         offset="1"
         style="stop-color:#5e3b1e;stop-opacity:1" />
    </linearGradient>
    <linearGradient
       id="linearGradient8382-7">
      <stop
         style="stop-color:#fffcf2;stop-opacity:1"
         offset="0"
         id="stop8384-4" />
      <stop
         id="stop8392-0"
         offset="0.35072023"
         style="stop-color:#adc977;stop-opacity:1" />
      <stop
         id="stop8390-9"
         offset="0.7120198"
         style="stop-color:#7f9f3f;stop-opacity:1" />
      <stop
         style="stop-color:#77775c;stop-opacity:1"
         offset="1"
         id="stop8386-4" />
    </linearGradient>
    <radialGradient
       inkscape:collect="always"
       xlink:href="#linearGradient8374"
       id="radialGradient8380"
       cx="-839.01245"
       cy="440.22455"
       fx="-839.01245"
       fy="440.22455"
       r="232.85715"
       gradientUnits="userSpaceOnUse"
       gradientTransform="matrix(-0.33102748,-5.1291738,6.9726876,-0.47367511,-5813.1835,-4441.9548)" />
    <linearGradient
       inkscape:collect="always"
       id="linearGradient8374">
      <stop
         style="stop-color:#6fd9ff;stop-opacity:1"
         offset="0"
         id="stop8376" />
      <stop
         id="stop4391"
         offset="0.72905892"
         style="stop-color:#23aeff;stop-opacity:1" />
      <stop
         style="stop-color:#4364a7;stop-opacity:1"
         offset="1"
         id="stop8378" />
    </linearGradient>
    <linearGradient
       gradientTransform="matrix(2.4504897,0,0,2.4504897,-745.02988,750.67901)"
       inkscape:collect="always"
       xlink:href="#linearGradient5184"
       id="linearGradient5190"
       x1="3.6013324"
       y1="3.5372436"
       x2="5.583477"
       y2="1.5550991"
       gradientUnits="userSpaceOnUse" />
    <linearGradient
       inkscape:collect="always"
       id="linearGradient5184">
      <stop
         style="stop-color:#7d6f79;stop-opacity:1"
         offset="0"
         id="stop5186" />
      <stop
         style="stop-color:#aaa2a9;stop-opacity:1"
         offset="1"
         id="stop5188" />
    </linearGradient>
    <radialGradient
       inkscape:collect="always"
       xlink:href="#linearGradient8382"
       id="radialGradient4361"
       cx="-2261.5786"
       cy="-1.6735967"
       fx="-2261.5786"
       fy="-1.6735967"
       r="1318.78"
       gradientTransform="matrix(-1.4307844,-0.80728921,0.57053019,-1.1092966,-4927.184,-2123.5377)"
       gradientUnits="userSpaceOnUse" />
    <filter
       inkscape:collect="always"
       style="color-interpolation-filters:sRGB"
       id="filter4531"
       x="-0.11127777"
       width="1.2225555"
       y="-0.11192389"
       height="1.2238478">
      <feGaussianBlur
         inkscape:collect="always"
         stdDeviation="70.771383"
         id="feGaussianBlur4533" />
    </filter>
    <linearGradient
       inkscape:collect="always"
       xlink:href="#linearGradient4361"
       id="linearGradient4368"
       x1="-837.95416"
       y1="756.09467"
       x2="-959.12115"
       y2="287.3735"
       gradientUnits="userSpaceOnUse" />
    <radialGradient
       r="232.85715"
       fy="516.00806"
       fx="-684.84937"
       cy="516.00806"
       cx="-684.84937"
       gradientTransform="matrix(1.5271965,-4.0707222,8.2882798,3.0665114,-4479.1973,-6529.2449)"
       gradientUnits="userSpaceOnUse"
       id="radialGradient7906"
       xlink:href="#linearGradient8349"
       inkscape:collect="always" />
    <linearGradient
       inkscape:collect="always"
       id="linearGradient8349">
      <stop
         style="stop-color:#ffffff;stop-opacity:1"
         offset="0"
         id="stop8351" />
      <stop
         id="stop4263"
         offset="0.58493263"
         style="stop-color:#ffffff;stop-opacity:1" />
      <stop
         style="stop-color:#ffffff;stop-opacity:0"
         offset="1"
         id="stop8353" />
    </linearGradient>
  </defs>
  <sodipodi:namedview
     id="base"
     pagecolor="#ffffff"
     bordercolor="#666666"
     borderopacity="1.0"
     inkscape:pageopacity="0.0"
     inkscape:pageshadow="2"
     inkscape:zoom="32"
     inkscape:cx="17.071022"
     inkscape:cy="7.9271162"
     inkscape:document-units="px"
     inkscape:current-layer="g4199"
     showgrid="false"
     inkscape:window-width="1606"
     inkscape:window-height="913"
     inkscape:window-x="634"
     inkscape:window-y="519"
     inkscape:window-maximized="0"
     showguides="true"
     inkscape:guide-bbox="true"
     inkscape:snap-global="false">
    <inkscape:grid
       type="xygrid"
       id="grid8762" />
  </sodipodi:namedview>
  <metadata
     id="metadata7">
    <rdf:RDF>
      <cc:Work
         rdf:about="">
        <dc:format>image/svg+xml</dc:format>
        <dc:type
           rdf:resource="http://purl.org/dc/dcmitype/StillImage" />
        <dc:title />
      </cc:Work>
    </rdf:RDF>
  </metadata>
  <g
     inkscape:label="Layer 1"
     inkscape:groupmode="layer"
     id="layer1"
     style="display:inline"
     transform="translate(0,-1036.3622)">
    <path
       style="fill:none;fill-rule:evenodd;stroke:#585157;stroke-width:1px;stroke-linecap:butt;stroke-linejoin:miter;stroke-opacity:1"
       d="m 3.09375,1038.081 2.5,2.5"
       id="path4246"
       inkscape:connector-curvature="0" />
    <path
       style="display:inline;fill:none;fill-rule:evenodd;stroke:#585157;stroke-width:1px;stroke-linecap:butt;stroke-linejoin:miter;stroke-opacity:1"
       d="m 11,1045.7997 2.5,2.5"
       id="path4246-8"
       inkscape:connector-curvature="0" />
    <g
       id="g3375"
       transform="translate(2.6958447,-2.5632622)">
      <g
         id="g4241"
         transform="matrix(1.7426451,0,0,1.7426451,-28.132767,-791.97026)">
        <rect
           y="1058.6456"
           x="19.207558"
           height="0.61724967"
           width="0.54272109"
           id="rect4243-4"
           style="display:inline;fill:#7d6f79;fill-opacity:1;stroke:none" />
        <path
           sodipodi:end="4.712389"
           sodipodi:start="1.5707963"
           transform="matrix(0.70710678,-0.70710678,0.70710678,0.70710678,0,0)"
           d="m -731.49268,763.57058 a 4.223597,4.223597 0 0 1 -3.65774,-2.1118 4.223597,4.223597 0 0 1 0,-4.22359 4.223597,4.223597 0 0 1 3.65774,-2.1118 l 0,4.22359 z"
           sodipodi:ry="4.223597"
           sodipodi:rx="4.223597"
           sodipodi:cy="759.34698"
           sodipodi:cx="-731.49268"
           id="path4245-1"
           style="display:inline;fill:none;stroke:url(#linearGradient5190);stroke-width:0.57384032;stroke-linecap:round;stroke-linejoin:round;stroke-miterlimit:4;stroke-dasharray:none;stroke-opacity:1"
           sodipodi:type="arc" />
        <g
           id="g3894"
           transform="matrix(0.00124788,-0.00124544,0.00124788,0.00124544,22.099311,1051.3941)"
           style="display:inline">
          <path
             style="fill:#2f522a;fill-opacity:1;fill-rule:evenodd;stroke:none;stroke-width:325.48294067px;stroke-linecap:butt;stroke-linejoin:miter;stroke-opacity:1;filter:url(#filter4531);opacity:0.658"
             d="m -2462.6051,-1029.6298 c -20.3625,20.3625 -92.2489,722.25517 -102.5497,854.49264 -10.3007,132.237481 -168.3199,503.64594 -137.9154,615.50089 30.4046,111.85493 111.5365,355.88763 136.94,381.29111 25.4035,25.4035 50.7174,142.3491 -0.1195,122.05619 -50.8367,-20.29298 -132.1678,-60.8987 -152.4905,-81.22147 -20.3228,-20.32271 -45.6965,-76.24026 -45.6965,-76.24026 l -126.8979,-249.07364 -81.2613,-111.80518 -116.8063,-167.71277 c 0,0 -30.305,-213.568429 -4.8517,-239.021673 25.4532,-25.453245 122.2751,-223.889077 122.2751,-223.889077 l 15.3616,-106.81407 -20.0939,-254.26376 -55.8578,-86.40173 c 0,0 219.0075,-330.78277 259.6829,-320.65123 40.6754,10.13158 310.2809,-56.24597 310.2809,-56.24597 z"
             id="path4381"
             inkscape:connector-curvature="0"
             sodipodi:nodetypes="csssssccccsccccsc" />
          <g
             id="g4199"
             transform="matrix(0.96541926,0.25881954,-0.25881954,0.9664324,-35.985455,590.79528)">
            <circle
               r="1177.0438"
               cy="159.59561"
               cx="-2230.2117"
               id="path3800-3-8-4"
               style="fill:url(#radialGradient8380);fill-opacity:1;stroke:none" />
            <ellipse
               transform="matrix(0.7869136,-0.61706319,0.61823843,0.78599061,0,0)"
               ry="1175.924"
               rx="1178.1654"
               cy="-1266.4587"
               cx="-1885.9294"
               id="path3800-3-8-9-8"
               style="display:inline;opacity:1;fill:url(#radialGradient7906);fill-opacity:1;stroke:none" />
            <path
               sodipodi:nodetypes="ccccccccccccccccccccccccscccccccccccccccccccccccccccccccccccccccccccccccccccccccccccccccccccccccccccccccccccccccccccccccccccccccccccccccccccccccccccccccccccccccccccccscsccccccccccccccccccccccccccccccccccccc"
               style="display:inline;fill:url(#radialGradient4361);fill-opacity:1;stroke:none"
               d="m -1465.1147,-979.21837 c -3153.8919,1612.14574 -1576.9459,806.07287 0,0 z m 897.08188,1203.56434 c -3460.46628,-1342.21487 -1730.23308,-671.10747 0,0 z M -1285.2333,-905.12195 c -21.7551,-0.15662 -39.4458,1.13574 -65.1406,-5.10652 22.2493,15.99366 -141.6422,-40.5065 -1.3958,33.2212 -23.4906,-0.58715 -161.8043,-75.1354 -79.2854,20.44914 -68.141,35.92559 176.3234,80.40298 114.7406,68.98979 20.1086,5.68618 13.4574,42.45869 49.6002,63.88335 50.7256,18.82432 55.7096,-12.58163 46.7151,-23.00229 12.2617,-0.26627 26.8185,-1.60432 32.5701,2.55315 -5.4621,-25.37881 -10.182,-38.66091 28.2895,-51.11127 -23.0606,1.20986 -68.5986,-8.07072 -50.9957,-30.66202 11.6055,-15.36845 32.2365,-46.16908 1.3956,-33.22133 -29.9171,-8.47619 -51.9823,-26.14343 -63.7445,-38.32756 -3.637,-0.50263 -11.6096,-8.75153 -12.7491,-7.66564 z m -308.7666,-117.53055 c -14.3131,-2.4718 -48.7166,-6.3796 -77.8895,-12.7721 -27.0912,-8.4839 -52.2301,-26.276 -38.2469,-22.9965 -8.4505,-8.1328 -79.8699,-8.8265 -82.1704,-66.4368 -45.9041,-22.2654 -64.2754,-40.2161 -89.2428,-53.6588 -4.2658,-0.2597 -8.4836,-7.4333 -12.7487,-7.6654 -189.2446,-10.2922 -596.6719,-41.8778 -777.0563,4.6466 -22.0916,4.9319 -45.4343,18.7855 -66.5364,28.1146 -30.1461,13.3274 -42.8422,28.7141 -14.1447,25.5556 -36.5224,11.4564 -70.7759,55.301 -8.4683,45.9988 -66.5782,33.4285 71.0187,98.47173 13.8884,115.51173 84.9096,-12.608 -52.715,-86.77943 31.4312,-105.29263 17.6778,-21.2295 58.6881,-14.8705 92.0342,-12.7836 -38.9238,8.3013 -85.83,32.576 -46.715,23.0024 30.2356,5.3315 86.1315,-11.12 111.8555,-17.8959 -0.1259,-0.541 11.9899,8.468 12.749,7.6655 4.0157,2.2542 6.7181,2.6225 -7.0725,12.7778 10.3664,10.1568 40.4292,52.9251 49.6,63.88331 16.4459,1.2981 28.3612,49.28584 17.03,61.33028 4.7766,-0.20173 12.576,-0.66739 26.8936,-17.89023 8.9071,-9.39284 -41.0955,52.89314 -28.2895,51.11126 -8.0318,5.84663 -19.5427,11.31361 -26.8936,17.89009 l -19.8214,5.11223 c -5.2193,3.93817 -7.9505,10.03182 -7.0723,12.77785 l 19.8214,-5.11224 c -3.3365,3.68006 -5.78,9.43057 -7.0724,12.77778 -1.4825,-0.70096 -16.1156,12.8724 -7.0724,12.77778 0.7849,1.67635 10.6876,6.2784 12.7489,7.6655 -11.7515,3.19705 -10.3007,7.47322 -7.0725,12.7778 2.2411,6.06685 -6.2387,11.31063 -26.8935,17.89017 -6.3034,1.50158 2.8244,11.01767 -7.0724,12.77777 -23.0758,22.07292 -17.5481,40.83049 -8.4682,45.99892 -17.4119,19.23146 -30.0127,41.52946 -28.2896,51.11119 -21.0193,9.76312 -43.8418,27.07436 -26.8936,17.89013 22.0204,10.37361 -19.2734,35.58978 -41.0384,43.44566 9.8446,1.48322 25.6815,5.76669 65.1405,5.10657 -6.1322,5.52826 22.0714,44.29244 -8.468,45.99906 1.3124,19.81168 -11.9748,41.31659 -28.2895,51.11118 -10.607,6.19417 -17.8549,3.43354 -19.8215,5.11218 20.8908,-72.06887 -25.1068,114.56954 -3.6299,76.78102 -60.1965,45.66476 21.6739,90.28032 -26.3119,148.61843 -50.2076,35.38332 -79.6407,129.77879 -50.9025,122.66572 -12.6484,50.05381 -53.177,107.687163 -12.6554,145.662493 20.0313,69.398101 -36.979,140.346037 -15.447,212.104747 -12.9344,37.29168 -66.59,32.77178 -22.6129,71.55461 -7.2161,89.99812 -26.7758,138.87098 19.9149,148.21576 -9.4035,-45.34389 8.8139,-190.16739 14.0511,-178.88368 -2.1472,-50.0383 26.5734,-166.041033 56.579,-102.22241 -3.4169,55.34082 -19.3452,125.30528 -1.3025,186.54901 -23.2728,44.97488 15.37,125.56944 -8.3746,199.32691 -35.302,38.07023 -35.0319,80.48714 -5.5829,132.88473 52.0497,54.40249 77.484,156.48068 162.9447,166.09425 48.4624,18.73556 33.6684,135.74996 97.8043,160.98779 61.0928,45.29998 49.4949,60.56118 59.5575,137.99128 -31.8981,49.7715 9.9575,74.1079 9.9575,74.1079 l 55.1834,-69.0013 c 0,0 51.2036,-99.4864 56.5788,-102.2225 -15.0994,-14.14697 -41.6443,-57.55202 -94.9194,-74.10222 -81.974,-19.44051 42.8595,-31.45025 35.3618,-63.889 7.2489,-24.09955 14.9446,-109.18639 62.2556,-81.77908 -63.6946,-53.25139 -102.0004,4.51164 -151.4982,28.12032 -12.8331,-35.4821 -97.1982,-30.34915 -100.596,-94.54554 -24.4647,-77.79512 20.5692,-148.35929 73.5153,-194.22031 31.7584,-10.67622 53.3328,-99.10826 107.5747,-71.56036 63.7718,2.04918 53.3497,-15.90136 116.1366,35.76887 14.0519,11.99123 51.5272,-7.27498 63.7446,38.32757 25.3201,-39.36078 137.2847,50.62624 103.3875,28.10319 7.0117,45.70424 67.4564,45.90007 41.132,109.88234 -15.6032,19.05465 2.1129,92.80897 1.4893,120.10686 80.9289,-30.65771 32.4351,-185.73705 138.6559,-189.11381 61.6951,-3.06324 167.8203,-11.77825 164.247,-20.45486 4.4051,0.88294 13.8367,-7.3259 19.8212,-5.11233 -2.4041,-4.79162 1.9186,-10.44059 -5.6764,-20.4433 34.022,-3.55703 40.9511,-64.14376 42.4342,-76.6668 0.7514,2.37551 59.1127,-38.03339 18.4255,28.10884 -28.8219,75.60149 35.0441,-17.36887 53.7877,-35.77993 17.5305,-0.94412 34.7976,-6.9725 59.4639,-15.33691 3.5043,-1.12459 8.3636,7.01245 12.7489,7.66555 19.5973,-4.73687 45.8672,-13.46456 65.1406,5.10655 49.3741,24.30826 22.6922,9.38791 53.7873,-35.78018 52.8301,-18.42085 100.7216,-6.07583 117.5321,2.54754 -1.6932,-28.27841 46.237,22.72715 70.8173,25.54999 -27.4933,-1.9808 -90.606,11.69129 -48.1107,56.22351 31.7943,-34.55411 118.8412,18.81002 124.6046,-10.23019 0.8266,-4.14611 -9.9091,1.12326 -12.7491,-7.66561 -73.7965,-9.9885 -60.2343,-115.48579 -41.1318,-109.88224 -52.754,-48.97459 129.0939,28.15508 28.2895,-51.11126 -103.9764,-28.14828 -223.8322,-1.84929 -63.7449,-38.32776 58.825,14.38837 90.0556,-29.30388 135.9578,30.65653 35.1717,28.95534 80.0311,91.4553 134.56189,63.87754 24.8399,26.05877 78.7112,16.45367 72.2129,-7.67122 29.2062,-12.68598 17.7338,-51.83478 8.4681,-45.99902 8.4605,-22.45719 -27.3392,-29.21551 -50.9957,-30.66212 2.8267,-1.47212 -1.469,-9.96944 7.0724,-12.7778 18.9579,-0.14358 76.9694,29.65728 33.966,-30.66789 -22.5227,-4.34968 -36.3201,-41.24382 -18.4256,-28.10893 -24.3315,-46.222 25.0338,-94.38731 9.8641,-79.21999 24.1875,-11.36995 52.3204,-39.26994 21.2172,-38.3334 -35.3143,-15.092103 12.2828,-18.950173 2.7915,-66.442304 3.9017,-8.817692 -5.6022,-16.786053 -5.6766,-20.443386 -14.6498,8.706802 -44.4956,18.422295 -39.6429,10.22442 -12.1396,19.280991 -66.5705,1.66213 -65.1404,-5.106436 -25.2702,-3.806595 20.8679,-14.291867 -24.102,-48.552181 -0.078,-9.89491 11.6051,-32.89553 8.4681,-45.99906 99.27117,9.085038 -1.32328,-106.696263 -1.4896,-120.106873 -39.86649,-64.39506 -68.09749,-45.03209 -110.45959,-15.32529 16.9239,11.88141 -38.5022,23.05634 -21.217,38.33345 -47.134,21.0283 -68.7156,109.099853 -70.7238,127.777993 -17.7862,28.5983487 -124.2761,61.435383 -124.6044,10.23034 -27.9417,22.6611007 -85.8196,84.654681 -55.1832,69.001267 -9.4879,38.744347 -392.1691,-12.594296 -408.3107,-16.841871 -18.1773,-48.519754 -115.3047,-133.973539 -67.7121,-176.381189 16.8715,-54.13174 -440.1912,-193.42538 -435.3056,-264.95347 -5.8445,-40.00344 -49.4023,-100.13491 -73.7022,-112.43556 57.215,-71.14973 -48.941,-39.94454 9.8638,-79.22019 34.791,-37.12921 -29.458,-151.55902 11.8401,-155.22725 30.1502,-2.37705 7.0365,-97.9079 12.7833,-140.20794 24.0669,80.82214 81.4575,-195.30591 86.1779,-200.70061 32.3936,56.0675 676.0216,245.98607 701.8684,295.42363 20.7624,8.8271 376.0294,389.844 384.5318,387.98997 15.0443,-3.27922 14.4851,-28.33142 8.4682,-45.99876 35.8433,56.53272 89.8383,-28.46697 103.3876,28.10319 0.5092,2.51864 14.1786,-7.28597 12.7489,7.6655 17.6023,-233.54135 -11.6921,-104.01688 -294.7152,-296.41425 -6.9978,-23.89183 -4.44,-37.68819 -24.1022,-48.55234 -35.9951,-19.40285 -65.9785,16.77882 -79.2853,20.44911 -50.4231,15.29044 -23.679,-50.84886 1.3957,-33.22119 -34.4746,-29.2219 -54.2753,-55.30362 -62.3488,-71.54881 1.6847,-5.3037 5.5885,-25.10784 1.3956,-33.22119 -8.6723,-62.23433 -26.6322,-107.86983 -68.0256,-91.99233 -70.3822,18.8307 -17.5046,-28.96763 -31.1744,-35.77433 -2.5158,-1.2508 -3.8045,-9.5422 -12.749,-7.6655 z m 445.0045,608.1709 c -3.8302,1.51731 -14.6734,18.55373 -7.0723,12.77775 -4.1228,10.69092 5.3475,45.24421 11.3534,40.88693 74.0646,-28.96008 39.3197,40.90121 89.2427,53.65878 -3.2274,-17.38273 -23.2648,-112.42186 -21.3106,-114.99441 -16.2916,-9.90014 -60.7617,3.1024 -72.2132,7.67095 z m 20.3824,914.85571 c -1.518,3.82303 4.4637,0.67837 12.7489,7.6655 15.7391,-8.30744 26.8758,21.88931 33.966,-30.66792 -3.1089,3.06266 -42.1926,11.52078 -46.7149,23.00242 z M -2668.189,-634.66595 c -0.9278,16.76337 -14.612,34.36639 -14.1448,25.55563 12.7696,20.13529 4.7518,50.26534 36.8511,56.21773 20.7129,-18.14143 -12.0503,-54.96428 -22.7063,-81.77336 z m 1427.3465,539.623923 c -8.7808,-4.50027 -49.7101,14.8859 -14.1448,25.55558 16.1149,-5.41982 17.871,-23.64314 14.1448,-25.55558 z m 151.7787,431.863637 c -15.523,-9.25536 -22.2063,16.99504 29.7786,68.99552 -2.7684,-32.57451 -18.4503,-62.24144 -29.7786,-68.99552 z m 152.98759,91.98654 c -25.7879,14.58491 -53.9497,30.79774 -79.28559,20.44892 -27.5567,11.29785 0.7424,68.71255 55.27669,84.32668 -6.9488,11.66188 -36.2907,22.42104 18.4258,28.10903 10.3496,-7.84431 5.6558,-14.24699 7.0723,-12.77782 l 5.6765,20.44326 c -4.8051,12.41407 -11.9039,29.36567 -1.3957,33.2212 52.9173,-13.01851 2.9813,-33.52235 8.4681,-45.99896 1.8293,-4.15902 8.9051,-15.26939 26.8937,-17.89008 -53.9491,-1.64563 -50.2834,-52.67605 -11.353,-40.8866 -51.1906,-36.84799 -1.6522,-12.50747 -11.3535,-40.88683 -38.8224,-0.089 -34.6561,-16.0256 -18.4253,-28.1088 z M -2102.6498,817.31724 c -20.1105,-12.26463 -37.7299,-6.08065 -65.1405,-5.10648 -18.9807,7.00196 -2.6906,19.08549 18.4253,28.10874 l 12.7491,7.66566 c 15.1896,4.82776 30.8061,4.62062 32.5703,2.55327 0.877,4.5056 133.0649,176.98007 73.7021,112.43542 4.8508,10.33368 8.9015,17.60308 5.6766,20.44338 0.3325,3.0338 2.5487,19.87607 43.9235,43.43997 69.08,16.7888 -24.5323,-85.08974 -22.7065,-81.77338 -3.8942,-6.26526 -1.6836,-13.98249 -5.6764,-20.44329 -1.4015,-14.82646 -1.8916,-18.04762 -5.6765,-20.44328 -21.4332,-33.28513 -55.9944,-67.45554 -87.847,-86.88001 z M -3570.1761,-30.998987 c -5.7804,-3.04887 -23.3282,7.15631 -14.1446,25.5556577 15.0996,-14.7033977 18.1018,-23.4706177 14.1446,-25.5556577 z M -1909.926,1052.4073 c -9.1493,-5.2891 -20.7989,0.1974 -19.8215,5.1122 3.9269,8.5247 -8.0679,7.7978 -7.0723,12.7779 -2.6274,-1.6392 -14.5954,13.4807 -7.0724,12.7778 -6.3533,-2.8936 -14.581,7.3639 -19.8216,5.1122 15.1365,10.8715 35.8584,-23.8534 53.7878,-35.7801 z m -168.5282,-33.2099 c 1.3528,4.1377 0.4998,12.0937 5.6765,20.4433 l 12.7489,7.6656 c 51.1036,24.9613 3.2668,-15.4312 -18.4254,-28.1089 z"
               id="path3800-3-8-0-6"
               inkscape:connector-curvature="0" />
            <circle
               r="232.85715"
               cy="526.64789"
               cx="-902.85712"
               transform="matrix(5.6109154,0,0,5.6109154,2818.0362,-2805.5348)"
               id="path3800-3-8-1-4"
               style="display:inline;fill:none;stroke:url(#linearGradient4368);stroke-width:56.39807892;stroke-miterlimit:4;stroke-dasharray:none;stroke-opacity:1" />
            <ellipse
               transform="matrix(0.7869136,-0.61706319,0.61823843,0.78599061,0,0)"
               ry="1175.9244"
               rx="1178.1652"
               cy="-1253.1259"
               cx="-1880.5824"
               id="path3800-3-8-9-8-6"
               style="display:inline;opacity:1;fill:#ffffff;fill-opacity:0;stroke:none" />
          </g>
        </g>
        <g
           id="g4252"
           transform="matrix(0.41529533,0,0,0.55363184,11.42106,472.61171)">
          <rect
             style="display:inline;fill:#958892;fill-opacity:1;stroke:none;stroke-width:2;stroke-linecap:round;stroke-linejoin:round;stroke-miterlimit:4;stroke-dasharray:none;stroke-opacity:1"
             id="rect4243"
             width="5"
             height="1"
             x="16.920635"
             y="1059.6458" />
          <path
             inkscape:connector-curvature="0"
             style="display:inline;fill:#958892;fill-opacity:1;stroke:none"
             d="m 16.920636,1059.6458 c -0.553985,0 -1,0.446 -1,1 l 7,0 c 0,-0.554 -0.446015,-1 -1,-1 l -5,0 z"
             id="rect4243-6" />
        </g>
      </g>
    </g>
  </g>
</svg>
