<?xml version="1.0" encoding="UTF-8" standalone="no"?>
<!-- Created with Inkscape (http://www.inkscape.org/) -->

<svg
   xmlns:dc="http://purl.org/dc/elements/1.1/"
   xmlns:cc="http://creativecommons.org/ns#"
   xmlns:rdf="http://www.w3.org/1999/02/22-rdf-syntax-ns#"
   xmlns:svg="http://www.w3.org/2000/svg"
   xmlns="http://www.w3.org/2000/svg"
   xmlns:sodipodi="http://sodipodi.sourceforge.net/DTD/sodipodi-0.dtd"
   xmlns:inkscape="http://www.inkscape.org/namespaces/inkscape"
   width="16"
   height="16"
   id="svg2"
   version="1.1"
   inkscape:version="0.91 r13725"
   sodipodi:docname="processing_inst.svg">
  <defs
     id="defs4" />
  <sodipodi:namedview
     id="base"
     pagecolor="#ffffff"
     bordercolor="#666666"
     borderopacity="1.0"
     inkscape:pageopacity="0.0"
     inkscape:pageshadow="2"
     inkscape:zoom="11.313708"
     inkscape:cx="17.575742"
     inkscape:cy="9.6655124"
     inkscape:document-units="px"
     inkscape:current-layer="g4274"
     showgrid="true"
     inkscape:window-width="1433"
     inkscape:window-height="900"
     inkscape:window-x="1104"
     inkscape:window-y="568"
     inkscape:window-maximized="0"
     showguides="true"
     inkscape:guide-bbox="true"
     inkscape:snap-global="false">
    <inkscape:grid
       type="xygrid"
       id="grid3999" />
  </sodipodi:namedview>
  <metadata
     id="metadata7">
    <rdf:RDF>
      <cc:Work
         rdf:about="">
        <dc:format>image/svg+xml</dc:format>
        <dc:type
           rdf:resource="http://purl.org/dc/dcmitype/StillImage" />
        <dc:title />
      </cc:Work>
    </rdf:RDF>
  </metadata>
  <g
     inkscape:label="Layer 1"
     inkscape:groupmode="layer"
     id="layer1"
     style="display:inline"
     transform="translate(0,-1036.3622)">
    <g
       id="g4274"
       transform="translate(-14.156249,0.03125)">
      <g
         transform="scale(1.0116236,0.98850992)"
         style="font-style:normal;font-weight:normal;font-size:13.65991211px;line-height:125%;font-family:sans-serif;letter-spacing:0px;word-spacing:0px;display:inline;fill:#286296;fill-opacity:1;stroke:none;stroke-width:1px;stroke-linecap:butt;stroke-linejoin:miter;stroke-opacity:1"
         id="text4156">
        <path
           inkscape:connector-curvature="0"
           d="m 16.963785,1058.2245 0,-0.4936 q 0,-0.3402 0.0667,-0.6136 0.07337,-0.2802 0.213436,-0.527 0.146737,-0.2534 0.373513,-0.4869 0.226776,-0.2401 0.54693,-0.4935 0.280135,-0.2201 0.473562,-0.3936 0.193426,-0.1734 0.313484,-0.3401 0.120058,-0.1734 0.173417,-0.3602 0.05336,-0.1868 0.05336,-0.4335 0,-0.3802 -0.260125,-0.627 -0.253456,-0.2468 -0.780376,-0.2468 -0.460222,0 -0.993812,0.1934 -0.526921,0.1935 -1.09386,0.4736 l -0.680328,-1.474 q 0.286805,-0.1668 0.620299,-0.3135 0.340164,-0.1534 0.700337,-0.2668 0.366843,-0.1201 0.740357,-0.1868 0.373513,-0.067 0.733686,-0.067 0.680328,0 1.227258,0.1668 0.54693,0.16 0.927113,0.4735 0.380183,0.3135 0.58028,0.7604 0.206766,0.4469 0.206766,1.0205 0,0.4202 -0.09338,0.7537 -0.09338,0.3268 -0.280135,0.6136 -0.180087,0.2801 -0.460222,0.5469 -0.273465,0.2602 -0.640308,0.5536 -0.280135,0.2201 -0.460222,0.3869 -0.173417,0.1601 -0.273465,0.3068 -0.100048,0.1467 -0.140067,0.3068 -0.03335,0.1534 -0.03335,0.3669 l 0,0.4002 -1.760848,0 z m -0.220106,2.2811 q 0,-0.3135 0.08671,-0.527 0.09338,-0.2201 0.253455,-0.3535 0.160077,-0.1334 0.373513,-0.1934 0.220106,-0.06 0.466892,-0.06 0.233446,0 0.440212,0.06 0.213436,0.06 0.373513,0.1934 0.160077,0.1334 0.253455,0.3535 0.09338,0.2135 0.09338,0.527 0,0.3001 -0.09338,0.5135 -0.09338,0.2135 -0.253455,0.3535 -0.160077,0.1401 -0.373513,0.2001 -0.206766,0.067 -0.440212,0.067 -0.246786,0 -0.466892,-0.067 -0.213436,-0.06 -0.373513,-0.2001 -0.160077,-0.14 -0.253455,-0.3535 -0.08671,-0.2134 -0.08671,-0.5135 z"
           style="font-style:normal;font-variant:normal;font-weight:bold;font-stretch:normal;font-family:'Droid Sans';-inkscape-font-specification:'Droid Sans Bold';fill:#286296;fill-opacity:1"
           id="path4161" />
      </g>
      <g
         transform="matrix(1.0116236,0,0,0.98850992,8.7946399,-1.5059209e-7)"
         style="font-style:normal;font-weight:normal;font-size:13.65991211px;line-height:125%;font-family:sans-serif;letter-spacing:0px;word-spacing:0px;display:inline;fill:#286296;fill-opacity:1;stroke:none;stroke-width:1px;stroke-linecap:butt;stroke-linejoin:miter;stroke-opacity:1"
         id="text4156-1">
        <path
           inkscape:connector-curvature="0"
           d="m 16.963785,1058.2245 0,-0.4936 q 0,-0.3402 0.0667,-0.6136 0.07337,-0.2802 0.213436,-0.527 0.146737,-0.2534 0.373513,-0.4869 0.226776,-0.2401 0.54693,-0.4935 0.280135,-0.2201 0.473562,-0.3936 0.193426,-0.1734 0.313484,-0.3401 0.120058,-0.1734 0.173417,-0.3602 0.05336,-0.1868 0.05336,-0.4335 0,-0.3802 -0.260125,-0.627 -0.253456,-0.2468 -0.780376,-0.2468 -0.460222,0 -0.993812,0.1934 -0.526921,0.1935 -1.09386,0.4736 l -0.680328,-1.474 q 0.286805,-0.1668 0.620299,-0.3135 0.340164,-0.1534 0.700337,-0.2668 0.366843,-0.1201 0.740357,-0.1868 0.373513,-0.067 0.733686,-0.067 0.680328,0 1.227258,0.1668 0.54693,0.16 0.927113,0.4735 0.380183,0.3135 0.58028,0.7604 0.206766,0.4469 0.206766,1.0205 0,0.4202 -0.09338,0.7537 -0.09338,0.3268 -0.280135,0.6136 -0.180087,0.2801 -0.460222,0.5469 -0.273465,0.2602 -0.640308,0.5536 -0.280135,0.2201 -0.460222,0.3869 -0.173417,0.1601 -0.273465,0.3068 -0.100048,0.1467 -0.140067,0.3068 -0.03335,0.1534 -0.03335,0.3669 l 0,0.4002 -1.760848,0 z m -0.220106,2.2811 q 0,-0.3135 0.08671,-0.527 0.09338,-0.2201 0.253455,-0.3535 0.160077,-0.1334 0.373513,-0.1934 0.220106,-0.06 0.466892,-0.06 0.233446,0 0.440212,0.06 0.213436,0.06 0.373513,0.1934 0.160077,0.1334 0.253455,0.3535 0.09338,0.2135 0.09338,0.527 0,0.3001 -0.09338,0.5135 -0.09338,0.2135 -0.253455,0.3535 -0.160077,0.1401 -0.373513,0.2001 -0.206766,0.067 -0.440212,0.067 -0.246786,0 -0.466892,-0.067 -0.213436,-0.06 -0.373513,-0.2001 -0.160077,-0.14 -0.253455,-0.3535 -0.08671,-0.2134 -0.08671,-0.5135 z"
           style="font-style:normal;font-variant:normal;font-weight:bold;font-stretch:normal;font-family:'Droid Sans';-inkscape-font-specification:'Droid Sans Bold';fill:#286296;fill-opacity:1"
           id="path4161-9" />
      </g>
      <rect
         style="display:inline;opacity:1;fill:#286296;fill-opacity:1;stroke:none;stroke-width:1;stroke-linejoin:miter;stroke-miterlimit:4;stroke-dasharray:none;stroke-opacity:1"
         id="rect4181"
         width="3.9995728"
         height="1.0054175"
         x="21.1555"
         y="1044.3319" />
      <rect
         style="display:inline;opacity:1;fill:#286296;fill-opacity:1;stroke:none;stroke-width:1;stroke-linejoin:miter;stroke-miterlimit:4;stroke-dasharray:none;stroke-opacity:1"
         id="rect4181-6"
         width="3.9995728"
         height="1.0054175"
         x="21.1555"
         y="1046.3226" />
    </g>
  </g>
</svg>
