<?xml version="1.0" encoding="UTF-8" standalone="no"?>
<!-- Created with Inkscape (http://www.inkscape.org/) -->

<svg
   xmlns:dc="http://purl.org/dc/elements/1.1/"
   xmlns:cc="http://creativecommons.org/ns#"
   xmlns:rdf="http://www.w3.org/1999/02/22-rdf-syntax-ns#"
   xmlns:svg="http://www.w3.org/2000/svg"
   xmlns="http://www.w3.org/2000/svg"
   xmlns:sodipodi="http://sodipodi.sourceforge.net/DTD/sodipodi-0.dtd"
   xmlns:inkscape="http://www.inkscape.org/namespaces/inkscape"
   width="16"
   height="16"
   id="svg2"
   version="1.1"
   inkscape:version="0.48.0 r9654"
   sodipodi:docname="debugtt_obj.svg">
  <defs
     id="defs4" />
  <sodipodi:namedview
     id="base"
     pagecolor="#ffffff"
     bordercolor="#666666"
     borderopacity="1.0"
     inkscape:pageopacity="0.0"
     inkscape:pageshadow="2"
     inkscape:zoom="16.000001"
     inkscape:cx="2.8971875"
     inkscape:cy="2.8391854"
     inkscape:document-units="px"
     inkscape:current-layer="layer1"
     showgrid="true"
     inkscape:window-width="1440"
     inkscape:window-height="841"
     inkscape:window-x="3"
     inkscape:window-y="3"
     inkscape:window-maximized="0"
     showguides="true"
     inkscape:guide-bbox="true"
     inkscape:snap-global="false">
    <inkscape:grid
       type="xygrid"
       id="grid3971" />
  </sodipodi:namedview>
  <metadata
     id="metadata7">
    <rdf:RDF>
      <cc:Work
         rdf:about="">
        <dc:format>image/svg+xml</dc:format>
        <dc:type
           rdf:resource="http://purl.org/dc/dcmitype/StillImage" />
        <dc:title />
      </cc:Work>
    </rdf:RDF>
  </metadata>
  <g
     inkscape:label="Layer 1"
     inkscape:groupmode="layer"
     id="layer1"
     style="display:inline"
     transform="translate(0,-1036.3622)">
    <path
       style="fill:#ffffff;fill-opacity:1;stroke:#4f504f;stroke-width:0.5;stroke-miterlimit:4;stroke-opacity:1;stroke-dasharray:none;display:inline"
       d="m 11.5,1037.6904 c -0.18722,10e-5 -0.383743,0.04 -0.65625,0.094 l 0,0.875 c -0.213492,0.042 -0.422114,0.072 -0.625,0.1562 -0.194391,0.083 -0.388449,0.2275 -0.5625,0.3438 l -0.625,-0.6252 c -0.462167,0.3084 -0.597312,0.4445 -0.90625,0.9062 l 0.625,0.625 c -0.121067,0.1808 -0.2597,0.3909 -0.34375,0.5938 -0.08385,0.2029 -0.113627,0.4115 -0.15625,0.625 l -0.90625,0 c -0.108682,0.5449 -0.108112,0.7362 0,1.2812 l 0.90625,0 c 0.08465,0.427 0.258374,0.8566 0.5,1.2188 l -0.625,0.5937 c 0.308933,0.4619 0.444082,0.5977 0.90625,0.9063 l 0.625,-0.5938 c 0.361804,0.2421 0.760581,0.4148 1.1875,0.5 l 0,0.875 c 0.545014,0.1081 0.76758,0.1087 1.3125,0 l 0,-0.875 c 0.426989,-0.085 0.8255,-0.2582 1.1875,-0.5 l 0.625,0.5938 c 0.46183,-0.309 0.597782,-0.4441 0.90625,-0.9063 l -0.625,-0.5937 c 0.242113,-0.3618 0.414842,-0.792 0.5,-1.2188 l 0.90625,0 c 0.108112,-0.545 0.108682,-0.7363 0,-1.2812 l -0.90625,0 c -0.08469,-0.4271 -0.258169,-0.8568 -0.5,-1.2188 l 0.625,-0.625 c -0.154067,-0.2313 -0.242615,-0.3988 -0.375,-0.5312 -0.13245,-0.1323 -0.299966,-0.2209 -0.53125,-0.375 l -0.625,0.625 c -0.361809,-0.2421 -0.760526,-0.415 -1.1875,-0.5 l 0,-0.875 c -0.27246,-0.054 -0.46903,-0.094 -0.65625,-0.094 z m 0,3.3125 c 0.500508,0 0.90625,0.4057 0.90625,0.9063 0,0.5005 -0.405742,0.9062 -0.90625,0.9062 -0.500508,0 -0.90625,-0.4057 -0.90625,-0.9062 0,-0.5006 0.405742,-0.9063 0.90625,-0.9063 z"
       id="path4059-7-6-6"
       inkscape:connector-curvature="0" />
    <path
       style="fill:#ffffff;fill-opacity:1;stroke:#4f504f;stroke-width:0.5;stroke-miterlimit:4;stroke-opacity:1;stroke-dasharray:none;display:inline"
       d="m 4.521447,1042.535 c -0.18722,10e-5 -0.383743,0.04 -0.65625,0.094 l 0,0.875 c -0.213492,0.042 -0.422114,0.072 -0.625,0.1562 -0.194391,0.083 -0.388449,0.2275 -0.5625,0.3438 l -0.625,-0.6252 c -0.462167,0.3084 -0.597312,0.4445 -0.90625,0.9062 l 0.625,0.625 c -0.121067,0.1808 -0.2597,0.3909 -0.34375,0.5938 -0.08385,0.2029 -0.113627,0.4115 -0.15625,0.625 l -0.90625,0 c -0.108682,0.5449 -0.108112,0.7362 0,1.2812 l 0.90625,0 c 0.08465,0.427 0.258374,0.8566 0.5,1.2188 l -0.625,0.5937 c 0.308933,0.4619 0.444082,0.5977 0.90625,0.9063 l 0.625,-0.5938 c 0.361804,0.2421 0.760581,0.4148 1.1875,0.5 l 0,0.875 c 0.545014,0.1081 0.76758,0.1087 1.3125,0 l 0,-0.875 c 0.426989,-0.085 0.8255,-0.2582 1.1875,-0.5 l 0.625,0.5938 c 0.46183,-0.309 0.597782,-0.4441 0.90625,-0.9063 l -0.625,-0.5937 c 0.242113,-0.3618 0.414842,-0.792 0.5,-1.2188 l 0.90625,0 c 0.108112,-0.545 0.108682,-0.7363 0,-1.2812 l -0.90625,0 c -0.08469,-0.4271 -0.258169,-0.8568 -0.5,-1.2188 l 0.625,-0.625 c -0.154067,-0.2313 -0.242615,-0.3988 -0.375,-0.5312 -0.13245,-0.1323 -0.299966,-0.2209 -0.53125,-0.375 l -0.625,0.625 c -0.361809,-0.2421 -0.760526,-0.415 -1.1875,-0.5 l 0,-0.875 c -0.27246,-0.054 -0.46903,-0.094 -0.65625,-0.094 z m 0,3.3125 c 0.500508,0 0.90625,0.4057 0.90625,0.9063 0,0.5005 -0.405742,0.9062 -0.90625,0.9062 -0.500508,0 -0.90625,-0.4057 -0.90625,-0.9062 0,-0.5006 0.405742,-0.9063 0.90625,-0.9063 z"
       id="path4059-7-6-6-1"
       inkscape:connector-curvature="0" />
  </g>
</svg>
