<?xml version="1.0" encoding="UTF-8" standalone="no"?>
<!-- Created with Inkscape (http://www.inkscape.org/) -->

<svg
   xmlns:dc="http://purl.org/dc/elements/1.1/"
   xmlns:cc="http://creativecommons.org/ns#"
   xmlns:rdf="http://www.w3.org/1999/02/22-rdf-syntax-ns#"
   xmlns:svg="http://www.w3.org/2000/svg"
   xmlns="http://www.w3.org/2000/svg"
   xmlns:xlink="http://www.w3.org/1999/xlink"
   xmlns:sodipodi="http://sodipodi.sourceforge.net/DTD/sodipodi-0.dtd"
   xmlns:inkscape="http://www.inkscape.org/namespaces/inkscape"
   width="16"
   height="16"
   id="svg2"
   version="1.1"
   inkscape:version="0.48.0 r9654"
   sodipodi:docname="debugt_obj.svg">
  <defs
     id="defs4">
    <linearGradient
       id="linearGradient5281-7">
      <stop
         style="stop-color:#df9f3f;stop-opacity:1"
         offset="0"
         id="stop5283-0" />
      <stop
         id="stop5289-6"
         offset="0.5"
         style="stop-color:#ffbf3f;stop-opacity:1" />
      <stop
         style="stop-color:#ffff9f;stop-opacity:1"
         offset="1"
         id="stop5285-8" />
    </linearGradient>
    <linearGradient
       inkscape:collect="always"
       id="linearGradient5291">
      <stop
         style="stop-color:#543830;stop-opacity:1"
         offset="0"
         id="stop5293" />
      <stop
         style="stop-color:#543830;stop-opacity:1"
         offset="1"
         id="stop5295" />
    </linearGradient>
    <linearGradient
       y2="3.9463863"
       x2="31.543701"
       y1="11.3844"
       x1="31.543701"
       gradientTransform="translate(-19.96875,1034.3779)"
       gradientUnits="userSpaceOnUse"
       id="linearGradient11768"
       xlink:href="#linearGradient5281-7"
       inkscape:collect="always" />
    <linearGradient
       y2="3.5787904"
       x2="35.168701"
       y1="11.4469"
       x1="35.168701"
       gradientTransform="translate(-19.96875,1034.3779)"
       gradientUnits="userSpaceOnUse"
       id="linearGradient11770"
       xlink:href="#linearGradient5291"
       inkscape:collect="always" />
    <linearGradient
       inkscape:collect="always"
       id="linearGradient5118-5-9">
      <stop
         style="stop-color:#005597;stop-opacity:1"
         offset="0"
         id="stop5120-7-2" />
      <stop
         style="stop-color:#00467d;stop-opacity:1"
         offset="1"
         id="stop5122-6-7" />
    </linearGradient>
    <linearGradient
       id="linearGradient5192"
       inkscape:collect="always">
      <stop
         id="stop5194"
         offset="0"
         style="stop-color:#003c6e;stop-opacity:1;" />
      <stop
         id="stop5196"
         offset="1"
         style="stop-color:#004c88;stop-opacity:1" />
    </linearGradient>
    <linearGradient
       id="linearGradient5281-7-7">
      <stop
         style="stop-color:#df9f3f;stop-opacity:1"
         offset="0"
         id="stop5283-0-40" />
      <stop
         id="stop5289-6-9"
         offset="0.5"
         style="stop-color:#ffbf3f;stop-opacity:1" />
      <stop
         style="stop-color:#ffff9f;stop-opacity:1"
         offset="1"
         id="stop5285-8-4" />
    </linearGradient>
    <linearGradient
       inkscape:collect="always"
       id="linearGradient5291-2">
      <stop
         style="stop-color:#543830;stop-opacity:1"
         offset="0"
         id="stop5293-45" />
      <stop
         style="stop-color:#543830;stop-opacity:1"
         offset="1"
         id="stop5295-5" />
    </linearGradient>
    <linearGradient
       y2="3.9463863"
       x2="31.543701"
       y1="11.3844"
       x1="31.543701"
       gradientTransform="translate(-26.947303,1039.2225)"
       gradientUnits="userSpaceOnUse"
       id="linearGradient10889"
       xlink:href="#linearGradient5281-7-7"
       inkscape:collect="always" />
    <linearGradient
       y2="3.5787904"
       x2="35.168701"
       y1="11.4469"
       x1="35.168701"
       gradientTransform="translate(-26.947303,1039.2225)"
       gradientUnits="userSpaceOnUse"
       id="linearGradient10891"
       xlink:href="#linearGradient5291-2"
       inkscape:collect="always" />
    <linearGradient
       inkscape:collect="always"
       xlink:href="#linearGradient5118-5-9"
       id="linearGradient10953"
       gradientUnits="userSpaceOnUse"
       gradientTransform="matrix(-1,0,0,-1,16.035106,2089.73)"
       x1="13"
       y1="1048.3622"
       x2="13"
       y2="1051.3622" />
    <linearGradient
       inkscape:collect="always"
       xlink:href="#linearGradient5192"
       id="linearGradient10956"
       gradientUnits="userSpaceOnUse"
       gradientTransform="matrix(1,0,0,-1,-0.9648934,2089.73)"
       x1="9"
       y1="1052.3622"
       x2="9"
       y2="1049.3622" />
    <linearGradient
       id="linearGradient5192-1"
       inkscape:collect="always">
      <stop
         id="stop5194-1"
         offset="0"
         style="stop-color:#003c6e;stop-opacity:1;" />
      <stop
         id="stop5196-5"
         offset="1"
         style="stop-color:#004c88;stop-opacity:1" />
    </linearGradient>
    <linearGradient
       inkscape:collect="always"
       xlink:href="#linearGradient5118-5-9-7"
       id="linearGradient10953-2"
       gradientUnits="userSpaceOnUse"
       gradientTransform="translate(0.00385662,-0.9944)"
       x1="13"
       y1="1048.3622"
       x2="13"
       y2="1051.3622" />
    <linearGradient
       inkscape:collect="always"
       id="linearGradient5118-5-9-7">
      <stop
         style="stop-color:#005597;stop-opacity:1"
         offset="0"
         id="stop5120-7-2-6" />
      <stop
         style="stop-color:#00467d;stop-opacity:1"
         offset="1"
         id="stop5122-6-7-14" />
    </linearGradient>
    <linearGradient
       y2="1049.3622"
       x2="9"
       y1="1052.3622"
       x1="9"
       gradientTransform="matrix(-1,0,0,1,17.003856,-0.9944)"
       gradientUnits="userSpaceOnUse"
       id="linearGradient10978"
       xlink:href="#linearGradient5192-1"
       inkscape:collect="always" />
    <mask
       maskUnits="userSpaceOnUse"
       id="mask11187">
      <g
         style="fill:#ffffff;stroke:#ffffff;display:inline"
         id="g11189">
        <path
           sodipodi:nodetypes="czc"
           inkscape:connector-curvature="0"
           id="path11191"
           d="m 3.0351066,1040.3678 c 0,0 1.557292,-2.5625 4.4999994,-2.5625 2.942708,0 4.5,2.5625 4.5,2.5625"
           style="fill:#ffffff;stroke:#ffffff;stroke-width:1px;stroke-linecap:butt;stroke-linejoin:miter;stroke-opacity:1" />
        <path
           inkscape:connector-curvature="0"
           id="path11193"
           d="m 2.0351066,1041.3678 3.453125,0 -3.453125,-3.4531 z"
           style="fill:#ffffff;fill-opacity:1;stroke:#ffffff;display:inline" />
        <path
           sodipodi:nodetypes="czc"
           inkscape:connector-curvature="0"
           id="path11195"
           d="m 13.003856,1048.3678 c 0,0 -1.557292,2.5625 -4.4999994,2.5625 -2.942708,0 -4.5,-2.5625 -4.5,-2.5625"
           style="fill:#ffffff;stroke:#ffffff;stroke-width:1px;stroke-linecap:butt;stroke-linejoin:miter;stroke-opacity:1;display:inline" />
        <path
           inkscape:connector-curvature="0"
           id="path11197"
           d="m 14.003856,1047.3678 -3.453125,0 3.453125,3.4531 z"
           style="fill:#ffffff;fill-opacity:1;stroke:#ffffff;display:inline" />
      </g>
    </mask>
    <filter
       inkscape:collect="always"
       id="filter11967"
       x="-0.16746384"
       width="1.3349277"
       y="-0.19456491"
       height="1.3891298">
      <feGaussianBlur
         inkscape:collect="always"
         stdDeviation="1.0783031"
         id="feGaussianBlur11969" />
    </filter>
  </defs>
  <sodipodi:namedview
     id="base"
     pagecolor="#ffffff"
     bordercolor="#666666"
     borderopacity="1.0"
     inkscape:pageopacity="0.0"
     inkscape:pageshadow="2"
     inkscape:zoom="16.000001"
     inkscape:cx="10.365937"
     inkscape:cy="0.33918555"
     inkscape:document-units="px"
     inkscape:current-layer="layer1"
     showgrid="true"
     inkscape:window-width="1440"
     inkscape:window-height="841"
     inkscape:window-x="3"
     inkscape:window-y="3"
     inkscape:window-maximized="0"
     showguides="true"
     inkscape:guide-bbox="true"
     inkscape:snap-global="false">
    <inkscape:grid
       type="xygrid"
       id="grid3971" />
  </sodipodi:namedview>
  <metadata
     id="metadata7">
    <rdf:RDF>
      <cc:Work
         rdf:about="">
        <dc:format>image/svg+xml</dc:format>
        <dc:type
           rdf:resource="http://purl.org/dc/dcmitype/StillImage" />
        <dc:title />
      </cc:Work>
    </rdf:RDF>
  </metadata>
  <g
     inkscape:label="Layer 1"
     inkscape:groupmode="layer"
     id="layer1"
     style="display:inline"
     transform="translate(0,-1036.3622)">
    <g
       id="g11007">
      <path
         sodipodi:nodetypes="czc"
         inkscape:connector-curvature="0"
         id="path5048"
         d="m 3.0351066,1040.3678 c 0,0 1.557292,-2.5625 4.4999994,-2.5625 2.942708,0 4.5,2.5625 4.5,2.5625"
         style="fill:none;stroke:url(#linearGradient10956);stroke-width:1px;stroke-linecap:butt;stroke-linejoin:miter;stroke-opacity:1" />
      <path
         inkscape:connector-curvature="0"
         id="path4242-2-1"
         d="m 2.0351066,1041.3678 3.453125,0 -3.453125,-3.4531 z"
         style="fill:url(#linearGradient10953);fill-opacity:1;stroke:none;display:inline" />
      <path
         sodipodi:nodetypes="czc"
         inkscape:connector-curvature="0"
         id="path5048-2"
         d="m 13.003856,1048.3678 c 0,0 -1.557292,2.5625 -4.4999994,2.5625 -2.942708,0 -4.5,-2.5625 -4.5,-2.5625"
         style="fill:none;stroke:url(#linearGradient10978);stroke-width:1px;stroke-linecap:butt;stroke-linejoin:miter;stroke-opacity:1;display:inline" />
      <path
         inkscape:connector-curvature="0"
         id="path4242-2-1-3"
         d="m 14.003856,1047.3678 -3.453125,0 3.453125,3.4531 z"
         style="fill:url(#linearGradient10953-2);fill-opacity:1;stroke:none;display:inline" />
    </g>
    <g
       id="g11100"
       mask="url(#mask11187)">
      <g
         id="g11096"
         style="filter:url(#filter11967);stroke:#ffffff;stroke-width:2;stroke-miterlimit:4;stroke-dasharray:none">
        <path
           style="fill:#ffffff;fill-opacity:1;stroke:#ffffff;stroke-width:2;stroke-miterlimit:4;stroke-opacity:1;stroke-dasharray:none;display:inline"
           d="m 11.5,1037.6904 c -0.18722,10e-5 -0.383743,0.04 -0.65625,0.094 l 0,0.875 c -0.213492,0.042 -0.422114,0.072 -0.625,0.1562 -0.194391,0.083 -0.388449,0.2275 -0.5625,0.3438 l -0.625,-0.6252 c -0.462167,0.3084 -0.597312,0.4445 -0.90625,0.9062 l 0.625,0.625 c -0.121067,0.1808 -0.2597,0.3909 -0.34375,0.5938 -0.08385,0.2029 -0.113627,0.4115 -0.15625,0.625 l -0.90625,0 c -0.108682,0.5449 -0.108112,0.7362 0,1.2812 l 0.90625,0 c 0.08465,0.427 0.258374,0.8566 0.5,1.2188 l -0.625,0.5937 c 0.308933,0.4619 0.444082,0.5977 0.90625,0.9063 l 0.625,-0.5938 c 0.361804,0.2421 0.760581,0.4148 1.1875,0.5 l 0,0.875 c 0.545014,0.1081 0.76758,0.1087 1.3125,0 l 0,-0.875 c 0.426989,-0.085 0.8255,-0.2582 1.1875,-0.5 l 0.625,0.5938 c 0.46183,-0.309 0.597782,-0.4441 0.90625,-0.9063 l -0.625,-0.5937 c 0.242113,-0.3618 0.414842,-0.792 0.5,-1.2188 l 0.90625,0 c 0.108112,-0.545 0.108682,-0.7363 0,-1.2812 l -0.90625,0 c -0.08469,-0.4271 -0.258169,-0.8568 -0.5,-1.2188 l 0.625,-0.625 c -0.154067,-0.2313 -0.242615,-0.3988 -0.375,-0.5312 -0.13245,-0.1323 -0.299966,-0.2209 -0.53125,-0.375 l -0.625,0.625 c -0.361809,-0.2421 -0.760526,-0.415 -1.1875,-0.5 l 0,-0.875 c -0.27246,-0.054 -0.46903,-0.094 -0.65625,-0.094 z m 0,3.3125 c 0.500508,0 0.90625,0.4057 0.90625,0.9063 0,0.5005 -0.405742,0.9062 -0.90625,0.9062 -0.500508,0 -0.90625,-0.4057 -0.90625,-0.9062 0,-0.5006 0.405742,-0.9063 0.90625,-0.9063 z"
           id="path4059-7-6-6-4"
           inkscape:connector-curvature="0" />
        <path
           style="fill:#ffffff;fill-opacity:1;stroke:#ffffff;stroke-width:2;stroke-miterlimit:4;stroke-opacity:1;stroke-dasharray:none;display:inline"
           d="m 4.5214469,1042.535 c -0.18722,10e-5 -0.383743,0.04 -0.65625,0.094 l 0,0.875 c -0.213492,0.042 -0.422114,0.072 -0.625,0.1562 -0.194391,0.083 -0.388449,0.2275 -0.5625,0.3438 l -0.625,-0.6252 c -0.462167,0.3084 -0.597312,0.4445 -0.90625,0.9062 l 0.625,0.625 c -0.121067,0.1808 -0.2597,0.3909 -0.34375,0.5938 -0.08385,0.2029 -0.113627,0.4115 -0.15625,0.625 l -0.90624999,0 c -0.108682,0.5449 -0.108112,0.7362 0,1.2812 l 0.90624999,0 c 0.08465,0.427 0.258374,0.8566 0.5,1.2188 l -0.625,0.5937 c 0.308933,0.4619 0.444082,0.5977 0.90625,0.9063 l 0.625,-0.5938 c 0.361804,0.2421 0.760581,0.4148 1.1875,0.5 l 0,0.875 c 0.545014,0.1081 0.76758,0.1087 1.3125,0 l 0,-0.875 c 0.426989,-0.085 0.8255,-0.2582 1.1875,-0.5 l 0.625,0.5938 c 0.46183,-0.309 0.597782,-0.4441 0.90625,-0.9063 l -0.625,-0.5937 c 0.242113,-0.3618 0.414842,-0.792 0.5,-1.2188 l 0.90625,0 c 0.108112,-0.545 0.108682,-0.7363 0,-1.2812 l -0.90625,0 c -0.08469,-0.4271 -0.258169,-0.8568 -0.5,-1.2188 l 0.625,-0.625 c -0.154067,-0.2313 -0.242615,-0.3988 -0.375,-0.5312 -0.13245,-0.1323 -0.299966,-0.2209 -0.53125,-0.375 l -0.625,0.625 c -0.361809,-0.2421 -0.760526,-0.415 -1.1875,-0.5 l 0,-0.875 c -0.27246,-0.054 -0.46903,-0.094 -0.65625,-0.094 z m 0,3.3125 c 0.500508,0 0.90625,0.4057 0.90625,0.9063 0,0.5005 -0.405742,0.9062 -0.90625,0.9062 -0.500508,0 -0.90625,-0.4057 -0.90625,-0.9062 0,-0.5006 0.405742,-0.9063 0.90625,-0.9063 z"
           id="path4059-7-6-6-1-1"
           inkscape:connector-curvature="0" />
      </g>
    </g>
    <path
       style="fill:url(#linearGradient11768);fill-opacity:1;stroke:url(#linearGradient11770);stroke-width:0.5;stroke-miterlimit:4;stroke-opacity:1;stroke-dasharray:none;display:inline"
       d="m 11.5,1037.6904 c -0.18722,10e-5 -0.383743,0.04 -0.65625,0.094 l 0,0.875 c -0.213492,0.042 -0.422114,0.072 -0.625,0.1562 -0.194391,0.083 -0.388449,0.2275 -0.5625,0.3438 l -0.625,-0.6252 c -0.462167,0.3084 -0.597312,0.4445 -0.90625,0.9062 l 0.625,0.625 c -0.121067,0.1808 -0.2597,0.3909 -0.34375,0.5938 -0.08385,0.2029 -0.113627,0.4115 -0.15625,0.625 l -0.90625,0 c -0.108682,0.5449 -0.108112,0.7362 0,1.2812 l 0.90625,0 c 0.08465,0.427 0.258374,0.8566 0.5,1.2188 l -0.625,0.5937 c 0.308933,0.4619 0.444082,0.5977 0.90625,0.9063 l 0.625,-0.5938 c 0.361804,0.2421 0.760581,0.4148 1.1875,0.5 l 0,0.875 c 0.545014,0.1081 0.76758,0.1087 1.3125,0 l 0,-0.875 c 0.426989,-0.085 0.8255,-0.2582 1.1875,-0.5 l 0.625,0.5938 c 0.46183,-0.309 0.597782,-0.4441 0.90625,-0.9063 l -0.625,-0.5937 c 0.242113,-0.3618 0.414842,-0.792 0.5,-1.2188 l 0.90625,0 c 0.108112,-0.545 0.108682,-0.7363 0,-1.2812 l -0.90625,0 c -0.08469,-0.4271 -0.258169,-0.8568 -0.5,-1.2188 l 0.625,-0.625 c -0.154067,-0.2313 -0.242615,-0.3988 -0.375,-0.5312 -0.13245,-0.1323 -0.299966,-0.2209 -0.53125,-0.375 l -0.625,0.625 c -0.361809,-0.2421 -0.760526,-0.415 -1.1875,-0.5 l 0,-0.875 c -0.27246,-0.054 -0.46903,-0.094 -0.65625,-0.094 z m 0,3.3125 c 0.500508,0 0.90625,0.4057 0.90625,0.9063 0,0.5005 -0.405742,0.9062 -0.90625,0.9062 -0.500508,0 -0.90625,-0.4057 -0.90625,-0.9062 0,-0.5006 0.405742,-0.9063 0.90625,-0.9063 z"
       id="path4059-7-6-6"
       inkscape:connector-curvature="0" />
    <path
       style="fill:url(#linearGradient10889);fill-opacity:1;stroke:url(#linearGradient10891);stroke-width:0.5;stroke-miterlimit:4;stroke-opacity:1;stroke-dasharray:none;display:inline"
       d="m 4.5214469,1042.535 c -0.18722,10e-5 -0.383743,0.04 -0.65625,0.094 l 0,0.875 c -0.213492,0.042 -0.422114,0.072 -0.625,0.1562 -0.194391,0.083 -0.388449,0.2275 -0.5625,0.3438 l -0.625,-0.6252 c -0.462167,0.3084 -0.597312,0.4445 -0.90625,0.9062 l 0.625,0.625 c -0.121067,0.1808 -0.2597,0.3909 -0.34375,0.5938 -0.08385,0.2029 -0.113627,0.4115 -0.15625,0.625 l -0.90624999,0 c -0.108682,0.5449 -0.108112,0.7362 0,1.2812 l 0.90624999,0 c 0.08465,0.427 0.258374,0.8566 0.5,1.2188 l -0.625,0.5937 c 0.308933,0.4619 0.444082,0.5977 0.90625,0.9063 l 0.625,-0.5938 c 0.361804,0.2421 0.760581,0.4148 1.1875,0.5 l 0,0.875 c 0.545014,0.1081 0.76758,0.1087 1.3125,0 l 0,-0.875 c 0.426989,-0.085 0.8255,-0.2582 1.1875,-0.5 l 0.625,0.5938 c 0.46183,-0.309 0.597782,-0.4441 0.90625,-0.9063 l -0.625,-0.5937 c 0.242113,-0.3618 0.414842,-0.792 0.5,-1.2188 l 0.90625,0 c 0.108112,-0.545 0.108682,-0.7363 0,-1.2812 l -0.90625,0 c -0.08469,-0.4271 -0.258169,-0.8568 -0.5,-1.2188 l 0.625,-0.625 c -0.154067,-0.2313 -0.242615,-0.3988 -0.375,-0.5312 -0.13245,-0.1323 -0.299966,-0.2209 -0.53125,-0.375 l -0.625,0.625 c -0.361809,-0.2421 -0.760526,-0.415 -1.1875,-0.5 l 0,-0.875 c -0.27246,-0.054 -0.46903,-0.094 -0.65625,-0.094 z m 0,3.3125 c 0.500508,0 0.90625,0.4057 0.90625,0.9063 0,0.5005 -0.405742,0.9062 -0.90625,0.9062 -0.500508,0 -0.90625,-0.4057 -0.90625,-0.9062 0,-0.5006 0.405742,-0.9063 0.90625,-0.9063 z"
       id="path4059-7-6-6-1"
       inkscape:connector-curvature="0" />
  </g>
</svg>
