<?xml version="1.0" encoding="UTF-8" standalone="no"?>
<!-- Created with Inkscape (http://www.inkscape.org/) -->

<svg
   xmlns:dc="http://purl.org/dc/elements/1.1/"
   xmlns:cc="http://creativecommons.org/ns#"
   xmlns:rdf="http://www.w3.org/1999/02/22-rdf-syntax-ns#"
   xmlns:svg="http://www.w3.org/2000/svg"
   xmlns="http://www.w3.org/2000/svg"
   xmlns:sodipodi="http://sodipodi.sourceforge.net/DTD/sodipodi-0.dtd"
   xmlns:inkscape="http://www.inkscape.org/namespaces/inkscape"
   width="16"
   height="16"
   id="svg2"
   version="1.1"
   inkscape:version="0.48.0 r9654"
   sodipodi:docname="genericregister_obj.svg">
  <defs
     id="defs4" />
  <sodipodi:namedview
     id="base"
     pagecolor="#ffffff"
     bordercolor="#666666"
     borderopacity="1.0"
     inkscape:pageopacity="0.0"
     inkscape:pageshadow="2"
     inkscape:zoom="15.999999"
     inkscape:cx="20.956012"
     inkscape:cy="6.5046095"
     inkscape:document-units="px"
     inkscape:current-layer="g8159"
     showgrid="true"
     inkscape:window-width="1232"
     inkscape:window-height="956"
     inkscape:window-x="25"
     inkscape:window-y="25"
     inkscape:window-maximized="0"
     showguides="true"
     inkscape:guide-bbox="true"
     inkscape:snap-global="false">
    <inkscape:grid
       type="xygrid"
       id="grid4092" />
  </sodipodi:namedview>
  <metadata
     id="metadata7">
    <rdf:RDF>
      <cc:Work
         rdf:about="">
        <dc:format>image/svg+xml</dc:format>
        <dc:type
           rdf:resource="http://purl.org/dc/dcmitype/StillImage" />
        <dc:title />
      </cc:Work>
    </rdf:RDF>
  </metadata>
  <g
     inkscape:label="Layer 1"
     inkscape:groupmode="layer"
     id="layer1"
     style="display:inline"
     transform="translate(0,-1036.3622)">
    <g
       style="display:inline"
       id="g8159"
       transform="translate(-8.2201163,-12.904699)">
      <text
         xml:space="preserve"
         style="font-size:10px;font-style:normal;font-variant:normal;font-weight:normal;font-stretch:normal;text-align:start;line-height:125%;letter-spacing:0px;word-spacing:0px;writing-mode:lr;text-anchor:start;fill:#000000;fill-opacity:1;stroke:none;display:inline;font-family:Gautami;-inkscape-font-specification:Gautami"
         x="31.619894"
         y="1061.2869"
         id="text4105-1"
         sodipodi:linespacing="125%"><tspan
           sodipodi:role="line"
           id="tspan4107-7"
           x="31.619894"
           y="1061.2869">Gautami</tspan></text>
      <path
         style="font-size:7.73090887000000040px;font-style:normal;font-variant:normal;font-weight:normal;font-stretch:normal;text-align:start;line-height:125%;letter-spacing:0px;word-spacing:0px;writing-mode:lr-tb;text-anchor:start;fill:#17325d;fill-opacity:1;stroke:none;display:inline;font-family:Gautami;-inkscape-font-specification:Gautami"
         d="M 6.5 1.96875 C 5.9802289 1.9687549 5.5573175 2.2532859 5.28125 2.78125 C 5.0413559 3.2365662 4.9374998 3.8192219 4.9375 4.53125 C 4.9374998 5.2432829 5.0413559 5.8259386 5.28125 6.28125 C 5.5573175 6.8092189 5.9802289 7.0624999 6.5 7.0625 C 7.0197677 7.0624999 7.413333 6.8092189 7.6875 6.28125 C 7.9254867 5.8259386 8.0312467 5.2432829 8.03125 4.53125 C 8.0312467 3.8192219 7.9254867 3.2365662 7.6875 2.78125 C 7.413333 2.2532859 7.0197677 1.9687549 6.5 1.96875 z M 14.5 1.96875 C 13.980229 1.9687549 13.557317 2.2532859 13.28125 2.78125 C 13.041356 3.2365662 12.9375 3.8192219 12.9375 4.53125 C 12.9375 5.2432829 13.041356 5.8259386 13.28125 6.28125 C 13.557317 6.8092189 13.980229 7.0624999 14.5 7.0625 C 15.019768 7.0624999 15.413333 6.8092189 15.6875 6.28125 C 15.925487 5.8259386 16.031247 5.2432829 16.03125 4.53125 C 16.031247 3.8192219 15.925487 3.2365662 15.6875 2.78125 C 15.413333 2.2532859 15.019768 1.9687549 14.5 1.96875 z M 2.3125 2 L 1.375 2.90625 L 1.78125 3.34375 L 2.21875 2.90625 L 2.21875 6.96875 L 2.90625 6.96875 L 2.90625 2 L 2.3125 2 z M 10.3125 2 L 9.375 2.90625 L 9.78125 3.34375 L 10.21875 2.90625 L 10.21875 6.96875 L 10.90625 6.96875 L 10.90625 2 L 10.3125 2 z M 6.5 2.59375 C 6.827472 2.5937543 7.085144 2.7757854 7.28125 3.1875 C 7.4545039 3.5532065 7.5312472 4.0178154 7.53125 4.53125 C 7.5312472 5.0446894 7.4545039 5.4780483 7.28125 5.84375 C 7.085144 6.2554694 6.827472 6.4687505 6.5 6.46875 C 6.1706206 6.4687505 5.8836025 6.2554694 5.6875 5.84375 C 5.5123387 5.4780483 5.4374993 5.0446894 5.4375 4.53125 C 5.4374993 4.0178154 5.5123387 3.5532065 5.6875 3.1875 C 5.8836025 2.7757854 6.1706206 2.5937543 6.5 2.59375 z M 14.5 2.59375 C 14.827472 2.5937543 15.085144 2.7757854 15.28125 3.1875 C 15.454504 3.5532065 15.531247 4.0178154 15.53125 4.53125 C 15.531247 5.0446894 15.454504 5.4780483 15.28125 5.84375 C 15.085144 6.2554694 14.827472 6.4687505 14.5 6.46875 C 14.170621 6.4687505 13.883603 6.2554694 13.6875 5.84375 C 13.512339 5.4780483 13.437499 5.0446894 13.4375 4.53125 C 13.437499 4.0178154 13.512339 3.5532065 13.6875 3.1875 C 13.883603 2.7757854 14.170621 2.5937543 14.5 2.59375 z M 2.5 7.96875 C 1.9802289 7.9687549 1.5573174 8.2532859 1.28125 8.78125 C 1.0413559 9.2365662 0.93749981 9.8192219 0.9375 10.53125 C 0.93749981 11.243283 1.0413559 11.825939 1.28125 12.28125 C 1.5573174 12.809219 1.9802289 13.0625 2.5 13.0625 C 3.0197677 13.0625 3.413333 12.809219 3.6875 12.28125 C 3.9254867 11.825939 4.0312467 11.243283 4.03125 10.53125 C 4.0312467 9.8192219 3.9254867 9.2365662 3.6875 8.78125 C 3.413333 8.2532859 3.0197677 7.9687549 2.5 7.96875 z M 10.5 7.96875 C 9.9802289 7.9687549 9.5573174 8.2532859 9.28125 8.78125 C 9.0413559 9.2365662 8.9374998 9.8192219 8.9375 10.53125 C 8.9374998 11.243283 9.0413559 11.825939 9.28125 12.28125 C 9.5573174 12.809219 9.9802289 13.0625 10.5 13.0625 C 11.019768 13.0625 11.413333 12.809219 11.6875 12.28125 C 11.925487 11.825939 12.031247 11.243283 12.03125 10.53125 C 12.031247 9.8192219 11.925487 9.2365662 11.6875 8.78125 C 11.413333 8.2532859 11.019768 7.9687549 10.5 7.96875 z M 6.3125 8 L 5.375 8.90625 L 5.78125 9.34375 L 6.21875 8.90625 L 6.21875 12.96875 L 6.90625 12.96875 L 6.90625 8 L 6.3125 8 z M 14.3125 8 L 13.375 8.90625 L 13.78125 9.34375 L 14.21875 8.90625 L 14.21875 12.96875 L 14.90625 12.96875 L 14.90625 8 L 14.3125 8 z M 2.5 8.59375 C 2.827472 8.5937543 3.085144 8.7757854 3.28125 9.1875 C 3.4545039 9.5532065 3.5312472 10.017815 3.53125 10.53125 C 3.5312472 11.044689 3.4545039 11.478048 3.28125 11.84375 C 3.085144 12.255469 2.827472 12.46875 2.5 12.46875 C 2.1706206 12.46875 1.8836025 12.255469 1.6875 11.84375 C 1.5123387 11.478048 1.4374993 11.044689 1.4375 10.53125 C 1.4374993 10.017815 1.5123387 9.5532065 1.6875 9.1875 C 1.8836025 8.7757854 2.1706206 8.5937543 2.5 8.59375 z M 10.5 8.59375 C 10.827472 8.5937543 11.085144 8.7757854 11.28125 9.1875 C 11.454504 9.5532065 11.531247 10.017815 11.53125 10.53125 C 11.531247 11.044689 11.454504 11.478048 11.28125 11.84375 C 11.085144 12.255469 10.827472 12.46875 10.5 12.46875 C 10.170621 12.46875 9.8836025 12.255469 9.6875 11.84375 C 9.5123387 11.478048 9.4374993 11.044689 9.4375 10.53125 C 9.4374993 10.017815 9.5123387 9.5532065 9.6875 9.1875 C 9.8836025 8.7757854 10.170621 8.5937543 10.5 8.59375 z "
         transform="translate(8.2201163,1049.2669)"
         id="text4105-1-1" />
    </g>
  </g>
</svg>
