<?xml version="1.0" encoding="UTF-8" standalone="no"?>
<!-- Created with Inkscape (http://www.inkscape.org/) -->

<svg
   xmlns:dc="http://purl.org/dc/elements/1.1/"
   xmlns:cc="http://creativecommons.org/ns#"
   xmlns:rdf="http://www.w3.org/1999/02/22-rdf-syntax-ns#"
   xmlns:svg="http://www.w3.org/2000/svg"
   xmlns="http://www.w3.org/2000/svg"
   xmlns:xlink="http://www.w3.org/1999/xlink"
   xmlns:sodipodi="http://sodipodi.sourceforge.net/DTD/sodipodi-0.dtd"
   xmlns:inkscape="http://www.inkscape.org/namespaces/inkscape"
   width="16"
   height="16"
   id="svg2"
   version="1.1"
   inkscape:version="0.48.4 r9939"
   sodipodi:docname="thread_obj.svg">
  <defs
     id="defs4">
    <linearGradient
       inkscape:collect="always"
       id="linearGradient5291">
      <stop
         style="stop-color:#543830;stop-opacity:1"
         offset="0"
         id="stop5293" />
      <stop
         style="stop-color:#543830;stop-opacity:1"
         offset="1"
         id="stop5295" />
    </linearGradient>
    <linearGradient
       id="linearGradient5281">
      <stop
         style="stop-color:#df9f3f;stop-opacity:1"
         offset="0"
         id="stop5283" />
      <stop
         id="stop5289"
         offset="0.5"
         style="stop-color:#ffbf3f;stop-opacity:1" />
      <stop
         style="stop-color:#ffff9f;stop-opacity:1"
         offset="1"
         id="stop5285" />
    </linearGradient>
    <linearGradient
       inkscape:collect="always"
       xlink:href="#linearGradient5281"
       id="linearGradient5287"
       x1="31.543701"
       y1="11.3844"
       x2="31.543701"
       y2="3.9463863"
       gradientUnits="userSpaceOnUse"
       gradientTransform="translate(-20.96875,1035.3154)" />
    <linearGradient
       inkscape:collect="always"
       xlink:href="#linearGradient5291"
       id="linearGradient5297"
       x1="35.168701"
       y1="11.4469"
       x2="35.168701"
       y2="3.5787904"
       gradientUnits="userSpaceOnUse"
       gradientTransform="translate(-20.96875,1035.3154)" />
    <linearGradient
       gradientUnits="userSpaceOnUse"
       y2="1066.1039"
       x2="21.469872"
       y1="1054.8516"
       x1="21.469872"
       id="linearGradient8186"
       xlink:href="#linearGradient8180"
       inkscape:collect="always" />
    <linearGradient
       gradientTransform="translate(-0.40377946,0)"
       gradientUnits="userSpaceOnUse"
       y2="1065.103"
       x2="20.303318"
       y1="1056.0222"
       x1="20.303318"
       id="linearGradient8170"
       xlink:href="#linearGradient8164"
       inkscape:collect="always" />
    <linearGradient
       id="linearGradient8164">
      <stop
         id="stop8166"
         offset="0"
         style="stop-color:#accf8e;stop-opacity:1;" />
      <stop
         style="stop-color:#93c586;stop-opacity:1"
         offset="0.29019928"
         id="stop8176" />
      <stop
         style="stop-color:#58ab71;stop-opacity:1"
         offset="0.4292171"
         id="stop8174" />
      <stop
         style="stop-color:#4da766;stop-opacity:1"
         offset="0.57545984"
         id="stop8172" />
      <stop
         id="stop8178"
         offset="0.70769268"
         style="stop-color:#61af61;stop-opacity:1" />
      <stop
         id="stop8168"
         offset="1"
         style="stop-color:#78ba5e;stop-opacity:1" />
    </linearGradient>
    <linearGradient
       id="linearGradient8180"
       inkscape:collect="always">
      <stop
         id="stop8182"
         offset="0"
         style="stop-color:#36825e;stop-opacity:1" />
      <stop
         id="stop8184"
         offset="1"
         style="stop-color:#257550;stop-opacity:1" />
    </linearGradient>
  </defs>
  <sodipodi:namedview
     id="base"
     pagecolor="#ffffff"
     bordercolor="#666666"
     borderopacity="1.0"
     inkscape:pageopacity="0.0"
     inkscape:pageshadow="2"
     inkscape:zoom="32"
     inkscape:cx="5.283227"
     inkscape:cy="10.835386"
     inkscape:document-units="px"
     inkscape:current-layer="layer1"
     showgrid="true"
     inkscape:window-width="1600"
     inkscape:window-height="900"
     inkscape:window-x="0"
     inkscape:window-y="25"
     inkscape:window-maximized="0"
     showguides="true"
     inkscape:guide-bbox="true"
     inkscape:snap-global="false">
    <inkscape:grid
       type="xygrid"
       id="grid3971" />
  </sodipodi:namedview>
  <metadata
     id="metadata7">
    <rdf:RDF>
      <cc:Work
         rdf:about="">
        <dc:format>image/svg+xml</dc:format>
        <dc:type
           rdf:resource="http://purl.org/dc/dcmitype/StillImage" />
        <dc:title />
      </cc:Work>
    </rdf:RDF>
  </metadata>
  <g
     inkscape:label="Layer 1"
     inkscape:groupmode="layer"
     id="layer1"
     style="display:inline"
     transform="translate(0,-1036.3622)">
    <path
       style="fill:url(#linearGradient5287);fill-opacity:1;stroke:url(#linearGradient5297);stroke-width:0.75;stroke-miterlimit:4;stroke-opacity:1;stroke-dasharray:none;display:inline"
       d="m 10.5,1038.6279 c -0.18722,10e-5 -0.383743,0.04 -0.65625,0.094 l 0,0.875 c -0.213492,0.042 -0.422114,0.072 -0.625,0.1562 -0.194391,0.083 -0.388449,0.2275 -0.5625,0.3438 l -0.625,-0.6252 c -0.462167,0.3084 -0.597312,0.4445 -0.90625,0.9062 l 0.625,0.625 c -0.121067,0.1808 -0.2597,0.3909 -0.34375,0.5938 -0.08385,0.2029 -0.113627,0.4115 -0.15625,0.625 l -0.90625,0 c -0.108682,0.5449 -0.108112,0.7362 0,1.2812 l 0.90625,0 c 0.08465,0.427 0.258374,0.8566 0.5,1.2188 l -0.625,0.5937 c 0.308933,0.4619 0.444082,0.5977 0.90625,0.9063 l 0.625,-0.5938 c 0.361804,0.2421 0.760581,0.4148 1.1875,0.5 l 0,0.875 c 0.545014,0.1081 0.76758,0.1087 1.3125,0 l 0,-0.875 c 0.426989,-0.085 0.8255,-0.2582 1.1875,-0.5 l 0.625,0.5938 c 0.46183,-0.309 0.597782,-0.4441 0.90625,-0.9063 l -0.625,-0.5937 c 0.242113,-0.3618 0.414842,-0.792 0.5,-1.2188 l 0.90625,0 c 0.108112,-0.545 0.108682,-0.7363 0,-1.2812 l -0.90625,0 c -0.08469,-0.4271 -0.258169,-0.8568 -0.5,-1.2188 l 0.625,-0.625 c -0.154067,-0.2313 -0.242615,-0.3988 -0.375,-0.5312 -0.13245,-0.1323 -0.299966,-0.2209 -0.53125,-0.375 l -0.625,0.625 c -0.361809,-0.2421 -0.760526,-0.415 -1.1875,-0.5 l 0,-0.875 c -0.27246,-0.054 -0.46903,-0.094 -0.65625,-0.094 z m 0,3.3125 c 0.500508,0 0.90625,0.4057 0.90625,0.9063 0,0.5005 -0.405742,0.9062 -0.90625,0.9062 -0.500508,0 -0.90625,-0.4057 -0.90625,-0.9062 0,-0.5006 0.405742,-0.9063 0.90625,-0.9063 z"
       id="path4059-7-6-6"
       inkscape:connector-curvature="0" />
    <g
       style="display:inline"
       id="layer1-7"
       inkscape:label="Layer 1"
       transform="matrix(0.76927088,0,0,0.71759439,-4.4561526,298.44613)">
      <g
         transform="matrix(0.77393739,0,0,0.77393739,-0.808785,233.54106)"
         inkscape:label="Layer 1"
         id="layer1-0"
         style="display:inline">
        <g
           style="display:inline"
           id="g8159"
           transform="translate(-8.2201167,-12.904699)">
          <path
             sodipodi:nodetypes="cccc"
             inkscape:connector-curvature="0"
             id="path8117"
             d="m 18.975251,1054.7517 10.78301,5.8156 -10.72051,5.8048 z"
             style="fill:url(#linearGradient8170);fill-opacity:1;stroke:url(#linearGradient8186);stroke-width:1.29209423;stroke-linejoin:round;stroke-miterlimit:4;stroke-opacity:1;stroke-dasharray:none;display:inline" />
        </g>
      </g>
    </g>
  </g>
</svg>
