<?xml version="1.0" encoding="UTF-8" standalone="no"?>
<!-- Created with Inkscape (http://www.inkscape.org/) -->

<svg
   xmlns:dc="http://purl.org/dc/elements/1.1/"
   xmlns:cc="http://creativecommons.org/ns#"
   xmlns:rdf="http://www.w3.org/1999/02/22-rdf-syntax-ns#"
   xmlns:svg="http://www.w3.org/2000/svg"
   xmlns="http://www.w3.org/2000/svg"
   xmlns:xlink="http://www.w3.org/1999/xlink"
   xmlns:sodipodi="http://sodipodi.sourceforge.net/DTD/sodipodi-0.dtd"
   xmlns:inkscape="http://www.inkscape.org/namespaces/inkscape"
   width="16"
   height="16"
   id="svg2"
   version="1.1"
   inkscape:version="0.91 r"
   sodipodi:docname="toc_anchor_obj.svg">
  <defs
     id="defs4">
    <radialGradient
       inkscape:collect="always"
       xlink:href="#linearGradient4206"
       id="radialGradient4216"
       cx="19.032227"
       cy="8.2734289"
       fx="19.032227"
       fy="8.2734289"
       r="4.0966797"
       gradientTransform="matrix(1.1024822,-0.00577547,0.00898139,1.7144603,-13.024771,1030.6744)"
       gradientUnits="userSpaceOnUse" />
    <linearGradient
       inkscape:collect="always"
       id="linearGradient4206">
      <stop
         style="stop-color:#496e95;stop-opacity:1;"
         offset="0"
         id="stop4208" />
      <stop
         id="stop4214"
         offset="0.67740363"
         style="stop-color:#497098;stop-opacity:1" />
      <stop
         style="stop-color:#3a5877;stop-opacity:1"
         offset="1"
         id="stop4210" />
    </linearGradient>
  </defs>
  <sodipodi:namedview
     id="base"
     pagecolor="#ffffff"
     bordercolor="#666666"
     borderopacity="1.0"
     inkscape:pageopacity="0.0"
     inkscape:pageshadow="2"
     inkscape:zoom="16.000001"
     inkscape:cx="22.830858"
     inkscape:cy="7.642835"
     inkscape:document-units="px"
     inkscape:current-layer="layer1"
     showgrid="true"
     inkscape:window-width="1440"
     inkscape:window-height="900"
     inkscape:window-x="81"
     inkscape:window-y="29"
     inkscape:window-maximized="0"
     showguides="true"
     inkscape:guide-bbox="true"
     inkscape:snap-global="false">
    <inkscape:grid
       type="xygrid"
       id="grid3999" />
  </sodipodi:namedview>
  <metadata
     id="metadata7">
    <rdf:RDF>
      <cc:Work
         rdf:about="">
        <dc:format>image/svg+xml</dc:format>
        <dc:type
           rdf:resource="http://purl.org/dc/dcmitype/StillImage" />
        <dc:title />
      </cc:Work>
    </rdf:RDF>
  </metadata>
  <g
     inkscape:label="Layer 1"
     inkscape:groupmode="layer"
     id="layer1"
     style="display:inline"
     transform="translate(0,-1036.3622)">
    <path
       style="display:inline;fill:url(#radialGradient4216);fill-opacity:1;fill-rule:evenodd;stroke:none;stroke-width:0.5;stroke-linecap:butt;stroke-linejoin:miter;stroke-miterlimit:4;stroke-dasharray:none;stroke-opacity:1"
       d="m 7.0410165,1038.3661 0,2.0117 -3.027344,0 0,0.9844 3.027344,0 0,6.3476 c 0,0 -1.2091643,-0.7226 -1.5892893,-1.1288 -0.380125,-0.4063 -0.632812,-1.9375 -0.632812,-1.9375 l -0.828125,-0.3125 c 0,0 0.033267,2.4687 0.318359,3.25 0.285094,0.7812 2.9525703,2.8437 2.9525703,2.8437 l 0.740234,0.5235 0.800781,-0.5235 c 0,0 2.6031365,-2.0625 2.8882315,-2.8437 0.285094,-0.7813 0.316406,-3.25 0.316406,-3.25 l -0.794922,0.3125 c 0,0 -0.252686,1.5976 -0.632812,2.0039 -0.380127,0.4062 -1.5542465,1.0624 -1.5542465,1.0624 l 0,-6.3476 2.9882805,0 0,-0.9844 -2.9882805,0 0,-2.0117 -0.75586,0 -0.472656,0 z"
       id="path4185"
       inkscape:connector-curvature="0"
       sodipodi:nodetypes="cccccccccccccccccccccccccc" />
    <path
       style="display:inline;fill:#01467a;fill-opacity:1;fill-rule:evenodd;stroke:none;stroke-width:0.5;stroke-linecap:butt;stroke-linejoin:miter;stroke-miterlimit:4;stroke-dasharray:none;stroke-opacity:1"
       d="m 7.0410165,1049.3664 c 0,0 -1.2091643,-1.0976 -1.5892893,-1.5038 -0.380125,-0.4063 -0.976562,-1.8437 -0.976562,-1.8437 l -0.484375,-1.6879 c 0,0 0.033267,2.4687 0.318359,3.25 0.285094,0.7812 2.9525703,2.8437 2.9525703,2.8437 l 0.740234,0.5235 0.800781,-0.5235 c 0,0 2.6031365,-2.0625 2.8882315,-2.8437 0.285094,-0.7813 0.316406,-3.25 0.316406,-3.25 l -0.513672,1.7035 c 0,0 -0.533936,1.4882 -0.914062,1.8945 -0.380127,0.4062 -1.5542465,1.4374 -1.5542465,1.4374 z"
       id="path4185-2"
       inkscape:connector-curvature="0"
       sodipodi:nodetypes="cccccccccccccc" />
  </g>
</svg>
