<?xml version="1.0" encoding="UTF-8" standalone="no"?>
<!-- Created with Inkscape (http://www.inkscape.org/) -->

<svg
   xmlns:dc="http://purl.org/dc/elements/1.1/"
   xmlns:cc="http://creativecommons.org/ns#"
   xmlns:rdf="http://www.w3.org/1999/02/22-rdf-syntax-ns#"
   xmlns:svg="http://www.w3.org/2000/svg"
   xmlns="http://www.w3.org/2000/svg"
   xmlns:sodipodi="http://sodipodi.sourceforge.net/DTD/sodipodi-0.dtd"
   xmlns:inkscape="http://www.inkscape.org/namespaces/inkscape"
   width="7"
   height="8"
   id="svg2"
   version="1.1"
   inkscape:version="0.48.0 r9654"
   sodipodi:docname="error.svg">
  <defs
     id="defs4" />
  <sodipodi:namedview
     id="base"
     pagecolor="#ffffff"
     bordercolor="#666666"
     borderopacity="1.0"
     inkscape:pageopacity="0.0"
     inkscape:pageshadow="2"
     inkscape:zoom="32"
     inkscape:cx="4.7031258"
     inkscape:cy="-3.5644499"
     inkscape:document-units="px"
     inkscape:current-layer="g8472"
     showgrid="false"
     inkscape:window-width="980"
     inkscape:window-height="1174"
     inkscape:window-x="201"
     inkscape:window-y="161"
     inkscape:window-maximized="0"
     showguides="true"
     inkscape:guide-bbox="true" />
  <metadata
     id="metadata7">
    <rdf:RDF>
      <cc:Work
         rdf:about="">
        <dc:format>image/svg+xml</dc:format>
        <dc:type
           rdf:resource="http://purl.org/dc/dcmitype/StillImage" />
        <dc:title />
      </cc:Work>
    </rdf:RDF>
  </metadata>
  <g
     inkscape:label="Layer 1"
     inkscape:groupmode="layer"
     id="layer1"
     style="display:inline"
     transform="translate(0,-1044.3622)">
    <g
       style="display:inline"
       id="g8472"
       transform="matrix(0.9346781,0,0,0.9346781,-14.571811,69.044514)">
      <rect
         style="fill:#d8424f;fill-opacity:1;stroke:none"
         id="rect4244"
         width="7.4892092"
         height="8.5590963"
         x="15.590192"
         y="1043.4797" />
      <path
         style="font-size:7.68999243px;font-style:normal;font-variant:normal;font-weight:normal;font-stretch:normal;text-indent:0;text-align:start;text-decoration:none;line-height:125%;letter-spacing:0px;word-spacing:0px;text-transform:none;direction:ltr;block-progression:tb;writing-mode:lr-tb;text-anchor:start;baseline-shift:baseline;color:#000000;fill:#ffffff;fill-opacity:1;fill-rule:nonzero;stroke:none;stroke-width:0.27519909;marker:none;visibility:visible;display:inline;overflow:visible;enable-background:accumulate;font-family:Sans;-inkscape-font-specification:Sans"
         d="M 1.25 1.78125 L 1.25 1.90625 L 1.25 2.40625 L 1.25 2.53125 L 1.375 2.53125 L 1.75 2.53125 L 2.9375 3.9375 L 1.71875 5.46875 L 1.375 5.46875 L 1.25 5.46875 L 1.25 5.59375 L 1.25 6.09375 L 1.25 6.21875 L 1.375 6.21875 L 2.875 6.21875 L 3 6.21875 L 3 6.09375 L 3 5.59375 L 3 5.46875 L 2.875 5.46875 L 3.5 4.625 L 4.125 5.46875 L 4 5.46875 L 4 5.59375 L 4 6.09375 L 4 6.21875 L 4.125 6.21875 L 5.625 6.21875 L 5.75 6.21875 L 5.75 6.09375 L 5.75 5.59375 L 5.75 5.46875 L 5.625 5.46875 L 5.3125 5.46875 L 4.0625 3.90625 L 5.21875 2.53125 L 5.625 2.53125 L 5.75 2.53125 L 5.75 2.40625 L 5.75 1.90625 L 5.75 1.78125 L 5.625 1.78125 L 4.125 1.78125 L 4 1.78125 L 4 1.90625 L 4 2.40625 L 4 2.53125 L 4.0625 2.53125 L 3.5 3.25 L 2.9375 2.53125 L 3 2.53125 L 3 2.40625 L 3 1.90625 L 3 1.78125 L 2.875 1.78125 L 1.375 1.78125 L 1.25 1.78125 z "
         transform="matrix(1.0698871,0,0,1.0698871,15.590192,1043.4798)"
         id="path4187" />
    </g>
  </g>
</svg>
