<?xml version="1.0" encoding="UTF-8" standalone="no"?>
<!-- Created with Inkscape (http://www.inkscape.org/) -->

<svg
   xmlns:dc="http://purl.org/dc/elements/1.1/"
   xmlns:cc="http://creativecommons.org/ns#"
   xmlns:rdf="http://www.w3.org/1999/02/22-rdf-syntax-ns#"
   xmlns:svg="http://www.w3.org/2000/svg"
   xmlns="http://www.w3.org/2000/svg"
   xmlns:sodipodi="http://sodipodi.sourceforge.net/DTD/sodipodi-0.dtd"
   xmlns:inkscape="http://www.inkscape.org/namespaces/inkscape"
   width="7"
   height="8"
   id="svg2"
   version="1.1"
   inkscape:version="0.48.0 r9654"
   sodipodi:docname="stcksync_ov.svg"
   inkscape:export-filename="C:\Users\jmietling\Documents\stcksync_ov.png"
   inkscape:export-xdpi="90"
   inkscape:export-ydpi="90">
  <defs
     id="defs4" />
  <sodipodi:namedview
     id="base"
     pagecolor="#ffffff"
     bordercolor="#666666"
     borderopacity="1.0"
     inkscape:pageopacity="0.0"
     inkscape:pageshadow="2"
     inkscape:zoom="5.6568543"
     inkscape:cx="3.5907606"
     inkscape:cy="-45.155486"
     inkscape:document-units="px"
     inkscape:current-layer="g8472"
     showgrid="false"
     inkscape:window-width="980"
     inkscape:window-height="1174"
     inkscape:window-x="201"
     inkscape:window-y="161"
     inkscape:window-maximized="0"
     showguides="true"
     inkscape:guide-bbox="true" />
  <metadata
     id="metadata7">
    <rdf:RDF>
      <cc:Work
         rdf:about="">
        <dc:format>image/svg+xml</dc:format>
        <dc:type
           rdf:resource="http://purl.org/dc/dcmitype/StillImage" />
        <dc:title />
      </cc:Work>
    </rdf:RDF>
  </metadata>
  <g
     inkscape:label="Layer 1"
     inkscape:groupmode="layer"
     id="layer1"
     style="display:inline"
     transform="translate(0,-1044.3622)">
    <g
       style="display:inline"
       id="g8472"
       transform="matrix(0.9346781,0,0,0.9346781,-14.571811,69.044514)">
      <path
         style="font-size:12.65065289px;font-style:normal;font-variant:normal;font-weight:300;font-stretch:normal;text-align:start;line-height:125%;letter-spacing:0px;word-spacing:0px;writing-mode:lr-tb;text-anchor:start;fill:#ed1a46;fill-opacity:1;stroke:none;font-family:Adobe Ming Std L;-inkscape-font-specification:Adobe Ming Std L Light"
         d="M 3.5 0.40625 C 3.287329 0.41653146 3.1071459 0.48931649 3.03125 0.65625 C 2.9716643 0.78738534 2.9697781 0.93033652 2.96875 1.0625 C 2.9685518 1.0718468 2.9688154 1.0862726 2.96875 1.09375 C 2.9670676 1.2807791 2.981426 1.5499807 3.0625 1.84375 C 3.1394988 2.0730265 3.2122857 2.3617647 3.25 2.6875 C 3.1720385 2.6482435 3.0871045 2.6139073 3 2.5625 C 2.8482578 2.4718362 2.6759588 2.3519416 2.5 2.21875 C 2.3272565 2.0851845 2.1876263 1.9770986 2.03125 1.90625 C 1.8850402 1.8389532 1.7507067 1.8200709 1.625 1.8125 C 1.6166814 1.8120327 1.6020126 1.8127804 1.59375 1.8125 C 1.4484777 1.8031532 1.2632435 1.7851457 1.15625 1.84375 C 1.0183074 1.9203936 0.97837999 2.1131332 0.96875 2.3125 C 0.98466757 2.5981376 1.1625757 2.8189511 1.4375 2.90625 C 1.6911015 2.9866323 1.9234637 3.0338671 2.15625 3.03125 C 2.4327325 3.0405968 2.7365908 3.1059961 3.0625 3.1875 C 2.9714063 3.2772291 2.8833159 3.3518835 2.78125 3.4375 C 2.629319 3.565177 2.4800803 3.6879074 2.3125 3.8125 C 2.1150306 3.9540103 1.9515763 4.0758377 1.84375 4.21875 C 1.7360386 4.3616623 1.6605673 4.5095055 1.65625 4.65625 L 1.65625 4.6875 C 1.6618581 4.8977091 1.7642911 5.0434026 1.90625 5.125 C 2.0159438 5.1885581 2.0881101 5.2568232 2.1875 5.25 C 2.4258139 5.2387839 2.6389742 5.0992293 2.78125 4.875 C 2.9152651 4.6637627 3.0078708 4.4177729 3.09375 4.15625 C 3.1430917 3.9924009 3.2402886 3.8364877 3.3125 3.6875 C 3.3605425 3.5884241 3.3829428 3.5015872 3.4375 3.40625 C 3.5068905 3.5282255 3.6015461 3.632511 3.65625 3.75 C 3.733417 3.9158119 3.7986153 4.0846554 3.84375 4.25 C 3.9514623 4.6143375 4.0524147 4.8531621 4.1875 5 C 4.3166856 5.1404821 4.499898 5.2240777 4.6875 5.21875 C 4.8609828 5.2084685 5.0096514 5.1597682 5.09375 5.03125 C 5.1630564 4.9250706 5.1884908 4.8239013 5.1875 4.71875 C 5.1980151 4.5325621 5.1413644 4.3555869 5.03125 4.21875 C 4.9264801 4.0887363 4.7544427 3.9478714 4.5 3.75 C 4.3710957 3.6584015 4.2470381 3.5548956 4.125 3.4375 C 4.039533 3.3552483 3.9298189 3.2792854 3.84375 3.1875 C 4.157213 3.0914151 4.4591132 3.0216228 4.75 3.03125 L 5.0625 3.0625 C 5.3343754 3.0727815 5.5536223 3.0129902 5.71875 2.90625 C 5.8828533 2.8014726 5.9929058 2.6235009 6 2.4375 C 5.9909336 2.2049521 5.8835721 2.0140501 5.71875 1.9375 C 5.6018012 1.8832887 5.5292555 1.8400113 5.4375 1.84375 C 5.4289944 1.8441239 5.4147369 1.84375 5.40625 1.84375 C 5.2764886 1.84375 5.1376257 1.8776806 5 1.9375 C 4.8546267 1.9991888 4.7180884 2.1305481 4.5625 2.25 C 4.46447 2.3331864 4.3200336 2.4068126 4.15625 2.5 C 4.0430586 2.5644928 3.8942405 2.6216987 3.75 2.6875 C 3.7612535 2.5730954 3.7610142 2.4306433 3.78125 2.3125 C 3.8130291 2.126686 3.8408132 1.9739806 3.90625 1.78125 C 3.9564422 1.6388985 4.0044715 1.5172898 4.03125 1.40625 C 4.0581968 1.294556 4.059939 1.1558743 4.0625 1.0625 C 4.0725945 0.94108531 4.0621561 0.82966454 4 0.6875 C 3.9262446 0.5185102 3.7463194 0.42625211 3.53125 0.40625 L 3.5 0.40625 z "
         transform="matrix(1.0698871,0,0,1.0698871,15.590192,1043.4798)"
         id="path4233-2" />
    </g>
  </g>
</svg>
