<?xml version="1.0" encoding="UTF-8" standalone="no"?>
<!-- Created with Inkscape (http://www.inkscape.org/) -->

<svg
   xmlns:dc="http://purl.org/dc/elements/1.1/"
   xmlns:cc="http://creativecommons.org/ns#"
   xmlns:rdf="http://www.w3.org/1999/02/22-rdf-syntax-ns#"
   xmlns:svg="http://www.w3.org/2000/svg"
   xmlns="http://www.w3.org/2000/svg"
   xmlns:sodipodi="http://sodipodi.sourceforge.net/DTD/sodipodi-0.dtd"
   xmlns:inkscape="http://www.inkscape.org/namespaces/inkscape"
   width="7"
   height="8"
   id="svg2"
   version="1.1"
   inkscape:version="0.91 r13725"
   sodipodi:docname="annotation_tsk.svg">
  <defs
     id="defs4" />
  <sodipodi:namedview
     id="base"
     pagecolor="#ffffff"
     bordercolor="#666666"
     borderopacity="1.0"
     inkscape:pageopacity="0.0"
     inkscape:pageshadow="2"
     inkscape:zoom="63.356768"
     inkscape:cx="4.2006881"
     inkscape:cy="3.1645553"
     inkscape:document-units="px"
     inkscape:current-layer="layer1"
     showgrid="true"
     inkscape:window-width="831"
     inkscape:window-height="877"
     inkscape:window-x="1091"
     inkscape:window-y="603"
     inkscape:window-maximized="0"
     inkscape:snap-global="false">
    <inkscape:grid
       type="xygrid"
       id="grid2985"
       empspacing="5"
       visible="true"
       enabled="true"
       snapvisiblegridlinesonly="true" />
  </sodipodi:namedview>
  <metadata
     id="metadata7">
    <rdf:RDF>
      <cc:Work
         rdf:about="">
        <dc:format>image/svg+xml</dc:format>
        <dc:type
           rdf:resource="http://purl.org/dc/dcmitype/StillImage" />
        <dc:title />
      </cc:Work>
    </rdf:RDF>
  </metadata>
  <g
     inkscape:label="Layer 1"
     inkscape:groupmode="layer"
     id="layer1"
     transform="translate(0,-1044.3622)">
    <rect
       style="opacity:1;fill:#ffffff;fill-opacity:1;stroke:none;stroke-opacity:1"
       id="rect3336-0"
       width="7.0395007"
       height="3.0304575"
       x="-1052.3464"
       y="3.9459083"
       transform="matrix(0,-1,1,0,0,0)" />
    <rect
       style="opacity:1;fill:#ffffff;fill-opacity:1;stroke:none;stroke-opacity:1"
       id="rect3336"
       width="7.0395007"
       height="3.0304575"
       x="-0.031567268"
       y="1044.3757" />
    <path
       style="fill:#ffffff;fill-rule:evenodd;stroke:none;stroke-width:1px;stroke-linecap:butt;stroke-linejoin:miter;stroke-opacity:1;fill-opacity:1"
       d="m 5.1770318,1045.228 c -0.1262691,-0.063 -0.9785853,-0.5682 -0.9785853,-0.5682 l -1.1679889,0 -1.2942579,0.6313 c 0,0 -0.7891817,1.1365 -0.94701803,1.3259 -0.15783633,0.1894 -0.2841054,1.3573 -0.2841054,1.3573 l 0.0631345,1.7047 0.5682108,1.0417 1.1048543,0.7892 0.9785853,0.3157 1.1048544,0.095 1.3258252,-0.4736 1.2626906,-0.8523 -0.4103744,-3.8196 -0.7260472,-1.2311 z"
       id="path3335"
       inkscape:connector-curvature="0" />
    <path
       style="font-style:normal;font-variant:normal;font-weight:normal;font-stretch:normal;font-size:11.05178356px;line-height:125%;text-align:start;letter-spacing:0px;word-spacing:0px;writing-mode:lr-tb;text-anchor:start;display:inline;fill:#236298;fill-opacity:1;stroke:#236298;stroke-width:0.17424133;stroke-miterlimit:4;stroke-dasharray:none;stroke-opacity:1"
       d="m 6.8938501,1046.3809 c 9.765e-4,-0.257 -0.5512304,-0.8033 -0.7824662,-1.0732 -0.2312342,-0.2697 -0.8996691,-0.5481 -1.1513969,-0.6908 -0.2517278,-0.1427 -0.5856934,-0.1245 -1.3247139,-0.1669 -0.2463402,-0.014 -0.5037222,0.016 -0.7322454,0.077 -1.1159858,0.299 -1.6257908,0.8128 -2.21600569,1.7342 -0.61158304,0.9513 -0.73306981,2.3728 -0.40466191,3.4688 0.32510578,1.085 0.9593586,1.8209 1.9076919,2.2159 0.8699917,0.3561 1.6532304,0.4354 2.7748245,0.1349 1.0318586,-0.2765 1.2437162,-0.4851 1.9847701,-1.1369 l -0.4749618,-0.4171 c -0.9581165,0.7508 -0.8270198,0.7287 -1.6569933,0.9511 -0.925305,0.2483 -1.6138762,0.1071 -2.3207785,-0.2505 -0.7068991,-0.3575 -1.0692556,-0.3612 -1.3767609,-1.3394 -0.30750527,-0.9782 -0.31398706,-2.5025 0.046964,-3.1255 0.3609511,-0.6229 0.7205442,-1.1792 1.713156,-1.4451 0.7907158,-0.2119 1.7204871,0 2.3201142,0.3541 0.5996273,0.3504 0.9230995,0.5929 0.9020127,1.1662 -0.021089,0.5734 0.1425706,1.6382 -0.1462379,1.8864 -0.288809,0.2483 -1.0362156,0.1772 -1.0362156,0.1772 0,0 -0.033983,-0.4056 -0.033407,-0.9056 0.018658,-0.4087 -0.079878,-1.0453 -0.3661227,-1.3103 -0.2862442,-0.2658 -0.8610567,-0.2824 -1.1510446,-0.2664 -0.3405957,0.019 -0.8276982,0.1048 -1.0811315,0.5833 -0.2832988,0.5349 -0.2092947,1.8126 -0.1119383,2.2494 0.097356,0.4367 0.2462289,0.5369 0.4993637,0.79 0.2531348,0.253 1.0986564,0.2742 1.4349566,0.074 0.5072828,-0.3125 0.3206585,-0.294 0.7672986,-0.7095 0,0 1.2585299,0.077 1.7486099,-0.264 0.5027816,-0.3223 0.4065928,-1.1367 0.3701861,-1.7031 -0.036407,-0.5665 -0.1055261,-0.8556 -0.1028677,-1.0577 z m -2.8711516,1.1223 c 0.139727,0.2471 0.1096056,0.2494 0.082404,0.8091 -0.027201,0.5598 0.092632,0.826 -0.117264,0.9915 -0.2098981,0.1655 -0.7555583,0.2797 -1.0247756,-0.1575 -0.032463,-0.7371 -0.084947,-0.8128 -0.056162,-1.299 0.016961,-0.2865 0.015074,-0.6067 0.474292,-0.5856 0.4592184,0.021 0.5017788,-0.01 0.6415056,0.2415 z"
       id="path4719-2"
       inkscape:connector-curvature="0"
       sodipodi:nodetypes="sczscccccccccssczzccccccscccczcsssccscs" />
  </g>
</svg>
