<?xml version="1.0" encoding="UTF-8" standalone="no"?>
<!-- Created with Inkscape (http://www.inkscape.org/) -->

<svg
   xmlns:dc="http://purl.org/dc/elements/1.1/"
   xmlns:cc="http://creativecommons.org/ns#"
   xmlns:rdf="http://www.w3.org/1999/02/22-rdf-syntax-ns#"
   xmlns:svg="http://www.w3.org/2000/svg"
   xmlns="http://www.w3.org/2000/svg"
   xmlns:sodipodi="http://sodipodi.sourceforge.net/DTD/sodipodi-0.dtd"
   xmlns:inkscape="http://www.inkscape.org/namespaces/inkscape"
   width="7"
   height="8"
   id="svg2"
   version="1.1"
   inkscape:version="0.91 r13725"
   sodipodi:docname="annotation_tsk.svg">
  <defs
     id="defs4" />
  <sodipodi:namedview
     id="base"
     pagecolor="#ffffff"
     bordercolor="#666666"
     borderopacity="1.0"
     inkscape:pageopacity="0.0"
     inkscape:pageshadow="2"
     inkscape:zoom="63.356768"
     inkscape:cx="2.2025446"
     inkscape:cy="3.7151875"
     inkscape:document-units="px"
     inkscape:current-layer="layer1"
     showgrid="true"
     inkscape:window-width="1344"
     inkscape:window-height="1097"
     inkscape:window-x="766"
     inkscape:window-y="345"
     inkscape:window-maximized="0"
     inkscape:snap-global="false">
    <inkscape:grid
       type="xygrid"
       id="grid2985"
       empspacing="5"
       visible="true"
       enabled="true"
       snapvisiblegridlinesonly="true" />
  </sodipodi:namedview>
  <metadata
     id="metadata7">
    <rdf:RDF>
      <cc:Work
         rdf:about="">
        <dc:format>image/svg+xml</dc:format>
        <dc:type
           rdf:resource="http://purl.org/dc/dcmitype/StillImage" />
        <dc:title />
      </cc:Work>
    </rdf:RDF>
  </metadata>
  <g
     inkscape:label="Layer 1"
     inkscape:groupmode="layer"
     id="layer1"
     transform="translate(0,-1044.3622)">
    <path
       style="fill:#ffffff;fill-rule:evenodd;stroke:none;stroke-width:1px;stroke-linecap:butt;stroke-linejoin:miter;stroke-opacity:1;fill-opacity:1"
       d="m 5.9821434,1051.8935 -3.4821434,0 c -0.9417644,0 -1.99776787,-1.0004 -1.99776787,-1.9978 l 0,-3.0469 c 0,-0.9339 1.04716807,-1.981 1.98102677,-1.981 l 3.0970985,0 c 0.4511414,0 0.957031,0.5059 0.957031,0.957 l 0,3.1223 c 0,0.4623 -0.6985491,0.9807 -0.980748,0.9807 -0.8663504,0 -2.1096188,0 -2.5990512,0 -0.6840666,0 -0.4464285,-0.7714 -0.4464285,-2.0522 0,-0.4735 0.5644525,-1.0044 1.0379464,-1.0044 0.2540707,0 1.0044643,-0.1116 1.0044643,0.2232 0,0.8145 0,2.8348 0,2.8348"
       id="path4604-5"
       inkscape:connector-curvature="0"
       sodipodi:nodetypes="cssssssssssssc" />
    <rect
       style="opacity:1;fill:#ffffff;fill-opacity:1;stroke:none;stroke-width:1;stroke-miterlimit:4;stroke-dasharray:none;stroke-opacity:1"
       id="rect4621"
       width="1.5848215"
       height="2.8125"
       x="2.7790179"
       y="1047.1501" />
    <path
       style="fill:none;fill-rule:evenodd;stroke:#2d6492;stroke-width:0.95;stroke-linecap:butt;stroke-linejoin:miter;stroke-miterlimit:4;stroke-dasharray:none;stroke-opacity:1"
       d="m 5.9821434,1051.8935 -3.4821434,0 c -0.9417644,0 -1.99776787,-1.0004 -1.99776787,-1.9978 l 0,-2.0313 c 0,-2.0057 0.98538377,-2.9966 3.06361607,-2.9966 l 2.0145092,0 c 0.4511414,0 0.957031,0.5059 0.957031,0.957 l 0,3.1223 c 0,0.4623 -0.6985491,0.9807 -0.980748,0.9807 l -2.5990512,0 c -0.6840666,0 -0.4464285,-0.7714 -0.4464285,-2.0522 0,-0.4735 0.5644525,-1.0044 1.0379464,-1.0044 0.2540707,0 1.0044643,-0.1116 1.0044643,0.2232 l 0,2.8348"
       id="path4604"
       inkscape:connector-curvature="0"
       sodipodi:nodetypes="cssssssssssssc" />
  </g>
</svg>
