<?xml version="1.0" encoding="UTF-8" standalone="no"?>
<!-- Created with Inkscape (http://www.inkscape.org/) -->

<svg
   xmlns:dc="http://purl.org/dc/elements/1.1/"
   xmlns:cc="http://creativecommons.org/ns#"
   xmlns:rdf="http://www.w3.org/1999/02/22-rdf-syntax-ns#"
   xmlns:svg="http://www.w3.org/2000/svg"
   xmlns="http://www.w3.org/2000/svg"
   xmlns:sodipodi="http://sodipodi.sourceforge.net/DTD/sodipodi-0.dtd"
   xmlns:inkscape="http://www.inkscape.org/namespaces/inkscape"
   width="7"
   height="8"
   id="svg2"
   version="1.1"
   inkscape:version="0.91 r"
   sodipodi:docname="annotation_tsk.svg">
  <defs
     id="defs4" />
  <sodipodi:namedview
     id="base"
     pagecolor="#ffffff"
     bordercolor="#666666"
     borderopacity="1.0"
     inkscape:pageopacity="0.0"
     inkscape:pageshadow="2"
     inkscape:zoom="31.678384"
     inkscape:cx="1.6500798"
     inkscape:cy="0.77651836"
     inkscape:document-units="px"
     inkscape:current-layer="layer1"
     showgrid="true"
     inkscape:window-width="831"
     inkscape:window-height="877"
     inkscape:window-x="1091"
     inkscape:window-y="603"
     inkscape:window-maximized="0">
    <inkscape:grid
       type="xygrid"
       id="grid2985"
       empspacing="5"
       visible="true"
       enabled="true"
       snapvisiblegridlinesonly="true" />
  </sodipodi:namedview>
  <metadata
     id="metadata7">
    <rdf:RDF>
      <cc:Work
         rdf:about="">
        <dc:format>image/svg+xml</dc:format>
        <dc:type
           rdf:resource="http://purl.org/dc/dcmitype/StillImage" />
        <dc:title />
      </cc:Work>
    </rdf:RDF>
  </metadata>
  <g
     inkscape:label="Layer 1"
     inkscape:groupmode="layer"
     id="layer1"
     transform="translate(0,-1044.3622)">
    <path
       style="font-style:normal;font-variant:normal;font-weight:normal;font-stretch:normal;font-size:11.05178356px;line-height:125%;text-align:start;letter-spacing:0px;word-spacing:0px;writing-mode:lr-tb;text-anchor:start;display:inline;fill:#236298;fill-opacity:1;stroke:#236298;stroke-width:0.17424133;stroke-miterlimit:4;stroke-dasharray:none;stroke-opacity:1"
       d="m 6.3887738,1046.3809 c -0.057809,-0.2504 -0.1092886,-0.6139 -0.3405244,-0.8838 -0.2312342,-0.2697 -0.3788092,-0.3745 -0.630537,-0.5172 -0.2517278,-0.1427 -1.0434188,-0.4875 -1.7824393,-0.5299 -0.2463402,-0.014 -0.5037222,0.016 -0.7322454,0.077 -1.1159858,0.299 -1.6257908,0.8128 -2.21600569,1.7342 -0.61158304,0.9513 -0.73306981,2.1992 -0.40466191,3.2952 0.32510578,1.085 0.9593586,1.8209 1.9076919,2.2159 0.8699917,0.3561 1.6532304,0.4354 2.7748245,0.1349 1.0318586,-0.2765 1.2437162,-0.4851 1.9847701,-1.1369 l -0.2697746,-0.2119 c -0.9581165,0.7508 -1.0006397,0.7603 -1.8306132,0.9827 -0.925305,0.2483 -1.9137653,0.1071 -2.6206676,-0.2505 -0.7068991,-0.3575 -1.1955247,-0.9295 -1.50302996,-1.9077 -0.30750525,-0.9782 -0.014098,-2.1711 0.34685306,-2.7941 0.3609511,-0.6229 0.7994624,-1.3527 1.7920742,-1.6186 0.7907158,-0.2119 1.7362707,0.098 2.3358978,0.4488 0.5996273,0.3504 0.7968304,1.019 0.7757436,1.5923 -0.021089,0.5734 -0.4098564,1.2121 -0.6986651,1.4603 -0.288809,0.2483 -0.9099464,0.2561 -0.9099464,0.2561 0,0 0.076502,-0.4056 0.077078,-0.9056 0.018658,-0.4087 -0.079878,-1.0453 -0.3661227,-1.3103 -0.2862442,-0.2658 -0.7505713,-0.2666 -1.0405592,-0.2506 -0.3405957,0.019 -0.5751601,0.2152 -0.8285934,0.6937 -0.2832988,0.5349 -0.367131,1.7022 -0.2697746,2.139 0.097356,0.4367 0.1515271,0.5369 0.4046619,0.79 0.2531348,0.253 0.8776855,0.2584 1.2139857,0.058 0.5072828,-0.3125 0.3680094,-0.6728 0.751515,-0.6937 0,0 0.7850209,-0.1601 1.2751009,-0.501 0.5027816,-0.3223 0.6743618,-0.7458 0.7805605,-1.1981 0.1061993,-0.4524 0.081212,-0.9176 0.023401,-1.1681 z m -3.2737803,0.3622 c 0.074862,0 0.163344,0.01 0.250505,0.019 0.3486435,0.063 0.4046619,0.6937 0.4046619,0.6937 0,0 0.046471,0.4231 0.01927,0.9828 -0.027201,0.5598 -0.00207,0.7787 -0.2119658,0.9442 -0.2098981,0.1655 -0.7713419,0.2638 -1.0405592,-0.1734 -0.2692179,-0.4372 -0.195432,-1.7282 0.038539,-2.1197 0.1468418,-0.2466 0.3149626,-0.3384 0.5395492,-0.3468 z"
       id="path4719-2"
       inkscape:connector-curvature="0"
       sodipodi:nodetypes="cczscccccccccssczzccccccscccczcssccsccs" />
  </g>
</svg>
