<?xml version="1.0" encoding="UTF-8" standalone="no"?>
<!-- Created with Inkscape (http://www.inkscape.org/) -->

<svg
   xmlns:dc="http://purl.org/dc/elements/1.1/"
   xmlns:cc="http://creativecommons.org/ns#"
   xmlns:rdf="http://www.w3.org/1999/02/22-rdf-syntax-ns#"
   xmlns:svg="http://www.w3.org/2000/svg"
   xmlns="http://www.w3.org/2000/svg"
   xmlns:sodipodi="http://sodipodi.sourceforge.net/DTD/sodipodi-0.dtd"
   xmlns:inkscape="http://www.inkscape.org/namespaces/inkscape"
   width="7"
   height="8"
   id="svg2"
   version="1.1"
   inkscape:version="0.48.4 r9939"
   sodipodi:docname="annotation_tsk.svg">
  <defs
     id="defs4" />
  <sodipodi:namedview
     id="base"
     pagecolor="#ffffff"
     bordercolor="#666666"
     borderopacity="1.0"
     inkscape:pageopacity="0.0"
     inkscape:pageshadow="2"
     inkscape:zoom="31.678384"
     inkscape:cx="1.5869453"
     inkscape:cy="0.77651836"
     inkscape:document-units="px"
     inkscape:current-layer="layer1"
     showgrid="true"
     inkscape:window-width="831"
     inkscape:window-height="877"
     inkscape:window-x="350"
     inkscape:window-y="350"
     inkscape:window-maximized="0">
    <inkscape:grid
       type="xygrid"
       id="grid2985"
       empspacing="5"
       visible="true"
       enabled="true"
       snapvisiblegridlinesonly="true" />
  </sodipodi:namedview>
  <metadata
     id="metadata7">
    <rdf:RDF>
      <cc:Work
         rdf:about="">
        <dc:format>image/svg+xml</dc:format>
        <dc:type
           rdf:resource="http://purl.org/dc/dcmitype/StillImage" />
        <dc:title />
      </cc:Work>
    </rdf:RDF>
  </metadata>
  <g
     inkscape:label="Layer 1"
     inkscape:groupmode="layer"
     id="layer1"
     transform="translate(0,-1044.3622)">
    <path
       style="font-size:11.05178356px;font-style:normal;font-variant:normal;font-weight:normal;font-stretch:normal;text-align:start;line-height:125%;letter-spacing:0px;word-spacing:0px;writing-mode:lr-tb;text-anchor:start;fill:#2e6797;fill-opacity:1;stroke:#2e6797;stroke-width:0.07785165;stroke-miterlimit:4;stroke-opacity:1;display:inline;font-family:AustralianFlyingCorpsStencil;-inkscape-font-specification:AustralianFlyingCorpsStencil"
       d="m 6.9533362,1047.5537 c -7.1e-6,0.7255 -0.1712368,1.3773 -0.5136899,1.9553 -0.3799226,0.6579 -0.8722084,0.9869 -1.4768584,0.9869 -0.2407971,0 -0.4441324,-0.071 -0.6100066,-0.2122 -0.1819362,-0.1599 -0.2755779,-0.375 -0.2809246,-0.6456 -0.2889541,0.5657 -0.6554932,0.8485 -1.0996173,0.8485 -0.4013229,0 -0.7170279,-0.1413 -0.9471161,-0.4242 -0.2300919,-0.289 -0.3451371,-0.6672 -0.3451349,-1.1345 -2.2e-6,-0.6456 0.2033338,-1.2267 0.6100063,-1.7431 0.4066683,-0.5166 0.885577,-0.7748 1.4367271,-0.7748 0.5297378,0 0.8160127,0.2582 0.8588247,0.7748 l 0.1765814,-0.6734 0.91501,0 c -0.1498319,0.5474 -0.2969826,1.0946 -0.4414523,1.6418 -0.2033407,0.7809 -0.3050086,1.3066 -0.3050035,1.5772 -5.1e-6,0.2828 0.088285,0.4242 0.2648715,0.4242 0.080259,0 0.1899527,-0.049 0.3290825,-0.1476 0.7384229,-0.5226 1.1076372,-1.3374 1.1076439,-2.4442 -6.7e-6,-0.8546 -0.2515005,-1.5339 -0.754482,-2.0382 -0.4815898,-0.4734 -1.0996228,-0.7102 -1.8540993,-0.7102 -0.947119,0 -1.7283551,0.3843 -2.3437103,1.1529 -0.5939555,0.744 -0.89093172,1.6664 -0.89093099,2.767 -7.3e-7,1.0023 0.27022109,1.7892 0.81066679,2.3611 0.5190387,0.5472 1.2200105,0.8209 2.1029178,0.8209 0.7919346,0 1.6213285,-0.3105 2.4881858,-0.9317 l 0.1765809,0.2952 c -0.7812425,0.6887 -1.6641459,1.0331 -2.6487135,1.0331 -1.0701901,0 -1.9423917,-0.3014 -2.6166084,-0.904 -0.73307888,-0.664 -1.09961722,-1.5955 -1.09961722,-2.7946 0,-1.2113 0.39596907,-2.2197 1.18790792,-3.0251 0.7651815,-0.781 1.6801914,-1.1714 2.7450305,-1.1714 0.872198,0 1.5838716,0.2675 2.1350237,0.8024 0.5885963,0.578 0.8828974,1.3559 0.8829045,2.3335 m -2.6246346,-0.2952 c -4.4e-6,-0.3013 -0.1177244,-0.4519 -0.3531615,-0.4519 -0.3317617,0 -0.6314142,0.3536 -0.8989575,1.0607 -0.2354444,0.6088 -0.3531644,1.1344 -0.3531615,1.5772 -2.9e-6,0.4243 0.1444723,0.6364 0.4334256,0.6364 0.2889469,0 0.5671952,-0.3936 0.8347458,-1.1806 0.224735,-0.6764 0.3371047,-1.2237 0.3371091,-1.6418"
       id="path4719"
       inkscape:connector-curvature="0" />
  </g>
</svg>
