<?xml version="1.0" encoding="UTF-8" standalone="no"?>
<svg
   xmlns:dc="http://purl.org/dc/elements/1.1/"
   xmlns:cc="http://creativecommons.org/ns#"
   xmlns:rdf="http://www.w3.org/1999/02/22-rdf-syntax-ns#"
   xmlns:svg="http://www.w3.org/2000/svg"
   xmlns="http://www.w3.org/2000/svg"
   xmlns:xlink="http://www.w3.org/1999/xlink"
   xmlns:sodipodi="http://sodipodi.sourceforge.net/DTD/sodipodi-0.dtd"
   xmlns:inkscape="http://www.inkscape.org/namespaces/inkscape"
   version="1.1"
   id="svg2"
   height="8"
   width="7"
   inkscape:version="0.91 r13725"
   sodipodi:docname="class_tsk.svg">
  <sodipodi:namedview
     pagecolor="#ffffff"
     bordercolor="#666666"
     borderopacity="1"
     objecttolerance="10"
     gridtolerance="10"
     guidetolerance="10"
     inkscape:pageopacity="0"
     inkscape:pageshadow="2"
     inkscape:window-width="1118"
     inkscape:window-height="920"
     id="namedview24"
     showgrid="true"
     inkscape:zoom="118"
     inkscape:cx="3.1870729"
     inkscape:cy="4.2435028"
     inkscape:window-x="263"
     inkscape:window-y="202"
     inkscape:window-maximized="0"
     inkscape:current-layer="layer1">
    <inkscape:grid
       type="xygrid"
       id="grid3351" />
  </sodipodi:namedview>
  <defs
     id="defs4">
    <linearGradient
       id="linearGradient3796">
      <stop
         id="stop3798"
         offset="0"
         style="stop-color:#14733c;stop-opacity:0;" />
      <stop
         id="stop3800"
         offset="1"
         style="stop-color:#14733c;stop-opacity:1;" />
    </linearGradient>
    <linearGradient
       xlink:href="#linearGradient10798-1-9-3-7-6-8-9-0-9-1"
       id="linearGradient3986"
       gradientUnits="userSpaceOnUse"
       x1="388.63736"
       y1="478.18777"
       x2="388.63736"
       y2="462.11539" />
    <linearGradient
       id="linearGradient10798-1-9-3-7-6-8-9-0-9-1">
      <stop
         id="stop10800-5-2-1-8-20-6-4-9-8-2"
         offset="0"
         style="stop-color:#4f9e55;stop-opacity:1" />
      <stop
         style="stop-color:#418a4d;stop-opacity:1"
         offset="0.5"
         id="stop10806-6-8-5-3-9-24-8-4-3-2" />
      <stop
         id="stop10802-1-5-3-0-4-8-4-2-9-2"
         offset="1"
         style="stop-color:#a4c589;stop-opacity:1" />
    </linearGradient>
    <linearGradient
       xlink:href="#linearGradient10798-1-9-3-7-6-8-9-0-9-1"
       id="linearGradient3020"
       gradientUnits="userSpaceOnUse"
       x1="388.63736"
       y1="478.18777"
       x2="388.63736"
       y2="462.11539" />
    <linearGradient
       xlink:href="#linearGradient10798-1-9-3-7-6-8-9-0-9-1-7"
       id="linearGradient3020-1"
       gradientUnits="userSpaceOnUse"
       x1="388.63736"
       y1="478.18777"
       x2="388.63736"
       y2="462.11539" />
    <linearGradient
       id="linearGradient10798-1-9-3-7-6-8-9-0-9-1-7">
      <stop
         id="stop10800-5-2-1-8-20-6-4-9-8-2-4"
         offset="0"
         style="stop-color:#4f9e55;stop-opacity:1" />
      <stop
         style="stop-color:#418a4d;stop-opacity:1"
         offset="0.5"
         id="stop10806-6-8-5-3-9-24-8-4-3-2-0" />
      <stop
         id="stop10802-1-5-3-0-4-8-4-2-9-2-9"
         offset="1"
         style="stop-color:#a4c589;stop-opacity:1" />
    </linearGradient>
    <radialGradient
       gradientTransform="matrix(0.86594438,0,0,0.86594438,52.030335,62.769823)"
       gradientUnits="userSpaceOnUse"
       r="11.708107"
       fy="468.23718"
       fx="388.125"
       cy="468.23718"
       cx="388.125"
       id="radialGradient3802"
       xlink:href="#linearGradient3796" />
  </defs>
  <metadata
     id="metadata7">
    <rdf:RDF>
      <cc:Work
         rdf:about="">
        <dc:format>image/svg+xml</dc:format>
        <dc:type
           rdf:resource="http://purl.org/dc/dcmitype/StillImage" />
        <dc:title />
      </cc:Work>
    </rdf:RDF>
  </metadata>
  <g
     transform="translate(0,-1044.3622)"
     id="layer1">
    <path
       transform="matrix(0.29823167,0,0,0.29823167,-112.25117,908.23284)"
       d="m 398.75,468.23718 a 10.625,10.625 0 0 1 -10.625,10.625 10.625,10.625 0 0 1 -10.625,-10.625 10.625,10.625 0 0 1 10.625,-10.625 10.625,10.625 0 0 1 10.625,10.625 z"
       id="path10796-2-6-2"
       style="font-size:13.58917427px;font-style:normal;font-weight:normal;line-height:125%;letter-spacing:0px;word-spacing:0px;fill:url(#linearGradient3020);fill-opacity:1;stroke:#14733c;stroke-width:2.16621375;stroke-linecap:round;stroke-linejoin:round;stroke-miterlimit:4;stroke-opacity:1;stroke-dasharray:none;stroke-dashoffset:0;display:inline;font-family:Sans" />
    <path
       transform="matrix(0.27149234,0,0,0.27149234,-101.87297,920.75319)"
       d="m 398.75,468.23718 a 10.625,10.625 0 0 1 -10.625,10.625 10.625,10.625 0 0 1 -10.625,-10.625 10.625,10.625 0 0 1 10.625,-10.625 10.625,10.625 0 0 1 10.625,10.625 z"
       id="path10796-2-6-2-4"
       style="font-size:13.58917427000000100px;font-style:normal;font-weight:normal;line-height:125%;letter-spacing:0px;word-spacing:0px;fill:url(#radialGradient3802);fill-opacity:1;stroke:none;display:inline;font-family:Sans" />
    <path
       d="m 4.9839714,1047.4094 c -0.045199,-0.2694 -0.4112077,-0.7857 -0.5726083,-0.9222 -0.1581795,-0.1364 -0.542743,-0.3316 -0.7977586,-0.3316 -0.3389515,0 -0.9236699,0.1351 -1.1270369,0.3724 -0.2001433,0.2337 -0.4866545,0.6575 -0.4866527,1.2094 -1.8e-6,0.6136 0.1440562,0.9714 0.347427,1.2247 0.2065952,0.2532 0.9063251,0.4475 1.2517328,0.4475 0.2582437,0 0.7832425,-0.073 0.9478782,-0.2191 0.1646287,-0.1494 0.3740601,-0.4719 0.4418539,-0.8323 l 0.9720204,-0.071 c -0.1388133,0.6167 -0.405129,1.3228 -0.7989509,1.6377 -0.3938312,0.3148 -0.9216224,0.4722 -1.5833764,0.4722 -0.7521461,0 -1.3525692,-0.2385 -1.8012715,-0.7158 -0.4454767,-0.477 -0.6682143,-0.9776 -0.6682143,-1.8216 0,-0.8537 0.2243515,-1.2775 0.6730562,-1.7513 0.4487022,-0.4773 1.0555818,-0.7158 1.8206403,-0.7158 0.6262452,0 1.1233703,0.1363 1.4913757,0.4091 0.3712253,0.2692 0.6786396,0.9018 0.8400489,1.4567 z"
       style="font-style:normal;font-variant:normal;font-weight:bold;font-stretch:normal;font-size:15.56941891px;line-height:125%;font-family:Arial;letter-spacing:0px;word-spacing:0px;display:inline;fill:#ffffff;fill-opacity:1;stroke:none"
       id="path3817"
       inkscape:label="c"
       inkscape:connector-curvature="0"
       sodipodi:nodetypes="ccscscsccccscscsccc" />
  </g>
</svg>
