<?xml version="1.0" encoding="UTF-8" standalone="no"?>
<!-- Created with Inkscape (http://www.inkscape.org/) -->

<svg
   xmlns:dc="http://purl.org/dc/elements/1.1/"
   xmlns:cc="http://creativecommons.org/ns#"
   xmlns:rdf="http://www.w3.org/1999/02/22-rdf-syntax-ns#"
   xmlns:svg="http://www.w3.org/2000/svg"
   xmlns="http://www.w3.org/2000/svg"
   xmlns:sodipodi="http://sodipodi.sourceforge.net/DTD/sodipodi-0.dtd"
   xmlns:inkscape="http://www.inkscape.org/namespaces/inkscape"
   width="16"
   height="16"
   id="svg2"
   version="1.1"
   inkscape:version="0.48.0 r9654"
   sodipodi:docname="defaulttarget_obj.svg">
  <defs
     id="defs4" />
  <sodipodi:namedview
     id="base"
     pagecolor="#ffffff"
     bordercolor="#666666"
     borderopacity="1.0"
     inkscape:pageopacity="0.0"
     inkscape:pageshadow="2"
     inkscape:zoom="32"
     inkscape:cx="6.1445271"
     inkscape:cy="-2.6684065"
     inkscape:document-units="px"
     inkscape:current-layer="g6616"
     showgrid="false"
     inkscape:window-width="1171"
     inkscape:window-height="959"
     inkscape:window-x="275"
     inkscape:window-y="203"
     inkscape:window-maximized="0"
     showguides="true"
     inkscape:guide-bbox="true" />
  <metadata
     id="metadata7">
    <rdf:RDF>
      <cc:Work
         rdf:about="">
        <dc:format>image/svg+xml</dc:format>
        <dc:type
           rdf:resource="http://purl.org/dc/dcmitype/StillImage" />
        <dc:title />
      </cc:Work>
    </rdf:RDF>
  </metadata>
  <g
     inkscape:label="Layer 1"
     inkscape:groupmode="layer"
     id="layer1"
     style="display:inline"
     transform="translate(0,-1036.3622)">
    <g
       id="g6616">
      <path
         transform="matrix(0.93090814,0,0,0.93090814,1.1022966,1036.9051)"
         d="m 14.363107,7.912466 c 0,3.758796 -3.047107,6.805903 -6.8059032,6.805903 -3.7587964,0 -6.80590299,-3.047107 -6.80590299,-6.805903 0,-3.7587964 3.04710659,-6.8059029 6.80590299,-6.8059029 3.7587962,0 6.8059032,3.0471065 6.8059032,6.8059029 z"
         sodipodi:ry="6.805903"
         sodipodi:rx="6.805903"
         sodipodi:cy="7.912466"
         sodipodi:cx="7.5572038"
         id="path6578-1"
         style="color:#000000;fill:#88aeca;fill-opacity:1;stroke:#3d6e94;stroke-width:1.39648581;stroke-miterlimit:4;stroke-opacity:1;stroke-dasharray:none;marker:none;visibility:visible;display:inline;overflow:visible;enable-background:accumulate"
         sodipodi:type="arc" />
      <path
         transform="matrix(0.50434102,0,0,0.50434102,4.4143396,1040.3687)"
         d="m 14.363107,7.912466 c 0,3.758796 -3.047107,6.805903 -6.8059032,6.805903 -3.7587964,0 -6.80590299,-3.047107 -6.80590299,-6.805903 0,-3.7587964 3.04710659,-6.8059029 6.80590299,-6.8059029 3.7587962,0 6.8059032,3.0471065 6.8059032,6.8059029 z"
         sodipodi:ry="6.805903"
         sodipodi:rx="6.805903"
         sodipodi:cy="7.912466"
         sodipodi:cx="7.5572038"
         id="path6578-2-7"
         style="color:#000000;fill:none;stroke:#3d6e94;stroke-width:2.57762098;stroke-miterlimit:4;stroke-opacity:1;stroke-dasharray:none;marker:none;visibility:visible;display:inline;overflow:visible;enable-background:accumulate"
         sodipodi:type="arc" />
      <path
         transform="matrix(0.23263973,0,0,0.23263973,6.5301417,1042.456)"
         d="m 14.363107,7.912466 c 0,3.758796 -3.047107,6.805903 -6.8059032,6.805903 -3.7587964,0 -6.80590299,-3.047107 -6.80590299,-6.805903 0,-3.7587964 3.04710659,-6.8059029 6.80590299,-6.8059029 3.7587962,0 6.8059032,3.0471065 6.8059032,6.8059029 z"
         sodipodi:ry="6.805903"
         sodipodi:rx="6.805903"
         sodipodi:cy="7.912466"
         sodipodi:cx="7.5572038"
         id="path6578-2-0-4"
         style="color:#000000;fill:#3d6e94;fill-opacity:1;stroke:#3d6e94;stroke-width:2.03037214;stroke-miterlimit:4;stroke-opacity:1;stroke-dasharray:none;marker:none;visibility:visible;display:inline;overflow:visible;enable-background:accumulate"
         sodipodi:type="arc" />
      <path
         style="fill:none;stroke:#ffffff;stroke-width:1.33808279px;stroke-linecap:butt;stroke-linejoin:miter;stroke-opacity:1;display:inline"
         d="m 12.251224,1044.8134 -1.505342,0 -4.1815096,8.1959 9.7011006,0 z"
         id="path4934-6"
         inkscape:connector-curvature="0" />
      <path
         style="fill:#3977b0;fill-opacity:1;stroke:#1e64a3;stroke-width:1px;stroke-linecap:butt;stroke-linejoin:miter;stroke-opacity:1"
         d="m 12.161612,1045.6747 -1.125,0 -3.1250003,6.125 7.2500003,0 z"
         id="path4934"
         inkscape:connector-curvature="0" />
    </g>
  </g>
</svg>
