<?xml version="1.0" encoding="UTF-8" standalone="no"?>
<!-- Created with Inkscape (http://www.inkscape.org/) -->

<svg
   xmlns:dc="http://purl.org/dc/elements/1.1/"
   xmlns:cc="http://creativecommons.org/ns#"
   xmlns:rdf="http://www.w3.org/1999/02/22-rdf-syntax-ns#"
   xmlns:svg="http://www.w3.org/2000/svg"
   xmlns="http://www.w3.org/2000/svg"
   xmlns:xlink="http://www.w3.org/1999/xlink"
   xmlns:sodipodi="http://sodipodi.sourceforge.net/DTD/sodipodi-0.dtd"
   xmlns:inkscape="http://www.inkscape.org/namespaces/inkscape"
   width="20"
   height="20"
   id="svg2"
   version="1.1"
   inkscape:version="0.48.4 r9939"
   sodipodi:docname="waiting.svg">
  <defs
     id="defs4">
    <linearGradient
       inkscape:collect="always"
       id="linearGradient13831">
      <stop
         style="stop-color:#055797;stop-opacity:1;"
         offset="0"
         id="stop13833" />
      <stop
         style="stop-color:#184785;stop-opacity:1"
         offset="1"
         id="stop13835" />
    </linearGradient>
    <linearGradient
       id="linearGradient13755">
      <stop
         style="stop-color:#f1fdfc;stop-opacity:1"
         offset="0"
         id="stop13757" />
      <stop
         id="stop13765"
         offset="0.45454547"
         style="stop-color:#dbeff9;stop-opacity:1" />
      <stop
         id="stop13763"
         offset="0.54545456"
         style="stop-color:#cee4f0;stop-opacity:1" />
      <stop
         style="stop-color:#def1fa;stop-opacity:1"
         offset="1"
         id="stop13759" />
    </linearGradient>
    <linearGradient
       inkscape:collect="always"
       xlink:href="#linearGradient13755"
       id="linearGradient8584"
       gradientUnits="userSpaceOnUse"
       x1="28.004765"
       y1="-5.6084509"
       x2="28.004765"
       y2="1.6087028" />
    <linearGradient
       inkscape:collect="always"
       xlink:href="#linearGradient13831"
       id="linearGradient8586"
       gradientUnits="userSpaceOnUse"
       x1="30.033665"
       y1="-6.1109905"
       x2="30.033665"
       y2="1.9089624" />
  </defs>
  <sodipodi:namedview
     id="base"
     pagecolor="#ffffff"
     bordercolor="#666666"
     borderopacity="1.0"
     inkscape:pageopacity="0.0"
     inkscape:pageshadow="2"
     inkscape:zoom="22.627417"
     inkscape:cx="11.499646"
     inkscape:cy="10.549205"
     inkscape:document-units="px"
     inkscape:current-layer="g8159"
     showgrid="true"
     inkscape:window-width="1183"
     inkscape:window-height="955"
     inkscape:window-x="976"
     inkscape:window-y="546"
     inkscape:window-maximized="0"
     showguides="true"
     inkscape:guide-bbox="true"
     inkscape:snap-global="false">
    <inkscape:grid
       type="xygrid"
       id="grid4092"
       empspacing="5"
       visible="true"
       enabled="true"
       snapvisiblegridlinesonly="true" />
  </sodipodi:namedview>
  <metadata
     id="metadata7">
    <rdf:RDF>
      <cc:Work
         rdf:about="">
        <dc:format>image/svg+xml</dc:format>
        <dc:type
           rdf:resource="http://purl.org/dc/dcmitype/StillImage" />
        <dc:title />
      </cc:Work>
    </rdf:RDF>
  </metadata>
  <g
     inkscape:label="Layer 1"
     inkscape:groupmode="layer"
     id="layer1"
     style="display:inline"
     transform="translate(0,-1032.3622)">
    <g
       style="display:inline"
       id="g8159"
       transform="translate(-8.2201163,-12.904699)">
      <g
         id="g8579"
         transform="matrix(1.0304739,0,0,1.0304739,-36.147172,-25.214481)">
        <path
           transform="matrix(1.247029,0,0,1.247029,20.641113,1050.8233)"
           d="m 31.413783,-2 c 0,2.98994957 -2.423833,5.4137826 -5.413783,5.4137826 -2.98995,0 -5.413783,-2.42383303 -5.413783,-5.4137826 0,-2.9899496 2.423833,-5.4137826 5.413783,-5.4137826 2.98995,0 5.413783,2.423833 5.413783,5.4137826 z"
           sodipodi:ry="5.4137826"
           sodipodi:rx="5.4137826"
           sodipodi:cy="-2"
           sodipodi:cx="26"
           id="path13745"
           style="fill:url(#linearGradient8584);fill-opacity:1;stroke:url(#linearGradient8586);stroke-width:0.80190599;stroke-linecap:round;stroke-linejoin:round;stroke-miterlimit:4;stroke-opacity:1;stroke-dasharray:none"
           sodipodi:type="arc" />
        <path
           sodipodi:nodetypes="cc"
           inkscape:connector-curvature="0"
           id="path13811"
           d="m 53.094196,1048.3597 0,-4.5945"
           style="fill:none;stroke:#1f4a83;stroke-width:0.80000001;stroke-linecap:round;stroke-linejoin:round;stroke-miterlimit:4;stroke-opacity:1;stroke-dasharray:none" />
        <path
           sodipodi:nodetypes="cc"
           inkscape:connector-curvature="0"
           id="path13811-9"
           d="m 53.094196,1048.3597 2.607457,3.6255"
           style="fill:none;stroke:#1f4a83;stroke-width:0.80000001;stroke-linecap:round;stroke-linejoin:round;stroke-miterlimit:4;stroke-opacity:1;stroke-dasharray:none;display:inline" />
        <path
           sodipodi:type="arc"
           style="fill:#125385;fill-opacity:1;stroke:#105285;stroke-width:1;stroke-miterlimit:4;stroke-opacity:1;stroke-dasharray:none"
           id="path8563"
           sodipodi:cx="1.0606602"
           sodipodi:cy="-3.458333"
           sodipodi:rx="0.39016506"
           sodipodi:ry="0.42904606"
           d="m 1.4508253,-3.458333 c 0,0.2369556 -0.1746828,0.429046 -0.3901651,0.429046 -0.21548217,0 -0.39016502,-0.1920904 -0.39016502,-0.429046 0,-0.2369556 0.17468285,-0.4290461 0.39016502,-0.4290461 0.2154823,0 0.3901651,0.1920905 0.3901651,0.4290461 z"
           transform="matrix(0.7191532,0,0,0.7191532,49.14706,1047.6173)" />
        <path
           sodipodi:type="arc"
           style="fill:#125385;fill-opacity:1;stroke:#105285;stroke-width:1;stroke-miterlimit:4;stroke-opacity:1;stroke-dasharray:none;display:inline"
           id="path8563-6"
           sodipodi:cx="1.0606602"
           sodipodi:cy="-3.458333"
           sodipodi:rx="0.39016506"
           sodipodi:ry="0.42904606"
           d="m 1.4508253,-3.458333 c 0,0.2369556 -0.1746828,0.429046 -0.3901651,0.429046 -0.21548217,0 -0.39016502,-0.1920904 -0.39016502,-0.429046 0,-0.2369556 0.17468285,-0.4290461 0.39016502,-0.4290461 0.2154823,0 0.3901651,0.1920905 0.3901651,0.4290461 z"
           transform="matrix(0.7191532,0,0,0.7191532,47.89706,1051.6173)" />
        <path
           sodipodi:type="arc"
           style="fill:#125385;fill-opacity:1;stroke:#105285;stroke-width:1;stroke-miterlimit:4;stroke-opacity:1;stroke-dasharray:none;display:inline"
           id="path8563-6-3"
           sodipodi:cx="1.0606602"
           sodipodi:cy="-3.458333"
           sodipodi:rx="0.39016506"
           sodipodi:ry="0.42904606"
           d="m 1.4508253,-3.458333 c 0,0.2369556 -0.1746828,0.429046 -0.3901651,0.429046 -0.21548217,0 -0.39016502,-0.1920904 -0.39016502,-0.429046 0,-0.2369556 0.17468285,-0.4290461 0.39016502,-0.4290461 0.2154823,0 0.3901651,0.1920905 0.3901651,0.4290461 z"
           transform="matrix(0.7191532,0,0,0.7191532,49.49173,1054.087)" />
        <path
           sodipodi:type="arc"
           style="fill:#125385;fill-opacity:1;stroke:#105285;stroke-width:1;stroke-miterlimit:4;stroke-opacity:1;stroke-dasharray:none;display:inline"
           id="path8563-6-3-6"
           sodipodi:cx="1.0606602"
           sodipodi:cy="-3.458333"
           sodipodi:rx="0.39016506"
           sodipodi:ry="0.42904606"
           d="m 1.4508253,-3.458333 c 0,0.2369556 -0.1746828,0.429046 -0.3901651,0.429046 -0.21548217,0 -0.39016502,-0.1920904 -0.39016502,-0.429046 0,-0.2369556 0.17468285,-0.4290461 0.39016502,-0.4290461 0.2154823,0 0.3901651,0.1920905 0.3901651,0.4290461 z"
           transform="matrix(0.7191532,0,0,0.7191532,52.27206,1055.7423)" />
        <path
           sodipodi:type="arc"
           style="fill:#125385;fill-opacity:1;stroke:#105285;stroke-width:1;stroke-miterlimit:4;stroke-opacity:1;stroke-dasharray:none;display:inline"
           id="path8563-6-3-6-8"
           sodipodi:cx="1.0606602"
           sodipodi:cy="-3.458333"
           sodipodi:rx="0.39016506"
           sodipodi:ry="0.42904606"
           d="m 1.4508253,-3.458333 c 0,0.2369556 -0.1746828,0.429046 -0.3901651,0.429046 -0.21548217,0 -0.39016502,-0.1920904 -0.39016502,-0.429046 0,-0.2369556 0.17468285,-0.4290461 0.39016502,-0.4290461 0.2154823,0 0.3901651,0.1920905 0.3901651,0.4290461 z"
           transform="matrix(0.7191532,0,0,0.7191532,55.630817,1047.6106)" />
        <path
           sodipodi:type="arc"
           style="fill:#125385;fill-opacity:1;stroke:#105285;stroke-width:1;stroke-miterlimit:4;stroke-opacity:1;stroke-dasharray:none;display:inline"
           id="path8563-6-3-6-8-6"
           sodipodi:cx="1.0606602"
           sodipodi:cy="-3.458333"
           sodipodi:rx="0.39016506"
           sodipodi:ry="0.42904606"
           d="m 1.4508253,-3.458333 c 0,0.2369556 -0.1746828,0.429046 -0.3901651,0.429046 -0.21548217,0 -0.39016502,-0.1920904 -0.39016502,-0.429046 0,-0.2369556 0.17468285,-0.4290461 0.39016502,-0.4290461 0.2154823,0 0.3901651,0.1920905 0.3901651,0.4290461 z"
           transform="matrix(0.7191532,0,0,0.7191532,56.868254,1051.2345)" />
      </g>
    </g>
  </g>
</svg>
