<?xml version="1.0" encoding="UTF-8" standalone="no"?>
<svg
   xmlns:dc="http://purl.org/dc/elements/1.1/"
   xmlns:cc="http://creativecommons.org/ns#"
   xmlns:rdf="http://www.w3.org/1999/02/22-rdf-syntax-ns#"
   xmlns:svg="http://www.w3.org/2000/svg"
   xmlns="http://www.w3.org/2000/svg"
   xmlns:xlink="http://www.w3.org/1999/xlink"
   version="1.1"
   id="svg2"
   height="16"
   width="16">
  <defs
     id="defs4">
    <linearGradient
       id="linearGradient4877">
      <stop
         id="stop4879"
         offset="0"
         style="stop-color:#f7fdff;stop-opacity:1" />
      <stop
         id="stop4881"
         offset="1"
         style="stop-color:#e8f0f5;stop-opacity:1" />
    </linearGradient>
    <linearGradient
       y2="17.832731"
       x2="12.108335"
       y1="2.7923172"
       x1="12.108335"
       gradientUnits="userSpaceOnUse"
       id="linearGradient4118"
       xlink:href="#linearGradient4877" />
  </defs>
  <metadata
     id="metadata7">
    <rdf:RDF>
      <cc:Work
         rdf:about="">
        <dc:format>image/svg+xml</dc:format>
        <dc:type
           rdf:resource="http://purl.org/dc/dcmitype/StillImage" />
        <dc:title></dc:title>
      </cc:Work>
    </rdf:RDF>
  </metadata>
  <g
     transform="translate(0,-1036.3622)"
     style="display:inline"
     id="layer1">
    <g
       transform="translate(-8.2201163,-12.904699)"
       id="g8159"
       style="display:inline">
      <g
         transform="matrix(0.70002175,0,0,0.70002175,22.066022,320.64029)"
         id="g4113">
        <path
           style="fill:url(#linearGradient4118);fill-opacity:1;stroke:#286296;stroke-width:1.48209679;stroke-miterlimit:4;stroke-opacity:1;stroke-dasharray:none"
           id="path4110"
           d="m 21.8125,11.6875 a 9.875,9.875 0 0 1 -9.875,9.875 9.875,9.875 0 0 1 -9.875,-9.875 9.875,9.875 0 0 1 9.875,-9.875 9.875,9.875 0 0 1 9.875,9.875 z"
           transform="matrix(0.94006782,0,0,0.94006782,-19.572484,1041.2798)" />
        <path
           style="font-size:20.03678703px;font-style:normal;font-variant:normal;font-weight:bold;font-stretch:normal;text-align:start;line-height:125%;letter-spacing:0px;word-spacing:0px;writing-mode:lr-tb;text-anchor:start;fill:#286296;fill-opacity:1;stroke:none;font-family:Reznor;"
           d="m -8.2362428,1045.9247 c -1.273895,10e-5 -2.2909442,0.3542 -3.0669772,1.0668 -0.776035,0.7126 -1.180487,1.6995 -1.22679,2.9336 l 2.106879,0.2667 c 0.06927,-1.5258 0.7676282,-2.2669 2.0535412,-2.2669 0.544332,0 0.986005,0.1392 1.333468,0.4534 0.347451,0.3142 0.50671,0.7177 0.506718,1.2001 -8e-6,0.4489 -0.155573,0.8368 -0.480048,1.1734 -0.173559,0.1795 -0.518749,0.4482 -1.040106,0.7735 -0.47471,0.2917 -0.782855,0.6247 -0.933427,1.04 -0.13927,0.348 -0.21336,0.8822 -0.213355,1.6002 l 0,0.9601 1.946863,0 0,-0.6134 c -6e-6,-0.7067 0.304445,-1.2494 0.906758,-1.6534 0.787868,-0.5387 1.32567,-1.0168 1.626831,-1.3868 0.416727,-0.5387 0.640055,-1.1881 0.640064,-1.9736 -9e-6,-1.0772 -0.431305,-1.9671 -1.253459,-2.6403 -0.787883,-0.6283 -1.760322,-0.9333 -2.90696,-0.9334 z"
           id="text4882" />
        <path
           style="fill:#286296;fill-opacity:1;stroke:none;display:inline"
           id="path4908-1"
           d="m 12.575997,16.531185 a 0.64356911,0.39774758 0 0 1 -0.64357,0.397748 0.64356911,0.39774758 0 0 1 -0.643569,-0.397748 0.64356911,0.39774758 0 0 1 0.643569,-0.397747 0.64356911,0.39774758 0 0 1 0.64357,0.397747 z"
           transform="matrix(2.2887845,0,0,3.1572419,-35.660077,1005.1852)" />
      </g>
    </g>
  </g>
</svg>
