<?xml version="1.0" encoding="UTF-8" standalone="no"?>
<!-- Created with Inkscape (http://www.inkscape.org/) -->

<svg
   xmlns:dc="http://purl.org/dc/elements/1.1/"
   xmlns:cc="http://creativecommons.org/ns#"
   xmlns:rdf="http://www.w3.org/1999/02/22-rdf-syntax-ns#"
   xmlns:svg="http://www.w3.org/2000/svg"
   xmlns="http://www.w3.org/2000/svg"
   xmlns:xlink="http://www.w3.org/1999/xlink"
   xmlns:sodipodi="http://sodipodi.sourceforge.net/DTD/sodipodi-0.dtd"
   xmlns:inkscape="http://www.inkscape.org/namespaces/inkscape"
   width="16"
   height="16"
   id="svg2"
   version="1.1"
   inkscape:version="0.48.0 r9654"
   sodipodi:docname="help.svg">
  <defs
     id="defs4">
    <linearGradient
       inkscape:collect="always"
       id="linearGradient4877">
      <stop
         style="stop-color:#f7fdff;stop-opacity:1"
         offset="0"
         id="stop4879" />
      <stop
         style="stop-color:#e8f0f5;stop-opacity:1"
         offset="1"
         id="stop4881" />
    </linearGradient>
    <linearGradient
       inkscape:collect="always"
       xlink:href="#linearGradient4877"
       id="linearGradient4118"
       gradientUnits="userSpaceOnUse"
       x1="12.108335"
       y1="2.7923172"
       x2="12.108335"
       y2="17.832731" />
  </defs>
  <sodipodi:namedview
     id="base"
     pagecolor="#ffffff"
     bordercolor="#666666"
     borderopacity="1.0"
     inkscape:pageopacity="0.0"
     inkscape:pageshadow="2"
     inkscape:zoom="8"
     inkscape:cx="11.192951"
     inkscape:cy="24.729705"
     inkscape:document-units="px"
     inkscape:current-layer="g8159"
     showgrid="true"
     inkscape:window-width="469"
     inkscape:window-height="455"
     inkscape:window-x="125"
     inkscape:window-y="125"
     inkscape:window-maximized="0"
     showguides="true"
     inkscape:guide-bbox="true"
     inkscape:snap-global="false">
    <inkscape:grid
       type="xygrid"
       id="grid4112"
       empspacing="5"
       visible="true"
       enabled="true"
       snapvisiblegridlinesonly="true" />
  </sodipodi:namedview>
  <metadata
     id="metadata7">
    <rdf:RDF>
      <cc:Work
         rdf:about="">
        <dc:format>image/svg+xml</dc:format>
        <dc:type
           rdf:resource="http://purl.org/dc/dcmitype/StillImage" />
        <dc:title />
      </cc:Work>
    </rdf:RDF>
  </metadata>
  <g
     inkscape:label="Layer 1"
     inkscape:groupmode="layer"
     id="layer1"
     style="display:inline"
     transform="translate(0,-1036.3622)">
    <g
       style="display:inline"
       id="g8159"
       transform="translate(-8.2201163,-12.904699)">
      <g
         id="g4113"
         transform="matrix(0.70002175,0,0,0.70002175,22.066022,320.64029)">
        <path
           transform="matrix(0.94006782,0,0,0.94006782,-19.572484,1041.2798)"
           d="m 21.8125,11.6875 c 0,5.453812 -4.421188,9.875 -9.875,9.875 -5.4538119,0 -9.875,-4.421188 -9.875,-9.875 0,-5.4538119 4.4211881,-9.875 9.875,-9.875 5.453812,0 9.875,4.4211881 9.875,9.875 z"
           sodipodi:ry="9.875"
           sodipodi:rx="9.875"
           sodipodi:cy="11.6875"
           sodipodi:cx="11.9375"
           id="path4110"
           style="fill:url(#linearGradient4118);fill-opacity:1;stroke:#286296;stroke-width:1.48209679;stroke-miterlimit:4;stroke-opacity:1;stroke-dasharray:none"
           sodipodi:type="arc" />
        <path
           sodipodi:nodetypes="csccccccccsccsccccc"
           inkscape:connector-curvature="0"
           id="text4882"
           d="m -8.2362428,1045.9247 c -1.273895,10e-5 -2.2909442,0.3542 -3.0669772,1.0668 -0.776035,0.7126 -1.180487,1.6995 -1.22679,2.9336 l 2.106879,0.2667 c 0.06927,-1.5258 0.7676282,-2.2669 2.0535412,-2.2669 0.544332,0 0.986005,0.1392 1.333468,0.4534 0.347451,0.3142 0.50671,0.7177 0.506718,1.2001 -8e-6,0.4489 -0.155573,0.8368 -0.480048,1.1734 -0.173559,0.1795 -0.518749,0.4482 -1.040106,0.7735 -0.47471,0.2917 -0.782855,0.6247 -0.933427,1.04 -0.13927,0.348 -0.21336,0.8822 -0.213355,1.6002 l 0,0.9601 1.946863,0 0,-0.6134 c -6e-6,-0.7067 0.304445,-1.2494 0.906758,-1.6534 0.787868,-0.5387 1.32567,-1.0168 1.626831,-1.3868 0.416727,-0.5387 0.640055,-1.1881 0.640064,-1.9736 -9e-6,-1.0772 -0.431305,-1.9671 -1.253459,-2.6403 -0.787883,-0.6283 -1.760322,-0.9333 -2.90696,-0.9334 z"
           style="font-size:20.03678703px;font-style:normal;font-variant:normal;font-weight:bold;font-stretch:normal;text-align:start;line-height:125%;letter-spacing:0px;word-spacing:0px;writing-mode:lr-tb;text-anchor:start;fill:#286296;fill-opacity:1;stroke:none;font-family:Reznor;-inkscape-font-specification:Reznor Bold" />
        <path
           transform="matrix(2.2887845,0,0,3.1572419,-35.660077,1005.1852)"
           d="m 12.575997,16.531185 c 0,0.21967 -0.288136,0.397748 -0.64357,0.397748 -0.355433,0 -0.643569,-0.178078 -0.643569,-0.397748 0,-0.21967 0.288136,-0.397747 0.643569,-0.397747 0.355434,0 0.64357,0.178077 0.64357,0.397747 z"
           sodipodi:ry="0.39774758"
           sodipodi:rx="0.64356911"
           sodipodi:cy="16.531185"
           sodipodi:cx="11.932427"
           id="path4908-1"
           style="fill:#286296;fill-opacity:1;stroke:none;display:inline"
           sodipodi:type="arc" />
      </g>
    </g>
  </g>
</svg>
