<?xml version="1.0" encoding="UTF-8" standalone="no"?>
<!-- Created with Inkscape (http://www.inkscape.org/) -->

<svg
   xmlns:dc="http://purl.org/dc/elements/1.1/"
   xmlns:cc="http://creativecommons.org/ns#"
   xmlns:rdf="http://www.w3.org/1999/02/22-rdf-syntax-ns#"
   xmlns:svg="http://www.w3.org/2000/svg"
   xmlns="http://www.w3.org/2000/svg"
   xmlns:xlink="http://www.w3.org/1999/xlink"
   xmlns:sodipodi="http://sodipodi.sourceforge.net/DTD/sodipodi-0.dtd"
   xmlns:inkscape="http://www.inkscape.org/namespaces/inkscape"
   width="16"
   height="16"
   id="svg2"
   version="1.1"
   inkscape:version="0.48.0 r9654"
   sodipodi:docname="open_browser.svg">
  <defs
     id="defs4">
    <linearGradient
       inkscape:collect="always"
       id="linearGradient8349">
      <stop
         style="stop-color:#ffffff;stop-opacity:1;"
         offset="0"
         id="stop8351" />
      <stop
         style="stop-color:#ffffff;stop-opacity:0;"
         offset="1"
         id="stop8353" />
    </linearGradient>
    <linearGradient
       inkscape:collect="always"
       id="linearGradient8573">
      <stop
         style="stop-color:#42618c;stop-opacity:1"
         offset="0"
         id="stop8575" />
      <stop
         style="stop-color:#10305a;stop-opacity:1"
         offset="1"
         id="stop8577" />
    </linearGradient>
    <linearGradient
       id="linearGradient8382">
      <stop
         style="stop-color:#fffcf2;stop-opacity:1"
         offset="0"
         id="stop8384" />
      <stop
         id="stop8392"
         offset="0.35072023"
         style="stop-color:#adc977;stop-opacity:1" />
      <stop
         id="stop8390"
         offset="0.7120198"
         style="stop-color:#7f9f3f;stop-opacity:1" />
      <stop
         style="stop-color:#77775c;stop-opacity:1"
         offset="1"
         id="stop8386" />
    </linearGradient>
    <linearGradient
       inkscape:collect="always"
       id="linearGradient8374">
      <stop
         style="stop-color:#6fd9ff;stop-opacity:1"
         offset="0"
         id="stop8376" />
      <stop
         style="stop-color:#4364a7;stop-opacity:1"
         offset="1"
         id="stop8378" />
    </linearGradient>
    <linearGradient
       inkscape:collect="always"
       id="linearGradient8305">
      <stop
         style="stop-color:#777777;stop-opacity:1;"
         offset="0"
         id="stop8307" />
      <stop
         style="stop-color:#bfbf9f;stop-opacity:1"
         offset="1"
         id="stop8309" />
    </linearGradient>
    <linearGradient
       inkscape:collect="always"
       id="linearGradient8287">
      <stop
         style="stop-color:#6eb6e2;stop-opacity:1;"
         offset="0"
         id="stop8289" />
      <stop
         style="stop-color:#d3e5f4;stop-opacity:1"
         offset="1"
         id="stop8291" />
    </linearGradient>
    <linearGradient
       id="linearGradient4082-3">
      <stop
         style="stop-color:#4476aa;stop-opacity:1"
         offset="0"
         id="stop4084-8" />
      <stop
         id="stop4864-7"
         offset="0.5"
         style="stop-color:#5a9ccc;stop-opacity:1" />
      <stop
         style="stop-color:#4476aa;stop-opacity:1"
         offset="1"
         id="stop4086-2" />
    </linearGradient>
    <linearGradient
       id="linearGradient4994-4-5"
       inkscape:collect="always">
      <stop
         id="stop4996-5-9"
         offset="0"
         style="stop-color:#c5dff4;stop-opacity:1" />
      <stop
         id="stop4998-5-0"
         offset="1"
         style="stop-color:#ffffff;stop-opacity:0;" />
    </linearGradient>
    <linearGradient
       inkscape:collect="always"
       id="linearGradient4910-4-0">
      <stop
         style="stop-color:#ffffff;stop-opacity:0"
         offset="0"
         id="stop4912-8-5" />
      <stop
         style="stop-color:#c5dff4;stop-opacity:1"
         offset="1"
         id="stop4914-8-1" />
    </linearGradient>
    <linearGradient
       id="linearGradient4810-5"
       inkscape:collect="always">
      <stop
         id="stop4812-0"
         offset="0"
         style="stop-color:#be9a4b;stop-opacity:1" />
      <stop
         id="stop4814-4"
         offset="1"
         style="stop-color:#615941;stop-opacity:1" />
    </linearGradient>
    <linearGradient
       inkscape:collect="always"
       xlink:href="#linearGradient4082-3"
       id="linearGradient8878"
       gradientUnits="userSpaceOnUse"
       gradientTransform="translate(-0.876166,-1.9685044)"
       x1="8.0137892"
       y1="1039.876"
       x2="8.0137892"
       y2="1041.8765" />
    <linearGradient
       inkscape:collect="always"
       xlink:href="#linearGradient4994-4-5"
       id="linearGradient8881"
       gradientUnits="userSpaceOnUse"
       gradientTransform="translate(17,-1.9688049)"
       x1="-11"
       y1="1042.3622"
       x2="-11"
       y2="1044.3622" />
    <linearGradient
       inkscape:collect="always"
       xlink:href="#linearGradient4910-4-0"
       id="linearGradient8884"
       gradientUnits="userSpaceOnUse"
       gradientTransform="translate(17,-6.0000049)"
       x1="-13"
       y1="1047.3622"
       x2="-15"
       y2="1047.3622" />
    <linearGradient
       inkscape:collect="always"
       xlink:href="#linearGradient4810-5"
       id="linearGradient8887"
       gradientUnits="userSpaceOnUse"
       gradientTransform="translate(-0.91881,0.0669951)"
       x1="8.0137892"
       y1="1042.3622"
       x2="8.0137892"
       y2="1048.8844" />
    <linearGradient
       inkscape:collect="always"
       xlink:href="#linearGradient8287"
       id="linearGradient8293"
       x1="-18.996288"
       y1="1038.8951"
       x2="-4.991955"
       y2="1038.8951"
       gradientUnits="userSpaceOnUse"
       gradientTransform="translate(20,0)" />
    <linearGradient
       inkscape:collect="always"
       xlink:href="#linearGradient8305"
       id="linearGradient8311"
       x1="-686.46204"
       y1="672.22028"
       x2="-1030.4867"
       y2="328.19562"
       gradientUnits="userSpaceOnUse" />
    <radialGradient
       inkscape:collect="always"
       xlink:href="#linearGradient8374"
       id="radialGradient8380"
       cx="-1022.4374"
       cy="440.14304"
       fx="-1022.4374"
       fy="440.14304"
       r="232.85715"
       gradientUnits="userSpaceOnUse"
       gradientTransform="matrix(1.3824195,0,0,1.3824195,391.00002,-168.31929)" />
    <linearGradient
       inkscape:collect="always"
       xlink:href="#linearGradient8382"
       id="linearGradient8388"
       x1="9.3787851"
       y1="7.2738252"
       x2="14.059898"
       y2="12.665515"
       gradientUnits="userSpaceOnUse" />
    <mask
       maskUnits="userSpaceOnUse"
       id="mask8561">
      <g
         id="g8563"
         style="fill:#ffffff;stroke:#ffffff;display:inline">
        <path
           style="fill:#ffffff;fill-opacity:1;stroke:#ffffff;stroke-width:1;stroke-linecap:butt;stroke-linejoin:miter;stroke-miterlimit:4;stroke-opacity:1;stroke-dashoffset:0;display:inline"
           d="m 1.507673,1039.9279 13.001925,0 0,8.9667 -13.001925,0 z"
           id="path8565"
           inkscape:connector-curvature="0"
           sodipodi:nodetypes="ccccc" />
        <path
           style="fill:#ffffff;fill-opacity:1;stroke:#ffffff;stroke-width:1;stroke-linecap:butt;stroke-linejoin:miter;stroke-miterlimit:4;stroke-opacity:1;stroke-dashoffset:0;display:inline"
           d="m 1.503712,1037.8924 13.004333,0 0,2.0053 -13.004333,0 z"
           id="path8567"
           inkscape:connector-curvature="0"
           sodipodi:nodetypes="ccccc" />
      </g>
    </mask>
    <filter
       inkscape:collect="always"
       id="filter8569"
       x="-0.23942712"
       width="1.4788542"
       y="-0.14420703"
       height="1.2884141">
      <feGaussianBlur
         inkscape:collect="always"
         stdDeviation="0.84439158"
         id="feGaussianBlur8571" />
    </filter>
    <linearGradient
       inkscape:collect="always"
       xlink:href="#linearGradient8573"
       id="linearGradient8579"
       x1="9.021709"
       y1="1037.9849"
       x2="15.081943"
       y2="1037.9849"
       gradientUnits="userSpaceOnUse" />
    <radialGradient
       inkscape:collect="always"
       xlink:href="#linearGradient8349"
       id="radialGradient8355"
       cx="-992.8103"
       cy="395.31625"
       fx="-992.8103"
       fy="395.31625"
       r="232.85715"
       gradientUnits="userSpaceOnUse"
       gradientTransform="matrix(0.79448227,-0.50275619,0.3921194,0.61964809,-359.0513,-348.78223)" />
  </defs>
  <sodipodi:namedview
     id="base"
     pagecolor="#ffffff"
     bordercolor="#666666"
     borderopacity="1.0"
     inkscape:pageopacity="0.0"
     inkscape:pageshadow="2"
     inkscape:zoom="7.9999996"
     inkscape:cx="11.184772"
     inkscape:cy="-4.602533"
     inkscape:document-units="px"
     inkscape:current-layer="g3894"
     showgrid="true"
     inkscape:window-width="1208"
     inkscape:window-height="913"
     inkscape:window-x="297"
     inkscape:window-y="133"
     inkscape:window-maximized="0"
     showguides="true"
     inkscape:guide-bbox="true"
     inkscape:snap-global="false">
    <inkscape:grid
       type="xygrid"
       id="grid8762" />
  </sodipodi:namedview>
  <metadata
     id="metadata7">
    <rdf:RDF>
      <cc:Work
         rdf:about="">
        <dc:format>image/svg+xml</dc:format>
        <dc:type
           rdf:resource="http://purl.org/dc/dcmitype/StillImage" />
        <dc:title />
      </cc:Work>
    </rdf:RDF>
  </metadata>
  <g
     inkscape:label="Layer 1"
     inkscape:groupmode="layer"
     id="layer1"
     style="display:inline"
     transform="translate(0,-1036.3622)">
    <path
       sodipodi:nodetypes="ccccc"
       inkscape:connector-curvature="0"
       id="rect3997-9"
       d="m 1.507673,1039.9279 13.001925,0 0,8.9667 -13.001925,0 z"
       style="fill:#f4fcff;fill-opacity:1;stroke:url(#linearGradient8887);stroke-width:1;stroke-linecap:butt;stroke-linejoin:miter;stroke-miterlimit:4;stroke-opacity:1;stroke-dashoffset:0;display:inline" />
    <path
       sodipodi:nodetypes="ccccc"
       inkscape:connector-curvature="0"
       id="rect4853-82-7"
       d="m 3,1041.3611 0,7.0312 -1,0 0,-8.0312 z"
       style="fill:url(#linearGradient8884);fill-opacity:1;stroke:none;display:inline" />
    <path
       sodipodi:nodetypes="ccccc"
       inkscape:connector-curvature="0"
       id="rect4853-82-0"
       d="m 3,1041.3923 10.928078,0 0,-1 -11.928078,0 z"
       style="fill:url(#linearGradient8881);fill-opacity:1;stroke:none;display:inline" />
    <path
       sodipodi:nodetypes="ccccc"
       inkscape:connector-curvature="0"
       id="rect3997-9-9"
       d="m 1.503712,1037.8924 13.004333,0 0,2.0053 -13.004333,0 z"
       style="fill:url(#linearGradient8293);fill-opacity:1;stroke:url(#linearGradient8878);stroke-width:1;stroke-linecap:butt;stroke-linejoin:miter;stroke-miterlimit:4;stroke-opacity:1;stroke-dashoffset:0;display:inline" />
    <g
       id="g8462"
       mask="url(#mask8561)">
      <g
         id="g8456"
         style="filter:url(#filter8569);stroke:#ffffff;stroke-width:2;stroke-miterlimit:4;stroke-dasharray:none">
        <g
           id="g8428"
           style="stroke:#ffffff;stroke-width:2;stroke-miterlimit:4;stroke-dasharray:none">
          <path
             sodipodi:type="arc"
             style="fill:#ffffff;stroke:#ffffff;stroke-width:110.04435338;stroke-miterlimit:4;stroke-opacity:1;stroke-dasharray:none;display:inline"
             id="path3800-3-8-1-1"
             sodipodi:cx="-902.85712"
             sodipodi:cy="526.64789"
             sodipodi:rx="232.85715"
             sodipodi:ry="232.85715"
             d="m -669.99997,526.64789 c 0,128.60345 -104.2537,232.85715 -232.85715,232.85715 -128.60348,0 -232.85718,-104.2537 -232.85718,-232.85715 0,-128.60345 104.2537,-232.85715 232.85718,-232.85715 128.60345,0 232.85715,104.2537 232.85715,232.85715 z"
             transform="matrix(0.01817449,0,0,0.01817449,27.917291,1037.2919)" />
        </g>
        <path
           style="fill:#10305a;fill-opacity:1;stroke:#ffffff;stroke-width:2;stroke-linecap:round;stroke-linejoin:round;stroke-opacity:1;display:inline;stroke-miterlimit:4;stroke-dasharray:none"
           d="m 13.454991,1039.8994 2.032932,0 0,-2.0329 z"
           id="path8431-4"
           inkscape:connector-curvature="0" />
        <path
           style="fill:none;stroke:#ffffff;stroke-width:2;stroke-linecap:round;stroke-linejoin:round;stroke-opacity:1;display:inline;stroke-miterlimit:4;stroke-dasharray:none"
           d="m 14.581943,1038.9272 c -1.507652,-2.1147 -3.199041,-2.4225 -5.060234,-1.0607"
           id="path8433-5"
           inkscape:connector-curvature="0"
           sodipodi:nodetypes="cc" />
      </g>
    </g>
    <g
       transform="matrix(0.00435381,0,0,0.00435381,21.2949,1046.2128)"
       id="g3894">
      <path
         transform="matrix(3.9896425,0,0,3.9896425,1354.2582,-1951.6952)"
         d="m -669.99997,526.64789 c 0,128.60345 -104.2537,232.85715 -232.85715,232.85715 -128.60348,0 -232.85718,-104.2537 -232.85718,-232.85715 0,-128.60345 104.2537,-232.85715 232.85718,-232.85715 128.60345,0 232.85715,104.2537 232.85715,232.85715 z"
         sodipodi:ry="232.85715"
         sodipodi:rx="232.85715"
         sodipodi:cy="526.64789"
         sodipodi:cx="-902.85712"
         id="path3800-3-8"
         style="fill:url(#radialGradient8380);fill-opacity:1;stroke:none"
         sodipodi:type="arc" />
      <path
         style="fill:url(#linearGradient8388);fill-opacity:1;stroke:none;display:inline"
         d="m 11.9375,6.5 c -0.05784,-1.319e-4 -0.101507,0.016876 0,0.03125 C 12.00798,6.54082 11.89724,6.572959 12,6.5625 12.05203,6.517735 11.98853,6.500118 11.9375,6.5 z m -1.25,0.03125 c -0.05595,0.01145 -0.101166,0.048766 -0.15625,0.0625 0.115703,-0.029087 0.224329,-0.043624 0.34375,-0.0625 -0.06135,0.00963 -0.127095,-0.012361 -0.1875,0 z m 0.5,0 c -0.06978,0.01338 -0.0869,0.025565 0,0.03125 0.05935,-0.027412 0.06201,-0.03318 0.09375,-0.03125 -0.03478,0.00448 -0.06444,-0.00562 -0.09375,0 z m 1.125,0 C 12.3062,6.5307268 12.287,6.562937 12.28125,6.5625 12.27014,6.583592 12.19175,6.596221 12.3125,6.59375 12.3158,6.606973 12.3224,6.639458 12.34375,6.625 12.35175,6.612368 12.35747,6.571987 12.375,6.5625 12.35297,6.5576 12.33466,6.535786 12.3125,6.53125 z M 11.53125,6.5625 C 11.51453,6.5628583 11.5076,6.597979 11.5,6.625 11.43314,6.579477 11.294232,6.587476 11.25,6.59375 11.21158,6.612463 11.2154,6.631915 11.34375,6.625 c 0.07194,-0.00152 -0.01035,0.021963 -0.0625,0.03125 0.01558,0.00138 0.01227,7.045e-4 0.0625,0 0.06839,-7.24e-4 0.430325,-0.037911 0.21875,-0.0625 C 11.57878,6.565581 11.54414,6.563131 11.53125,6.5625 z m 0.5,0 c -0.0078,0.00992 0.01511,0.033206 0.09375,0.03125 0.02175,-0.02905 0.02537,-0.031581 0,-0.03125 -0.02597,3.396e-4 -0.08592,-0.00992 -0.09375,0 z m -0.3125,0.03125 c -0.01039,4.093e-4 5.5e-5,0.026927 0,0.03125 0,0 0.03125,0 0.03125,0 0,0 -0.03125,-0.03125 -0.03125,-0.03125 z M 11.75,6.625 C 11.71795,6.63056 11.71977,6.647534 11.8125,6.65625 11.79012,6.66018 11.72679,6.698781 11.84375,6.6875 11.93549,6.659397 11.965657,6.592762 11.875,6.59375 11.8656,6.5938523 11.85574,6.623612 11.84375,6.625 11.85532,6.636852 11.78205,6.61944 11.75,6.625 z M 12.53125,6.59375 C 12.52165,6.605945 12.50438,6.612551 12.5,6.625 c -0.0062,0.018169 0.0071,0.053307 0,0.0625 -0.005,0.00308 -0.02181,0.00284 -0.03125,0 -0.03764,-1.794e-4 -0.112166,0.00871 -0.125,0 -0.106412,-0.00728 -0.05203,0.016866 -0.03125,0.03125 0.09568,0.00819 0.205597,0.054658 0.21875,0.0625 0.0946,0.00713 0.02534,-0.1095346 0.1875,-0.0625 C 12.71465,6.701758 12.719482,6.691431 12.75,6.6875 12.67725,6.663824 12.605746,6.613349 12.53125,6.59375 z m -0.5,0.03125 c 0.01079,0.00566 0.0014,0.023031 0.03125,0.03125 C 12.10754,6.630107 12.0673,6.625313 12.03125,6.625 z m -1.125,0.03125 c -0.175319,0.079041 -0.294922,0.1257321 -0.28125,0.1875 0.12458,-0.013288 0.256965,-0.1187013 0.40625,-0.125 0.154942,-0.051938 -0.03648,-0.058901 -0.125,-0.0625 z m 1,0.03125 c -0.0283,0.010914 -0.01196,0.051114 0.0625,0.0625 0.02052,-0.037086 -0.0063,-0.062757 -0.03125,-0.0625 -0.01041,1.069e-4 -0.02182,-0.00364 -0.03125,0 z M 11.4375,6.71875 c -0.03101,2.09e-5 -0.03924,0.025215 0,0.0625 0.119344,-0.022394 0.04533,-0.062544 0,-0.0625 z M 11.65625,6.75 c -0.09538,0.026012 0.0341,0.016834 -0.0625,0.0625 -0.143572,-0.047089 -0.02189,0.1146867 0,0.125 0.02952,-0.0015 0.09066,-0.060907 0.125,-0.09375 C 11.69366,6.825869 11.72959,6.795174 11.75,6.78125 11.750261,6.77596 11.7426,6.753154 11.71875,6.75 c -0.01356,-0.00112 -0.04194,6.452e-4 -0.0625,0 z m 1.1875,0 c -0.0028,0.00396 -0.01346,0.02033 0,0.03125 0.0541,0.022665 0.01735,0.023506 0.03125,0.03125 0.02492,0.049061 0.217059,0.1141472 0.125,0.09375 0.09389,0.019027 0.288017,0.2334844 0.25,0.15625 0.02881,0.047654 0.07719,0.2245883 0.0625,0.15625 0.0072,0.00466 0.0648,0.042776 0.0625,0.0625 0.05054,0.011717 0.06361,0.045523 0.0625,0.0625 0.0096,0.00381 0.02734,0.041468 0,0.03125 0,0 -0.03125,0 -0.03125,0 0.0046,0.00196 -0.0042,0.02962 0,0.03125 0.08554,0.030971 0.0039,0.088651 0.03125,0.09375 -0.03111,2.667e-4 -0.03184,0.024989 -0.03125,0.03125 0.0054,0.00345 -0.004,0.028639 0,0.03125 0.01376,0.0049 -0.02113,0.032237 0.0625,0.03125 -0.01573,-5.848e-4 -0.07076,0.00607 -0.09375,0 0.0076,0.00449 0.0046,0.018731 0.03125,0.03125 -0.03933,0.00588 -0.06082,0.04752 -0.0625,0.0625 0.108037,-0.036815 0.06564,0.014952 0.03125,0.03125 0.03362,0.00333 0.06157,0.012737 0.0625,0.03125 0.01036,-0.0023 0.02675,0.023312 0,0.03125 -0.0015,0.00488 0.0028,0.027343 0,0.03125 0.005,0.00311 -0.0032,0.027992 0,0.03125 -0.06053,0.021259 -0.02397,0.071757 0,0.09375 -0.0014,5.451e-4 0.02934,0.00579 0.03125,0 -0.0058,0.062356 0.03125,0.1528265 0.03125,0.125 0.06139,0.057926 0.121887,0.081208 0.125,0.0625 0.02047,-0.00254 0.0976,0.049335 0.09375,0.0625 0.03124,0.00958 0.05151,0.00503 0.03125,-0.03125 0.0029,-0.013665 -0.0067,-0.037558 0,-0.0625 0.0088,-0.03314 0.01112,-0.045849 0,-0.03125 C 13.72063,8.036565 13.80942,8.010622 13.78125,8 13.80897,7.97293 13.7968,7.7868458 13.8125,7.875 c 0.08628,-0.031412 0.11586,0.028863 0.125,-0.03125 2.44e-4,0.047841 0.0441,0.00676 0.0625,0 0.0044,0.00176 0.02812,0.00255 0.03125,0 C 14.05509,7.824336 14.02096,7.7158609 14.0625,7.75 14.11361,7.83049 14.293206,7.832704 14.34375,7.78125 14.29753,7.757732 14.27416,7.731918 14.25,7.71875 14.21119,7.70494 14.19799,7.664509 14.1875,7.65625 c 0.01031,-9.633e-4 0.02342,0.019743 0.0625,0.03125 0.01644,0.014893 0.0215,-0.00769 0.03125,0 C 14.25124,7.646672 14.22316,7.58784 14.21875,7.59375 14.1855,7.563092 14.1781,7.556654 14.1875,7.5625 14.1358,7.526519 14.1827,7.513347 14.25,7.5625 13.901484,7.2397323 13.508158,6.9660193 13.0625,6.78125 13.035738,6.7812686 12.899181,6.7537775 12.84375,6.75 z m -1.8125,0.03125 c -0.04017,0.023715 -0.07139,0.045605 -0.125,0.0625 0.0572,0.0048 -0.301731,0.081947 0.03125,0.0625 -0.0438,0.02484 -0.374062,0.040649 -0.125,0.125 -0.08875,0.1411035 0.406126,-0.047002 0.28125,0 C 11.13652,7.019498 11.16172,7.094313 11.25,7.09375 11.362453,7.072326 11.33965,7.009198 11.3125,7 11.33478,6.985983 11.36019,6.967467 11.375,6.96875 c -0.03588,-0.040543 -0.05808,-0.059708 0,-0.125 -0.04118,0.027663 -0.134377,0.060876 -0.125,0 0.0057,-0.041005 0.01229,-0.1202861 -0.03125,-0.0625 -0.06365,0.017454 -0.122215,0.00938 -0.15625,0 -0.0072,0.00309 -0.03026,-0.00325 -0.03125,0 z m 1.0625,0.0625 c -0.07462,0.022766 -0.238492,0.1533579 -0.0625,0.1875 -0.03014,-0.00619 -0.04972,-6.054e-4 -0.0625,0 0.03057,0.02563 0.07761,0.074121 0.0625,0.0625 0.03239,0.00503 0.102095,0.021957 0.15625,0.03125 0.07288,0.012684 0.133859,0.022493 0.09375,0.03125 0.0901,0.040373 0.03998,-0.1309286 0.09375,0.03125 0.08863,0.014453 0.190419,0.078492 0.09375,0.09375 -0.0048,1.811e-4 -0.01084,0.055695 0,0.03125 0.02782,0.042509 0.104146,0.1092955 0.09375,0.0625 0.05754,0.045371 -0.0765,0.1086192 -0.125,0.125 0.01225,0.040699 -0.02688,0.077144 -0.0625,0.09375 0.04335,-0.010146 0.170543,0.1703758 0.125,0.125 -0.01984,0.00587 -0.01591,0.015035 0,0.03125 -0.0068,0.00105 0.01512,0.042155 0.03125,0.03125 0.06742,0.045285 0.170024,0.086934 0.1875,0.09375 0.0069,-0.025164 -0.03066,-0.086973 -0.0625,-0.125 0.0082,0.00357 0.01655,-0.0082 0.03125,0 0.03299,0.00772 0.101724,0.019244 0.09375,0.0625 0.02885,-0.025389 -0.0034,-0.125 0,-0.125 C 12.7016,7.5759741 12.70612,7.619397 12.6875,7.53125 c -0.01876,-0.01631 0.115968,-0.00724 0.09375,0 0.01417,0.022369 0.02796,0.043269 0.03125,0.0625 C 12.8016,7.58877 12.90942,7.546883 12.90625,7.625 12.93142,7.608796 12.9302,7.582791 12.9375,7.5625 13.054243,7.55991 12.90021,7.526678 12.9375,7.53125 12.9472,7.46099 12.85556,7.494226 12.875,7.4375 12.84402,7.402299 12.78446,7.357913 12.8125,7.40625 12.80037,7.4071734 12.76401,7.365903 12.75,7.34375 12.7554,7.329631 12.7488,7.303282 12.84375,7.3125 12.80527,7.301019 12.78572,7.290192 12.78125,7.28125 12.79369,7.269945 12.80345,7.243646 12.71875,7.25 12.69806,7.229056 12.73147,7.224138 12.75,7.21875 12.749576,7.21147 12.7419,7.205025 12.71875,7.1875 12.64322,7.220653 12.71195,7.175108 12.6875,7.15625 c -0.01491,0.00567 -0.03227,0.00549 -0.03125,0 C 12.72118,7.125921 12.66814,7.083247 12.625,7.09375 12.63906,7.080964 12.60453,7.047606 12.5625,7.0625 12.4889,7.045747 12.57347,7.05997 12.5,7 12.4884,6.974081 12.48961,6.937467 12.46875,6.9375 12.43064,6.9375596 12.41421,6.967749 12.40625,6.96875 12.39481,6.937186 12.3821,6.925474 12.375,6.9375 12.3782,6.898718 12.35045,6.863956 12.25,6.90625 c -0.05245,0.013513 -0.03548,0.109158 -0.0625,0.0625 -0.02747,-0.022326 -0.04724,-0.018519 -0.0625,0 -0.01526,0.018519 -0.01773,0.048521 0,0.0625 -0.05803,0.011757 -0.03223,-0.023806 0,-0.0625 0.04835,-0.058041 0.09977,-0.1266841 0.03125,-0.125 -0.01403,3.448e-4 -0.03389,-0.00809 -0.0625,0 z m -1.75,0.0625 c -0.02884,0.011256 -0.09609,0.042043 -0.15625,0.0625 -0.05846,0.014322 -0.122805,0.00941 -0.09375,0 C 10.06993,6.96315 9.9378747,7.040675 9.875,6.9375 9.7679118,6.94729 9.7158522,6.93462 9.65625,6.9375 9.64814,6.94173 9.633081,6.93322 9.625,6.9375 9.2664788,7.1274099 8.9406414,7.3718586 8.65625,7.65625 8.620641,7.689674 8.591813,7.740849 8.5625,7.78125 8.520624,7.838966 8.512937,7.881208 8.5625,7.84375 8.506993,7.905068 8.488627,8.023314 8.59375,7.9375 8.505332,8.0722968 8.3689746,8.1869494 8.28125,8.28125 8.4245755,8.1644328 8.5515906,8.033061 8.6875,7.90625 8.698402,7.84779 8.780298,7.814212 8.84375,7.78125 8.780615,7.839428 8.7190584,7.9357235 8.78125,7.875 8.842285,7.851424 8.9283379,7.7595652 8.96875,7.71875 8.9679681,7.7178962 8.999421,7.72106 9,7.71875 9.00968,7.7184557 9.015025,7.71615 9,7.75 9.029404,7.7572 9.1282284,7.80251 9.15625,7.8125 9.187817,7.796737 9.2585792,7.871647 9.25,7.90625 9.25858,7.90061 9.27245,7.89115 9.28125,7.84375 c 0.00682,-0.027063 -0.021738,0.1423987 0,0.125 C 9.27243,7.98834 9.256825,8.011072 9.25,8.03125 c 0,0 -0.03125,0.03125 -0.03125,0.03125 -0.00559,0.012985 -0.00441,0.02718 0,0.03125 0,0 0.03125,-0.03125 0.03125,-0.03125 -0.00239,0.010434 -0.00103,0.023682 0,0.03125 -0.00344,3.496e-4 -0.016535,0.041401 0,0.03125 0.00315,0.00221 0.026047,-2.712e-4 0.03125,0 -0.018358,0.018832 -0.011337,0.025078 0,0.03125 0.010297,0.00866 3.82e-5,0.027638 -0.03125,0.0625 -0.010064,0.00971 0.01641,0.017101 0,0.03125 -0.01997,0.065963 0.00929,0.094284 0.03125,0.09375 -0.012446,0.0545 -0.012923,0.1093189 0,0.125 C 9.252531,8.509856 9.228179,8.566802 9.25,8.53125 9.301058,8.52599 9.2507819,8.617821 9.21875,8.65625 9.238365,8.64811 9.271852,8.638497 9.34375,8.59375 9.3381,8.61066 9.429429,8.650674 9.375,8.6875 c 0.022581,0.034906 0.020035,0.089027 0,0.125 C 9.361798,8.835569 9.345658,8.8385 9.34375,8.84375 9.3088094,8.6884563 9.2177177,9.0930368 9.21875,9 9.1545243,9.1502093 9.0913675,9.2775076 9.0625,9.4375 9.00618,9.5578222 9.0481373,9.7635095 9.09375,9.71875 9.12144,9.8245526 9.105569,9.9750242 9.21875,10 c 0.1074834,0.105243 0.074854,0.298331 0.1875,0.40625 0.014173,0.0827 -0.089108,0.133605 0.03125,0.15625 0.078341,0.173106 0.092118,0.284367 0.1875,0.25 -0.063451,-0.07283 -0.1773682,-0.358677 -0.15625,-0.34375 -0.054885,-0.08945 -0.1201473,-0.334 0,-0.25 0.05005,0.105319 0.091975,0.251276 0.1875,0.34375 0.00298,0.108205 0.156089,0.213459 0.1875,0.375 -0.026172,0.108807 0.017503,0.186343 0.125,0.25 0.151105,0.0424 0.301791,0.201649 0.46875,0.125 0.1082,-0.01909 0.200105,0.211951 0.34375,0.1875 0.15847,0.01572 0.152675,0.05652 0.25,0.1875 -0.008,0.126523 0.07763,-0.03326 0.09375,0.125 0.04989,-0.0098 0.212765,0.0426 0.25,0.0625 0.0055,-0.130369 0.186435,-0.08934 0.15625,0.03125 0.05169,0.108924 0.04319,0.25696 -0.0625,0.34375 -0.07002,0.02822 -0.138823,0.162316 -0.15625,0.21875 0.157692,-0.01701 0.09073,0.227325 0.03125,0.25 0.142352,0.08059 0.191047,0.256767 0.28125,0.375 0.05966,0.128573 0.26887,0.12854 0.34375,0.25 0.01947,0.138672 -0.0096,0.242211 0,0.375 -0.06013,0.103998 0.01225,0.221961 -0.03125,0.3125 -0.05171,0.08235 -0.07983,0.242411 0.03125,0.25 -0.0058,0.02729 -0.05028,0.06379 -0.0625,0.09375 -0.0039,0.01021 0,0.02632 0,0.03125 -0.07778,0.0025 -0.05881,0.01545 -0.03125,0.03125 0,0 0.03125,0.03125 0.03125,0.03125 0.0092,4.29e-4 0.02004,0.0057 0.03125,0 0.0097,0.0061 -0.0069,0.02554 0,0.03125 0.09417,-0.0103 0.189138,-0.0146 0.28125,-0.03125 -0.12617,-0.0178 0.164439,-0.09811 0,-0.125 0.0683,-0.01827 0.05356,-0.06277 0.125,-0.09375 0.0058,-0.02862 0.135708,-0.15418 0.25,-0.15625 0.284506,-0.04875 -0.140946,-0.231979 0.125,-0.15625 0.08094,0.04509 0.202917,-0.09585 0.25,-0.15625 -0.0411,0.109759 0.194966,-0.239665 0.1875,-0.25 0.105675,-0.07911 0.421786,-0.187086 0.3125,-0.1875 0.143537,-0.09986 0.194889,-0.294368 0.21875,-0.46875 0.120911,-0.100921 0.204787,-0.295945 0.21875,-0.34375 -0.02469,-0.08578 -0.349077,-0.164198 -0.25,-0.15625 -0.06752,-0.03234 -0.161655,-0.04711 -0.1875,0 -0.0065,-0.06318 -0.210721,-0.08257 -0.15625,-0.0625 -0.03459,0.0252 -0.04679,0.01335 -0.0625,0.03125 -0.05568,0.06345 -0.0265,0.09671 -0.09375,0.03125 0.05254,-0.01 0.08063,-0.01526 0.09375,-0.03125 0.01967,-0.02398 7.92e-4,-0.05781 -0.03125,-0.0625 -0.0053,4.36e-4 -0.02849,-0.004 -0.03125,0 -0.0039,0.0025 -0.02969,-0.0026 -0.03125,0 -0.02111,0.0097 -0.04231,0.03482 -0.0625,0.0625 -0.05849,-0.01726 -0.04135,-0.279247 0.0625,-0.21875 -0.02912,-0.113798 -0.125043,-0.170056 -0.25,-0.1875 -0.157055,0.03751 -0.185304,-0.06058 -0.28125,-0.15625 -0.08628,0.01989 -0.156762,-0.120452 -0.15625,-0.125 C 12.350464,11.73966 12.052123,11.65085 12,11.625 c -0.04875,0.0031 -0.07837,0.03492 -0.0625,0.125 -0.142815,0.05618 0.07507,-0.235204 -0.0625,-0.15625 -0.08924,0.112147 -0.194054,0.01421 -0.21875,0.15625 -0.09258,0.138487 -0.06771,0.05736 -0.21875,0 -0.174142,0.09487 -0.313368,-0.01598 -0.28125,-0.125 0.03752,-0.09308 -0.0071,-0.239049 0,-0.25 -0.04217,-0.0093 -0.135173,-0.05966 -0.25,-0.03125 -0.17055,0.05477 0.04681,-0.104998 0,-0.15625 -0.0112,-0.05222 -0.08366,-0.216843 0.03125,-0.21875 -0.171349,-0.02744 -0.182999,0.120817 -0.25,0.21875 -0.05972,-0.05095 -0.209653,0.05155 -0.28125,-0.0625 -0.124184,-0.11576 -0.113191,-0.29493 -0.0625,-0.4375 0.04754,-0.05463 -0.0028,-0.240704 0.125,-0.25 0.11937,-0.0666 0.08193,-0.08804 0.25,-0.0625 0.03805,0.0065 0.08736,-0.0702 0.15625,0 0.0065,-0.100162 0.304018,-0.05857 0.21875,-0.0625 0.05942,0.07613 0.170784,0.0098 0.1875,0.15625 -0.0093,0.05218 0.09836,0.167971 0.125,0.21875 0.117631,-0.145546 -0.129416,-0.376609 0.0625,-0.5 C 11.579097,10.11381 11.765404,9.9807289 11.75,9.96875 11.759,9.96551 11.76799,9.940041 11.78125,9.9375 11.77195,9.93136 11.77415,9.916225 11.75,9.90625 c 0.05895,-0.044064 0.01002,-0.1628842 0,-0.1875 0.0038,0.00353 0.07,-0.1350101 0.0625,0.03125 0.02395,0.1705265 0.04677,-0.070536 0.0625,-0.125 0.03128,-0.021074 0.0569,-0.051187 0.09375,-0.09375 0.0053,-0.00593 0.02252,0.00364 0.03125,0 0.03122,-0.030314 0.07065,-0.075313 0.125,-0.0625 0.11555,-0.00987 0.05129,-0.00781 0.0625,-0.125 0.07841,-0.09209 0.179055,-0.1222764 0.21875,-0.125 C 12.37435,9.168728 12.51442,9.20944 12.5625,9.1875 12.50992,9.214199 12.407765,9.30892 12.53125,9.34375 12.55455,9.245265 12.768962,9.247147 12.75,9.1875 c -0.0027,-0.00852 -0.01708,0.012994 -0.03125,0 -0.145889,0.063092 -0.228336,-0.1454564 -0.1875,-0.15625 -0.146874,-0.031663 0.26608,-0.090767 0,-0.125 -0.219879,0.063067 -0.413538,0.2435633 -0.15625,0 0.122833,-0.0385 0.135794,-0.1531314 0.28125,-0.09375 0.09416,0.014327 0.240283,0.079519 0.3125,-0.03125 0.07221,0.020411 0.161509,-0.056651 0.125,-0.09375 0.0408,-0.055502 -0.02015,-0.1146814 -0.03125,-0.09375 -0.0073,-0.050543 -0.08002,-0.023446 -0.125,0 0.0037,-0.00582 -0.01285,-0.016673 0,-0.03125 C 12.97222,8.54132 13.109246,8.531999 12.96875,8.46875 12.9229,8.485618 12.859969,8.433141 12.90625,8.4375 12.81445,8.379529 12.85621,8.2366814 12.84375,8.28125 12.87666,8.2337 12.9,8.1514648 12.84375,8.1875 12.76344,8.198769 12.84705,8.139175 12.78125,8.0625 12.77945,8.042015 12.75386,8.037879 12.75,8.03125 12.73192,8.06339 12.68692,8.114147 12.6875,8.09375 12.6848,8.142524 12.56676,8.170248 12.5625,8.15625 12.51215,8.177146 12.58633,8.107001 12.46875,8.09375 12.458535,8.0756788 12.456608,8.0205834 12.4375,8 12.545923,8.044759 12.580444,7.8952562 12.46875,7.90625 12.43111,7.877411 12.221086,7.809239 12.3125,7.78125 12.17363,7.707072 12.14142,7.77375 12.09375,7.875 c 0.04322,0.00313 -0.04734,0.084788 0,0.09375 -0.06528,0.09059 -0.01532,0.2760103 0,0.3125 C 12.09015,8.353351 11.927728,8.5310978 11.875,8.4375 11.84668,8.509911 11.80334,8.6875251 11.84375,8.625 11.86574,8.706563 11.78401,8.646235 11.75,8.65625 11.667179,8.5872726 11.674389,8.5053265 11.71875,8.375 11.694676,8.2570549 11.563826,8.3553926 11.5,8.21875 11.44853,8.151793 11.307212,8.0895111 11.25,8.09375 11.2828,7.900066 11.11933,8.07445 11.1875,7.9375 11.21369,7.8309836 11.302781,7.7397958 11.375,7.6875 11.42803,7.649873 11.46999,7.67771 11.4375,7.59375 11.564034,7.7155034 11.49681,7.577607 11.5,7.5625 c 0.116649,0.067142 0.08964,-0.0622 0.1875,0 0.04717,-0.00671 0.08,-0.018467 0.09375,-0.03125 C 11.80558,7.508634 11.77905,7.463281 11.75,7.4375 c 0.123467,0.06419 0.136246,-0.1513556 0.21875,-0.0625 0.0035,0.00406 0.01866,-0.029013 0.03125,0 0.120278,0.020042 0.09847,-0.1948434 0.125,-0.125 0.01027,0.00166 -0.0044,-0.030361 0,-0.03125 C 12.10029,7.196998 12.07609,7.173367 12.0625,7.15625 12.01827,7.191029 11.944549,7.245092 11.90625,7.28125 11.88241,7.293695 11.86888,7.320968 11.875,7.3125 11.81753,7.302455 11.92851,7.064419 11.8125,7.15625 11.78539,7.178484 11.7652,7.187151 11.75,7.1875 11.7428,7.163555 11.7438,7.109594 11.78125,7.09375 11.69832,7.05236 11.85202,7.051895 11.78125,6.9375 11.73486,6.890325 11.634634,7.0501785 11.65625,7 11.515005,7.050071 11.806403,7.1044609 11.625,7.125 c 0.128763,0.024315 -0.07783,0.1996469 -0.09375,0.125 -0.06658,0.0644 0.05609,-0.1506787 0,-0.09375 -0.01821,-0.00171 -0.06891,0.00436 -0.09375,0 -8.42e-4,0.00475 -0.01956,0.014501 0,0.03125 C 11.4413,7.214036 11.208872,7.161727 11.15625,7.15625 11.11906,7.12013 11.10972,7.091992 11.0625,7.09375 10.97655,7.09786 10.958237,7.1973336 10.9375,7.21875 10.86033,7.30244 10.84219,7.151569 10.90625,7.15625 10.8131,7.140665 10.750135,7.114652 10.71875,7.09375 10.71645,7.082159 10.70347,7.041512 10.6875,7.03125 10.6082,6.9266197 10.528715,6.862695 10.46875,6.9375 10.358476,7.0497073 10.40707,6.903658 10.375,6.90625 c -0.0059,4.802e-4 -0.01671,-0.013312 -0.03125,0 z m 1.1875,0.25 0.03125,0 c 0.06125,0.015172 0.01174,-0.1238253 -0.03125,-0.125 -0.007,-1.924e-4 -0.02421,0.02452 -0.03125,0.03125 -0.07864,0.034678 -0.111387,0.016158 0,0.0625 l 0.03125,0.03125 z m 0.25,0.375 c -0.0055,0.00701 -0.0081,0.050235 0,0.03125 0.0033,0.024166 0.05589,0.077122 0.0625,0.0625 0.106735,-0.1348575 0.113949,0.031671 0.21875,0 -0.02363,-0.028336 -0.157225,-0.1806232 -0.15625,-0.1875 -0.04004,-1.904e-4 -0.10859,0.072732 -0.125,0.09375 z M 12.75,9.1875 c 0.0011,0.00869 0.0089,-0.00368 0.03125,0 C 12.80174,9.154891 12.85296,9.198014 12.8125,9.09375 12.8099,9.1028 12.74663,9.161442 12.75,9.1875 z M 9.21875,8.65625 c 0.015358,0.031784 0.00811,0.079183 0,0.0625 0.043982,0.022859 0.059906,0.086993 0.125,0.0625 0.019627,-0.056142 -0.078112,-0.087563 -0.125,-0.125 z M 12.4375,7.3125 C 12.39548,7.3124107 12.277188,7.377631 12.40625,7.375 12.45216,7.330067 12.45802,7.312544 12.4375,7.3125 z M 13.34375,7.375 C 13.30656,7.3748515 13.29649,7.472316 13.40625,7.46875 13.37784,7.406553 13.36191,7.375074 13.34375,7.375 z m 1.0625,0.65625 c 0.01406,0.010926 0.01929,0.051073 0.03125,0.0625 -0.02081,-0.02813 -0.01796,-0.062719 -0.03125,-0.0625 z m 0.03125,0.0625 c 0.0552,0.047455 -0.02577,0.082684 0.09375,0.125 L 14.5625,8.25 c 0.07232,0.00754 0.03498,-0.1261613 0.03125,-0.15625 -0.06142,-0.00999 -0.122847,0.048624 -0.125,0 -0.0078,-0.012802 -0.02431,0.00938 -0.03125,0 z m -2.5,0.125 c -0.02073,0.00143 -0.07627,0.082161 0,0.0625 0.02412,-0.027725 0.0088,-0.063102 0,-0.0625 z M 11.71875,8.5 c -0.03217,3.017e-4 -0.0292,0.045301 0.0625,0.03125 C 11.770438,8.5075026 11.732333,8.4998737 11.71875,8.5 z M 15.125,8.71875 c 0.01581,0.045479 0.02615,0.081216 0.0625,0.15625 0.0107,-0.00353 0.01729,0.018204 0.03125,0.03125 C 15.19071,8.841874 15.15624,8.7813312 15.125,8.71875 z M 15,8.75 c -0.0018,0.060536 0.02779,0.1763015 0.0625,0.25 0.0057,0.012096 -0.0051,0.02139 0,0.03125 -0.0031,4.267e-4 -0.0095,0.033608 0,0.03125 0.0021,0.00347 0.02951,-0.00261 0.03125,0 -0.03011,0.1017975 0.03909,0.1184923 0,0.15625 C 15.233065,9.247547 15.152795,9.0564815 15.125,9 15.08972,8.8845438 15.00927,8.7846512 15,8.75 z m -2.34375,0.09375 c -0.03797,1.432e-4 -0.02354,0.055686 0.125,0.09375 C 12.743,8.880781 12.68396,8.843645 12.65625,8.84375 z m 0.375,0 c -0.03258,0.055215 -0.06787,0.1160365 -0.125,0.125 -0.03918,0.051135 0.07131,0.1252668 0.1875,0.09375 -9.09e-4,0.029066 -0.04392,0.081182 0.0625,0.03125 0.01105,-0.025813 -0.0041,-0.032383 0,-0.03125 0,0 0.03125,0.03125 0.03125,0.03125 0.0038,0.028081 0.008,0.067019 0.03125,0.0625 C 13.30282,9.073977 13.19011,9.091448 13.1875,9.0625 13.186631,9.05285 13.188335,9.024656 13.21875,9 13.117856,9.056503 13.072652,8.958819 13.15625,8.9375 13.024596,8.926364 13.14048,8.916372 13.09375,8.875 13.02226,8.91767 13.0137,8.88383 13.03125,8.84375 z m 1.9375,0.0625 C 14.95859,8.9068777 14.94452,8.916613 14.9375,8.9375 14.9294,8.977785 14.95395,9.1348655 14.96875,9.09375 14.97909,9.10289 14.97835,9.137281 15,9.125 15.09795,9.110107 15.01771,8.9032257 14.96875,8.90625 z M 15.25,9 c 0.01166,0.097521 -0.0014,0.2223119 0,0.25 -0.03935,0.053455 -0.100253,0.083274 -0.125,0.09375 0.0508,0.054802 -0.01125,0.2259443 0.03125,0.28125 -0.08495,-0.011228 -0.09727,0.1606523 -0.09375,0.21875 -0.01007,0.161896 0.103831,0.221821 0.125,0.21875 0.114358,0.0024 0.134438,-0.3393915 0.125,-0.25 0.01502,-0.1565633 0.122726,-0.1976458 0.15625,0 C 15.419247,9.5264663 15.356222,9.2620763 15.25,9 z m 0,1.0625 c -0.05108,0.01251 -0.07528,0.03944 -0.03125,0.0625 -0.107328,-0.01523 -0.186592,0.47321 -0.1875,0.375 -0.121012,0.110815 -0.18957,0.276525 -0.21875,0.4375 0.06399,0.133377 0.03457,0.528606 0,0.46875 0.02816,0.08141 0.09859,0.284062 0.09375,0.1875 0.03631,0.110004 0.152474,0.216456 0.25,0.09375 0.13608,-0.110574 0.255765,-0.136882 0.15625,0.09375 0.138942,-0.408721 0.25,-0.825542 0.25,-1.28125 0,-0.04362 -0.02988,-0.08172 -0.03125,-0.125 -0.08759,-0.09935 -0.244586,-0.304611 -0.125,-0.3125 -0.04691,-0.01431 -0.105174,-0.01251 -0.15625,0 z m -3.96875,0.78125 c -0.04947,-3.17e-4 -0.07558,0.03047 -0.125,0.0625 -0.02778,0.03379 0.01448,0.03799 0.0625,0.03125 0,0 0.03125,0 0.03125,0 0.03285,-0.0079 0.06136,-0.02551 0.0625,-0.03125 0.0062,0.0073 0.424878,0.177942 0.25,0.125 0.01944,0.01361 0.03429,0.02248 0.03125,0.03125 0.0037,0.0052 0.02492,0.03366 0.125,0.03125 0.144137,-0.04541 -0.131734,-0.129071 -0.125,-0.125 -0.01354,-0.0072 -0.01733,-0.0238 -0.03125,-0.03125 -0.01767,-0.02566 -0.02185,-0.03103 -0.03125,-0.03125 -0.0733,-0.03743 -0.171646,-0.062 -0.25,-0.0625 z m -3.5625,0.0625 c -0.013735,7.83e-4 -0.035619,0.03887 0,0.0625 0.012803,-0.04364 0.0094,-0.06304 0,-0.0625 z M 11.875,11.0625 c -0.02221,3.89e-4 -0.03805,0.02331 -0.03125,0.03125 0.0159,0.01131 -0.0069,0.02321 0,0.03125 -0.0065,-1.09e-4 -0.01312,0.04084 0,0.03125 -0.01463,0.0017 -0.01932,0.0296 -0.03125,0.03125 0.08457,-0.04592 0.07678,0.05384 0.125,0.03125 0.01978,-0.06641 0.259596,-0.02209 0.1875,-0.09375 -0.0151,-0.03501 -0.18338,-0.06367 -0.25,-0.0625 z m 0.40625,0.09375 c -0.04038,0.0012 -0.129436,0.08132 0,0.0625 0.01234,-0.02749 0.01705,-0.063 0,-0.0625 z m -0.75,0.03125 c 0.0067,0.0061 0.01323,0.02164 0.03125,0.03125 l 0.03125,0 c 0.119395,-0.01058 -0.0097,-0.03192 -0.0625,-0.03125 z m -0.84375,1.125 c -0.01128,0.0014 -7.83e-4,0.08249 0.03125,0.0625 -0.0054,-0.04243 -0.02631,-0.06206 -0.03125,-0.0625 z"
         transform="matrix(229.68389,0,0,229.68389,-4891.0954,-2262.5241)"
         id="path3800-3-8-0"
         inkscape:connector-curvature="0" />
      <path
         transform="matrix(4.1743885,0,0,4.1743885,1521.0576,-2048.991)"
         d="m -669.99997,526.64789 c 0,128.60345 -104.2537,232.85715 -232.85715,232.85715 -128.60348,0 -232.85718,-104.2537 -232.85718,-232.85715 0,-128.60345 104.2537,-232.85715 232.85718,-232.85715 128.60345,0 232.85715,104.2537 232.85715,232.85715 z"
         sodipodi:ry="232.85715"
         sodipodi:rx="232.85715"
         sodipodi:cy="526.64789"
         sodipodi:cx="-902.85712"
         id="path3800-3-8-1"
         style="fill:none;stroke:url(#linearGradient8311);stroke-width:28.7850132;stroke-miterlimit:4;stroke-opacity:1;stroke-dasharray:none;display:inline"
         sodipodi:type="arc" />
      <path
         transform="matrix(3.9896436,0,0,3.9896436,1354.2595,-1951.6955)"
         d="m -669.99997,526.64789 c 0,128.60345 -104.2537,232.85715 -232.85715,232.85715 -128.60348,0 -232.85718,-104.2537 -232.85718,-232.85715 0,-128.60345 104.2537,-232.85715 232.85718,-232.85715 128.60345,0 232.85715,104.2537 232.85715,232.85715 z"
         sodipodi:ry="232.85715"
         sodipodi:rx="232.85715"
         sodipodi:cy="526.64789"
         sodipodi:cx="-902.85712"
         id="path3800-3-8-9"
         style="fill:url(#radialGradient8355);fill-opacity:1;stroke:none;display:inline"
         sodipodi:type="arc" />
    </g>
    <path
       style="fill:#10305a;fill-opacity:1;stroke:#10305a;stroke-width:1px;stroke-linecap:round;stroke-linejoin:round;stroke-opacity:1"
       d="m 13.454991,1039.8994 2.032932,0 0,-2.0329 z"
       id="path8431"
       inkscape:connector-curvature="0" />
    <path
       style="fill:none;stroke:url(#linearGradient8579);stroke-width:1px;stroke-linecap:round;stroke-linejoin:round;stroke-opacity:1"
       d="m 14.581943,1038.9272 c -1.507652,-2.1147 -3.199041,-2.4225 -5.060234,-1.0607"
       id="path8433"
       inkscape:connector-curvature="0"
       sodipodi:nodetypes="cc" />
  </g>
</svg>
