<?xml version="1.0" encoding="UTF-8" standalone="no"?>
<!-- Created with Inkscape (http://www.inkscape.org/) -->

<svg
   xmlns:dc="http://purl.org/dc/elements/1.1/"
   xmlns:cc="http://creativecommons.org/ns#"
   xmlns:rdf="http://www.w3.org/1999/02/22-rdf-syntax-ns#"
   xmlns:svg="http://www.w3.org/2000/svg"
   xmlns="http://www.w3.org/2000/svg"
   xmlns:xlink="http://www.w3.org/1999/xlink"
   xmlns:sodipodi="http://sodipodi.sourceforge.net/DTD/sodipodi-0.dtd"
   xmlns:inkscape="http://www.inkscape.org/namespaces/inkscape"
   width="16"
   height="16"
   id="svg2"
   version="1.1"
   inkscape:version="0.48.5 r10040"
   sodipodi:docname="pin_view.svg">
  <defs
     id="defs4">
    <linearGradient
       id="linearGradient3912">
      <stop
         style="stop-color:#ffffff;stop-opacity:1;"
         offset="0"
         id="stop3914" />
      <stop
         style="stop-color:#ffffff;stop-opacity:0;"
         offset="1"
         id="stop3916" />
    </linearGradient>
    <linearGradient
       id="linearGradient4981">
      <stop
         style="stop-color:#359b58;stop-opacity:1"
         offset="0"
         id="stop4983" />
      <stop
         id="stop4991"
         offset="0.39414415"
         style="stop-color:#72b649;stop-opacity:1" />
      <stop
         id="stop4989"
         offset="0.5"
         style="stop-color:#72b649;stop-opacity:1" />
      <stop
         style="stop-color:#359b58;stop-opacity:1"
         offset="1"
         id="stop4985" />
    </linearGradient>
    <linearGradient
       inkscape:collect="always"
       id="linearGradient4973">
      <stop
         style="stop-color:#000000;stop-opacity:1;"
         offset="0"
         id="stop4975" />
      <stop
         style="stop-color:#000000;stop-opacity:0;"
         offset="1"
         id="stop4977" />
    </linearGradient>
    <linearGradient
       id="linearGradient4082">
      <stop
         style="stop-color:#4476aa;stop-opacity:1"
         offset="0"
         id="stop4084" />
      <stop
         id="stop4864"
         offset="0.5"
         style="stop-color:#5a9ccc;stop-opacity:1" />
      <stop
         style="stop-color:#4476aa;stop-opacity:1"
         offset="1"
         id="stop4086" />
    </linearGradient>
    <linearGradient
       id="linearGradient4810"
       inkscape:collect="always">
      <stop
         id="stop4812"
         offset="0"
         style="stop-color:#bfb688;stop-opacity:1;" />
      <stop
         id="stop4814"
         offset="1"
         style="stop-color:#8694ae;stop-opacity:1" />
    </linearGradient>
    <linearGradient
       y2="1047.3622"
       x2="-15"
       y1="1047.3622"
       x1="-13"
       gradientTransform="translate(18,-4.000037)"
       gradientUnits="userSpaceOnUse"
       id="linearGradient5062"
       xlink:href="#linearGradient4910-4"
       inkscape:collect="always" />
    <linearGradient
       inkscape:collect="always"
       id="linearGradient4910-4">
      <stop
         style="stop-color:#ffffff;stop-opacity:0"
         offset="0"
         id="stop4912-8" />
      <stop
         style="stop-color:#c5dff4;stop-opacity:1"
         offset="1"
         id="stop4914-8" />
    </linearGradient>
    <linearGradient
       y2="1044.3622"
       x2="-11"
       y1="1042.3622"
       x1="-11"
       gradientUnits="userSpaceOnUse"
       id="linearGradient4975-2"
       xlink:href="#linearGradient4994-4"
       inkscape:collect="always"
       gradientTransform="translate(18,1.999963)" />
    <linearGradient
       id="linearGradient4994-4"
       inkscape:collect="always">
      <stop
         id="stop4996-5"
         offset="0"
         style="stop-color:#c5dff4;stop-opacity:1" />
      <stop
         id="stop4998-5"
         offset="1"
         style="stop-color:#ffffff;stop-opacity:0;" />
    </linearGradient>
    <linearGradient
       inkscape:collect="always"
       xlink:href="#linearGradient4810"
       id="linearGradient4046"
       gradientUnits="userSpaceOnUse"
       gradientTransform="translate(0,2.000063)"
       x1="8.0137892"
       y1="1042.3622"
       x2="8.0137892"
       y2="1050.0707" />
    <linearGradient
       y2="1041.8765"
       x2="8.0137892"
       y1="1039.876"
       x1="8.0137892"
       gradientTransform="translate(0,2.0001)"
       gradientUnits="userSpaceOnUse"
       id="linearGradient4063"
       xlink:href="#linearGradient4082"
       inkscape:collect="always" />
    <linearGradient
       inkscape:collect="always"
       id="linearGradient4973-9">
      <stop
         style="stop-color:#000000;stop-opacity:1;"
         offset="0"
         id="stop4975-4" />
      <stop
         style="stop-color:#000000;stop-opacity:0;"
         offset="1"
         id="stop4977-6" />
    </linearGradient>
    <linearGradient
       gradientTransform="matrix(0,0.63848363,-0.63848363,0,689.62207,1034.1003)"
       y2="1039.0527"
       x2="21.074127"
       y1="1044.9652"
       x1="21.049656"
       gradientUnits="userSpaceOnUse"
       id="linearGradient5038"
       xlink:href="#linearGradient4973-9"
       inkscape:collect="always" />
    <filter
       inkscape:collect="always"
       id="filter5150"
       x="-0.23989058"
       width="1.4797812"
       y="-0.24010952"
       height="1.480219">
      <feGaussianBlur
         inkscape:collect="always"
         stdDeviation="0.80629601"
         id="feGaussianBlur5152" />
    </filter>
    <mask
       maskUnits="userSpaceOnUse"
       id="mask5241">
      <path
         style="font-size:medium;font-style:normal;font-variant:normal;font-weight:normal;font-stretch:normal;text-indent:0;text-align:start;text-decoration:none;line-height:normal;letter-spacing:normal;word-spacing:normal;text-transform:none;direction:ltr;block-progression:tb;writing-mode:lr-tb;text-anchor:start;baseline-shift:baseline;color:#000000;fill:#ffffff;fill-opacity:1;fill-rule:nonzero;stroke:none;stroke-width:1;marker:none;visibility:visible;display:inline;overflow:visible;enable-background:accumulate;font-family:Sans;-inkscape-font-specification:Sans"
         d="m 2,1041.3622 0,0.5 0,9.0313 0,0.5 0.5,0 12,0 0.5,0 0,-0.5 0,-9.0313 0,-0.5 -0.5,0 -12,0 -0.5,0 z"
         id="path5243"
         inkscape:connector-curvature="0" />
    </mask>
    <linearGradient
       inkscape:collect="always"
       xlink:href="#linearGradient4973"
       id="linearGradient5265"
       gradientUnits="userSpaceOnUse"
       x1="21.123072"
       y1="1045.577"
       x2="21.123072"
       y2="1046.688" />
    <linearGradient
       inkscape:collect="always"
       xlink:href="#linearGradient4981"
       id="linearGradient5267"
       gradientUnits="userSpaceOnUse"
       x1="18.909349"
       y1="7.609231"
       x2="22.095001"
       y2="8.296731" />
    <linearGradient
       inkscape:collect="always"
       xlink:href="#linearGradient4981"
       id="linearGradient5269"
       gradientUnits="userSpaceOnUse"
       x1="19.624538"
       y1="1041.6436"
       x2="22"
       y2="1041.6436" />
    <linearGradient
       y2="1041.8765"
       x2="8.0137892"
       y1="1039.876"
       x1="8.0137892"
       gradientTransform="translate(0,2.0001)"
       gradientUnits="userSpaceOnUse"
       id="linearGradient4063-3"
       xlink:href="#linearGradient4082-3"
       inkscape:collect="always" />
    <linearGradient
       id="linearGradient4082-3">
      <stop
         style="stop-color:#4476aa;stop-opacity:1"
         offset="0"
         id="stop4084-3" />
      <stop
         id="stop4864-6"
         offset="0.5"
         style="stop-color:#5a9ccc;stop-opacity:1" />
      <stop
         style="stop-color:#4476aa;stop-opacity:1"
         offset="1"
         id="stop4086-5" />
    </linearGradient>
    <radialGradient
       inkscape:collect="always"
       xlink:href="#linearGradient3912"
       id="radialGradient3918"
       cx="10.844266"
       cy="1042.8803"
       fx="10.844266"
       fy="1042.8803"
       r="4.1560639"
       gradientTransform="matrix(1.2293336,0,0,0.35780249,-3.4400795,669.73517)"
       gradientUnits="userSpaceOnUse" />
    <radialGradient
       inkscape:collect="always"
       xlink:href="#linearGradient3912"
       id="radialGradient3920"
       gradientUnits="userSpaceOnUse"
       gradientTransform="matrix(1.2293336,0,0,0.35780249,-4.3463295,669.73517)"
       cx="10.844266"
       cy="1042.8803"
       fx="10.844266"
       fy="1042.8803"
       r="4.1560639" />
  </defs>
  <sodipodi:namedview
     id="base"
     pagecolor="#ffffff"
     bordercolor="#666666"
     borderopacity="1.0"
     inkscape:pageopacity="0.0"
     inkscape:pageshadow="2"
     inkscape:zoom="15.999999"
     inkscape:cx="-3.2508627"
     inkscape:cy="6.1249989"
     inkscape:document-units="px"
     inkscape:current-layer="layer1"
     showgrid="true"
     inkscape:window-width="1241"
     inkscape:window-height="814"
     inkscape:window-x="450"
     inkscape:window-y="694"
     inkscape:window-maximized="0"
     showguides="true"
     inkscape:guide-bbox="true"
     inkscape:snap-global="false">
    <inkscape:grid
       type="xygrid"
       id="grid3999" />
  </sodipodi:namedview>
  <metadata
     id="metadata7">
    <rdf:RDF>
      <cc:Work
         rdf:about="">
        <dc:format>image/svg+xml</dc:format>
        <dc:type
           rdf:resource="http://purl.org/dc/dcmitype/StillImage" />
        <dc:title />
      </cc:Work>
    </rdf:RDF>
  </metadata>
  <g
     inkscape:label="Layer 1"
     inkscape:groupmode="layer"
     id="layer1"
     style="display:inline"
     transform="translate(0,-1036.3622)">
    <path
       style="fill:#f4fcff;fill-opacity:1;stroke:url(#linearGradient4046);stroke-width:1;stroke-linecap:butt;stroke-linejoin:miter;stroke-miterlimit:4;stroke-opacity:1;stroke-dashoffset:0;display:inline"
       d="m 2.500702,1041.8621 10.983162,0 0,9.033 -10.983162,0 z"
       id="rect3997-9"
       inkscape:connector-curvature="0"
       sodipodi:nodetypes="ccccc" />
    <path
       style="fill:url(#linearGradient5062);fill-opacity:1;stroke:none;display:inline"
       d="m 4,1045.3622 0,5.0312 -1,0 0,-6.0312 z"
       id="rect4853-82-7"
       inkscape:connector-curvature="0"
       sodipodi:nodetypes="ccccc" />
    <path
       style="fill:url(#linearGradient4975-2);fill-opacity:1;stroke:none;display:inline"
       d="m 4,1045.3622 10,0 0,-1 -11,0 z"
       id="rect4853-82-0"
       inkscape:connector-curvature="0"
       sodipodi:nodetypes="ccccc" />
    <path
       style="fill:#58b6e8;fill-opacity:1;stroke:url(#linearGradient4063);stroke-width:1;stroke-linecap:butt;stroke-linejoin:miter;stroke-miterlimit:4;stroke-opacity:1;stroke-dashoffset:0;display:inline"
       d="m 2.500702,1041.8621 11.027356,0 0,2.0053 -11.027356,0 z"
       id="rect3997-9-9"
       inkscape:connector-curvature="0"
       sodipodi:nodetypes="ccccc" />
    <path
       style="fill:url(#radialGradient3920);fill-opacity:1;stroke:none;display:inline"
       d="m 3.8757021,1041.3933 10.2183779,0 0,2.9741 -10.2183779,0 z"
       id="rect3997-9-9-4"
       inkscape:connector-curvature="0"
       sodipodi:nodetypes="ccccc" />
    <g
       id="g5014">
      <g
         transform="matrix(0.70710678,0.70710678,-0.70710678,0.70710678,734.42008,290.38128)"
         id="g5001">
        <path
           inkscape:connector-curvature="0"
           style="font-size:medium;font-style:normal;font-variant:normal;font-weight:normal;font-stretch:normal;text-indent:0;text-align:start;text-decoration:none;line-height:normal;letter-spacing:normal;word-spacing:normal;text-transform:none;direction:ltr;block-progression:tb;writing-mode:lr-tb;text-anchor:start;baseline-shift:baseline;opacity:0.25000000000000000;color:#000000;fill:url(#linearGradient5038);fill-opacity:1;fill-rule:nonzero;stroke:none;stroke-width:1;marker:none;visibility:visible;display:inline;overflow:visible;enable-background:accumulate;font-family:Sans;-inkscape-font-specification:Sans;stroke-miterlimit:4;stroke-dasharray:none"
           d="m 26.750924,1047.1294 c -0.01596,-0.035 -0.04489,-0.064 -0.07981,-0.08 -0.02425,-0.013 -0.05202,-0.02 -0.07968,-0.02 l -5.820754,-10e-5 c -0.01325,0 -0.0267,0 -0.03966,10e-5 -0.04253,0.011 -0.07932,0.041 -0.09971,0.08 -0.06128,0.1015 -0.126608,0.2023 -0.139716,0.3392 -0.0134,0.1368 0.04856,0.2783 0.159649,0.419 0.01903,0.028 0.0484,0.049 0.07977,0.06 0.01326,0 0.0267,0 0.03966,-10e-5 l 5.820754,0 c 0.008,0 0.01313,5e-4 0.01983,0 0.02101,0 0.04186,-0.01 0.06021,-0.02 0.03899,-0.02 0.06846,-0.058 0.07982,-0.1 0.0014,-0.013 0.0015,-0.027 -8.6e-5,-0.04 l -8e-6,-0.5787 c 0.0038,-0.02 0.0039,-0.04 -1.31e-4,-0.06 z"
           id="path4971-0"
           sodipodi:nodetypes="cccccccccccccccccc" />
        <path
           style="fill:#a5adba;fill-opacity:1;stroke:#17325d;stroke-width:0.5;stroke-linecap:round;stroke-linejoin:round;stroke-miterlimit:4;stroke-opacity:1;stroke-dashoffset:0"
           d="m 20.492187,1045.1591 0.921876,0 0,2.4062 c -0.376231,0.2965 -0.615362,0.1856 -0.921876,0 z"
           id="rect4944"
           inkscape:connector-curvature="0"
           sodipodi:nodetypes="ccccc" />
        <g
           id="g5057"
           transform="translate(0.17677671,0.44194176)">
          <path
             id="path4971"
             d="m 20.40625,1044.9062 a 0.250025,0.250025 0 0 0 -0.125,0.125 0.250025,0.250025 0 0 0 -0.03125,0.125 l 0,2.4063 a 0.250025,0.250025 0 0 0 0,0.062 0.250025,0.250025 0 0 0 0.125,0.1562 c 0.159025,0.096 0.31691,0.1983 0.53125,0.2188 0.21434,0.021 0.436009,-0.076 0.65625,-0.25 a 0.250025,0.250025 0 0 0 0.09375,-0.125 0.250025,0.250025 0 0 0 0,-0.062 l 0,-2.4063 a 0.250025,0.250025 0 0 0 0,-0.031 0.250025,0.250025 0 0 0 -0.03125,-0.094 0.250025,0.250025 0 0 0 -0.15625,-0.125 0.250025,0.250025 0 0 0 -0.0625,0 l -0.90625,0 a 0.250025,0.250025 0 0 0 -0.09375,0 z"
             style="font-size:medium;font-style:normal;font-variant:normal;font-weight:normal;font-stretch:normal;text-indent:0;text-align:start;text-decoration:none;line-height:normal;letter-spacing:normal;word-spacing:normal;text-transform:none;direction:ltr;block-progression:tb;writing-mode:lr-tb;text-anchor:start;baseline-shift:baseline;opacity:0.5;color:#000000;fill:url(#linearGradient5265);fill-opacity:1;fill-rule:nonzero;stroke:none;stroke-width:0.5;marker:none;visibility:visible;display:inline;overflow:visible;enable-background:accumulate;font-family:Sans;-inkscape-font-specification:Sans"
             inkscape:connector-curvature="0" />
          <path
             sodipodi:nodetypes="zcscz"
             inkscape:connector-curvature="0"
             id="path4884-8"
             transform="translate(0,1036.3622)"
             d="M 20.9375,6.125 C 19.686416,6.1463072 18.732332,7.2495515 18.53125,8 c 0,0.595432 1.068685,1.09375 2.40625,1.09375 C 22.275065,9.09375 23.375,8.595432 23.375,8 23.179528,7.2704899 22.188584,6.1036928 20.9375,6.125 z"
             style="fill:url(#linearGradient5267);fill-opacity:1;stroke:#006e2e;stroke-width:1;stroke-linecap:round;stroke-linejoin:round;stroke-miterlimit:4;stroke-opacity:1;stroke-dasharray:none;stroke-dashoffset:0;display:inline" />
          <path
             sodipodi:nodetypes="sccsccs"
             inkscape:connector-curvature="0"
             id="rect4923"
             d="m 20.929746,1040.0249 c -0.533598,0 -0.994941,0.084 -1.356203,0.2348 l 0,2.7676 c 0.361262,0.1504 0.822605,0.2348 1.356203,0.2348 0.487606,0 0.928812,-0.081 1.277961,-0.2087 l 0,-2.8198 c -0.349149,-0.128 -0.790355,-0.2087 -1.277961,-0.2087 z"
             style="fill:url(#linearGradient5269);fill-opacity:1;stroke:#007e34;stroke-width:0.83458644;stroke-linecap:round;stroke-linejoin:round;stroke-miterlimit:4;stroke-opacity:1;stroke-dasharray:none;stroke-dashoffset:0" />
          <path
             transform="matrix(0.90924832,0,0,0.90924832,2.1288433,1036.5222)"
             d="m 23.125,3.1406245 c 0,0.595432 -1.08431,1.078125 -2.421875,1.078125 -1.337565,0 -2.421875,-0.482693 -2.421875,-1.078125 0,-0.595432 1.08431,-1.078125 2.421875,-1.078125 1.337565,0 2.421875,0.482693 2.421875,1.078125 z"
             sodipodi:ry="1.078125"
             sodipodi:rx="2.421875"
             sodipodi:cy="3.1406245"
             sodipodi:cx="20.703125"
             id="path4884"
             style="fill:#7db551;fill-opacity:1;stroke:#00953e;stroke-width:1;stroke-linecap:round;stroke-linejoin:round;stroke-miterlimit:4;stroke-opacity:1;stroke-dasharray:none;stroke-dashoffset:0"
             sodipodi:type="arc" />
          <path
             style="fill:none;stroke:#008638;stroke-width:1;stroke-linecap:round;stroke-linejoin:round;stroke-miterlimit:4;stroke-opacity:1;stroke-dashoffset:0;display:inline"
             d="m 23.125,3.1406245 c 0,0.595432 -1.08431,1.078125 -2.421875,1.078125 -1.337565,0 -2.421875,-0.482693 -2.421875,-1.078125"
             id="path4884-5"
             inkscape:connector-curvature="0"
             sodipodi:nodetypes="csc"
             transform="matrix(0.90924832,0,0,0.90924832,2.1288432,1036.5222)" />
        </g>
      </g>
    </g>
  </g>
</svg>
