<?xml version="1.0" encoding="UTF-8" standalone="no"?>
<!-- Created with Inkscape (http://www.inkscape.org/) -->

<svg
   xmlns:dc="http://purl.org/dc/elements/1.1/"
   xmlns:cc="http://creativecommons.org/ns#"
   xmlns:rdf="http://www.w3.org/1999/02/22-rdf-syntax-ns#"
   xmlns:svg="http://www.w3.org/2000/svg"
   xmlns="http://www.w3.org/2000/svg"
   xmlns:xlink="http://www.w3.org/1999/xlink"
   xmlns:sodipodi="http://sodipodi.sourceforge.net/DTD/sodipodi-0.dtd"
   xmlns:inkscape="http://www.inkscape.org/namespaces/inkscape"
   width="16"
   height="16"
   id="svg2"
   version="1.1"
   inkscape:version="0.48.5 r10040"
   sodipodi:docname="swtassist_co.svg">
  <defs
     id="defs4">
    <linearGradient
       id="linearGradient4972">
      <stop
         style="stop-color:#c7e3e7;stop-opacity:1;"
         offset="0"
         id="stop4974" />
      <stop
         style="stop-color:#ffffff;stop-opacity:1;"
         offset="1"
         id="stop4976" />
    </linearGradient>
    <linearGradient
       id="linearGradient4894">
      <stop
         style="stop-color:#7e707a;stop-opacity:1;"
         offset="0"
         id="stop4896" />
      <stop
         style="stop-color:#8a5e8d;stop-opacity:1"
         offset="1"
         id="stop4898" />
    </linearGradient>
    <linearGradient
       inkscape:collect="always"
       xlink:href="#linearGradient4894"
       id="linearGradient4900"
       x1="7.3804269"
       y1="2.7417479"
       x2="0.044194315"
       y2="2.7859421"
       gradientUnits="userSpaceOnUse"
       gradientTransform="matrix(1.05,0,0,1,2.3205863,1037.2644)" />
    <linearGradient
       inkscape:collect="always"
       xlink:href="#linearGradient4972"
       id="linearGradient4978"
       x1="5.1146582"
       y1="1044.7372"
       x2="12.520393"
       y2="1044.7372"
       gradientUnits="userSpaceOnUse" />
    <linearGradient
       id="linearGradient4972-4-1">
      <stop
         style="stop-color:#daedef;stop-opacity:1;"
         offset="0"
         id="stop4974-6-9" />
      <stop
         style="stop-color:#ffffff;stop-opacity:1;"
         offset="1"
         id="stop4976-2-4" />
    </linearGradient>
    <linearGradient
       id="linearGradient6799-4-3">
      <stop
         style="stop-color:#a6bacf;stop-opacity:1;"
         offset="0"
         id="stop6801-4-0" />
      <stop
         style="stop-color:#798da2;stop-opacity:1;"
         offset="1"
         id="stop6803-5-7" />
    </linearGradient>
    <linearGradient
       y2="1044.7372"
       x2="12.520393"
       y1="1044.7372"
       x1="5.1146584"
       gradientTransform="matrix(1.0469997,0,0,1.0188679,1.9141168,-19.251887)"
       gradientUnits="userSpaceOnUse"
       id="linearGradient5417"
       xlink:href="#linearGradient4972-4-1"
       inkscape:collect="always" />
    <linearGradient
       y2="1047.6122"
       x2="6.0002952"
       y1="1047.6122"
       x1="5.1146584"
       gradientTransform="matrix(1.0469997,0,0,1.0188679,1.9141168,-22.404012)"
       gradientUnits="userSpaceOnUse"
       id="linearGradient5419"
       xlink:href="#linearGradient6799-4-3"
       inkscape:collect="always" />
  </defs>
  <sodipodi:namedview
     id="base"
     pagecolor="#ffffff"
     bordercolor="#666666"
     borderopacity="1.0"
     inkscape:pageopacity="0.0"
     inkscape:pageshadow="2"
     inkscape:zoom="32"
     inkscape:cx="7.3358148"
     inkscape:cy="7.6684219"
     inkscape:document-units="px"
     inkscape:current-layer="layer1"
     showgrid="true"
     inkscape:window-width="1171"
     inkscape:window-height="959"
     inkscape:window-x="1384"
     inkscape:window-y="24"
     inkscape:window-maximized="0"
     showguides="true"
     inkscape:guide-bbox="true"
     inkscape:snap-global="false">
    <inkscape:grid
       type="xygrid"
       id="grid3774" />
  </sodipodi:namedview>
  <metadata
     id="metadata7">
    <rdf:RDF>
      <cc:Work
         rdf:about="">
        <dc:format>image/svg+xml</dc:format>
        <dc:type
           rdf:resource="http://purl.org/dc/dcmitype/StillImage" />
        <dc:title />
      </cc:Work>
    </rdf:RDF>
  </metadata>
  <g
     inkscape:label="Layer 1"
     inkscape:groupmode="layer"
     id="layer1"
     style="display:inline"
     transform="translate(0,-1036.3622)">
    <g
       id="g4087"
       transform="matrix(1.6290931,0,0,1.6837726,-11.137189,-715.46585)"
       style="fill:url(#linearGradient4978);fill-opacity:1">
      <rect
         ry="0"
         y="1041.3597"
         x="7.7534022"
         height="7.6753397"
         width="6.7853222"
         id="rect6795"
         style="color:#000000;fill:url(#linearGradient5417);fill-opacity:1;stroke:url(#linearGradient5419);stroke-width:0.63910681;stroke-linecap:butt;stroke-linejoin:miter;stroke-miterlimit:4;stroke-opacity:1;stroke-dasharray:none;stroke-dashoffset:0;marker:none;visibility:visible;display:inline;overflow:visible;enable-background:accumulate" />
    </g>
    <rect
       y="1038.0885"
       x="1.7092159"
       height="2.8549807"
       width="10.608828"
       id="rect6891"
       style="opacity:0.77310947;color:#000000;fill:#fef17a;fill-opacity:1;stroke:#c89840;stroke-width:1.42056966;stroke-linecap:butt;stroke-linejoin:miter;stroke-miterlimit:4;stroke-opacity:1;stroke-dasharray:none;stroke-dashoffset:0;marker:none;visibility:visible;display:inline;overflow:visible;enable-background:accumulate" />
    <rect
       style="color:#000000;fill:url(#linearGradient4900);fill-opacity:1;fill-rule:nonzero;stroke:none;stroke-width:0.5;marker:none;visibility:visible;display:inline;overflow:visible;enable-background:accumulate"
       id="rect4892"
       width="7.4246211"
       height="0.79549515"
       x="2.8310289"
       y="1039.6526" />
    <g
       id="g3781">
      <g
         id="text4100-4"
         style="font-size:7.90239143px;font-style:normal;font-weight:normal;line-height:125%;letter-spacing:0px;word-spacing:0px;fill:#000000;fill-opacity:1;stroke:#ffffff;stroke-width:2.06034756;stroke-miterlimit:4;stroke-opacity:1;stroke-dasharray:none;display:inline;font-family:Sans"
         transform="matrix(0.97156719,0,0,0.96985365,-1.3137153,30.340412)">
        <path
           inkscape:connector-curvature="0"
           id="path4873-7"
           style="font-variant:normal;font-stretch:normal;stroke:#ffffff;stroke-width:2.06034756;stroke-miterlimit:4;stroke-opacity:1;stroke-dasharray:none;font-family:Liberation Mono;-inkscape-font-specification:Liberation Mono"
           d="m 8.5108633,1049.3405 c -4.3e-6,0.2186 -0.039876,0.4206 -0.1196162,0.6058 -0.079748,0.1826 -0.2019369,0.3408 -0.366566,0.4746 -0.1620645,0.1337 -0.3691419,0.2379 -0.621233,0.3125 -0.2495251,0.075 -0.5466362,0.1119 -0.8913342,0.1119 -0.6019417,0 -1.0714029,-0.1183 -1.4083851,-0.355 -0.3344118,-0.2366 -0.5479202,-0.5788 -0.6405259,-1.0263 l 0.7138391,-0.1428 c 0.030868,0.1415 0.077171,0.2701 0.1389092,0.3858 0.061736,0.1158 0.1466251,0.2161 0.2546669,0.301 0.108039,0.082 0.2405171,0.1466 0.3974347,0.1929 0.156914,0.046 0.3446985,0.07 0.5633541,0.07 0.1852097,0 0.3537013,-0.017 0.5054752,-0.05 0.1543406,-0.036 0.2855325,-0.091 0.3935762,-0.1659 0.1106095,-0.075 0.1967846,-0.1698 0.2585255,-0.2855 0.061734,-0.1158 0.092602,-0.2547 0.092606,-0.4167 -3.6e-6,-0.1801 -0.042448,-0.3267 -0.1273334,-0.4399 -0.08232,-0.1132 -0.1916466,-0.2058 -0.3279802,-0.2778 -0.1363398,-0.072 -0.2906832,-0.1299 -0.4630307,-0.1737 -0.1697805,-0.046 -0.3421306,-0.091 -0.517051,-0.135 -0.1286217,-0.034 -0.2585274,-0.068 -0.3897176,-0.1042 -0.1311937,-0.039 -0.2572408,-0.082 -0.3781417,-0.1312 -0.1209038,-0.052 -0.234089,-0.1106 -0.3395559,-0.1775 -0.1028967,-0.07 -0.1942166,-0.1518 -0.2739599,-0.247 -0.077172,-0.098 -0.1376237,-0.2109 -0.1813537,-0.3395 -0.043731,-0.1312 -0.065597,-0.283 -0.065596,-0.4553 -6e-7,-0.247 0.046303,-0.4579 0.1389092,-0.6328 0.092605,-0.1775 0.2199387,-0.3216 0.3820004,-0.4322 0.1620595,-0.1132 0.3537026,-0.1955 0.5749298,-0.2469 0.221224,-0.051 0.4604563,-0.077 0.7176977,-0.077 0.2983949,0 0.5517754,0.027 0.7601421,0.081 0.2109329,0.051 0.3884279,0.1299 0.5324854,0.2354 0.1466226,0.1055 0.2636664,0.2367 0.3511316,0.3936 0.087457,0.1543 0.1569119,0.3344 0.2083639,0.5402 l -0.7254149,0.1273 c -0.0283,-0.1312 -0.070744,-0.2482 -0.1273334,-0.3511 -0.054024,-0.1029 -0.1273367,-0.1891 -0.2199396,-0.2586 -0.090037,-0.069 -0.1993634,-0.1221 -0.3279801,-0.1582 -0.1286224,-0.036 -0.2803934,-0.054 -0.4553136,-0.054 -0.2057936,0 -0.3781438,0.022 -0.517051,0.066 -0.1389109,0.041 -0.2508099,0.099 -0.3356973,0.1737 -0.08489,0.072 -0.1466278,0.1582 -0.1852123,0.2585 -0.036015,0.1003 -0.054022,0.2084 -0.05402,0.3241 -1.3e-6,0.1544 0.03344,0.2804 0.1003233,0.3781 0.069453,0.095 0.1620592,0.175 0.2778184,0.2393 0.1183283,0.062 0.254665,0.1132 0.4090105,0.1543 0.1569138,0.041 0.3241192,0.085 0.5016167,0.1312 0.1414789,0.036 0.2842466,0.075 0.4283034,0.1158 0.1440509,0.039 0.2816738,0.085 0.4128691,0.1389 0.1337609,0.054 0.2572356,0.1183 0.3704246,0.1929 0.1157538,0.072 0.216077,0.1608 0.30097,0.2663 0.084885,0.1054 0.1517669,0.2289 0.2006466,0.3704 0.048871,0.1415 0.073309,0.3061 0.073313,0.4939" />
        <path
           inkscape:connector-curvature="0"
           id="path4875-6"
           style="font-variant:normal;font-stretch:normal;stroke:#ffffff;stroke-width:2.06034756;stroke-miterlimit:4;stroke-opacity:1;stroke-dasharray:none;font-family:Liberation Mono;-inkscape-font-specification:Liberation Mono"
           d="m 12.824766,1050.7682 -0.802586,0 -0.401293,-1.4933 c -0.01286,-0.049 -0.0283,-0.1068 -0.0463,-0.1737 -0.01801,-0.067 -0.0373,-0.1376 -0.05788,-0.2122 -0.01801,-0.077 -0.0373,-0.1556 -0.05788,-0.2354 -0.01801,-0.082 -0.03602,-0.162 -0.05402,-0.2392 -0.04373,-0.18 -0.08746,-0.3678 -0.131193,-0.5633 -0.0463,0.198 -0.09132,0.3871 -0.13505,0.5672 -0.01801,0.077 -0.0373,0.1569 -0.05788,0.2392 -0.01801,0.08 -0.0373,0.1582 -0.05788,0.2354 -0.01801,0.075 -0.03602,0.1453 -0.05402,0.2122 -0.01801,0.064 -0.03344,0.1209 -0.0463,0.1698 l -0.409011,1.4933 -0.8025863,0 -0.8141624,-5.2053 0.7292734,0 0.4205863,3.2219 c 0.02058,0.1672 0.0373,0.3306 0.05016,0.4901 0.01543,0.1595 0.02958,0.3022 0.04244,0.4283 0.01286,0.1466 0.02444,0.2855 0.03473,0.4167 0.04116,-0.1775 0.08232,-0.3524 0.123475,-0.5248 0.01801,-0.075 0.03601,-0.1504 0.05402,-0.2276 0.018,-0.08 0.03601,-0.1582 0.05402,-0.2354 0.02058,-0.077 0.03987,-0.1505 0.05788,-0.2199 0.01801,-0.072 0.03472,-0.1376 0.05016,-0.1968 l 0.420587,-1.5396 0.675253,0 0.420586,1.5396 c 0.01543,0.057 0.03215,0.1209 0.05016,0.1929 0.018,0.072 0.03601,0.1466 0.05402,0.2238 0.02058,0.075 0.03987,0.1518 0.05788,0.2315 0.018,0.077 0.03601,0.1531 0.05402,0.2277 0.04116,0.1723 0.08231,0.3485 0.123475,0.5286 0.0026,0 0.0077,-0.044 0.01543,-0.1312 0.0077,-0.087 0.018,-0.1968 0.03087,-0.328 0.01286,-0.1312 0.02701,-0.2752 0.04244,-0.4321 0.01543,-0.1569 0.03087,-0.3048 0.0463,-0.4438 l 0.401293,-3.2219 0.729273,0 -0.810304,5.2053" />
        <path
           inkscape:connector-curvature="0"
           id="path4877-5"
           style="font-variant:normal;font-stretch:normal;stroke:#ffffff;stroke-width:2.06034756;stroke-miterlimit:4;stroke-opacity:1;stroke-dasharray:none;font-family:Liberation Mono;-inkscape-font-specification:Liberation Mono"
           d="m 16.37081,1046.1649 0,4.6033 -0.733132,0 0,-4.6033 -1.709355,0 0,-0.602 4.151843,0 0,0.602 -1.709356,0" />
      </g>
      <rect
         transform="translate(0,1036.3622)"
         y="8"
         x="5"
         height="6.03125"
         width="9"
         id="rect3011"
         style="fill:#ffffff;fill-opacity:1;stroke:none" />
      <g
         id="text4100"
         style="font-size:7.90239143px;font-style:normal;font-weight:normal;line-height:125%;letter-spacing:0px;word-spacing:0px;fill:#000000;fill-opacity:1;stroke:none;font-family:Sans"
         transform="matrix(0.97156719,0,0,0.96985365,-1.3137153,30.340412)">
        <path
           inkscape:connector-curvature="0"
           id="path4873"
           style="font-variant:normal;font-stretch:normal;stroke:none;font-family:Liberation Mono;-inkscape-font-specification:Liberation Mono"
           d="m 8.5108633,1049.3405 c -4.3e-6,0.2186 -0.039876,0.4206 -0.1196162,0.6058 -0.079748,0.1826 -0.2019369,0.3408 -0.366566,0.4746 -0.1620645,0.1337 -0.3691419,0.2379 -0.621233,0.3125 -0.2495251,0.075 -0.5466362,0.1119 -0.8913342,0.1119 -0.6019417,0 -1.0714029,-0.1183 -1.4083851,-0.355 -0.3344118,-0.2366 -0.5479202,-0.5788 -0.6405259,-1.0263 l 0.7138391,-0.1428 c 0.030868,0.1415 0.077171,0.2701 0.1389092,0.3858 0.061736,0.1158 0.1466251,0.2161 0.2546669,0.301 0.108039,0.082 0.2405171,0.1466 0.3974347,0.1929 0.156914,0.046 0.3446985,0.07 0.5633541,0.07 0.1852097,0 0.3537013,-0.017 0.5054752,-0.05 0.1543406,-0.036 0.2855325,-0.091 0.3935762,-0.1659 0.1106095,-0.075 0.1967846,-0.1698 0.2585255,-0.2855 0.061734,-0.1158 0.092602,-0.2547 0.092606,-0.4167 -3.6e-6,-0.1801 -0.042448,-0.3267 -0.1273334,-0.4399 -0.08232,-0.1132 -0.1916466,-0.2058 -0.3279802,-0.2778 -0.1363398,-0.072 -0.2906832,-0.1299 -0.4630307,-0.1737 -0.1697805,-0.046 -0.3421306,-0.091 -0.517051,-0.135 -0.1286217,-0.034 -0.2585274,-0.068 -0.3897176,-0.1042 -0.1311937,-0.039 -0.2572408,-0.082 -0.3781417,-0.1312 -0.1209038,-0.052 -0.234089,-0.1106 -0.3395559,-0.1775 -0.1028967,-0.07 -0.1942166,-0.1518 -0.2739599,-0.247 -0.077172,-0.098 -0.1376237,-0.2109 -0.1813537,-0.3395 -0.043731,-0.1312 -0.065597,-0.283 -0.065596,-0.4553 -6e-7,-0.247 0.046303,-0.4579 0.1389092,-0.6328 0.092605,-0.1775 0.2199387,-0.3216 0.3820004,-0.4322 0.1620595,-0.1132 0.3537026,-0.1955 0.5749298,-0.2469 0.221224,-0.051 0.4604563,-0.077 0.7176977,-0.077 0.2983949,0 0.5517754,0.027 0.7601421,0.081 0.2109329,0.051 0.3884279,0.1299 0.5324854,0.2354 0.1466226,0.1055 0.2636664,0.2367 0.3511316,0.3936 0.087457,0.1543 0.1569119,0.3344 0.2083639,0.5402 l -0.7254149,0.1273 c -0.0283,-0.1312 -0.070744,-0.2482 -0.1273334,-0.3511 -0.054024,-0.1029 -0.1273367,-0.1891 -0.2199396,-0.2586 -0.090037,-0.069 -0.1993634,-0.1221 -0.3279801,-0.1582 -0.1286224,-0.036 -0.2803934,-0.054 -0.4553136,-0.054 -0.2057936,0 -0.3781438,0.022 -0.517051,0.066 -0.1389109,0.041 -0.2508099,0.099 -0.3356973,0.1737 -0.08489,0.072 -0.1466278,0.1582 -0.1852123,0.2585 -0.036015,0.1003 -0.054022,0.2084 -0.05402,0.3241 -1.3e-6,0.1544 0.03344,0.2804 0.1003233,0.3781 0.069453,0.095 0.1620592,0.175 0.2778184,0.2393 0.1183283,0.062 0.254665,0.1132 0.4090105,0.1543 0.1569138,0.041 0.3241192,0.085 0.5016167,0.1312 0.1414789,0.036 0.2842466,0.075 0.4283034,0.1158 0.1440509,0.039 0.2816738,0.085 0.4128691,0.1389 0.1337609,0.054 0.2572356,0.1183 0.3704246,0.1929 0.1157538,0.072 0.216077,0.1608 0.30097,0.2663 0.084885,0.1054 0.1517669,0.2289 0.2006466,0.3704 0.048871,0.1415 0.073309,0.3061 0.073313,0.4939" />
        <path
           inkscape:connector-curvature="0"
           id="path4875"
           style="font-variant:normal;font-stretch:normal;stroke:none;font-family:Liberation Mono;-inkscape-font-specification:Liberation Mono"
           d="m 12.824766,1050.7682 -0.802586,0 -0.401293,-1.4933 c -0.01286,-0.049 -0.0283,-0.1068 -0.0463,-0.1737 -0.01801,-0.067 -0.0373,-0.1376 -0.05788,-0.2122 -0.01801,-0.077 -0.0373,-0.1556 -0.05788,-0.2354 -0.01801,-0.082 -0.03602,-0.162 -0.05402,-0.2392 -0.04373,-0.18 -0.08746,-0.3678 -0.131193,-0.5633 -0.0463,0.198 -0.09132,0.3871 -0.13505,0.5672 -0.01801,0.077 -0.0373,0.1569 -0.05788,0.2392 -0.01801,0.08 -0.0373,0.1582 -0.05788,0.2354 -0.01801,0.075 -0.03602,0.1453 -0.05402,0.2122 -0.01801,0.064 -0.03344,0.1209 -0.0463,0.1698 l -0.409011,1.4933 -0.8025863,0 -0.8141624,-5.2053 0.7292734,0 0.4205863,3.2219 c 0.02058,0.1672 0.0373,0.3306 0.05016,0.4901 0.01543,0.1595 0.02958,0.3022 0.04244,0.4283 0.01286,0.1466 0.02444,0.2855 0.03473,0.4167 0.04116,-0.1775 0.08232,-0.3524 0.123475,-0.5248 0.01801,-0.075 0.03601,-0.1504 0.05402,-0.2276 0.018,-0.08 0.03601,-0.1582 0.05402,-0.2354 0.02058,-0.077 0.03987,-0.1505 0.05788,-0.2199 0.01801,-0.072 0.03472,-0.1376 0.05016,-0.1968 l 0.420587,-1.5396 0.675253,0 0.420586,1.5396 c 0.01543,0.057 0.03215,0.1209 0.05016,0.1929 0.018,0.072 0.03601,0.1466 0.05402,0.2238 0.02058,0.075 0.03987,0.1518 0.05788,0.2315 0.018,0.077 0.03601,0.1531 0.05402,0.2277 0.04116,0.1723 0.08231,0.3485 0.123475,0.5286 0.0026,0 0.0077,-0.044 0.01543,-0.1312 0.0077,-0.087 0.018,-0.1968 0.03087,-0.328 0.01286,-0.1312 0.02701,-0.2752 0.04244,-0.4321 0.01543,-0.1569 0.03087,-0.3048 0.0463,-0.4438 l 0.401293,-3.2219 0.729273,0 -0.810304,5.2053" />
        <path
           inkscape:connector-curvature="0"
           id="path4877"
           style="font-variant:normal;font-stretch:normal;stroke:none;font-family:Liberation Mono;-inkscape-font-specification:Liberation Mono"
           d="m 16.37081,1046.1649 0,4.6033 -0.733132,0 0,-4.6033 -1.709355,0 0,-0.602 4.151843,0 0,0.602 -1.709356,0" />
      </g>
    </g>
  </g>
</svg>
