<?xml version="1.0" encoding="UTF-8" standalone="no"?>
<!-- Created with Inkscape (http://www.inkscape.org/) -->

<svg
   xmlns:dc="http://purl.org/dc/elements/1.1/"
   xmlns:cc="http://creativecommons.org/ns#"
   xmlns:rdf="http://www.w3.org/1999/02/22-rdf-syntax-ns#"
   xmlns:svg="http://www.w3.org/2000/svg"
   xmlns="http://www.w3.org/2000/svg"
   xmlns:sodipodi="http://sodipodi.sourceforge.net/DTD/sodipodi-0.dtd"
   xmlns:inkscape="http://www.inkscape.org/namespaces/inkscape"
   width="16"
   height="16"
   id="svg2"
   version="1.1"
   inkscape:version="0.48.0 r9654"
   sodipodi:docname="wordassist_co.svg"
   inkscape:export-filename="C:\Users\jmietling\Documents\rect3997-9-1.png"
   inkscape:export-xdpi="90"
   inkscape:export-ydpi="90">
  <defs
     id="defs4" />
  <sodipodi:namedview
     id="base"
     pagecolor="#ffffff"
     bordercolor="#666666"
     borderopacity="1.0"
     inkscape:pageopacity="0.0"
     inkscape:pageshadow="2"
     inkscape:zoom="15.999999"
     inkscape:cx="7.4315777"
     inkscape:cy="4.9349721"
     inkscape:document-units="px"
     inkscape:current-layer="layer1"
     showgrid="true"
     inkscape:window-width="1241"
     inkscape:window-height="814"
     inkscape:window-x="692"
     inkscape:window-y="609"
     inkscape:window-maximized="0"
     showguides="true"
     inkscape:guide-bbox="true"
     inkscape:snap-global="false">
    <inkscape:grid
       type="xygrid"
       id="grid3999"
       empspacing="5"
       visible="true"
       enabled="true"
       snapvisiblegridlinesonly="true" />
  </sodipodi:namedview>
  <metadata
     id="metadata7">
    <rdf:RDF>
      <cc:Work
         rdf:about="">
        <dc:format>image/svg+xml</dc:format>
        <dc:type
           rdf:resource="http://purl.org/dc/dcmitype/StillImage" />
        <dc:title />
      </cc:Work>
    </rdf:RDF>
  </metadata>
  <g
     inkscape:label="Layer 1"
     inkscape:groupmode="layer"
     id="layer1"
     style="display:inline"
     transform="translate(0,-1036.3622)">
    <rect
       style="fill:#4b6ea2;fill-opacity:1;stroke:none"
       id="rect4115"
       width="2"
       height="1"
       x="8"
       y="1039.3622" />
    <rect
       style="fill:#4b6ea2;fill-opacity:1;stroke:none;display:inline"
       id="rect4115-1"
       width="2"
       height="1"
       x="11"
       y="1039.3622" />
    <rect
       style="fill:#4b6ea2;fill-opacity:1;stroke:none;display:inline"
       id="rect4115-7"
       width="2"
       height="1"
       x="8"
       y="1050.3622" />
    <rect
       style="fill:#4b6ea2;fill-opacity:1;stroke:none;display:inline"
       id="rect4115-1-4"
       width="2"
       height="1"
       x="11"
       y="1050.3622" />
    <rect
       style="fill:#4b6ea2;fill-opacity:1;stroke:none;display:inline"
       id="rect4115-1-4-0"
       width="0.99999976"
       height="10.000073"
       x="10"
       y="1040.3622" />
    <path
       style="font-size:11.09465981px;font-style:normal;font-variant:normal;font-weight:normal;font-stretch:normal;text-align:start;line-height:125%;letter-spacing:0px;word-spacing:0px;writing-mode:lr-tb;text-anchor:start;fill:#375ca5;fill-opacity:1;stroke:#375ca5;stroke-width:0.5;stroke-miterlimit:4;stroke-opacity:1;stroke-dasharray:none;font-family:Forgotten Futurist;-inkscape-font-specification:Forgotten Futurist"
       d="m 5.25,1041.1314 0,7.1058 2.15625,0 c 0.4882323,0 0.860802,-0.1 1.09375,-0.3437 0.2329405,-0.2442 0.3437459,-0.6459 0.34375,-1.1563 l 0,-1.6875 c -4.1e-6,-1.0428 -0.4415451,-1.5625 -1.34375,-1.5625 l -1.59375,0 0,-2.3558 z m -4.0962403,2.3246 0,0.7187 1.2212403,0 c 0.2810204,0 0.5029946,0.071 0.625,0.2188 0.1219992,0.1479 0.1562467,0.3677 0.15625,0.6562 l 0,0.4375 -1.625,0 c -0.4365465,0 -0.77979719,0.1383 -1.03125,0.375 -0.25145403,0.2367 -0.37500023,0.5562 -0.375,1 -2.3e-7,0.4438 0.13088192,0.7946 0.375,1.0313 0.24411689,0.2366 0.5381976,0.3437 0.9375,0.3437 l 2.40625,0 0,-3.125 c -4e-6,-0.5104 -0.1144209,-0.9229 -0.34375,-1.2187 -0.2293364,-0.2959 -0.5925262,-0.4375 -1.125,-0.4375 z m 4.7212403,0.7498 1.53125,0 c 0.5250249,0 0.7812466,0.2759 0.78125,0.875 l 0,1.7187 c -3.4e-6,0.4733 -0.2454154,0.7188 -0.71875,0.7188 l -1.59375,0 z m -4.46875,2 1.75,0 0,1.3125 -1.75,0 c -0.1625208,0 -0.3191103,-0.056 -0.4375,-0.1563 -0.11839186,-0.1 -0.18750091,-0.2396 -0.1875,-0.4687 -9.1e-7,-0.2294 0.0802814,-0.424 0.1875,-0.5313 0.1072165,-0.1073 0.2526328,-0.1562 0.4375,-0.1562 z"
       id="text5237"
       inkscape:connector-curvature="0"
       sodipodi:nodetypes="ccscssscccccccccssssscscsccsssscccccscssc" />
    <path
       style="font-size:11.09465981px;font-style:normal;font-variant:normal;font-weight:normal;font-stretch:normal;text-align:start;line-height:125%;letter-spacing:0px;word-spacing:0px;writing-mode:lr-tb;text-anchor:start;fill:#3fa6ff;fill-opacity:1;stroke:#3fa6ff;stroke-width:0.5;stroke-miterlimit:4;stroke-opacity:1;stroke-dasharray:none;display:inline;font-family:Forgotten Futurist;-inkscape-font-specification:Forgotten Futurist"
       d="m 13.461818,1043.487 c -0.375848,0.052 -0.669735,0.1983 -0.875,0.4063 -0.273688,0.2773 -0.40625,0.6877 -0.40625,1.25 l 0,1.4687 c 0,0.5548 0.136287,0.9488 0.40625,1.2188 0.269962,0.2699 0.680503,0.4062 1.25,0.4062 l 0.981044,0 0,-0.7187 -1.074794,0 c -0.310594,0 -0.539541,-0.065 -0.6875,-0.1875 -0.147962,-0.1221 -0.21875,-0.3142 -0.21875,-0.625 l 0,-1.5938 c 0,-0.6137 0.314633,-0.9062 0.90625,-0.9062 l 1.106044,0 0,-0.7188 -0.981044,0 c -0.144236,0 -0.280967,-0.017 -0.40625,0 z"
       id="text5237-9"
       inkscape:connector-curvature="0"
       sodipodi:nodetypes="ssssssccscsssccss" />
  </g>
</svg>
