<?xml version="1.0" encoding="UTF-8" standalone="no"?>
<!-- Created with Inkscape (http://www.inkscape.org/) -->

<svg
   xmlns:dc="http://purl.org/dc/elements/1.1/"
   xmlns:cc="http://creativecommons.org/ns#"
   xmlns:rdf="http://www.w3.org/1999/02/22-rdf-syntax-ns#"
   xmlns:svg="http://www.w3.org/2000/svg"
   xmlns="http://www.w3.org/2000/svg"
   xmlns:xlink="http://www.w3.org/1999/xlink"
   xmlns:sodipodi="http://sodipodi.sourceforge.net/DTD/sodipodi-0.dtd"
   xmlns:inkscape="http://www.inkscape.org/namespaces/inkscape"
   width="16"
   height="16"
   id="svg2"
   version="1.1"
   inkscape:version="0.48.4 r9939"
   sodipodi:docname="stepbystep_co.svg">
  <defs
     id="defs4">
    <linearGradient
       inkscape:collect="always"
       id="linearGradient7255">
      <stop
         style="stop-color:#c28a1d;stop-opacity:1;"
         offset="0"
         id="stop7257" />
      <stop
         style="stop-color:#c28a1d;stop-opacity:0;"
         offset="1"
         id="stop7259" />
    </linearGradient>
    <linearGradient
       id="linearGradient7084"
       inkscape:collect="always">
      <stop
         id="stop7086"
         offset="0"
         style="stop-color:#fef6e1;stop-opacity:1" />
      <stop
         id="stop7088"
         offset="1"
         style="stop-color:#fce5a7;stop-opacity:1" />
    </linearGradient>
    <linearGradient
       inkscape:collect="always"
       id="linearGradient7076">
      <stop
         style="stop-color:#956413;stop-opacity:1"
         offset="0"
         id="stop7078" />
      <stop
         style="stop-color:#c38b1d;stop-opacity:1"
         offset="1"
         id="stop7080" />
    </linearGradient>
    <linearGradient
       inkscape:collect="always"
       id="linearGradient7029">
      <stop
         style="stop-color:#3a435f;stop-opacity:1;"
         offset="0"
         id="stop7031" />
      <stop
         style="stop-color:#5689b4;stop-opacity:1"
         offset="1"
         id="stop7033" />
    </linearGradient>
    <radialGradient
       inkscape:collect="always"
       xlink:href="#linearGradient7029"
       id="radialGradient7035"
       cx="2"
       cy="16"
       fx="2"
       fy="16"
       r="2"
       gradientTransform="matrix(2,0,0,1.5,-2,-9)"
       gradientUnits="userSpaceOnUse" />
    <linearGradient
       inkscape:collect="always"
       id="linearGradient7029-1">
      <stop
         style="stop-color:#3a435f;stop-opacity:1;"
         offset="0"
         id="stop7031-3" />
      <stop
         style="stop-color:#5689b4;stop-opacity:1"
         offset="1"
         id="stop7033-1" />
    </linearGradient>
    <radialGradient
       r="2"
       fy="16"
       fx="2"
       cy="16"
       cx="2"
       gradientTransform="matrix(2,0,0,1.5,10,1027.3622)"
       gradientUnits="userSpaceOnUse"
       id="radialGradient7055"
       xlink:href="#linearGradient7029-1"
       inkscape:collect="always" />
    <linearGradient
       inkscape:collect="always"
       xlink:href="#linearGradient7084"
       id="linearGradient7074"
       gradientUnits="userSpaceOnUse"
       gradientTransform="matrix(0,0.58432111,0.58432111,0,-602.73696,1041.2427)"
       x1="-1.5068769"
       y1="1045.2078"
       x2="10.472837"
       y2="1045.2078" />
    <linearGradient
       inkscape:collect="always"
       xlink:href="#linearGradient7076"
       id="linearGradient7082"
       x1="32"
       y1="1050.3622"
       x2="32"
       y2="1037.3622"
       gradientUnits="userSpaceOnUse"
       gradientTransform="translate(-20,0)" />
    <linearGradient
       inkscape:collect="always"
       xlink:href="#linearGradient7255"
       id="linearGradient7261"
       x1="34.90625"
       y1="1041.0167"
       x2="32.115398"
       y2="1040.2667"
       gradientUnits="userSpaceOnUse"
       gradientTransform="translate(-20,0)" />
    <linearGradient
       inkscape:collect="always"
       xlink:href="#linearGradient7255"
       id="linearGradient7263"
       x1="27.4375"
       y1="1049.0347"
       x2="27.4375"
       y2="1046.4401"
       gradientUnits="userSpaceOnUse"
       gradientTransform="translate(-20,0)" />
  </defs>
  <sodipodi:namedview
     id="base"
     pagecolor="#ffffff"
     bordercolor="#666666"
     borderopacity="1.0"
     inkscape:pageopacity="0.0"
     inkscape:pageshadow="2"
     inkscape:zoom="32.000001"
     inkscape:cx="13.641242"
     inkscape:cy="10.009549"
     inkscape:document-units="px"
     inkscape:current-layer="layer1"
     showgrid="true"
     inkscape:window-width="1164"
     inkscape:window-height="982"
     inkscape:window-x="1177"
     inkscape:window-y="343"
     inkscape:window-maximized="0"
     inkscape:snap-global="false">
    <inkscape:grid
       type="xygrid"
       id="grid3966" />
  </sodipodi:namedview>
  <metadata
     id="metadata7">
    <rdf:RDF>
      <cc:Work
         rdf:about="">
        <dc:format>image/svg+xml</dc:format>
        <dc:type
           rdf:resource="http://purl.org/dc/dcmitype/StillImage" />
        <dc:title />
      </cc:Work>
    </rdf:RDF>
  </metadata>
  <g
     inkscape:label="Layer 1"
     inkscape:groupmode="layer"
     id="layer1"
     style="display:inline"
     transform="translate(0,-1036.3622)">
    <path
       style="fill:url(#linearGradient7074);fill-opacity:1;stroke:url(#linearGradient7082);stroke-width:1;stroke-linecap:round;stroke-linejoin:round;stroke-miterlimit:4;stroke-opacity:1;stroke-dasharray:none;stroke-dashoffset:0"
       d="m 11.40625,1037.6747 0,2.2188 -10.15625,0 c -0.39031,0 -0.71875,0.2972 -0.71875,0.6875 l 0,0.5312 c 0,0.3903 0.32845,0.7188 0.71875,0.7188 l 5.28125,0 0,3.9687 -2.25,0 0,1 3.21875,3.2188 3.21875,-3.2188 0,-1 -2.21875,0 0,-3.9687 2.90625,0 0,2.25 1,0 3.1875,-3.2188 -3.1875,-3.1875 -1,0 z"
       id="rect3968"
       inkscape:connector-curvature="0" />
    <path
       style="fill:url(#radialGradient7035);fill-opacity:1;stroke:none"
       d="M 1 13 C 0.446 13 -6.7697584e-018 13.446 0 14 L 0 15 L 4 15 L 4 14 C 4 13.446 3.554 13 3 13 L 1 13 z "
       transform="translate(0,1036.3622)"
       id="rect6259" />
    <path
       inkscape:connector-curvature="0"
       style="fill:url(#radialGradient7055);fill-opacity:1;stroke:none;display:inline"
       d="m 13,1049.3622 c -0.554,0 -1,0.446 -1,1 l 0,1 4,0 0,-1 c 0,-0.554 -0.446,-1 -1,-1 l -2,0 z"
       id="rect6259-5" />
    <path
       style="font-size:medium;font-style:normal;font-variant:normal;font-weight:normal;font-stretch:normal;text-indent:0;text-align:start;text-decoration:none;line-height:normal;letter-spacing:normal;word-spacing:normal;text-transform:none;direction:ltr;block-progression:tb;writing-mode:lr-tb;text-anchor:start;baseline-shift:baseline;opacity:0.5;color:#000000;fill:url(#linearGradient7261);fill-opacity:1;stroke:none;stroke-width:1.5;marker:none;visibility:visible;display:inline;overflow:visible;enable-background:accumulate;font-family:Sans;-inkscape-font-specification:Sans"
       d="m 11.6875,1037.956 0,1.9375 a 0.29218979,0.29218979 0 0 1 -0.03125,0.125 0.29218979,0.29218979 0 0 1 -0.0625,0.094 0.29218979,0.29218979 0 0 1 -0.0625,0.031 0.29218979,0.29218979 0 0 1 -0.125,0.031 l -1.6875,0 0,0.4688 1.6875,0 a 0.750075,0.750075 0 0 0 0.75,-0.75 l 0,-1.4063 2.375,2.375 -2.375,2.4063 0,-1.4375 a 0.750075,0.750075 0 0 0 -0.75,-0.75 l -1.6875,0 0,0.4375 1.6875,0 a 0.29218979,0.29218979 0 0 1 0.125,0.031 0.29218979,0.29218979 0 0 1 0.0625,0.062 0.29218979,0.29218979 0 0 1 0.03125,0.031 0.29218979,0.29218979 0 0 1 0.03125,0.062 0.29218979,0.29218979 0 0 1 0.03125,0.094 0.29218979,0.29218979 0 0 1 0,0.031 l 0,1.9375 0.59375,0 2.90625,-2.9063 -2.90625,-2.9062 -0.59375,0 z"
       id="path7251"
       inkscape:connector-curvature="0" />
    <path
       style="font-size:medium;font-style:normal;font-variant:normal;font-weight:normal;font-stretch:normal;text-indent:0;text-align:start;text-decoration:none;line-height:normal;letter-spacing:normal;word-spacing:normal;text-transform:none;direction:ltr;block-progression:tb;writing-mode:lr-tb;text-anchor:start;baseline-shift:baseline;opacity:0.5;color:#000000;fill:url(#linearGradient7263);fill-opacity:1;stroke:none;stroke-width:1.5;marker:none;visibility:visible;display:inline;overflow:visible;enable-background:accumulate;font-family:Sans;-inkscape-font-specification:Sans"
       d="m 6.8125,1043.2372 0,2.5625 a 0.29218979,0.29218979 0 0 1 -0.03125,0.125 0.29218979,0.29218979 0 0 1 -0.0625,0.094 0.29218979,0.29218979 0 0 1 -0.0625,0.031 0.29218979,0.29218979 0 0 1 -0.125,0.031 l -1.96875,0 0,0.5625 2.9375,2.9375 2.9375,-2.9375 0,-0.5625 -1.9375,0 a 0.29218979,0.29218979 0 0 1 -0.0625,0 0.29218979,0.29218979 0 0 1 -0.15625,-0.094 0.29218979,0.29218979 0 0 1 -0.03125,-0.062 0.29218979,0.29218979 0 0 1 -0.03125,-0.094 0.29218979,0.29218979 0 0 1 0,-0.031 l 0,-2.5625 -0.46875,0 0,2.5625 a 0.750075,0.750075 0 0 0 0.75,0.75 l 1.40625,0 -2.40625,2.4063 -2.40625,-2.4063 1.4375,0 a 0.750075,0.750075 0 0 0 0.75,-0.75 l 0,-2.5625 -0.46875,0 z"
       id="rect3968-7"
       inkscape:connector-curvature="0" />
  </g>
</svg>
