<?xml version="1.0" encoding="UTF-8" standalone="no"?>
<!-- Created with Inkscape (http://www.inkscape.org/) -->

<svg
   xmlns:dc="http://purl.org/dc/elements/1.1/"
   xmlns:cc="http://creativecommons.org/ns#"
   xmlns:rdf="http://www.w3.org/1999/02/22-rdf-syntax-ns#"
   xmlns:svg="http://www.w3.org/2000/svg"
   xmlns="http://www.w3.org/2000/svg"
   xmlns:sodipodi="http://sodipodi.sourceforge.net/DTD/sodipodi-0.dtd"
   xmlns:inkscape="http://www.inkscape.org/namespaces/inkscape"
   width="16"
   height="16"
   id="svg2"
   version="1.1"
   inkscape:version="0.91 r13725"
   sodipodi:docname="help_contents.svg">
  <defs
     id="defs4" />
  <sodipodi:namedview
     id="base"
     pagecolor="#ffffff"
     bordercolor="#666666"
     borderopacity="1.0"
     inkscape:pageopacity="0.0"
     inkscape:pageshadow="2"
     inkscape:zoom="16"
     inkscape:cx="5.1939192"
     inkscape:cy="7.2545152"
     inkscape:document-units="px"
     inkscape:current-layer="g8159"
     showgrid="false"
     inkscape:window-width="1011"
     inkscape:window-height="979"
     inkscape:window-x="247"
     inkscape:window-y="365"
     inkscape:window-maximized="0"
     showguides="true"
     inkscape:guide-bbox="true" />
  <metadata
     id="metadata7">
    <rdf:RDF>
      <cc:Work
         rdf:about="">
        <dc:format>image/svg+xml</dc:format>
        <dc:type
           rdf:resource="http://purl.org/dc/dcmitype/StillImage" />
        <dc:title />
      </cc:Work>
    </rdf:RDF>
  </metadata>
  <g
     inkscape:label="Layer 1"
     inkscape:groupmode="layer"
     id="layer1"
     style="display:inline"
     transform="translate(0,-1036.3622)">
    <g
       style="display:inline"
       id="g8159"
       transform="translate(-8.2201163,-12.904699)">
      <path
         sodipodi:type="arc"
         style="fill:#f7fcff;fill-opacity:1;stroke:#286296;stroke-width:1.50000000000000000;stroke-linecap:round;stroke-linejoin:round;stroke-miterlimit:4;stroke-opacity:1;stroke-dasharray:none;stroke-dashoffset:0;display:inline"
         id="circle"
         sodipodi:cx="388.125"
         sodipodi:cy="468.23718"
         sodipodi:rx="10.625"
         sodipodi:ry="10.625"
         d="m 398.75,468.23718 a 10.625,10.625 0 0 1 -10.625,10.625 10.625,10.625 0 0 1 -10.625,-10.625 10.625,10.625 0 0 1 10.625,-10.625 10.625,10.625 0 0 1 10.625,10.625 z"
         transform="matrix(0.62300696,0,0,0.62300696,-225.45273,765.59692)">
        <title
           id="title3199">circle</title>
      </path>
      <g
         style="font-size:40px;font-style:normal;font-weight:normal;line-height:125%;letter-spacing:0px;word-spacing:0px;fill:#286296;fill-opacity:1;stroke:none;font-family:Sans"
         id="question"
         transform="matrix(1,0,0,0.8709833,0,136.37376)">
        <title
           id="title3197">question</title>
        <path
           d="m 17.235772,1058.8666 -2.115234,0 0,-0.2871 c -2e-6,-0.3203 0.06445,-0.6035 0.193359,-0.8496 0.128904,-0.25 0.400388,-0.5664 0.814453,-0.9493 l 0.375,-0.3398 c 0.222653,-0.2031 0.384762,-0.3945 0.486328,-0.5742 0.105465,-0.1797 0.158199,-0.3594 0.158204,-0.5391 -5e-6,-0.2734 -0.09375,-0.4863 -0.28125,-0.6387 -0.187504,-0.1562 -0.449223,-0.2343 -0.785157,-0.2343 -0.316409,0 -0.658205,0.066 -1.02539,0.1992 -0.367189,0.1289 -0.750002,0.3223 -1.148438,0.5801 l 0,-1.8399 c 0.472655,-0.164 0.904295,-0.2851 1.294922,-0.3633 0.390622,-0.078 0.767575,-0.1171 1.130859,-0.1171 0.953121,0 1.679683,0.1953 2.179688,0.5859 0.499994,0.3867 0.749994,0.9531 0.75,1.6992 -6e-6,0.3828 -0.07618,0.7266 -0.228516,1.0313 -0.152349,0.3007 -0.412115,0.625 -0.779297,0.9726 l -0.375,0.334 c -0.265629,0.2422 -0.439457,0.4375 -0.521484,0.5859 -0.08204,0.1446 -0.123051,0.3047 -0.123047,0.4805 l 0,0.2637 m -2.115234,0.8672 2.115234,0 0,2.0859 -2.115234,0 0,-2.0859"
           style="font-size:12px;font-weight:bold;fill:#286296;-inkscape-font-specification:Sans Bold"
           id="path5245"
           inkscape:connector-curvature="0" />
      </g>
    </g>
  </g>
</svg>
