<?xml version="1.0" encoding="UTF-8" standalone="no"?>
<!-- Created with Inkscape (http://www.inkscape.org/) -->

<svg
   xmlns:dc="http://purl.org/dc/elements/1.1/"
   xmlns:cc="http://creativecommons.org/ns#"
   xmlns:rdf="http://www.w3.org/1999/02/22-rdf-syntax-ns#"
   xmlns:svg="http://www.w3.org/2000/svg"
   xmlns="http://www.w3.org/2000/svg"
   xmlns:sodipodi="http://sodipodi.sourceforge.net/DTD/sodipodi-0.dtd"
   xmlns:inkscape="http://www.inkscape.org/namespaces/inkscape"
   width="20"
   height="20"
   id="svg2"
   version="1.1"
   inkscape:version="0.48.4 r9939"
   sodipodi:docname="sleeping.svg">
  <defs
     id="defs4" />
  <sodipodi:namedview
     id="base"
     pagecolor="#ffffff"
     bordercolor="#666666"
     borderopacity="1.0"
     inkscape:pageopacity="0.0"
     inkscape:pageshadow="2"
     inkscape:zoom="31.678384"
     inkscape:cx="10.804398"
     inkscape:cy="8.9401374"
     inkscape:document-units="px"
     inkscape:current-layer="text2996"
     showgrid="false"
     inkscape:window-width="855"
     inkscape:window-height="756"
     inkscape:window-x="1127"
     inkscape:window-y="559"
     inkscape:window-maximized="0" />
  <metadata
     id="metadata7">
    <rdf:RDF>
      <cc:Work
         rdf:about="">
        <dc:format>image/svg+xml</dc:format>
        <dc:type
           rdf:resource="http://purl.org/dc/dcmitype/StillImage" />
        <dc:title></dc:title>
      </cc:Work>
    </rdf:RDF>
  </metadata>
  <g
     inkscape:label="Layer 1"
     inkscape:groupmode="layer"
     id="layer1"
     transform="translate(0,-1032.3622)">
    <g
       transform="scale(0.96516945,1.0360875)"
       style="font-size:10.94554329px;font-style:normal;font-weight:normal;line-height:125%;letter-spacing:0px;word-spacing:0px;fill:#005596;fill-opacity:1;stroke:none;font-family:Sans"
       id="text2996">
      <path
         d="m 0.45558062,1002.0839 6.70735198,0 0,1.2453 -4.2809474,5.1788 4.403871,0 0,1.5553 -6.95319916,0 0,-1.2453 4.28094736,-5.1788 -4.15802378,0 0,-1.5553"
         style="font-weight:bold;fill:#005596;-inkscape-font-specification:Sans Bold"
         id="path3041" />
      <path
         d="m 7.9396227,1004.0774 5.2215803,0 0,1.3362 -3.153257,3.2815 3.153257,0 0,1.3682 -5.3551928,0 0,-1.3361 3.1532578,-3.2816 -3.0196453,0 0,-1.3682"
         style="font-weight:bold;fill:#005596;-inkscape-font-specification:Sans Bold"
         id="path3043"
         inkscape:connector-curvature="0" />
      <path
         d="m 14.768161,1004.0774 5.22158,0 0,1.3362 -3.153257,3.2815 3.153257,0 0,1.3682 -5.355193,0 0,-1.3361 3.153257,-3.2816 -3.019644,0 0,-1.3682"
         style="font-weight:bold;fill:#005596;-inkscape-font-specification:Sans Bold"
         id="path3045" />
    </g>
  </g>
</svg>
