<?xml version="1.0" encoding="UTF-8" standalone="no"?>
<!-- Created with Inkscape (http://www.inkscape.org/) -->

<svg
   width="8"
   height="8"
   id="svg2"
   version="1.1"
   inkscape:version="1.3.2 (091e20e, 2023-11-25, custom)"
   sodipodi:docname="pinned_ovr.svg"
   xmlns:inkscape="http://www.inkscape.org/namespaces/inkscape"
   xmlns:sodipodi="http://sodipodi.sourceforge.net/DTD/sodipodi-0.dtd"
   xmlns:xlink="http://www.w3.org/1999/xlink"
   xmlns="http://www.w3.org/2000/svg"
   xmlns:svg="http://www.w3.org/2000/svg"
   xmlns:rdf="http://www.w3.org/1999/02/22-rdf-syntax-ns#"
   xmlns:cc="http://creativecommons.org/ns#"
   xmlns:dc="http://purl.org/dc/elements/1.1/">
  <defs
     id="defs4">
    <linearGradient
       y2="1041.6436"
       x2="22"
       y1="1041.6436"
       x1="19.624538"
       gradientUnits="userSpaceOnUse"
       id="linearGradient5269"
       xlink:href="#linearGradient4981"
       inkscape:collect="always" />
    <linearGradient
       y2="8.296731"
       x2="22.095001"
       y1="7.609231"
       x1="18.909349"
       gradientUnits="userSpaceOnUse"
       id="linearGradient5267"
       xlink:href="#linearGradient4981"
       inkscape:collect="always" />
    <linearGradient
       y2="1046.688"
       x2="21.123072"
       y1="1045.577"
       x1="21.123072"
       gradientUnits="userSpaceOnUse"
       id="linearGradient5265"
       xlink:href="#linearGradient4973"
       inkscape:collect="always" />
    <linearGradient
       id="linearGradient4973"
       inkscape:collect="always">
      <stop
         id="stop4975"
         offset="0"
         style="stop-color:#000000;stop-opacity:1;" />
      <stop
         id="stop4977"
         offset="1"
         style="stop-color:#000000;stop-opacity:0;" />
    </linearGradient>
    <linearGradient
       id="linearGradient4981">
      <stop
         id="stop4983"
         offset="0"
         style="stop-color:#359b58;stop-opacity:1" />
      <stop
         style="stop-color:#72b649;stop-opacity:1"
         offset="0.39414415"
         id="stop4991" />
      <stop
         style="stop-color:#72b649;stop-opacity:1"
         offset="0.5"
         id="stop4989" />
      <stop
         id="stop4985"
         offset="1"
         style="stop-color:#359b58;stop-opacity:1" />
    </linearGradient>
  </defs>
  <sodipodi:namedview
     id="base"
     pagecolor="#d8d8d8"
     bordercolor="#666666"
     borderopacity="1.0"
     inkscape:pageopacity="0"
     inkscape:pageshadow="2"
     inkscape:zoom="45.254834"
     inkscape:cx="1.3147767"
     inkscape:cy="4.2536892"
     inkscape:document-units="px"
     inkscape:current-layer="g8472"
     showgrid="true"
     inkscape:window-width="1920"
     inkscape:window-height="991"
     inkscape:window-x="-9"
     inkscape:window-y="-9"
     inkscape:window-maximized="1"
     showguides="true"
     inkscape:guide-bbox="true"
     inkscape:snap-bbox="true"
     inkscape:bbox-nodes="true"
     inkscape:snap-global="true"
     inkscape:showpageshadow="2"
     inkscape:pagecheckerboard="0"
     inkscape:deskcolor="#d1d1d1">
    <inkscape:grid
       type="xygrid"
       id="grid4164"
       empspacing="5"
       visible="true"
       enabled="true"
       snapvisiblegridlinesonly="true"
       originx="0"
       originy="0"
       spacingy="1"
       spacingx="1"
       units="px" />
  </sodipodi:namedview>
  <metadata
     id="metadata7">
    <rdf:RDF>
      <cc:Work
         rdf:about="">
        <dc:format>image/svg+xml</dc:format>
        <dc:type
           rdf:resource="http://purl.org/dc/dcmitype/StillImage" />
        <dc:title />
      </cc:Work>
    </rdf:RDF>
  </metadata>
  <g
     inkscape:label="Layer 1"
     inkscape:groupmode="layer"
     id="layer1"
     style="display:inline"
     transform="translate(0,-1044.3622)">
    <g
       style="display:inline"
       id="g8472"
       transform="matrix(0.9346781,0,0,0.9346781,-14.571811,69.044514)">
      <g
         transform="matrix(1.0144223,0,0,1.0144223,11.158392,-31.893408)"
         style="display:inline"
         id="layer1-3"
         inkscape:label="Layer 1">
        <g
           id="g5014"
           transform="translate(-3.6239221,22.097086)">
          <g
             id="g5001"
             transform="rotate(45,16.68883,1031.7141)">
            <path
               sodipodi:nodetypes="ccccc"
               inkscape:connector-curvature="0"
               id="rect4944"
               d="m 20.492187,1045.1591 h 0.921876 v 2.4062 c -0.376231,0.2965 -0.615362,0.1856 -0.921876,0 z"
               style="fill:#a5adba;fill-opacity:1;stroke:#17325d;stroke-width:0.5;stroke-linecap:round;stroke-linejoin:round;stroke-miterlimit:4;stroke-dashoffset:0;stroke-opacity:1" />
            <g
               id="g5057">
              <path
                 inkscape:connector-curvature="0"
                 style="color:#000000;font-style:normal;font-variant:normal;font-weight:normal;font-stretch:normal;font-size:medium;line-height:normal;font-family:Sans;-inkscape-font-specification:Sans;text-indent:0;text-align:start;text-decoration:none;text-decoration-line:none;letter-spacing:normal;word-spacing:normal;text-transform:none;writing-mode:lr-tb;direction:ltr;baseline-shift:baseline;text-anchor:start;display:inline;overflow:visible;visibility:visible;opacity:0.5;fill:url(#linearGradient5265);fill-opacity:1;fill-rule:nonzero;stroke:none;stroke-width:0.5;marker:none;enable-background:accumulate"
                 d="m 20.40625,1044.9062 a 0.250025,0.250025 0 0 0 -0.125,0.125 0.250025,0.250025 0 0 0 -0.03125,0.125 v 2.4063 a 0.250025,0.250025 0 0 0 0,0.062 0.250025,0.250025 0 0 0 0.125,0.1562 c 0.159025,0.096 0.31691,0.1983 0.53125,0.2188 0.21434,0.021 0.436009,-0.076 0.65625,-0.25 a 0.250025,0.250025 0 0 0 0.09375,-0.125 0.250025,0.250025 0 0 0 0,-0.062 v -2.4063 a 0.250025,0.250025 0 0 0 0,-0.031 0.250025,0.250025 0 0 0 -0.03125,-0.094 0.250025,0.250025 0 0 0 -0.15625,-0.125 0.250025,0.250025 0 0 0 -0.0625,0 H 20.5 a 0.250025,0.250025 0 0 0 -0.09375,0 z"
                 id="path4971" />
              <path
                 style="display:inline;fill:url(#linearGradient5267);fill-opacity:1;stroke:#00953e;stroke-width:1;stroke-linecap:round;stroke-linejoin:round;stroke-miterlimit:4;stroke-dasharray:none;stroke-dashoffset:0;stroke-opacity:1"
                 d="M 20.9375,6.125 C 19.686416,6.1463072 18.732332,7.2495515 18.53125,8 c 0,0.595432 1.068685,1.09375 2.40625,1.09375 C 22.275065,9.09375 23.375,8.595432 23.375,8 23.179528,7.2704899 22.188584,6.1036928 20.9375,6.125 Z"
                 transform="translate(0,1036.3622)"
                 id="path4884-8"
                 inkscape:connector-curvature="0"
                 sodipodi:nodetypes="zcscz" />
              <path
                 style="fill:url(#linearGradient5269);fill-opacity:1;stroke:#00953e;stroke-width:0.834586;stroke-linecap:round;stroke-linejoin:round;stroke-miterlimit:4;stroke-dasharray:none;stroke-dashoffset:0;stroke-opacity:1"
                 d="m 20.929746,1040.0249 c -0.533598,0 -0.994941,0.084 -1.356203,0.2348 v 2.7676 c 0.361262,0.1504 0.822605,0.2348 1.356203,0.2348 0.487606,0 0.928812,-0.081 1.277961,-0.2087 v -2.8198 c -0.349149,-0.128 -0.790355,-0.2087 -1.277961,-0.2087 z"
                 id="rect4923"
                 inkscape:connector-curvature="0"
                 sodipodi:nodetypes="sccsccs" />
              <ellipse
                 style="fill:#7db551;fill-opacity:1;stroke:#00953e;stroke-width:1;stroke-linecap:round;stroke-linejoin:round;stroke-miterlimit:4;stroke-dasharray:none;stroke-dashoffset:0;stroke-opacity:1"
                 id="path4884"
                 transform="matrix(0.90924832,0,0,0.90924832,2.1288433,1036.5222)"
                 cx="20.703125"
                 cy="3.1406245"
                 rx="2.421875"
                 ry="1.078125" />
            </g>
          </g>
        </g>
      </g>
    </g>
  </g>
</svg>
