<?xml version="1.0" encoding="UTF-8" standalone="no"?>
<!-- Created with Inkscape (http://www.inkscape.org/) -->

<svg
   xmlns:dc="http://purl.org/dc/elements/1.1/"
   xmlns:cc="http://creativecommons.org/ns#"
   xmlns:rdf="http://www.w3.org/1999/02/22-rdf-syntax-ns#"
   xmlns:svg="http://www.w3.org/2000/svg"
   xmlns="http://www.w3.org/2000/svg"
   xmlns:sodipodi="http://sodipodi.sourceforge.net/DTD/sodipodi-0.dtd"
   xmlns:inkscape="http://www.inkscape.org/namespaces/inkscape"
   width="16"
   height="16"
   id="svg2"
   version="1.1"
   inkscape:version="0.48.0 r9654"
   sodipodi:docname="close_view.svg">
  <defs
     id="defs4" />
  <sodipodi:namedview
     id="base"
     pagecolor="#ffffff"
     bordercolor="#666666"
     borderopacity="1.0"
     inkscape:pageopacity="0.0"
     inkscape:pageshadow="2"
     inkscape:zoom="22.627417"
     inkscape:cx="-0.50202027"
     inkscape:cy="5.6112743"
     inkscape:document-units="px"
     inkscape:current-layer="layer1"
     showgrid="true"
     inkscape:window-width="1164"
     inkscape:window-height="982"
     inkscape:window-x="959"
     inkscape:window-y="465"
     inkscape:window-maximized="0"
     inkscape:snap-global="false">
    <inkscape:grid
       type="xygrid"
       id="grid3966"
       empspacing="5"
       visible="true"
       enabled="true"
       snapvisiblegridlinesonly="true" />
  </sodipodi:namedview>
  <metadata
     id="metadata7">
    <rdf:RDF>
      <cc:Work
         rdf:about="">
        <dc:format>image/svg+xml</dc:format>
        <dc:type
           rdf:resource="http://purl.org/dc/dcmitype/StillImage" />
        <dc:title />
      </cc:Work>
    </rdf:RDF>
  </metadata>
  <g
     inkscape:label="Layer 1"
     inkscape:groupmode="layer"
     id="layer1"
     style="display:inline"
     transform="translate(0,-1036.3622)">
    <g
       style="display:inline"
       id="g4794"
       transform="matrix(0.97551468,0,0,0.97551468,9.2809852,25.497327)">
      <path
         sodipodi:nodetypes="ccccccccccccccccccccccccccc"
         inkscape:connector-curvature="0"
         d="m 2.796863,1041.331 -2,0 -2.6406003,2.6406 1.3276001,0.7665 2.3601002,-2.36 0.9217,0 z m -4.8901003,3.8126 -2.3601,2.36 -0.9217,0 -0.0312,1.0471 2,0 2.6406,-2.6406 m 3.5625123,2.6405 -2,0 -2.640625,-2.6406 1.3276191,-0.7665 2.3600659,2.36 0.92169,0 z m -8.203125,-7.2196 2,0 2.640625,2.6406 -1.3276191,0.7665 -2.3600661,-2.3601 -0.9216898,0 z"
         style="fill:#000000;fill-opacity:1;stroke:none;display:inline"
         id="path3981-1-1" />
      <path
         transform="translate(0,1036.3622)"
         inkscape:connector-curvature="0"
         id="path4791"
         d="m -0.97227183,7.1390681 -0.22097087,-0.044194 -0.4861359,0.022097 -0.5524272,0.4640389 0.1325825,0.6408155 0,0.9059806 0.3756505,0.9501749 0.79549515,0 0.4550512,-0.1219308 0,-1.0050208 -0.0573036,-0.066291 0,-0.8396893 z"
         style="fill:#000000;fill-opacity:1;stroke:none" />
    </g>
  </g>
</svg>
