<?xml version="1.0" encoding="UTF-8" standalone="no"?>
<!-- Created with Inkscape (http://www.inkscape.org/) -->

<svg
   xmlns:dc="http://purl.org/dc/elements/1.1/"
   xmlns:cc="http://creativecommons.org/ns#"
   xmlns:rdf="http://www.w3.org/1999/02/22-rdf-syntax-ns#"
   xmlns:svg="http://www.w3.org/2000/svg"
   xmlns="http://www.w3.org/2000/svg"
   xmlns:sodipodi="http://sodipodi.sourceforge.net/DTD/sodipodi-0.dtd"
   xmlns:inkscape="http://www.inkscape.org/namespaces/inkscape"
   width="16"
   height="16"
   id="svg2"
   version="1.1"
   inkscape:version="0.91 r"
   sodipodi:docname="javadoc.svg">
  <defs
     id="defs4" />
  <sodipodi:namedview
     id="base"
     pagecolor="#ffffff"
     bordercolor="#666666"
     borderopacity="1.0"
     inkscape:pageopacity="0.0"
     inkscape:pageshadow="2"
     inkscape:zoom="63.999997"
     inkscape:cx="4.777901"
     inkscape:cy="7.7058173"
     inkscape:document-units="px"
     inkscape:current-layer="text3909-7-7-1"
     showgrid="true"
     inkscape:window-width="1177"
     inkscape:window-height="823"
     inkscape:window-x="1199"
     inkscape:window-y="592"
     inkscape:window-maximized="0"
     inkscape:snap-global="false">
    <inkscape:grid
       type="xygrid"
       id="grid3896" />
  </sodipodi:namedview>
  <metadata
     id="metadata7">
    <rdf:RDF>
      <cc:Work
         rdf:about="">
        <dc:format>image/svg+xml</dc:format>
        <dc:type
           rdf:resource="http://purl.org/dc/dcmitype/StillImage" />
        <dc:title />
      </cc:Work>
    </rdf:RDF>
  </metadata>
  <g
     inkscape:label="Layer 1"
     inkscape:groupmode="layer"
     id="layer1"
     style="display:inline"
     transform="translate(0,-1036.3622)">
    <path
       style="fill:#ffffff;stroke:none;stroke-width:1px;stroke-linecap:butt;stroke-linejoin:miter;stroke-opacity:1;fill-opacity:1"
       d="m 11.828126,11.46875 0.04687,-1.9687503 c 0,0 0.375,-0.5625 0.390625,-0.65625 0.01563,-0.09375 0.25,-2.0156251 0.25,-2.0156251 l -0.46875,-1.6093751 -1.375001,-1.2343751 -2.2499996,-0.375 -1.0625001,0.109375 c 0,0 -1.203125,0.5156251 -1.296875,0.5625001 -0.09375,0.046875 -1.1250001,0.796875 -1.1250001,0.796875 l -0.390625,0.71875 c 0,0 -0.5625,1.4687501 -0.578125,1.7187501 -0.015625,0.25 -0.25,2.0937501 -0.25,2.1718751 0,0.078125 0.53125,0.9687503 0.75,1.1875003 0.21875,0.21875 0.25,0.765625 0.59375,0.90625 0.3437501,0.140625 1.9531251,0.65625 1.9531251,0.65625 L 8.7187504,12.640625 10.375,12.21875 z"
       id="path2987"
       inkscape:connector-curvature="0"
       transform="translate(0,1036.3622)" />
    <g
       style="font-size:11.05178356px;font-style:normal;font-variant:normal;font-weight:normal;font-stretch:normal;text-align:start;line-height:125%;letter-spacing:0px;word-spacing:0px;writing-mode:lr-tb;text-anchor:start;fill:#005597;fill-opacity:1;stroke:#005597;stroke-width:0.1;stroke-miterlimit:4;stroke-opacity:1;display:inline;font-family:AustralianFlyingCorpsStencil;-inkscape-font-specification:AustralianFlyingCorpsStencil"
       id="text3909-7-7-1"
       transform="translate(20,0)">
      <path
         d="m -7.2191854,1043.532 c -9.8e-6,0.8694 -0.2357809,1.6504 -0.7073142,2.343 -0.5231262,0.7883 -1.2009683,1.1825 -2.0335281,1.1825 -0.3315603,0 -0.6115383,-0.085 -0.8399353,-0.2542 -0.250513,-0.1916 -0.379451,-0.4494 -0.386813,-0.7736 -0.397869,0.6778 -0.902567,1.0167 -1.514094,1.0167 -0.552593,0 -0.987296,-0.1694 -1.304111,-0.5083 -0.31682,-0.3463 -0.475229,-0.7995 -0.475226,-1.3594 -3e-6,-0.7736 0.279976,-1.4699 0.839935,-2.0888 0.559953,-0.6189 1.219376,-0.9283 1.97827,-0.9283 0.729411,0 1.123591,0.3094 1.18254,0.9283 l 0.24314,-0.8068 1.259903,0 c -0.2063077,0.6558 -0.4089236,1.3115 -0.6078481,1.9672 -0.2799856,0.9358 -0.4199749,1.5657 -0.4199679,1.8899 -7e-6,0.3389 0.1215627,0.5084 0.364709,0.5084 0.1105104,0 0.2615513,-0.059 0.4531231,-0.1769 1.0167553,-0.6262 1.5251368,-1.6025 1.5251461,-2.9287 -9.3e-6,-1.0241 -0.3462981,-1.8382 -1.0388676,-2.4424 -0.6631146,-0.5673 -1.5141016,-0.851 -2.5529616,-0.851 -1.304115,0 -2.379821,0.4605 -3.227121,1.3815 -0.817834,0.8915 -1.226749,1.9967 -1.226748,3.3155 -10e-7,1.201 0.372075,2.144 1.11623,2.8293 0.714679,0.6557 1.679867,0.9836 2.895567,0.9836 1.090437,0 2.232453,-0.3721 3.4260531,-1.1163 l 0.2431393,0.3537 c -1.0757148,0.8252 -2.2914094,1.2378 -3.6470884,1.2378 -1.473575,0 -2.674534,-0.361 -3.602882,-1.0831 -1.009397,-0.7957 -1.514094,-1.9119 -1.514094,-3.3487 0,-1.4514 0.545221,-2.6598 1.635664,-3.625 1.0536,-0.9357 2.313503,-1.4035 3.77971,-1.4035 1.200954,0 2.1808775,0.3205 2.9397744,0.9615 0.8104548,0.6926 1.2156864,1.6246 1.2156962,2.7961 m -3.6139336,-0.3537 c -6e-6,-0.361 -0.162098,-0.5415 -0.486278,-0.5415 -0.456812,0 -0.869412,0.4236 -1.2378,1.2709 -0.32419,0.7295 -0.486282,1.3594 -0.486278,1.8899 -4e-6,0.5084 0.198928,0.7626 0.596796,0.7626 0.397859,0 0.780987,-0.4716 1.149385,-1.4147 0.309444,-0.8104 0.464169,-1.4662 0.464175,-1.9672"
         id="path4719"
         inkscape:connector-curvature="0"
         style="stroke:none" />
    </g>
  </g>
</svg>
