<?xml version="1.0" encoding="UTF-8" standalone="no"?>
<!-- Created with Inkscape (http://www.inkscape.org/) -->

<svg
   xmlns:dc="http://purl.org/dc/elements/1.1/"
   xmlns:cc="http://creativecommons.org/ns#"
   xmlns:rdf="http://www.w3.org/1999/02/22-rdf-syntax-ns#"
   xmlns:svg="http://www.w3.org/2000/svg"
   xmlns="http://www.w3.org/2000/svg"
   xmlns:xlink="http://www.w3.org/1999/xlink"
   xmlns:sodipodi="http://sodipodi.sourceforge.net/DTD/sodipodi-0.dtd"
   xmlns:inkscape="http://www.inkscape.org/namespaces/inkscape"
   width="16"
   height="16"
   id="svg2"
   version="1.1"
   inkscape:version="0.48.0 r9654"
   sodipodi:docname="workingsets.svg">
  <defs
     id="defs4">
    <filter
       inkscape:collect="always"
       id="filter19612"
       x="-0.17105568"
       width="1.3421114"
       y="-0.18993131"
       height="1.3798626">
      <feGaussianBlur
         inkscape:collect="always"
         stdDeviation="0.74211708"
         id="feGaussianBlur19614" />
    </filter>
    <linearGradient
       inkscape:collect="always"
       id="linearGradient3967-7">
      <stop
         style="stop-color:#c48a4e;stop-opacity:1;"
         offset="0"
         id="stop3969-4" />
      <stop
         style="stop-color:#ad6c24;stop-opacity:1"
         offset="1"
         id="stop3971-0" />
    </linearGradient>
    <linearGradient
       inkscape:collect="always"
       id="linearGradient3973-4">
      <stop
         style="stop-color:#f8d078;stop-opacity:1"
         offset="0"
         id="stop3975-8" />
      <stop
         style="stop-color:#f8f0c8;stop-opacity:1"
         offset="1"
         id="stop3977-8" />
    </linearGradient>
    <linearGradient
       id="linearGradient3949-45"
       inkscape:collect="always">
      <stop
         id="stop3951-5"
         offset="0"
         style="stop-color:#9e6627;stop-opacity:1" />
      <stop
         id="stop3953-1"
         offset="1"
         style="stop-color:#c38536;stop-opacity:1" />
    </linearGradient>
    <linearGradient
       id="linearGradient3955-1">
      <stop
         style="stop-color:#c38536;stop-opacity:1"
         offset="0"
         id="stop3957-5" />
      <stop
         id="stop3959-27"
         offset="0.15381166"
         style="stop-color:#f2dc91;stop-opacity:1" />
      <stop
         id="stop3961-61"
         offset="0.5"
         style="stop-color:#fbdc8b;stop-opacity:1" />
      <stop
         style="stop-color:#e6bd7a;stop-opacity:1"
         offset="0.75"
         id="stop3963-4" />
      <stop
         style="stop-color:#ba772f;stop-opacity:1"
         offset="1"
         id="stop3965-2" />
    </linearGradient>
    <filter
       color-interpolation-filters="sRGB"
       inkscape:collect="always"
       id="filter19612-6"
       x="-0.17105567"
       width="1.3421113"
       y="-0.1899313"
       height="1.3798625">
      <feGaussianBlur
         inkscape:collect="always"
         stdDeviation="0.74211708"
         id="feGaussianBlur19614-5" />
    </filter>
    <linearGradient
       inkscape:collect="always"
       id="linearGradient3967-7-6">
      <stop
         style="stop-color:#c48a4e;stop-opacity:1;"
         offset="0"
         id="stop3969-4-9" />
      <stop
         style="stop-color:#ad6c24;stop-opacity:1"
         offset="1"
         id="stop3971-0-8" />
    </linearGradient>
    <linearGradient
       inkscape:collect="always"
       id="linearGradient3973-4-2">
      <stop
         style="stop-color:#f8d078;stop-opacity:1"
         offset="0"
         id="stop3975-8-0" />
      <stop
         style="stop-color:#f8f0c8;stop-opacity:1"
         offset="1"
         id="stop3977-8-6" />
    </linearGradient>
    <linearGradient
       id="linearGradient3949-45-0"
       inkscape:collect="always">
      <stop
         id="stop3951-5-9"
         offset="0"
         style="stop-color:#9e6627;stop-opacity:1" />
      <stop
         id="stop3953-1-7"
         offset="1"
         style="stop-color:#c38536;stop-opacity:1" />
    </linearGradient>
    <linearGradient
       id="linearGradient3955-1-7">
      <stop
         style="stop-color:#c38536;stop-opacity:1"
         offset="0"
         id="stop3957-5-4" />
      <stop
         id="stop3959-27-7"
         offset="0.15381166"
         style="stop-color:#f2dc91;stop-opacity:1" />
      <stop
         id="stop3961-61-6"
         offset="0.5"
         style="stop-color:#fbdc8b;stop-opacity:1" />
      <stop
         style="stop-color:#e6bd7a;stop-opacity:1"
         offset="0.75"
         id="stop3963-4-2" />
      <stop
         style="stop-color:#ba772f;stop-opacity:1"
         offset="1"
         id="stop3965-2-5" />
    </linearGradient>
    <linearGradient
       inkscape:collect="always"
       xlink:href="#linearGradient3955-1-7"
       id="linearGradient11220"
       gradientUnits="userSpaceOnUse"
       gradientTransform="matrix(0.33025864,0,0,0.33025864,-167.65045,916.69385)"
       x1="525.6676"
       y1="373.2294"
       x2="543.91406"
       y2="373.2294" />
    <linearGradient
       inkscape:collect="always"
       xlink:href="#linearGradient3973-4-2"
       id="linearGradient11223"
       gradientUnits="userSpaceOnUse"
       gradientTransform="matrix(0.31447743,0,0,0.31447743,-159.13946,922.26692)"
       x1="538.00562"
       y1="396.2229"
       x2="538.00562"
       y2="374.21222" />
    <linearGradient
       inkscape:collect="always"
       xlink:href="#linearGradient3949-45-0"
       id="linearGradient11225"
       gradientUnits="userSpaceOnUse"
       gradientTransform="matrix(0.31447743,0,0,0.31447743,-159.13946,922.26692)"
       x1="548.45923"
       y1="398.98798"
       x2="548.45923"
       y2="373.77069" />
    <linearGradient
       inkscape:collect="always"
       xlink:href="#linearGradient3967-7-6"
       id="linearGradient11228"
       gradientUnits="userSpaceOnUse"
       gradientTransform="matrix(0.33025864,0,0,0.33025864,-167.88604,916.70259)"
       x1="531.09253"
       y1="366.78851"
       x2="531.09253"
       y2="371.17883" />
    <linearGradient
       inkscape:collect="always"
       xlink:href="#linearGradient3955-1"
       id="linearGradient11236"
       gradientUnits="userSpaceOnUse"
       gradientTransform="matrix(0.33025864,0,0,0.33025864,-172.2775,919.93882)"
       x1="525.6676"
       y1="373.2294"
       x2="543.91406"
       y2="373.2294" />
    <linearGradient
       inkscape:collect="always"
       xlink:href="#linearGradient3973-4"
       id="linearGradient11239"
       gradientUnits="userSpaceOnUse"
       gradientTransform="matrix(0.31447743,0,0,0.31447743,-163.76651,925.51189)"
       x1="538.00562"
       y1="396.2229"
       x2="538.00562"
       y2="374.21222" />
    <linearGradient
       inkscape:collect="always"
       xlink:href="#linearGradient3949-45"
       id="linearGradient11241"
       gradientUnits="userSpaceOnUse"
       gradientTransform="matrix(0.31447743,0,0,0.31447743,-163.76651,925.51189)"
       x1="548.45923"
       y1="398.98798"
       x2="548.45923"
       y2="373.77069" />
    <linearGradient
       inkscape:collect="always"
       xlink:href="#linearGradient3967-7"
       id="linearGradient11244"
       gradientUnits="userSpaceOnUse"
       gradientTransform="matrix(0.33025864,0,0,0.33025864,-172.51309,919.94756)"
       x1="531.09253"
       y1="366.78851"
       x2="531.09253"
       y2="371.17883" />
  </defs>
  <sodipodi:namedview
     id="base"
     pagecolor="#ffffff"
     bordercolor="#666666"
     borderopacity="1.0"
     inkscape:pageopacity="0.0"
     inkscape:pageshadow="2"
     inkscape:zoom="32"
     inkscape:cx="4.2706096"
     inkscape:cy="7.415379"
     inkscape:document-units="px"
     inkscape:current-layer="g11349"
     showgrid="true"
     inkscape:window-width="1098"
     inkscape:window-height="919"
     inkscape:window-x="983"
     inkscape:window-y="638"
     inkscape:window-maximized="0"
     inkscape:snap-global="false"
     showguides="true"
     inkscape:guide-bbox="true">
    <inkscape:grid
       type="xygrid"
       id="grid3939" />
  </sodipodi:namedview>
  <metadata
     id="metadata7">
    <rdf:RDF>
      <cc:Work
         rdf:about="">
        <dc:format>image/svg+xml</dc:format>
        <dc:type
           rdf:resource="http://purl.org/dc/dcmitype/StillImage" />
        <dc:title />
      </cc:Work>
    </rdf:RDF>
  </metadata>
  <g
     inkscape:label="Layer 1"
     inkscape:groupmode="layer"
     id="layer1"
     style="display:inline"
     transform="translate(0,-1036.3622)">
    <g
       id="g11349"
       transform="matrix(0.89017036,0,0,0.89017036,0.83301922,114.20596)">
      <path
         sodipodi:nodetypes="sssssssss"
         inkscape:connector-curvature="0"
         id="rect13693-3-3-5"
         d="m 7.3717309,1037.7989 2.282522,0 c 0.4802781,0 0.8669291,0.3866 0.8669291,0.8669 l 0,3.7567 c 0,0.4803 -0.386651,0.8669 -0.8669291,0.8669 l -2.282522,0 c -0.480279,0 -0.866929,-0.3866 -0.866929,-0.8669 l 0,-3.7567 c 0,-0.4803 0.38665,-0.8669 0.866929,-0.8669 z"
         style="fill:#ffffff;fill-opacity:1;stroke:#ffffff;stroke-width:2;stroke-linecap:round;stroke-linejoin:round;stroke-miterlimit:4;stroke-opacity:1;stroke-dasharray:none;stroke-dashoffset:0;display:inline;filter:url(#filter19612-6)" />
      <path
         sodipodi:nodetypes="cssssssssc"
         inkscape:connector-curvature="0"
         id="rect13693-4-0"
         d="m 8.1226959,1039.5185 6.6784301,0 c 0.480278,0 0.866929,0.3867 0.866929,0.867 l 0,5.924 c 0,0.4803 -0.386647,0.8675 -0.866929,0.8669 l -8.6784301,-0.01 c -0.480282,-6e-4 -0.866929,-0.3866 -0.866929,-0.8669 l 0,-5.9174 c 0,-0.4802 0.700039,-0.8672 0.866929,-0.8669 z"
         style="fill:#ffffff;fill-opacity:1;stroke:#ffffff;stroke-width:2;stroke-linecap:round;stroke-linejoin:round;stroke-miterlimit:4;stroke-opacity:1;stroke-dasharray:none;stroke-dashoffset:0;filter:url(#filter19612-6)" />
      <path
         sodipodi:nodetypes="cc"
         inkscape:connector-curvature="0"
         id="path13797-1-1"
         d="m 5.9529699,1039.5187 5.6986341,0"
         style="fill:#ffffff;stroke:#ffffff;stroke-width:2;stroke-linecap:round;stroke-linejoin:round;stroke-miterlimit:4;stroke-opacity:1;stroke-dasharray:none;filter:url(#filter19612-6)" />
      <path
         style="fill:#fdf7eb;fill-opacity:1;stroke:url(#linearGradient11228);stroke-width:1;stroke-linecap:round;stroke-linejoin:round;stroke-miterlimit:4;stroke-opacity:1;stroke-dasharray:none;stroke-dashoffset:0;display:inline"
         d="m 7.3404809,1037.924 2.282522,0 c 0.4802781,0 0.8669291,0.3866 0.8669291,0.8669 l 0,3.7566 c 0,0.4802 -0.386651,0.8669 -0.8669291,0.8669 l -2.282522,0 c -0.480279,0 -0.866929,-0.3867 -0.866929,-0.8669 l 0,-3.7566 c 0,-0.4803 0.38665,-0.8669 0.866929,-0.8669 z"
         id="rect13693-3-6"
         inkscape:connector-curvature="0"
         sodipodi:nodetypes="sssssssss" />
      <path
         style="fill:url(#linearGradient11223);fill-opacity:1;stroke:url(#linearGradient11225);stroke-width:1;stroke-linecap:round;stroke-linejoin:round;stroke-miterlimit:4;stroke-opacity:1;stroke-dasharray:none;stroke-dashoffset:0;display:inline"
         d="m 8.234474,1039.9514 6.359305,0 c 0.457329,0 0.825504,0.3683 0.825504,0.8256 l 0,5.3284 c 0,0.4574 -0.368172,0.826 -0.825504,0.8255 l -8.2637362,-0.01 c -0.457332,-6e-4 -0.8255033,-0.3681 -0.8255033,-0.8255 l 0,-5.3221 c 0,-0.4572 0.3541007,-0.8264 0.8255033,-0.8255 z"
         id="rect13693-7"
         inkscape:connector-curvature="0"
         sodipodi:nodetypes="cssssssssc" />
      <path
         style="fill:none;stroke:url(#linearGradient11220);stroke-width:1;stroke-linecap:butt;stroke-linejoin:miter;stroke-miterlimit:4;stroke-opacity:1;stroke-dasharray:none;display:inline"
         d="m 5.9529699,1039.9561 5.6986341,0"
         id="path13797-0"
         inkscape:connector-curvature="0"
         sodipodi:nodetypes="cc" />
      <path
         sodipodi:nodetypes="sssssssss"
         inkscape:connector-curvature="0"
         id="rect13693-3-3"
         d="m 2.7446881,1041.0439 2.282522,0 c 0.480278,0 0.866929,0.3866 0.866929,0.8669 l 0,3.7567 c 0,0.4803 -0.386651,0.8669 -0.866929,0.8669 l -2.282522,0 c -0.480279,0 -0.866929,-0.3866 -0.866929,-0.8669 l 0,-3.7567 c 0,-0.4803 0.38665,-0.8669 0.866929,-0.8669 z"
         style="fill:#ffffff;fill-opacity:1;stroke:#ffffff;stroke-width:2;stroke-linecap:round;stroke-linejoin:round;stroke-miterlimit:4;stroke-opacity:1;stroke-dasharray:none;stroke-dashoffset:0;display:inline;filter:url(#filter19612)" />
      <path
         sodipodi:nodetypes="cssssssssc"
         inkscape:connector-curvature="0"
         id="rect13693-4"
         d="m 3.4956531,1042.7635 6.6784299,0 c 0.480278,0 0.866929,0.3867 0.866929,0.867 l 0,5.924 c 0,0.4803 -0.386647,0.8675 -0.866929,0.8669 l -8.6784299,-0.01 c -0.480282,-6e-4 -0.866929,-0.3866 -0.866929,-0.8669 l 0,-5.9174 c 0,-0.4802 0.700039,-0.8672 0.866929,-0.8669 z"
         style="fill:#ffffff;fill-opacity:1;stroke:#ffffff;stroke-width:2;stroke-linecap:round;stroke-linejoin:round;stroke-miterlimit:4;stroke-opacity:1;stroke-dasharray:none;stroke-dashoffset:0;filter:url(#filter19612)" />
      <path
         sodipodi:nodetypes="cc"
         inkscape:connector-curvature="0"
         id="path13797-1"
         d="m 1.3259271,1042.7637 5.698634,0"
         style="fill:#ffffff;stroke:#ffffff;stroke-width:2;stroke-linecap:round;stroke-linejoin:round;stroke-miterlimit:4;stroke-opacity:1;stroke-dasharray:none;filter:url(#filter19612)" />
      <path
         style="fill:#fdf7eb;fill-opacity:1;stroke:url(#linearGradient11244);stroke-width:1;stroke-linecap:round;stroke-linejoin:round;stroke-miterlimit:4;stroke-opacity:1;stroke-dasharray:none;stroke-dashoffset:0;display:inline"
         d="m 2.7134381,1041.169 2.282522,0 c 0.480278,0 0.866929,0.3866 0.866929,0.8669 l 0,3.7566 c 0,0.4802 -0.386651,0.8669 -0.866929,0.8669 l -2.282522,0 c -0.480279,0 -0.866929,-0.3867 -0.866929,-0.8669 l 0,-3.7566 c 0,-0.4803 0.38665,-0.8669 0.866929,-0.8669 z"
         id="rect13693-3"
         inkscape:connector-curvature="0"
         sodipodi:nodetypes="sssssssss" />
      <path
         style="fill:url(#linearGradient11239);fill-opacity:1;stroke:url(#linearGradient11241);stroke-width:1;stroke-linecap:round;stroke-linejoin:round;stroke-miterlimit:4;stroke-opacity:1;stroke-dasharray:none;stroke-dashoffset:0;display:inline"
         d="m 3.6074312,1043.1964 6.3593049,0 c 0.4573289,0 0.8255039,0.3683 0.8255039,0.8256 l 0,5.3284 c 0,0.4574 -0.368172,0.826 -0.8255039,0.8255 L 1.703,1050.1659 c -0.457332,-6e-4 -0.8255033,-0.3681 -0.8255033,-0.8255 l 0,-5.3221 c 0,-0.4572 0.3541007,-0.8264 0.8255033,-0.8255 z"
         id="rect13693"
         inkscape:connector-curvature="0"
         sodipodi:nodetypes="cssssssssc" />
      <path
         style="fill:none;stroke:url(#linearGradient11236);stroke-width:1;stroke-linecap:butt;stroke-linejoin:miter;stroke-miterlimit:4;stroke-opacity:1;stroke-dasharray:none;display:inline"
         d="m 1.3259271,1043.2011 5.698634,0"
         id="path13797"
         inkscape:connector-curvature="0"
         sodipodi:nodetypes="cc" />
    </g>
    <path
       sodipodi:type="arc"
       style="fill:#ffffff;fill-opacity:1;stroke:none"
       id="path11406"
       sodipodi:cx="-18.605747"
       sodipodi:cy="-7.0472617"
       sodipodi:rx="0.044194173"
       sodipodi:ry="0.022097087"
       d="m -18.561553,-7.0472617 c 0,0.012204 -0.01979,0.022097 -0.04419,0.022097 -0.02441,0 -0.04419,-0.00989 -0.04419,-0.022097 0,-0.012204 0.01979,-0.022097 0.04419,-0.022097 0.02441,0 0.04419,0.00989 0.04419,0.022097 z"
       transform="translate(0,1036.3622)" />
    <path
       sodipodi:type="arc"
       style="fill:#000000;fill-opacity:1;stroke:none"
       id="path11408"
       sodipodi:cx="-6.5186405"
       sodipodi:cy="16.640816"
       sodipodi:rx="0.99436891"
       sodipodi:ry="0.99436891"
       d="m -5.5242716,16.640816 c 0,0.549175 -0.4451941,0.994369 -0.9943689,0.994369 -0.5491748,0 -0.9943689,-0.445194 -0.9943689,-0.994369 0,-0.549175 0.4451941,-0.994369 0.9943689,-0.994369 0.5491748,0 0.9943689,0.445194 0.9943689,0.994369 z"
       transform="matrix(0.95555553,0,0,0.95555553,7.1790979,1035.4666)" />
    <path
       sodipodi:type="arc"
       style="fill:#000000;fill-opacity:1;stroke:none;display:inline"
       id="path11408-0"
       sodipodi:cx="-6.5186405"
       sodipodi:cy="16.640816"
       sodipodi:rx="0.99436891"
       sodipodi:ry="0.99436891"
       d="m -5.5242716,16.640816 c 0,0.549175 -0.4451941,0.994369 -0.9943689,0.994369 -0.5491748,0 -0.9943689,-0.445194 -0.9943689,-0.994369 0,-0.549175 0.4451941,-0.994369 0.9943689,-0.994369 0.5491748,0 0.9943689,0.445194 0.9943689,0.994369 z"
       transform="matrix(1.0666666,0,0,1.0666666,21.890848,1033.5071)" />
    <path
       sodipodi:type="arc"
       style="fill:#000000;fill-opacity:1;stroke:none;display:inline"
       id="path11408-0-3"
       sodipodi:cx="-6.5186405"
       sodipodi:cy="16.640816"
       sodipodi:rx="0.99436891"
       sodipodi:ry="0.99436891"
       d="m -5.5242716,16.640816 c 0,0.549175 -0.4451941,0.994369 -0.9943689,0.994369 -0.5491748,0 -0.9943689,-0.445194 -0.9943689,-0.994369 0,-0.549175 0.4451941,-0.994369 0.9943689,-0.994369 0.5491748,0 0.9943689,0.445194 0.9943689,0.994369 z"
       transform="translate(21.522563,1020.7174)" />
    <path
       sodipodi:type="arc"
       style="fill:#000000;fill-opacity:1;stroke:none;display:inline"
       id="path11408-0-3-8"
       sodipodi:cx="-6.5186405"
       sodipodi:cy="16.640816"
       sodipodi:rx="0.99436891"
       sodipodi:ry="0.99436891"
       d="m -5.5242716,16.640816 c 0,0.549175 -0.4451941,0.994369 -0.9943689,0.994369 -0.5491748,0 -0.9943689,-0.445194 -0.9943689,-0.994369 0,-0.549175 0.4451941,-0.994369 0.9943689,-0.994369 0.5491748,0 0.9943689,0.445194 0.9943689,0.994369 z"
       transform="matrix(1.0222222,0,0,1.0222222,7.7241592,1020.3697)" />
  </g>
</svg>
