<?xml version="1.0" encoding="UTF-8" standalone="no"?>
<!-- Created with Inkscape (http://www.inkscape.org/) -->

<svg
   xmlns:dc="http://purl.org/dc/elements/1.1/"
   xmlns:cc="http://creativecommons.org/ns#"
   xmlns:rdf="http://www.w3.org/1999/02/22-rdf-syntax-ns#"
   xmlns:svg="http://www.w3.org/2000/svg"
   xmlns="http://www.w3.org/2000/svg"
   xmlns:xlink="http://www.w3.org/1999/xlink"
   xmlns:sodipodi="http://sodipodi.sourceforge.net/DTD/sodipodi-0.dtd"
   xmlns:inkscape="http://www.inkscape.org/namespaces/inkscape"
   width="16"
   height="16"
   id="svg2"
   version="1.1"
   inkscape:version="0.91 r13725"
   sodipodi:docname="generic_editor.svg">
  <defs
     id="defs4">
    <linearGradient
       inkscape:collect="always"
       xlink:href="#linearGradient5135-7"
       id="linearGradient4873-1"
       x1="7.0070496"
       y1="1051.8571"
       x2="12.016466"
       y2="1051.8571"
       gradientUnits="userSpaceOnUse"
       gradientTransform="translate(-37.736949,1.2700771)" />
    <linearGradient
       id="linearGradient5135-7"
       inkscape:collect="always">
      <stop
         id="stop5137-4"
         offset="0"
         style="stop-color:#91a5c7;stop-opacity:1;" />
      <stop
         id="stop5139-0"
         offset="1"
         style="stop-color:#637aa7;stop-opacity:1" />
    </linearGradient>
    <linearGradient
       inkscape:collect="always"
       xlink:href="#linearGradient5141-4"
       id="linearGradient4875-9"
       x1="7.0070496"
       y1="1049.8571"
       x2="14"
       y2="1049.8571"
       gradientUnits="userSpaceOnUse"
       gradientTransform="matrix(1.0010081,0,0,1,-37.744013,1.2804705)" />
    <linearGradient
       id="linearGradient5141-4"
       inkscape:collect="always">
      <stop
         id="stop5143-8"
         offset="0"
         style="stop-color:#91a5c7;stop-opacity:1;" />
      <stop
         id="stop5145-8"
         offset="1"
         style="stop-color:#637aa7;stop-opacity:1" />
    </linearGradient>
    <linearGradient
       inkscape:collect="always"
       xlink:href="#linearGradient5147-4"
       id="linearGradient4871-2"
       x1="7.0070496"
       y1="1047.8571"
       x2="14"
       y2="1047.8571"
       gradientUnits="userSpaceOnUse"
       gradientTransform="matrix(1.0010081,0,0,1,-37.744013,1.2804705)" />
    <linearGradient
       id="linearGradient5147-4"
       inkscape:collect="always">
      <stop
         id="stop5149-5"
         offset="0"
         style="stop-color:#91a5c7;stop-opacity:1;" />
      <stop
         id="stop5151-5"
         offset="1"
         style="stop-color:#637aa7;stop-opacity:1" />
    </linearGradient>
    <linearGradient
       inkscape:collect="always"
       xlink:href="#linearGradient4861-1"
       id="linearGradient4869-17"
       x1="7.0070496"
       y1="1045.8571"
       x2="14"
       y2="1045.8571"
       gradientUnits="userSpaceOnUse"
       gradientTransform="matrix(1.0010081,0,0,1,-37.744013,1.2804705)" />
    <linearGradient
       inkscape:collect="always"
       id="linearGradient4861-1">
      <stop
         style="stop-color:#91a5c7;stop-opacity:1;"
         offset="0"
         id="stop4863-1" />
      <stop
         style="stop-color:#637aa7;stop-opacity:1"
         offset="1"
         id="stop4865-52" />
    </linearGradient>
    <linearGradient
       inkscape:collect="always"
       xlink:href="#linearGradient4877-6"
       id="linearGradient4867-7"
       x1="7.0070496"
       y1="1043.8571"
       x2="11"
       y2="1043.8571"
       gradientUnits="userSpaceOnUse"
       gradientTransform="translate(-37.736949,1.2700771)" />
    <linearGradient
       id="linearGradient4877-6"
       inkscape:collect="always">
      <stop
         id="stop4879-1"
         offset="0"
         style="stop-color:#91a5c7;stop-opacity:1;" />
      <stop
         id="stop4881-4"
         offset="1"
         style="stop-color:#5e76a3;stop-opacity:1" />
    </linearGradient>
    <linearGradient
       inkscape:collect="always"
       xlink:href="#linearGradient4902-3"
       id="linearGradient4908-2"
       x1="10.544736"
       y1="1038.5779"
       x2="10.544736"
       y2="1052.3228"
       gradientUnits="userSpaceOnUse"
       gradientTransform="matrix(0.99095428,0,0,1.0031864,-37.658076,-0.08475452)" />
    <linearGradient
       inkscape:collect="always"
       id="linearGradient4902-3">
      <stop
         style="stop-color:#bfb688;stop-opacity:1"
         offset="0"
         id="stop4904-2" />
      <stop
         style="stop-color:#8392b0;stop-opacity:1"
         offset="1"
         id="stop4906-2" />
    </linearGradient>
    <linearGradient
       inkscape:collect="always"
       xlink:href="#linearGradient4894-6"
       id="linearGradient4900-1"
       x1="7.9987183"
       y1="1042.2307"
       x2="9.9874563"
       y2="1040.3303"
       gradientUnits="userSpaceOnUse"
       gradientTransform="translate(-33.706521,3.2796435)" />
    <linearGradient
       inkscape:collect="always"
       id="linearGradient4894-6">
      <stop
         style="stop-color:#e0c88f;stop-opacity:1"
         offset="0"
         id="stop4896-8" />
      <stop
         style="stop-color:#d5b269;stop-opacity:1"
         offset="1"
         id="stop4898-5" />
    </linearGradient>
    <linearGradient
       inkscape:collect="always"
       id="linearGradient4994-6">
      <stop
         style="stop-color:#f9fafc;stop-opacity:1;"
         offset="0"
         id="stop4996-1" />
      <stop
         style="stop-color:#dce7f7;stop-opacity:1"
         offset="1"
         id="stop4998-89" />
    </linearGradient>
    <linearGradient
       y2="1051.8378"
       x2="9.8946028"
       y1="1039.153"
       x1="9.8946028"
       gradientUnits="userSpaceOnUse"
       id="linearGradient4101"
       xlink:href="#linearGradient4994-6"
       inkscape:collect="always"
       gradientTransform="matrix(0.89359064,0,0,0.9258402,-36.62284,80.770548)" />
    <linearGradient
       inkscape:collect="always"
       xlink:href="#linearGradient4902-3"
       id="linearGradient4908-2-6"
       x1="10.544736"
       y1="1038.5779"
       x2="10.544736"
       y2="1052.3228"
       gradientUnits="userSpaceOnUse"
       gradientTransform="matrix(0.99095428,0,0,1.0031864,-39.658076,-2.0847625)" />
    <linearGradient
       y2="1051.8378"
       x2="9.8946028"
       y1="1039.153"
       x1="9.8946028"
       gradientUnits="userSpaceOnUse"
       id="linearGradient4101-1"
       xlink:href="#linearGradient4994-6"
       inkscape:collect="always"
       gradientTransform="matrix(0.89359064,0,0,0.9258402,-38.62284,78.770547)" />
    <linearGradient
       inkscape:collect="always"
       xlink:href="#linearGradient4902-3"
       id="linearGradient4908-2-7"
       x1="10.544736"
       y1="1038.5779"
       x2="10.544736"
       y2="1052.3228"
       gradientUnits="userSpaceOnUse"
       gradientTransform="matrix(0.99095428,0,0,1.0031864,16.052444,-4.3521)" />
    <linearGradient
       inkscape:collect="always"
       xlink:href="#linearGradient4894-6"
       id="linearGradient4900-1-1"
       x1="7.9987183"
       y1="1042.2307"
       x2="9.9874563"
       y2="1040.3303"
       gradientUnits="userSpaceOnUse"
       gradientTransform="translate(20.003999,-0.9877)" />
    <linearGradient
       y2="1051.8378"
       x2="9.8946028"
       y1="1039.153"
       x1="9.8946028"
       gradientUnits="userSpaceOnUse"
       id="linearGradient4101-13"
       xlink:href="#linearGradient4994-6"
       inkscape:collect="always"
       gradientTransform="matrix(0.89359064,0,0,0.9258402,17.08768,76.50321)" />
    <linearGradient
       inkscape:collect="always"
       xlink:href="#linearGradient4902-3"
       id="linearGradient4908-2-7-1"
       x1="10.544736"
       y1="1038.5779"
       x2="10.544736"
       y2="1052.3228"
       gradientUnits="userSpaceOnUse"
       gradientTransform="matrix(0.99095428,0,0,1.0031864,36.052444,-4.3521)" />
    <linearGradient
       inkscape:collect="always"
       xlink:href="#linearGradient4894-6"
       id="linearGradient4900-1-1-4"
       x1="7.9987183"
       y1="1042.2307"
       x2="9.9874563"
       y2="1040.3303"
       gradientUnits="userSpaceOnUse"
       gradientTransform="translate(40.003999,-0.9877)" />
    <linearGradient
       y2="1051.8378"
       x2="9.8946028"
       y1="1039.153"
       x1="9.8946028"
       gradientUnits="userSpaceOnUse"
       id="linearGradient4101-13-3"
       xlink:href="#linearGradient4994-6"
       inkscape:collect="always"
       gradientTransform="matrix(0.89359064,0,0,0.9258402,37.08768,76.50321)" />
    <linearGradient
       inkscape:collect="always"
       xlink:href="#linearGradient4902-3"
       id="linearGradient4908-2-7-10"
       x1="10.544736"
       y1="1038.5779"
       x2="10.544736"
       y2="1052.3228"
       gradientUnits="userSpaceOnUse"
       gradientTransform="matrix(0.99095428,0,0,1.0031864,36.052444,15.6479)" />
    <linearGradient
       inkscape:collect="always"
       xlink:href="#linearGradient4894-6"
       id="linearGradient4900-1-1-7"
       x1="7.9987183"
       y1="1042.2307"
       x2="9.9874563"
       y2="1040.3303"
       gradientUnits="userSpaceOnUse"
       gradientTransform="translate(40.003999,19.0123)" />
    <linearGradient
       y2="1051.8378"
       x2="9.8946028"
       y1="1039.153"
       x1="9.8946028"
       gradientUnits="userSpaceOnUse"
       id="linearGradient4101-13-8"
       xlink:href="#linearGradient4994-6"
       inkscape:collect="always"
       gradientTransform="matrix(0.89359064,0,0,0.9258402,37.08768,96.50321)" />
    <linearGradient
       inkscape:collect="always"
       xlink:href="#linearGradient4902-3"
       id="linearGradient4908-2-7-2"
       x1="10.544736"
       y1="1038.5779"
       x2="10.544736"
       y2="1052.3228"
       gradientUnits="userSpaceOnUse"
       gradientTransform="matrix(0.99095428,0,0,1.0031864,16.052444,15.6479)" />
    <linearGradient
       inkscape:collect="always"
       xlink:href="#linearGradient4894-6"
       id="linearGradient4900-1-1-3"
       x1="7.9987183"
       y1="1042.2307"
       x2="9.9874563"
       y2="1040.3303"
       gradientUnits="userSpaceOnUse"
       gradientTransform="translate(20.003999,19.0123)" />
    <linearGradient
       y2="1051.8378"
       x2="9.8946028"
       y1="1039.153"
       x1="9.8946028"
       gradientUnits="userSpaceOnUse"
       id="linearGradient4101-13-1"
       xlink:href="#linearGradient4994-6"
       inkscape:collect="always"
       gradientTransform="matrix(0.89359064,0,0,0.9258402,17.08768,96.50321)" />
    <linearGradient
       inkscape:collect="always"
       xlink:href="#linearGradient4902-3"
       id="linearGradient4908-2-7-3"
       x1="10.544736"
       y1="1038.5779"
       x2="10.544736"
       y2="1052.3228"
       gradientUnits="userSpaceOnUse"
       gradientTransform="matrix(0.99287852,0,0,1.0031864,-3.9581341,-4.3521)" />
    <linearGradient
       inkscape:collect="always"
       xlink:href="#linearGradient4894-6"
       id="linearGradient4900-1-1-9"
       x1="7.9987183"
       y1="1042.2307"
       x2="9.9874563"
       y2="1040.3303"
       gradientUnits="userSpaceOnUse"
       gradientTransform="translate(0.0233789,-0.9902001)" />
    <linearGradient
       y2="1051.8378"
       x2="9.8946028"
       y1="1039.153"
       x1="9.8946028"
       gradientUnits="userSpaceOnUse"
       id="linearGradient4101-13-31"
       xlink:href="#linearGradient4994-6"
       inkscape:collect="always"
       gradientTransform="matrix(0.89359064,0,0,0.9258402,-2.9123201,76.50321)" />
    <filter
       inkscape:collect="always"
       style="color-interpolation-filters:sRGB"
       id="filter4371"
       x="-0.10560744"
       width="1.2112149"
       y="-0.13893449"
       height="1.277869">
      <feGaussianBlur
         inkscape:collect="always"
         stdDeviation="1.8251755"
         id="feGaussianBlur4373" />
    </filter>
    <linearGradient
       inkscape:collect="always"
       xlink:href="#linearGradient4291"
       id="linearGradient6172"
       gradientUnits="userSpaceOnUse"
       gradientTransform="matrix(1.4419231,0,0,1.4954213,-304.05134,-149.24538)"
       x1="557.2915"
       y1="357.21786"
       x2="548.21069"
       y2="336.6817" />
    <linearGradient
       id="linearGradient4291"
       inkscape:collect="always">
      <stop
         id="stop4293"
         offset="0"
         style="stop-color:#db9303;stop-opacity:1" />
      <stop
         id="stop4295"
         offset="1"
         style="stop-color:#fdbc3a;stop-opacity:1" />
    </linearGradient>
    <linearGradient
       gradientTransform="matrix(0.62104081,0,0,0.60705081,41.725748,412.06323)"
       inkscape:collect="always"
       xlink:href="#linearGradient4426"
       id="linearGradient4432"
       x1="6.5387306"
       y1="1040.6232"
       x2="9.3119564"
       y2="1047.3741"
       gradientUnits="userSpaceOnUse" />
    <linearGradient
       inkscape:collect="always"
       id="linearGradient4426">
      <stop
         style="stop-color:#bb94c8;stop-opacity:1"
         offset="0"
         id="stop4428" />
      <stop
         style="stop-color:#9955a7;stop-opacity:1"
         offset="1"
         id="stop4430" />
    </linearGradient>
    <filter
       inkscape:collect="always"
       style="color-interpolation-filters:sRGB"
       id="filter6169"
       x="-0.36302817"
       width="1.7260563"
       y="-0.43994996"
       height="1.8798999">
      <feGaussianBlur
         inkscape:collect="always"
         stdDeviation="0.45503657"
         id="feGaussianBlur6171" />
    </filter>
    <filter
       inkscape:collect="always"
       style="color-interpolation-filters:sRGB"
       id="filter6165"
       x="-0.43994999"
       width="1.8799"
       y="-0.36302489"
       height="1.7260498">
      <feGaussianBlur
         inkscape:collect="always"
         stdDeviation="0.45503657"
         id="feGaussianBlur6167" />
    </filter>
    <filter
       inkscape:collect="always"
       style="color-interpolation-filters:sRGB"
       id="filter6437"
       x="-0.38563621"
       width="1.7712724"
       y="-0.31820786"
       height="1.6364157">
      <feGaussianBlur
         inkscape:collect="always"
         stdDeviation="0.39886031"
         id="feGaussianBlur6439" />
    </filter>
    <filter
       inkscape:collect="always"
       style="color-interpolation-filters:sRGB"
       id="filter6153"
       x="-0.30973551"
       width="1.619471"
       y="-0.30972427"
       height="1.6194485">
      <feGaussianBlur
         inkscape:collect="always"
         stdDeviation="0.45503657"
         id="feGaussianBlur6155" />
    </filter>
    <filter
       inkscape:collect="always"
       style="color-interpolation-filters:sRGB"
       id="filter6149"
       x="-0.30973554"
       width="1.6194711"
       y="-0.30972427"
       height="1.6194485">
      <feGaussianBlur
         inkscape:collect="always"
         stdDeviation="0.45503657"
         id="feGaussianBlur6151" />
    </filter>
    <filter
       inkscape:collect="always"
       style="color-interpolation-filters:sRGB"
       id="filter6145"
       x="-0.30972427"
       width="1.6194485"
       y="-0.30974185"
       height="1.6194837">
      <feGaussianBlur
         inkscape:collect="always"
         stdDeviation="0.45503657"
         id="feGaussianBlur6147" />
    </filter>
    <filter
       inkscape:collect="always"
       style="color-interpolation-filters:sRGB"
       id="filter4318"
       x="-0.18241493"
       width="1.3648299"
       y="-0.18241493"
       height="1.3648299">
      <feGaussianBlur
         inkscape:collect="always"
         stdDeviation="0.56468031"
         id="feGaussianBlur4320" />
    </filter>
    <linearGradient
       inkscape:collect="always"
       xlink:href="#linearGradient4902-3"
       id="linearGradient4908-2-7-3-3"
       x1="10.544736"
       y1="1038.5779"
       x2="10.544736"
       y2="1052.3228"
       gradientUnits="userSpaceOnUse"
       gradientTransform="matrix(0.99095428,0,0,1.0031864,-3.1937084,13.123868)" />
    <linearGradient
       inkscape:collect="always"
       xlink:href="#linearGradient4894-6"
       id="linearGradient4900-1-1-9-4"
       x1="7.9987183"
       y1="1042.2307"
       x2="9.9874563"
       y2="1040.3303"
       gradientUnits="userSpaceOnUse"
       gradientTransform="translate(0.7578465,16.488268)" />
    <linearGradient
       y2="1051.8378"
       x2="9.8946028"
       y1="1039.153"
       x1="9.8946028"
       gradientUnits="userSpaceOnUse"
       id="linearGradient4101-13-31-8"
       xlink:href="#linearGradient4994-6"
       inkscape:collect="always"
       gradientTransform="matrix(0.89359064,0,0,0.9258402,-2.1584724,93.979178)" />
  </defs>
  <sodipodi:namedview
     id="base"
     pagecolor="#ffffff"
     bordercolor="#666666"
     borderopacity="1.0"
     inkscape:pageopacity="0.0"
     inkscape:pageshadow="2"
     inkscape:zoom="26.825864"
     inkscape:cx="13.461732"
     inkscape:cy="6.458602"
     inkscape:document-units="px"
     inkscape:current-layer="layer1"
     showgrid="true"
     inkscape:window-width="2560"
     inkscape:window-height="1392"
     inkscape:window-x="0"
     inkscape:window-y="0"
     inkscape:window-maximized="1"
     showguides="true"
     inkscape:guide-bbox="true"
     inkscape:snap-global="true"
     inkscape:snap-bbox="true"
     inkscape:bbox-nodes="true">
    <inkscape:grid
       type="xygrid"
       id="grid3999" />
  </sodipodi:namedview>
  <metadata
     id="metadata7">
    <rdf:RDF>
      <cc:Work
         rdf:about="">
        <dc:format>image/svg+xml</dc:format>
        <dc:type
           rdf:resource="http://purl.org/dc/dcmitype/StillImage" />
        <dc:title />
      </cc:Work>
    </rdf:RDF>
  </metadata>
  <g
     inkscape:label="Layer 1"
     inkscape:groupmode="layer"
     id="layer1"
     style="display:inline"
     transform="translate(0,-1036.3622)">
    <path
       style="display:inline;fill:url(#linearGradient4101-13-1);fill-opacity:1;stroke:none"
       d="m 22,1058.3622 6.263775,0 2.736225,2.7836 0,9.2164 -9,0 z"
       id="rect4001-3-47-7"
       inkscape:connector-curvature="0"
       sodipodi:nodetypes="cccccc" />
    <path
       style="fill:#758bb4;fill-opacity:1;fill-rule:evenodd;stroke:#000000;stroke-width:0.1;stroke-linecap:butt;stroke-linejoin:miter;stroke-miterlimit:4;stroke-dasharray:none;stroke-opacity:1"
       d="m 24.315073,1064.116 -0.0642,1.7751 c -0.391584,-0.1352 -0.628889,-0.1139 -1.106591,0.045 -0.160756,0.3523 -0.24244,0.6632 0.05544,1.0405 0.398222,0.2028 0.665203,0.084 1.017619,0.026 l 0.08278,1.7645 1.60007,0.045 c -0.20379,-0.9569 0.17985,-1.2355 0.837419,-1.286 0.834441,0.3256 0.726896,0.8323 0.628065,1.2746 l 1.600069,-0.033 0.02991,-1.6001 c -1.206457,0.074 -1.122686,-0.021 -1.256129,-0.8226 0.147121,-0.9444 0.779603,-0.5914 1.219275,-0.6581 l -0.008,-1.5851 -1.745228,-0.047 c 0.01497,-0.566 0.301313,-1.0404 -0.43804,-1.2394 -1.169176,0.212 -0.726009,0.6627 -0.702835,1.2411 z"
       id="path4739"
       inkscape:connector-curvature="0"
       sodipodi:nodetypes="cccccccccccccccccc" />
    <path
       style="display:inline;fill:url(#linearGradient4101-1);fill-opacity:1;stroke:none"
       d="m -33.71052,1040.6295 6.263775,0 2.736225,2.7836 0,9.2164 -9,0 z"
       id="rect4001-3-4"
       inkscape:connector-curvature="0"
       sodipodi:nodetypes="cccccc" />
    <path
       style="display:inline;fill:none;stroke:url(#linearGradient4908-2-6);stroke-width:0.99999994;stroke-linecap:butt;stroke-linejoin:miter;stroke-miterlimit:4;stroke-dashoffset:0;stroke-opacity:1"
       d="m -34.21052,1040.1295 6.946261,0 3.034359,3.0161 0,9.9864 -9.98062,0 z"
       id="rect4001-9"
       inkscape:connector-curvature="0"
       sodipodi:nodetypes="cccccc" />
    <path
       style="display:inline;fill:url(#linearGradient4101);fill-opacity:1;stroke:none"
       d="m -31.71052,1042.6295 6.263775,0 2.736225,2.7836 0,9.2164 -9,0 z"
       id="rect4001-3"
       inkscape:connector-curvature="0"
       sodipodi:nodetypes="cccccc" />
    <path
       style="display:inline;fill:url(#linearGradient4900-1);fill-opacity:1;stroke:none"
       d="m -25.7299,1041.7208 0,3.9112 3.977478,0 z"
       id="path4884"
       inkscape:connector-curvature="0" />
    <path
       style="display:inline;fill:none;stroke:url(#linearGradient4908-2);stroke-width:0.99999994;stroke-linecap:butt;stroke-linejoin:miter;stroke-miterlimit:4;stroke-dashoffset:0;stroke-opacity:1"
       d="m -32.21052,1042.1295 6.946261,0 3.034359,3.0161 0,9.9864 -9.98062,0 z"
       id="rect4001"
       inkscape:connector-curvature="0"
       sodipodi:nodetypes="cccccc" />
    <rect
       style="display:inline;fill:url(#linearGradient4867-7);fill-opacity:1;stroke:none"
       id="rect4001-1"
       width="3.9929504"
       height="1.0103934"
       x="-30.7299"
       y="1044.6216" />
    <rect
       style="display:inline;fill:url(#linearGradient4869-17);fill-opacity:1;stroke:none"
       id="rect4001-1-7"
       width="7"
       height="1.0103934"
       x="-30.7299"
       y="1046.632" />
    <rect
       style="display:inline;fill:url(#linearGradient4871-2);fill-opacity:1;stroke:none"
       id="rect4001-1-7-4"
       width="7"
       height="1.0103934"
       x="-30.7299"
       y="1048.632" />
    <rect
       style="display:inline;fill:url(#linearGradient4875-9);fill-opacity:1;stroke:none"
       id="rect4001-1-7-4-0"
       width="7"
       height="1.0103934"
       x="-30.7299"
       y="1050.632" />
    <rect
       style="display:inline;fill:url(#linearGradient4873-1);fill-opacity:1;stroke:none"
       id="rect4001-1-7-4-0-9"
       width="5.0094166"
       height="1.0103934"
       x="-30.7299"
       y="1052.6216" />
    <rect
       style="opacity:1;fill:none;fill-opacity:1;stroke:#000000;stroke-width:0.1;stroke-linecap:square;stroke-linejoin:miter;stroke-miterlimit:4;stroke-dasharray:none;stroke-dashoffset:0;stroke-opacity:1"
       id="rect4246"
       width="15.9"
       height="15.9"
       x="20.049999"
       y="1036.4122" />
    <rect
       style="display:inline;opacity:1;fill:none;fill-opacity:1;stroke:#000000;stroke-width:0.1;stroke-linecap:square;stroke-linejoin:miter;stroke-miterlimit:4;stroke-dasharray:none;stroke-dashoffset:0;stroke-opacity:1"
       id="rect4246-6"
       width="15.9"
       height="15.9"
       x="40.049999"
       y="1036.4122" />
    <rect
       style="display:inline;opacity:1;fill:none;fill-opacity:1;stroke:#000000;stroke-width:0.1;stroke-linecap:square;stroke-linejoin:miter;stroke-miterlimit:4;stroke-dasharray:none;stroke-dashoffset:0;stroke-opacity:1"
       id="rect4246-3"
       width="15.9"
       height="15.9"
       x="20.050001"
       y="1056.4122" />
    <rect
       style="display:inline;opacity:1;fill:none;fill-opacity:1;stroke:#000000;stroke-width:0.1;stroke-linecap:square;stroke-linejoin:miter;stroke-miterlimit:4;stroke-dasharray:none;stroke-dashoffset:0;stroke-opacity:1"
       id="rect4246-6-2"
       width="15.9"
       height="15.9"
       x="40.049999"
       y="1056.4122" />
    <path
       style="display:inline;fill:url(#linearGradient4101-13);fill-opacity:1;stroke:none"
       d="m 22,1038.3622 6.263775,0 2.736225,2.7836 0,9.2164 -9,0 z"
       id="rect4001-3-47"
       inkscape:connector-curvature="0"
       sodipodi:nodetypes="cccccc" />
    <path
       style="display:inline;fill:url(#linearGradient4900-1-1);fill-opacity:1;stroke:none"
       d="m 27.98062,1037.4535 0,3.9112 3.977478,0 z"
       id="path4884-8"
       inkscape:connector-curvature="0" />
    <path
       style="display:inline;fill:none;stroke:url(#linearGradient4908-2-7);stroke-width:0.99999994;stroke-linecap:butt;stroke-linejoin:miter;stroke-miterlimit:4;stroke-dashoffset:0;stroke-opacity:1"
       d="m 21.5,1037.8622 6.946261,0 3.034359,3.0161 0,9.9864 -9.98062,0 z"
       id="rect4001-39"
       inkscape:connector-curvature="0"
       sodipodi:nodetypes="cccccc" />
    <path
       style="display:inline;fill:url(#linearGradient4101-13-3);fill-opacity:1;stroke:none"
       d="m 42,1038.3622 6.263775,0 2.736225,2.7836 0,9.2164 -9,0 z"
       id="rect4001-3-47-4"
       inkscape:connector-curvature="0"
       sodipodi:nodetypes="cccccc" />
    <path
       style="display:inline;fill:url(#linearGradient4900-1-1-4);fill-opacity:1;stroke:none"
       d="m 47.98062,1037.4535 0,3.9112 3.977478,0 z"
       id="path4884-8-9"
       inkscape:connector-curvature="0" />
    <path
       style="display:inline;fill:none;stroke:url(#linearGradient4908-2-7-1);stroke-width:0.99999994;stroke-linecap:butt;stroke-linejoin:miter;stroke-miterlimit:4;stroke-dashoffset:0;stroke-opacity:1"
       d="m 41.5,1037.8622 6.946261,0 3.034359,3.0161 0,9.9864 -9.98062,0 z"
       id="rect4001-39-9"
       inkscape:connector-curvature="0"
       sodipodi:nodetypes="cccccc" />
    <path
       style="display:inline;fill:url(#linearGradient4101-13-8);fill-opacity:1;stroke:none"
       d="m 42,1058.3622 6.263775,0 2.736225,2.7836 0,9.2164 -9,0 z"
       id="rect4001-3-47-0"
       inkscape:connector-curvature="0"
       sodipodi:nodetypes="cccccc" />
    <path
       style="display:inline;fill:url(#linearGradient4900-1-1-7);fill-opacity:1;stroke:none"
       d="m 47.98062,1057.4535 0,3.9112 3.977478,0 z"
       id="path4884-8-7"
       inkscape:connector-curvature="0" />
    <path
       style="display:inline;fill:none;stroke:url(#linearGradient4908-2-7-10);stroke-width:0.99999994;stroke-linecap:butt;stroke-linejoin:miter;stroke-miterlimit:4;stroke-dashoffset:0;stroke-opacity:1"
       d="m 41.5,1057.8622 6.946261,0 3.034359,3.0161 0,9.9864 -9.98062,0 z"
       id="rect4001-39-6"
       inkscape:connector-curvature="0"
       sodipodi:nodetypes="cccccc" />
    <path
       style="display:inline;fill:url(#linearGradient4900-1-1-3);fill-opacity:1;stroke:none"
       d="m 27.98062,1057.4535 0,3.9112 3.977478,0 z"
       id="path4884-8-0"
       inkscape:connector-curvature="0" />
    <path
       style="display:inline;fill:none;stroke:url(#linearGradient4908-2-7-2);stroke-width:0.99999994;stroke-linecap:butt;stroke-linejoin:miter;stroke-miterlimit:4;stroke-dashoffset:0;stroke-opacity:1"
       d="m 21.5,1057.8622 6.946261,0 3.034359,3.0161 0,9.9864 -9.98062,0 z"
       id="rect4001-39-4"
       inkscape:connector-curvature="0"
       sodipodi:nodetypes="cccccc" />
    <path
       style="display:inline;fill:url(#linearGradient4101-13-31);fill-opacity:1;stroke:none"
       d="m 2,1038.3622 6.263775,0 2.736225,2.7836 0,9.2164 -9,0 z"
       id="rect4001-3-47-41"
       inkscape:connector-curvature="0"
       sodipodi:nodetypes="cccccc" />
    <path
       style="display:inline;fill:url(#linearGradient4900-1-1-9);fill-opacity:1;stroke:none"
       d="m 8,1037.451 0,3.9112 3.977478,0 z"
       id="path4884-8-2"
       inkscape:connector-curvature="0" />
    <path
       style="display:inline;fill:none;stroke:url(#linearGradient4908-2-7-3);stroke-width:0.99999994;stroke-linecap:butt;stroke-linejoin:miter;stroke-miterlimit:4;stroke-dashoffset:0;stroke-opacity:1"
       d="m 1.5,1037.8622 6.9597489,0 3.0402511,3.0161 0,9.9864 -10,0 z"
       id="rect4001-39-7"
       inkscape:connector-curvature="0"
       sodipodi:nodetypes="cccccc" />
    <g
       transform="matrix(0.14245923,0,0,0.13648921,-43.952172,994.46045)"
       style="display:inline"
       id="g4335">
      <path
         transform="matrix(1.2605511,0,0,1.2605511,-46.715155,-144.39926)"
         style="display:inline;opacity:0.70099996;fill:#ffffff;fill-opacity:1;fill-rule:evenodd;stroke:none;stroke-width:0;stroke-linecap:butt;stroke-linejoin:miter;stroke-miterlimit:4;stroke-dasharray:none;stroke-opacity:1;filter:url(#filter4371)"
         d="m 408.58203,408.00377 21.08292,20.94242 20.39542,-20.94242 -10.31231,-10.58626 -20.62458,0 z"
         id="path6164-6"
         inkscape:connector-curvature="0" />
      <path
         sodipodi:nodetypes="cccccc"
         style="fill:#fcb018;fill-opacity:1;fill-rule:evenodd;stroke:url(#linearGradient6172);stroke-width:7.19368029;stroke-linecap:butt;stroke-linejoin:miter;stroke-miterlimit:4;stroke-dasharray:none;stroke-opacity:1"
         d="m 470.65921,367.06266 23.93569,24.83279 24.07001,-24.91198 -13.10779,-12.43032 -22.09879,0 z"
         id="path6164"
         inkscape:connector-curvature="0" />
      <path
         sodipodi:nodetypes="ccccc"
         style="fill:#fdcc69;fill-opacity:1;fill-rule:evenodd;stroke:none;stroke-width:3.58380508px;stroke-linecap:butt;stroke-linejoin:miter;stroke-opacity:1"
         d="m 473.31237,367.01408 10.76057,-10.65834 20.85825,0.0792 10.85421,10.49995 z"
         id="path6166"
         inkscape:connector-curvature="0" />
      <path
         sodipodi:nodetypes="cccc"
         inkscape:connector-curvature="0"
         id="path4246"
         d="m 484.01143,356.38958 10.64078,10.64972 10.13721,-10.64972 z"
         style="fill:#ffe7ba;fill-opacity:1;fill-rule:evenodd;stroke:#000000;stroke-width:0;stroke-linecap:butt;stroke-linejoin:miter;stroke-miterlimit:4;stroke-dasharray:none;stroke-opacity:1" />
      <path
         sodipodi:nodetypes="cccc"
         inkscape:connector-curvature="0"
         id="path4258"
         d="m 473.52453,367.03594 21.21068,-0.0357 -0.15738,22.44498 z"
         style="fill:#fee0a6;fill-opacity:1;fill-rule:evenodd;stroke:#000000;stroke-width:0;stroke-linecap:butt;stroke-linejoin:miter;stroke-miterlimit:4;stroke-dasharray:none;stroke-opacity:1" />
      <path
         inkscape:transform-center-y="0.051513549"
         inkscape:transform-center-x="0.12878552"
         sodipodi:nodetypes="ccccccccc"
         inkscape:connector-curvature="0"
         id="path6168"
         d="m 484.03462,361.78745 8.6854,-5.57084 -5.01697,9.25533 11.83603,16.06637 -15.31182,-12.20529 -15.89781,12.01265 12.01262,-15.96604 -5.56279,-9.14697 z"
         style="fill:#ffffff;fill-opacity:1;fill-rule:evenodd;stroke:none;stroke-width:3.58380508px;stroke-linecap:butt;stroke-linejoin:miter;stroke-opacity:1" />
    </g>
    <g
       id="g4670"
       transform="translate(-13.308426,3.358201)">
      <g
         transform="matrix(0.6060734,0,0,0.59246575,43.803142,423.99807)"
         id="g4322"
         style="display:inline">
        <path
           style="display:inline;opacity:0.34200003;fill:#000000;fill-opacity:1;stroke:#000000;stroke-width:0.66752225;stroke-miterlimit:4;stroke-dasharray:none;stroke-opacity:1;filter:url(#filter6169)"
           d="m 11.611159,1074.3574 2,0 0.504136,-2.4822 -3.008273,-10e-5 z"
           id="rect4279-6-1-1"
           inkscape:connector-curvature="0"
           sodipodi:nodetypes="ccccc"
           transform="matrix(0.97647727,0,0,1.001784,14.497533,-24.487726)" />
        <path
           style="display:inline;opacity:0.34200003;fill:#000000;fill-opacity:1;stroke:#000000;stroke-width:0.66752225;stroke-miterlimit:4;stroke-dasharray:none;stroke-opacity:1;filter:url(#filter6165)"
           d="m 5.6053138,1068.3426 0,-2 2.4821998,-0.5042 10e-5,3.0083 z"
           id="rect4279-8-5-4"
           inkscape:connector-curvature="0"
           sodipodi:nodetypes="ccccc"
           transform="matrix(0.97647727,0,0,1.001784,14.497533,-24.487726)" />
        <path
           style="display:inline;opacity:0.34200003;fill:#000000;fill-opacity:1;stroke:#000000;stroke-width:0.66752225;stroke-miterlimit:4;stroke-dasharray:none;stroke-opacity:1;filter:url(#filter6437)"
           d="m 16.403991,1066.7151 0,2 -2.4822,0.5042 -1e-4,-3.0083 z"
           id="rect4279-4-2-0"
           inkscape:connector-curvature="0"
           sodipodi:nodetypes="ccccc"
           transform="matrix(0.91692368,0,0,1.0211377,18.632448,-45.503266)" />
        <path
           style="display:inline;opacity:0.34200003;fill:#000000;fill-opacity:1;stroke:#000000;stroke-width:0.66752225;stroke-miterlimit:4;stroke-dasharray:none;stroke-opacity:1;filter:url(#filter6153)"
           d="m 18.275675,1063.0702 -1.414213,-1.4142 -2.111659,1.3987 2.1271,2.1273 z"
           id="rect4279-2-2-4-5"
           inkscape:connector-curvature="0"
           sodipodi:nodetypes="ccccc"
           transform="matrix(0.97647727,0,0,1.001784,14.497533,-24.487726)" />
        <path
           style="display:inline;opacity:0.34200003;fill:#000000;fill-opacity:1;stroke:#000000;stroke-width:0.66752225;stroke-miterlimit:4;stroke-dasharray:none;stroke-opacity:1;filter:url(#filter6149)"
           d="m 6.9466418,1071.5709 1.4142128,1.4142 2.1116584,-1.3987 -2.1270994,-2.1273 z"
           id="rect4279-2-6-7-0"
           inkscape:connector-curvature="0"
           sodipodi:nodetypes="ccccc"
           transform="matrix(0.97647727,0,0,1.001784,14.497533,-24.487726)" />
        <path
           style="display:inline;opacity:0.34200003;fill:#000000;fill-opacity:1;stroke:#000000;stroke-width:0.66752225;stroke-miterlimit:4;stroke-dasharray:none;stroke-opacity:1;filter:url(#filter6145)"
           d="m 16.817701,1072.9631 1.4142,-1.4142 -1.3987,-2.1116 -2.1273,2.1271 z"
           id="rect4279-2-1-8-4"
           inkscape:connector-curvature="0"
           sodipodi:nodetypes="ccccc"
           transform="matrix(0.97647727,0,0,1.001784,14.497533,-24.487726)" />
        <circle
           style="display:inline;opacity:0.372;fill:none;fill-opacity:1;stroke:#000000;stroke-width:4.0080471;stroke-miterlimit:4;stroke-dasharray:none;stroke-opacity:1;filter:url(#filter4318)"
           id="path4266-2-4"
           cx="12.601501"
           cy="1067.3292"
           r="3.7146981"
           transform="matrix(0.97647727,0,0,1.001784,14.497533,-24.487726)" />
      </g>
      <path
         sodipodi:nodetypes="ccccc"
         inkscape:connector-curvature="0"
         id="rect4279"
         d="m 59.337594,1038.4964 1.212146,0 0.305545,1.4706 -1.823236,10e-5 z"
         style="display:inline;opacity:1;fill:#c39cd0;fill-opacity:1;stroke:none;stroke-width:0.40000001;stroke-miterlimit:4;stroke-dasharray:none;stroke-opacity:1" />
      <path
         sodipodi:nodetypes="ccccc"
         inkscape:connector-curvature="0"
         id="rect4279-6"
         d="m 59.350477,1046.7929 1.212146,0 0.305545,-1.4706 -1.823235,0 z"
         style="display:inline;opacity:1;fill:#9b59a9;fill-opacity:1;stroke:none;stroke-width:0.40000001;stroke-miterlimit:4;stroke-dasharray:none;stroke-opacity:1" />
      <path
         sodipodi:nodetypes="ccccc"
         inkscape:connector-curvature="0"
         id="rect4279-8"
         d="m 55.710493,1043.2294 0,-1.1849 1.504396,-0.2988 6e-5,1.7824 z"
         style="display:inline;opacity:1;fill:#b58ac3;fill-opacity:1;stroke:none;stroke-width:0.40000001;stroke-miterlimit:4;stroke-dasharray:none;stroke-opacity:1" />
      <path
         sodipodi:nodetypes="ccccc"
         inkscape:connector-curvature="0"
         id="rect4279-4"
         d="m 64.194825,1042.0574 0,1.1849 -1.504395,0.2987 -6.1e-5,-1.7822 z"
         style="display:inline;opacity:1;fill:#a871b6;fill-opacity:1;stroke:none;stroke-width:0.40000001;stroke-miterlimit:4;stroke-dasharray:none;stroke-opacity:1" />
      <path
         sodipodi:nodetypes="ccccc"
         inkscape:connector-curvature="0"
         id="rect4279-2"
         d="m 56.53845,1040.1074 0.857117,-0.8378 1.279821,0.8286 -1.289179,1.2604 z"
         style="display:inline;opacity:1;fill:#c099cd;fill-opacity:1;stroke:none;stroke-width:0.40000001;stroke-miterlimit:4;stroke-dasharray:none;stroke-opacity:1" />
      <path
         sodipodi:nodetypes="ccccc"
         inkscape:connector-curvature="0"
         id="rect4279-2-2"
         d="m 63.389664,1040.1057 -0.857117,-0.8379 -1.279821,0.8287 1.289179,1.2604 z"
         style="display:inline;opacity:1;fill:#b78dc4;fill-opacity:1;stroke:none;stroke-width:0.40000001;stroke-miterlimit:4;stroke-dasharray:none;stroke-opacity:1" />
      <path
         sodipodi:nodetypes="ccccc"
         inkscape:connector-curvature="0"
         id="rect4279-2-6"
         d="m 56.523438,1045.142 0.857116,0.838 1.27982,-0.8288 -1.289178,-1.2603 z"
         style="display:inline;opacity:1;fill:#a871b6;fill-opacity:1;stroke:none;stroke-width:0.40000001;stroke-miterlimit:4;stroke-dasharray:none;stroke-opacity:1" />
      <path
         sodipodi:nodetypes="ccccc"
         inkscape:connector-curvature="0"
         id="rect4279-2-1"
         d="m 62.506024,1045.9669 0.857109,-0.8379 -0.847715,-1.251 -1.289299,1.2602 z"
         style="display:inline;opacity:1;fill:#9b58a9;fill-opacity:1;stroke:none;stroke-width:0.40000001;stroke-miterlimit:4;stroke-dasharray:none;stroke-opacity:1" />
    </g>
    <ellipse
       style="display:inline;opacity:1;fill:none;fill-opacity:1;stroke:url(#linearGradient4432);stroke-width:1.49999988;stroke-miterlimit:4;stroke-dasharray:none;stroke-opacity:1"
       id="path4266"
       cx="46.70216"
       cy="1046.0364"
       rx="2.3069789"
       ry="2.2550106" />
    <path
       inkscape:connector-curvature="0"
       d="m -12.115394,1059.0799 c 0.124831,-0.1252 0.327255,-0.1252 0.452081,0 l 6.2288377,6.2285 c 0.124831,0.1253 0.124831,0.3274 0,0.4522 -0.12483,0.125 -0.327139,0.125 -0.45208,0 l -0.7877036,-0.7877 -0.8677106,-0.8678 -4.5731945,-4.5732 c -0.12506,-0.1251 -0.12506,-0.3273 -2.3e-4,-0.452 z m 0.361528,0.075 c -0.07921,-0.079 -0.207816,-0.079 -0.287136,0 -0.07921,0.079 -0.07932,0.208 0,0.2872 l 0.551118,0.5512 c 0.07921,0.079 0.207815,0.079 0.287135,0 0.07932,-0.079 0.07932,-0.2078 1.14e-4,-0.2871 l -0.551231,-0.5513 z m 5.9274897,6.502 c 0.07921,0.079 0.207815,0.079 0.28702,-2e-4 0.0792,-0.079 0.07932,-0.2077 1.14e-4,-0.2871 l -0.5512317,-0.5512 c -0.012672,-0.015 -0.027162,-0.023 -0.041956,-0.031 -0.00855,0.068 -0.037604,0.1344 -0.089989,0.1868 -0.052384,0.052 -0.1184028,0.081 -0.1866093,0.09 0.0087,0.015 0.018688,0.029 0.031406,0.041 l 0.551232,0.5515 z"
       id="path4"
       style="fill:#000000;fill-opacity:1;stroke:none;stroke-opacity:1" />
    <path
       style="fill:#647ba7;fill-opacity:1;stroke:#687eaa;stroke-width:0.06791718;stroke-opacity:1"
       id="path6"
       d="m 26.62318,1062.901 c 0.108667,0 0.217335,0.027 0.319211,0.082 0.07471,0.041 0.142626,0.1019 0.183376,0.1766 0.115459,0.2173 0.115459,0.4551 0,0.6452 -0.04754,0.075 -0.04754,0.163 -0.0068,0.2377 0.04075,0.075 0.115459,0.1223 0.203752,0.1223 l 1.589262,0 0,1.5213 c -0.122251,-0.061 -0.258086,-0.095 -0.400712,-0.095 l 0,0 c -0.156209,0 -0.312419,0.041 -0.461836,0.1223 -0.122251,0.068 -0.224127,0.1698 -0.292044,0.292 -0.15621,0.2989 -0.15621,0.6249 0.0068,0.8965 0.15621,0.2581 0.43467,0.4143 0.740298,0.4143 0.135834,0 0.27846,-0.034 0.400711,-0.095 l 0,1.5213 -1.514553,0 c 0.06112,-0.1223 0.09508,-0.2581 0.09508,-0.4007 0,-0.4754 -0.387128,-0.8626 -0.862548,-0.8626 -0.149418,0 -0.305628,0.041 -0.448254,0.1155 -0.129042,0.068 -0.230918,0.1698 -0.292043,0.292 -0.15621,0.2853 -0.163002,0.5909 -0.02717,0.8558 l -1.521345,0 0,-1.5893 c 0,-0.129 -0.101876,-0.2309 -0.230919,-0.2309 -0.04754,0 -0.08829,0.014 -0.122251,0.034 -0.09508,0.061 -0.203751,0.088 -0.312419,0.088 -0.210543,0 -0.400711,-0.1087 -0.509378,-0.2853 -0.11546,-0.1834 -0.11546,-0.4143 0,-0.6248 0.04075,-0.075 0.101875,-0.1426 0.176584,-0.1834 0.108668,-0.061 0.217335,-0.088 0.332794,-0.088 0.108668,0 0.217335,0.034 0.312419,0.088 0.04075,0.02 0.0815,0.034 0.122251,0.034 0.129043,0 0.230919,-0.1019 0.230919,-0.231 l 0,-1.5892 1.589262,0 c 0.08829,0 0.163001,-0.048 0.203751,-0.1155 0.04075,-0.075 0.04075,-0.1698 -0.0068,-0.2377 -0.06113,-0.095 -0.08829,-0.2037 -0.08829,-0.3124 0,-0.1562 0.06113,-0.3056 0.176585,-0.4211 0.115459,-0.1155 0.258085,-0.1766 0.414295,-0.1766 l 0,0 m 0,-0.1358 c -0.400712,0 -0.726714,0.326 -0.726714,0.7267 0,0.1426 0.04075,0.2717 0.108667,0.3803 0.04075,0.068 0,0.1495 -0.0815,0.1495 l -1.630013,0 c -0.05433,0 -0.09508,0.041 -0.09508,0.095 l 0,1.6301 c 0,0.054 -0.04754,0.095 -0.09508,0.095 -0.02038,0 -0.03396,-0.01 -0.05433,-0.014 -0.108668,-0.068 -0.244502,-0.1087 -0.387128,-0.1087 -0.129043,0 -0.258086,0.034 -0.39392,0.1019 -0.101876,0.054 -0.183376,0.1358 -0.230918,0.2377 -0.292044,0.5637 0.101875,1.1206 0.624838,1.1206 0.142626,0 0.271668,-0.041 0.380336,-0.1087 0.02038,-0.014 0.03396,-0.014 0.05433,-0.014 0.04754,0 0.09508,0.041 0.09508,0.095 l 0,1.63 c 0,0.054 0.04075,0.095 0.09508,0.095 l 1.630012,0 c 0.07471,0 0.122251,-0.082 0.0815,-0.1494 -0.129043,-0.2105 -0.15621,-0.4958 -0.0068,-0.781 0.05433,-0.1019 0.135834,-0.1834 0.23771,-0.231 0.129043,-0.068 0.258085,-0.1018 0.387128,-0.1018 0.400711,0 0.726714,0.326 0.726714,0.7267 0,0.1426 -0.04075,0.2717 -0.108668,0.3803 -0.04075,0.068 0,0.1494 0.0815,0.1494 l 1.630012,0 c 0.05433,0 0.09508,-0.041 0.09508,-0.095 l 0,-1.6301 c 0,-0.054 -0.04754,-0.095 -0.09508,-0.095 -0.02038,0 -0.03396,0.01 -0.05433,0.014 -0.108668,0.068 -0.244502,0.1087 -0.380337,0.1087 -0.522962,0 -0.923673,-0.5569 -0.631629,-1.1138 0.05433,-0.1019 0.135834,-0.1834 0.230918,-0.2377 0.135834,-0.075 0.264877,-0.1019 0.39392,-0.1019 0.142626,0 0.271668,0.041 0.387128,0.1087 0.01358,0.014 0.03396,0.014 0.05433,0.014 0.04754,0 0.09508,-0.041 0.09508,-0.095 l 0,-1.6233 c 0,-0.054 -0.04075,-0.095 -0.09508,-0.095 l -1.630012,0 c -0.07471,0 -0.122251,-0.082 -0.0815,-0.1494 0.129043,-0.2105 0.15621,-0.4958 0.0068,-0.781 -0.05433,-0.1019 -0.135834,-0.1834 -0.23771,-0.2309 -0.129043,-0.068 -0.258085,-0.1019 -0.380336,-0.1019 l 0,0 z"
       inkscape:connector-curvature="0" />
    <path
       style="display:inline;fill:url(#linearGradient4101-13-31-8);fill-opacity:1;stroke:none"
       d="m 2.7538476,1055.8382 6.263775,0 2.7362254,2.7836 0,9.2164 -9.0000004,0 z"
       id="rect4001-3-47-41-4"
       inkscape:connector-curvature="0"
       sodipodi:nodetypes="cccccc" />
    <polyline
       transform="matrix(0.25622371,-0.18497795,0.18497795,0.25622371,-8.8593294,1071.8347)"
       points="58.484,23.954 54.628,12.083 64.726,19.418 52.244,19.418 62.342,12.083 58.484,23.954 "
       id="polyline8-4-7"
       style="display:inline;fill:#dbbf7f;fill-opacity:1" />
    <path
       style="display:inline;fill:url(#linearGradient4900-1-1-9-4);fill-opacity:1;stroke:none"
       d="m 8.7344676,1054.9295 0,3.9112 3.9774784,0 z"
       id="path4884-8-2-6"
       inkscape:connector-curvature="0" />
    <path
       style="display:inline;fill:none;stroke:url(#linearGradient4908-2-7-3-3);stroke-width:0.99999994;stroke-linecap:butt;stroke-linejoin:miter;stroke-miterlimit:4;stroke-dashoffset:0;stroke-opacity:1"
       d="m 2.2538476,1055.3382 6.946261,0 3.0343594,3.0161 0,9.9864 -9.9806204,0 z"
       id="rect4001-39-7-8"
       inkscape:connector-curvature="0"
       sodipodi:nodetypes="cccccc" />
    <polyline
       transform="matrix(0.34861724,-0.25168046,0.25168046,0.34861724,-18.985803,1067.3725)"
       points="58.484,23.954 54.628,12.083 64.726,19.418 52.244,19.418 62.342,12.083 58.484,23.954 "
       id="polyline8-0"
       style="display:inline;fill:#dbbf7f;fill-opacity:1" />
    <path
       style="display:inline;fill:none;fill-rule:evenodd;stroke:#394e75;stroke-width:2;stroke-linecap:round;stroke-linejoin:miter;stroke-miterlimit:4;stroke-dasharray:none;stroke-opacity:1"
       d="m 8.1289141,1061.0546 6.3691649,6.3058"
       id="path4268-5"
       inkscape:connector-curvature="0" />
    <path
       style="display:inline;fill:none;fill-rule:evenodd;stroke:#ffffff;stroke-width:1.50000012;stroke-linecap:round;stroke-linejoin:miter;stroke-miterlimit:4;stroke-dasharray:none;stroke-opacity:1"
       d="m 8.1879759,1061.0742 0.4715288,0.4656"
       id="path4268-6-3"
       inkscape:connector-curvature="0" />
    <polyline
       transform="matrix(0.14867703,-0.27885941,0.27885941,0.14867703,-8.2424504,1077.1013)"
       points="58.484,23.954 54.628,12.083 64.726,19.418 52.244,19.418 62.342,12.083 58.484,23.954 "
       id="polyline8-4-9-0"
       style="display:inline;fill:#dbbf7f;fill-opacity:1" />
    <path
       inkscape:connector-curvature="0"
       id="path4344"
       style="font-style:normal;font-variant:normal;font-weight:bold;font-stretch:normal;font-size:7.5863061px;line-height:125%;font-family:sans-serif;-inkscape-font-specification:'sans-serif Bold';letter-spacing:0px;word-spacing:0px;fill:#7f0055;fill-opacity:1;stroke:none;stroke-width:1px;stroke-linecap:butt;stroke-linejoin:miter;stroke-opacity:1"
       d="m 9,1051.2906 0,1.0716 -0.9175476,0 q -0.9217759,0 -1.3446089,-0.4192 -0.4228329,-0.4189 -0.4228329,-1.3379 l 0,-0.9142 q 0,-0.7144 -0.2283298,-0.9907 -0.2283298,-0.2808 -0.8287527,-0.2808 l -0.2579281,0 0,-1.062 0.2579281,0 q 0.6004229,0 0.8287527,-0.2761 0.2283298,-0.2763 0.2283298,-0.9906 l 0,-0.9762 q 0,-0.919 0.4228329,-1.3332 0.422833,-0.4191 1.3446089,-0.4191 l 0.9175476,0 0,1.0715 -0.2917547,0 q -0.5961945,0 -0.7780127,0.2093 -0.1775898,0.2049 -0.1775898,0.881 l 0,0.7905 q 0,0.7476 -0.190275,1.0858 -0.1902748,0.338 -0.6553909,0.4572 0.4693445,0.1287 0.6553909,0.4666 0.190275,0.3382 0.190275,1.081 l 0,0.7905 q 0,0.6809 0.1775898,0.8857 0.1818182,0.2093 0.7780127,0.2093 l 0.2917547,0 z" />
    <path
       inkscape:connector-curvature="0"
       id="path4346"
       style="font-style:normal;font-variant:normal;font-weight:bold;font-stretch:normal;font-size:7.5863061px;line-height:125%;font-family:sans-serif;-inkscape-font-specification:'sans-serif Bold';letter-spacing:0px;word-spacing:0px;fill:#7f0055;fill-opacity:1;stroke:none;stroke-width:1px;stroke-linecap:butt;stroke-linejoin:miter;stroke-opacity:1"
       d="m 12,1051.2907 0.295983,0 q 0.591966,0 0.769556,-0.2094 0.181818,-0.2047 0.181818,-0.8856 l 0,-0.7906 q 0,-0.7429 0.190275,-1.0809 0.190275,-0.3383 0.65962,-0.4667 -0.469345,-0.1196 -0.65962,-0.4572 -0.190275,-0.3381 -0.190275,-1.0858 l 0,-0.7905 q 0,-0.6761 -0.181818,-0.881 -0.177589,-0.2094 -0.769556,-0.2094 l -0.295983,0 0,-1.0714 0.917548,0 q 0.921776,0 1.344608,0.419 0.422833,0.4143 0.422833,1.3333 l 0,0.9762 q 0,0.7142 0.228331,0.9905 0.228329,0.2761 0.828752,0.2761 l 0.257928,0 0,1.062 -0.257928,0 q -0.600423,0 -0.828752,0.2809 -0.228331,0.2763 -0.228331,0.9905 l 0,0.9143 q 0,0.919 -0.422833,1.338 -0.422832,0.4192 -1.344608,0.4192 l -0.917548,0 0,-1.0715 z" />
  </g>
</svg>
