<?xml version="1.0" encoding="UTF-8" standalone="no"?>
<!-- Created with Inkscape (http://www.inkscape.org/) -->

<svg
   xmlns:dc="http://purl.org/dc/elements/1.1/"
   xmlns:cc="http://creativecommons.org/ns#"
   xmlns:rdf="http://www.w3.org/1999/02/22-rdf-syntax-ns#"
   xmlns:svg="http://www.w3.org/2000/svg"
   xmlns="http://www.w3.org/2000/svg"
   xmlns:sodipodi="http://sodipodi.sourceforge.net/DTD/sodipodi-0.dtd"
   xmlns:inkscape="http://www.inkscape.org/namespaces/inkscape"
   width="16"
   height="16"
   id="svg2"
   version="1.1"
   inkscape:version="0.91 r13725"
   sodipodi:docname="variable_tab.svg">
  <defs
     id="defs4" />
  <sodipodi:namedview
     id="base"
     pagecolor="#ffffff"
     bordercolor="#666666"
     borderopacity="1.0"
     inkscape:pageopacity="0.0"
     inkscape:pageshadow="2"
     inkscape:zoom="11.313708"
     inkscape:cx="11.27237"
     inkscape:cy="7.2292042"
     inkscape:document-units="px"
     inkscape:current-layer="g8159"
     showgrid="true"
     inkscape:window-width="746"
     inkscape:window-height="536"
     inkscape:window-x="1054"
     inkscape:window-y="913"
     inkscape:window-maximized="0"
     showguides="true"
     inkscape:guide-bbox="true"
     inkscape:snap-global="false">
    <inkscape:grid
       type="xygrid"
       id="grid4092" />
  </sodipodi:namedview>
  <metadata
     id="metadata7">
    <rdf:RDF>
      <cc:Work
         rdf:about="">
        <dc:format>image/svg+xml</dc:format>
        <dc:type
           rdf:resource="http://purl.org/dc/dcmitype/StillImage" />
        <dc:title />
      </cc:Work>
    </rdf:RDF>
  </metadata>
  <g
     inkscape:label="Layer 1"
     inkscape:groupmode="layer"
     id="layer1"
     style="display:inline"
     transform="translate(0,-1036.3622)">
    <g
       style="display:inline"
       id="g8159"
       transform="translate(-8.2201163,-12.904699)">
      <g
         id="g3348"
         transform="matrix(1,0,0,1.0390149,0,-41.095587)">
        <path
           sodipodi:nodetypes="cccscccsssccssscccscccccccccccccccc"
           inkscape:connector-curvature="0"
           id="text4105-1-1-4"
           d="m 17.407616,1053.3294 -1.181219,0.5938 c 0.49154,0.5175 0.887698,1.1305 1.15625,1.8125 0.268557,0.6819 0.406252,1.3776 0.40625,2.0937 2e-6,0.7324 -0.142576,1.4297 -0.40625,2.0938 -0.27669,0.6901 -0.673174,1.2617 -1.1875,1.75 l 1.212469,0.6562 c 0.615237,-0.5762 1.089195,-1.2715 1.4375,-2.0625 0.348309,-0.791 0.531251,-1.5977 0.53125,-2.4375 10e-7,-0.8333 -0.182941,-1.6465 -0.53125,-2.4375 -0.348305,-0.791 -0.822263,-1.4896 -1.4375,-2.0625 z m -7.09375,0.062 c -0.6152366,0.5729 -1.0891944,1.2715 -1.4374997,2.0625 -0.3483086,0.791 -0.5312511,1.6042 -0.53125,2.4375 -1.1e-6,0.8398 0.1829414,1.6465 0.53125,2.4375 0.3483053,0.791 0.8222631,1.4863 1.4374997,2.0625 l 0.991498,-0.7004 c -0.514326,-0.4883 -0.91081,-1.0599 -1.1875,-1.75 -0.2636742,-0.6641 -0.4062522,-1.3614 -0.4062501,-2.0938 -2.1e-6,-0.7161 0.1376931,-1.4118 0.4062501,-2.0937 0.268552,-0.682 0.633461,-1.295 1.125,-1.8125 z m 0.517655,1.875 1.6875,2.4063 -1.84375,2.5625 1.888595,0 1.25,-1.9375 1.21875,1.9375 1.899318,0 -1.84375,-2.5625 1.6875,-2.4063 -1.868068,0 -1.09375,1.75 -1.09375,-1.75 z"
           style="font-style:normal;font-variant:normal;font-weight:normal;font-stretch:normal;font-size:10px;line-height:125%;font-family:Gautami;text-align:start;letter-spacing:0px;word-spacing:0px;writing-mode:lr-tb;text-anchor:start;display:inline;fill:#334c6f;fill-opacity:1;stroke:none" />
        <path
           sodipodi:nodetypes="cccccccccc"
           inkscape:connector-curvature="0"
           id="text4105-1-1-4-4"
           d="m 20.214429,1056.2608 0,1.0224 4.018306,0 0,-1.0224 z m 0,2.0018 0,1.006 4.018306,0 0,-1.006 z"
           style="font-style:normal;font-variant:normal;font-weight:normal;font-stretch:normal;font-size:10px;line-height:125%;font-family:Gautami;text-align:start;letter-spacing:0px;word-spacing:0px;writing-mode:lr-tb;text-anchor:start;display:inline;fill:#334c6f;fill-opacity:1;stroke:none" />
      </g>
    </g>
  </g>
</svg>
