<?xml version="1.0" encoding="UTF-8" standalone="no"?>
<svg
   width="16"
   height="16"
   viewBox="0 0 16 16"
   fill="currentColor"
   version="1.1"
   id="svg30184"
   sodipodi:docname="replace-all.svg"
   inkscape:version="1.2.1 (9c6d41e410, 2022-07-14)"
   inkscape:export-filename="replace-all.png"
   inkscape:export-xdpi="96"
   inkscape:export-ydpi="96"
   xmlns:inkscape="http://www.inkscape.org/namespaces/inkscape"
   xmlns:sodipodi="http://sodipodi.sourceforge.net/DTD/sodipodi-0.dtd"
   xmlns:xlink="http://www.w3.org/1999/xlink"
   xmlns="http://www.w3.org/2000/svg"
   xmlns:svg="http://www.w3.org/2000/svg">
  <defs
     id="defs30188">
    <linearGradient
       inkscape:collect="always"
       id="linearGradient14488">
      <stop
         style="stop-color:#fbdf8c;stop-opacity:1"
         offset="0"
         id="stop14484" />
      <stop
         style="stop-color:#fbf5df;stop-opacity:1;"
         offset="1"
         id="stop14486" />
    </linearGradient>
    <clipPath
       clipPathUnits="userSpaceOnUse"
       id="clipPath11676">
      <g
         inkscape:label="Clip"
         id="use11678">
        <path
           fill-rule="evenodd"
           clip-rule="evenodd"
           d="M 3.221,3.739 5.482,6.008 7.7,3.784 7,3.084 5.988,4.091 5.98,2.491 A 0.523,0.523 0 0 1 6.48,1.965 H 8 V 1 H 6.48 A 1.482,1.482 0 0 0 5,2.489 V 4.1 L 3.927,3.033 Z m 6.67,1.794 h 0.01 C 10.084,5.844 10.352,6 10.707,6 11.1,6 11.413,5.832 11.647,5.497 11.883,5.162 12,4.717 12,4.164 12,3.653 11.9,3.251 11.699,2.957 11.498,2.662 11.211,2.515 10.839,2.515 c -0.405,0 -0.718,0.194 -0.938,0.581 H 9.891 V 1 H 9 V 5.919 H 9.89 V 5.533 Z M 9.876,4.472 v -0.34 c 0,-0.248 0.058,-0.448 0.175,-0.601 a 0.54,0.54 0 0 1 0.445,-0.23 0.49,0.49 0 0 1 0.436,0.233 c 0.104,0.154 0.155,0.368 0.155,0.643 0,0.33 -0.056,0.587 -0.169,0.768 A 0.524,0.524 0 0 1 10.448,5.215 0.495,0.495 0 0 1 10.037,5.004 0.853,0.853 0 0 1 9.877,4.472 Z M 9,12.769 C 8.744,12.923 8.375,13 7.892,13 7.329,13 6.872,12.822 6.523,12.467 6.174,12.112 6,11.654 6,11.093 6,10.445 6.186,9.935 6.56,9.563 6.934,9.187 7.435,9 8.06,9 8.493,9 8.806,9.06 9,9.179 v 0.998 A 1.26,1.26 0 0 0 8.208,9.901 c -0.325,0 -0.583,0.1 -0.774,0.298 -0.19,0.196 -0.283,0.468 -0.283,0.816 0,0.338 0.09,0.603 0.272,0.797 0.182,0.191 0.431,0.287 0.749,0.287 0.282,0 0.558,-0.092 0.828,-0.276 z M 4,7 3,8 v 6 l 1,1 h 7 l 1,-1 V 8 L 11,7 Z m 0,1 h 7 v 6 H 4 Z"
           id="path11680"
           style="fill:#797979;fill-opacity:1" />
      </g>
    </clipPath>
    <linearGradient
       inkscape:collect="always"
       xlink:href="#linearGradient14488"
       id="linearGradient14490-5"
       x1="5.4640694"
       y1="12.955132"
       x2="5.4861021"
       y2="8.4384623"
       gradientUnits="userSpaceOnUse"
       gradientTransform="translate(-0.58957363,0.15915132)" />
  </defs>
  <sodipodi:namedview
     id="namedview30186"
     pagecolor="#ffffff"
     bordercolor="#000000"
     borderopacity="0.25"
     inkscape:showpageshadow="2"
     inkscape:pageopacity="0.0"
     inkscape:pagecheckerboard="0"
     inkscape:deskcolor="#d1d1d1"
     showgrid="false"
     inkscape:zoom="32.09375"
     inkscape:cx="0.43622201"
     inkscape:cy="10.251217"
     inkscape:window-width="3440"
     inkscape:window-height="1369"
     inkscape:window-x="-8"
     inkscape:window-y="-8"
     inkscape:window-maximized="1"
     inkscape:current-layer="svg30184" />
  <path
     d="m 4.4612487,7.2112722 1.000001,-1 h 6.9999983 l 1,1 v 4.9999988 l -1,1.000001 V 7.2112722 Z"
     style="clip-rule:evenodd;fill:#b27914;fill-opacity:1;fill-rule:evenodd"
     id="path33621-9" />
  <rect
     style="fill:url(#linearGradient14490-5);fill-opacity:1"
     id="rect14325-6"
     width="7.2046399"
     height="6.0809808"
     x="3.3322182"
     y="8.1128979" />
  <g
     id="g11674"
     clip-path="url(#clipPath11676)"
     transform="translate(-19.581622,-6.0540246)" />
  <path
     fill-rule="evenodd"
     clip-rule="evenodd"
     d="m 3.4104264,8.159 -1,1 v 5.000151 l 1,1 h 6.9999996 l 1,-1 V 9.159 l -1,-1 z m 0,1 h 6.9999996 v 5.000151 H 3.4104264 Z"
     id="path8987"
     style="fill:#b27914;fill-opacity:1"
     sodipodi:nodetypes="cccccccccccccc" />
  <path
     d="m 8.1689467,13.161068 c -0.2133334,0.128334 -0.5208334,0.1925 -0.9233333,0.1925 -0.4691666,0 -0.8500001,-0.148333 -1.1408334,-0.444166 -0.2908333,-0.295834 -0.4358333,-0.6775 -0.4358333,-1.145 0,-0.54 0.155,-0.964999 0.4666666,-1.275 0.3116667,-0.313334 0.7291667,-0.469167 1.25,-0.469167 0.3608334,0 0.6216666,0.05 0.7833334,0.149167 v 0.831666 c -0.18728,-0.149785 -0.4201901,-0.230951 -0.66,-0.229999 -0.2708334,0 -0.4858334,0.08333 -0.6450001,0.248333 -0.1583333,0.163332 -0.2358333,0.39 -0.2358333,0.68 0,0.281666 0.075,0.5025 0.2266667,0.664166 0.1516666,0.159167 0.3591666,0.239167 0.6241667,0.239167 0.2349999,0 0.465,-0.07667 0.69,-0.23 z"
     style="clip-rule:evenodd;fill:#797979;fill-opacity:1;fill-rule:evenodd;stroke-width:0.833333"
     id="path13184" />
  <path
     d="M 3.7429246,3.4157794 5.7745739,5.4546173 7.767585,3.4562147 7.1385913,2.8272212 6.2292464,3.7320734 6.2220579,2.2943737 C 6.2203596,2.0416474 6.4188514,1.8328387 6.671339,1.8217299 H 8.0371536 V 0.95461734 H 6.671339 C 5.9341175,0.95560574 5.337984,1.5553628 5.3414668,2.2925766 V 3.7401604 L 4.3773095,2.7813945 Z m 5.9934101,1.6120208 h 0.009 c 0.164437,0.2794528 0.4052523,0.4196286 0.7242423,0.4196286 0.353135,0 0.634385,-0.1509585 0.844648,-0.4519769 0.212061,-0.3010183 0.317193,-0.7008785 0.317193,-1.1977835 0,-0.4591652 -0.08985,-0.8203873 -0.270468,-1.0845647 -0.180611,-0.2650758 -0.438498,-0.3971644 -0.772764,-0.3971644 -0.363917,0 -0.6451673,0.174321 -0.8428513,0.5220646 h -0.009 V 0.95461734 H 8.9357159 V 5.3746452 H 9.7354357 V 5.0278002 Z M 9.7228567,4.0744256 V 3.7689144 c 0,-0.2228435 0.05212,-0.4025559 0.157249,-0.5400359 0.09134,-0.1302831 0.2407503,-0.2075064 0.3998603,-0.2066693 0.158805,-0.00603 0.308535,0.073988 0.391773,0.209365 0.09345,0.1383786 0.139277,0.3306709 0.139277,0.5777755 0,0.2965256 -0.05032,0.527456 -0.151858,0.6900958 -0.08476,0.1530544 -0.247406,0.246487 -0.422324,0.2426119 C 10.08998,4.7436974 9.9517767,4.6727554 9.8675247,4.5524607 9.7676047,4.4136229 9.7169927,4.2453493 9.7237557,4.0744256 Z"
     style="clip-rule:evenodd;fill:#797979;fill-opacity:1;fill-rule:evenodd;stroke-width:0.898562"
     id="path13146" />
</svg>
