<?xml version="1.0" encoding="UTF-8" standalone="no"?>
<svg
   width="16"
   height="16"
   viewBox="0 0 16 16"
   fill="currentColor"
   version="1.1"
   id="svg8989"
   sodipodi:docname="replace.svg"
   xml:space="preserve"
   inkscape:version="1.2.1 (9c6d41e410, 2022-07-14)"
   inkscape:export-filename="replace@2x.png"
   inkscape:export-xdpi="192"
   inkscape:export-ydpi="192"
   xmlns:inkscape="http://www.inkscape.org/namespaces/inkscape"
   xmlns:sodipodi="http://sodipodi.sourceforge.net/DTD/sodipodi-0.dtd"
   xmlns:xlink="http://www.w3.org/1999/xlink"
   xmlns="http://www.w3.org/2000/svg"
   xmlns:svg="http://www.w3.org/2000/svg"><defs
     id="defs8993"><linearGradient
       inkscape:collect="always"
       id="linearGradient14488"><stop
         style="stop-color:#fbdf8c;stop-opacity:1"
         offset="0"
         id="stop14484" /><stop
         style="stop-color:#fbf5df;stop-opacity:1;"
         offset="1"
         id="stop14486" /></linearGradient><clipPath
       clipPathUnits="userSpaceOnUse"
       id="clipPath11676"><g
         inkscape:label="Clip"
         id="use11678"><path
           fill-rule="evenodd"
           clip-rule="evenodd"
           d="M 3.221,3.739 5.482,6.008 7.7,3.784 7,3.084 5.988,4.091 5.98,2.491 A 0.523,0.523 0 0 1 6.48,1.965 H 8 V 1 H 6.48 A 1.482,1.482 0 0 0 5,2.489 V 4.1 L 3.927,3.033 Z m 6.67,1.794 h 0.01 C 10.084,5.844 10.352,6 10.707,6 11.1,6 11.413,5.832 11.647,5.497 11.883,5.162 12,4.717 12,4.164 12,3.653 11.9,3.251 11.699,2.957 11.498,2.662 11.211,2.515 10.839,2.515 c -0.405,0 -0.718,0.194 -0.938,0.581 H 9.891 V 1 H 9 V 5.919 H 9.89 V 5.533 Z M 9.876,4.472 v -0.34 c 0,-0.248 0.058,-0.448 0.175,-0.601 a 0.54,0.54 0 0 1 0.445,-0.23 0.49,0.49 0 0 1 0.436,0.233 c 0.104,0.154 0.155,0.368 0.155,0.643 0,0.33 -0.056,0.587 -0.169,0.768 A 0.524,0.524 0 0 1 10.448,5.215 0.495,0.495 0 0 1 10.037,5.004 0.853,0.853 0 0 1 9.877,4.472 Z M 9,12.769 C 8.744,12.923 8.375,13 7.892,13 7.329,13 6.872,12.822 6.523,12.467 6.174,12.112 6,11.654 6,11.093 6,10.445 6.186,9.935 6.56,9.563 6.934,9.187 7.435,9 8.06,9 8.493,9 8.806,9.06 9,9.179 v 0.998 A 1.26,1.26 0 0 0 8.208,9.901 c -0.325,0 -0.583,0.1 -0.774,0.298 -0.19,0.196 -0.283,0.468 -0.283,0.816 0,0.338 0.09,0.603 0.272,0.797 0.182,0.191 0.431,0.287 0.749,0.287 0.282,0 0.558,-0.092 0.828,-0.276 z M 4,7 3,8 v 6 l 1,1 h 7 l 1,-1 V 8 L 11,7 Z m 0,1 h 7 v 6 H 4 Z"
           id="path11680"
           style="fill:#797979;fill-opacity:1" /></g></clipPath><linearGradient
       inkscape:collect="always"
       xlink:href="#linearGradient14488"
       id="linearGradient14490"
       x1="5.4640694"
       y1="12.955132"
       x2="5.4861021"
       y2="8.4384623"
       gradientUnits="userSpaceOnUse" /></defs><sodipodi:namedview
     id="namedview8991"
     pagecolor="#ffffff"
     bordercolor="#000000"
     borderopacity="0.25"
     inkscape:showpageshadow="2"
     inkscape:pageopacity="0.0"
     inkscape:pagecheckerboard="0"
     inkscape:deskcolor="#d1d1d1"
     showgrid="false"
     inkscape:zoom="90.774833"
     inkscape:cx="4.6819144"
     inkscape:cy="9.8044796"
     inkscape:window-width="3440"
     inkscape:window-height="1369"
     inkscape:window-x="-8"
     inkscape:window-y="-8"
     inkscape:window-maximized="1"
     inkscape:current-layer="svg8989" /><rect
     style="fill:url(#linearGradient14490);fill-opacity:1"
     id="rect14325"
     width="7.2046399"
     height="6.0809808"
     x="3.9217918"
     y="7.9537463" /><g
     id="g11674"
     clip-path="url(#clipPath11676)" /><path
     fill-rule="evenodd"
     clip-rule="evenodd"
     d="M 4,7 3,8 v 6 l 1,1 h 7 l 1,-1 V 8 L 11,7 Z m 0,1 h 7 v 6 H 4 Z"
     id="path8987"
     style="fill:#b27914;fill-opacity:1"
     sodipodi:nodetypes="cccccccccccccc" /><path
     d="m 2.8393219,3.7247761 2.261,2.269 2.218,-2.224 -0.7000001,-0.7 -1.0119999,1.007 -0.008,-1.6 c -0.00189,-0.2812563 0.2190093,-0.5136372 0.5,-0.526 H 7.6183218 V 0.98577605 H 6.0983219 C 5.2778763,0.98687605 4.6144458,1.654339 4.6183218,2.4747761 v 1.611 l -1.073,-1.067 z m 6.6699999,1.794 h 0.01 c 0.183,0.311 0.4510001,0.467 0.8060002,0.467 0.393,0 0.706,-0.168 0.94,-0.503 0.236,-0.335 0.353,-0.78 0.353,-1.333 0,-0.511 -0.1,-0.913 -0.301,-1.207 -0.201,-0.295 -0.488,-0.442 -0.86,-0.442 -0.405,0 -0.7180001,0.194 -0.9380002,0.581 h -0.01 V 0.98577605 h -0.891 V 5.9047761 h 0.8900001 v -0.386 z m -0.015,-1.061 v -0.34 c 0,-0.248 0.058,-0.448 0.1750001,-0.601 0.101651,-0.1449906 0.267928,-0.2309316 0.4450001,-0.23 0.176733,-0.00671 0.343366,0.08234 0.436,0.233 0.104,0.154 0.155,0.368 0.155,0.643 0,0.33 -0.056,0.587 -0.169,0.768 -0.09433,0.1703324 -0.275337,0.2743125 -0.47,0.27 -0.1634332,0.00183 -0.3172372,-0.077126 -0.4110001,-0.211 -0.1112035,-0.1545111 -0.1675254,-0.3417809 -0.16,-0.532 z"
     style="clip-rule:evenodd;fill:#797979;fill-opacity:1;fill-rule:evenodd"
     id="path13146" /><path
     d="m 8.8534567,12.768026 c -0.256,0.154 -0.625,0.231 -1.108,0.231 -0.563,0 -1.02,-0.178 -1.369,-0.533 -0.349,-0.355 -0.523,-0.813 -0.523,-1.374 0,-0.648 0.186,-1.1579997 0.56,-1.5299997 0.374,-0.376 0.875,-0.563 1.5,-0.563 0.433,0 0.746,0.06 0.94,0.179 v 0.9979997 c -0.224736,-0.1797436 -0.504228,-0.2771425 -0.792,-0.2759997 -0.325,0 -0.583,0.1 -0.774,0.2979997 -0.19,0.196 -0.283,0.468 -0.283,0.816 0,0.338 0.09,0.603 0.272,0.797 0.182,0.191 0.431,0.287 0.749,0.287 0.282,0 0.558,-0.092 0.828,-0.276 z"
     style="clip-rule:evenodd;fill:#797979;fill-opacity:1;fill-rule:evenodd"
     id="path13184" /></svg>
