<?xml version="1.0" encoding="UTF-8" standalone="no"?>
<svg
   width="16"
   height="16"
   viewBox="0 0 16 16"
   fill="currentColor"
   version="1.1"
   id="svg32"
   sodipodi:docname="whole_word.svg"
   inkscape:version="1.2.1 (9c6d41e410, 2022-07-14)"
   inkscape:export-filename="whole_word.png"
   inkscape:export-xdpi="96"
   inkscape:export-ydpi="96"
   xmlns:inkscape="http://www.inkscape.org/namespaces/inkscape"
   xmlns:sodipodi="http://sodipodi.sourceforge.net/DTD/sodipodi-0.dtd"
   xmlns="http://www.w3.org/2000/svg"
   xmlns:svg="http://www.w3.org/2000/svg">
  <defs
     id="defs36" />
  <sodipodi:namedview
     id="namedview34"
     pagecolor="#ffffff"
     bordercolor="#000000"
     borderopacity="0.25"
     inkscape:showpageshadow="2"
     inkscape:pageopacity="0.0"
     inkscape:pagecheckerboard="0"
     inkscape:deskcolor="#d1d1d1"
     showgrid="false"
     inkscape:zoom="64.1875"
     inkscape:cx="1.6202532"
     inkscape:cy="7.9922103"
     inkscape:window-width="3440"
     inkscape:window-height="1369"
     inkscape:window-x="-8"
     inkscape:window-y="-8"
     inkscape:window-maximized="1"
     inkscape:current-layer="svg32" />
  <path
     fill-rule="evenodd"
     clip-rule="evenodd"
     d="M0 11H1V13H15V11H16V14H15H1H0V11Z"
     id="path26"
     style="fill:#797979;fill-opacity:1" />
  <path
     d="M 6.84048,11 H 5.95963 V 10.1406 H 5.93814 c -0.38314,0.6589 -0.9471,0.9883 -1.69189,0.9883 -0.54786,0 -0.97754,-0.145 -1.28907,-0.4351 -0.30794,-0.29 -0.46191,-0.6749 -0.46191,-1.15474 0,-1.02767 0.60514,-1.62565 1.81543,-1.79394 L 5.95963,7.51416 c 0,-0.93457 -0.37777,-1.40186 -1.13331,-1.40186 -0.66243,0 -1.26041,0.22559 -1.79394,0.67676 V 5.88672 C 3.57307,5.54297 4.19612,5.37109 4.90152,5.37109 c 1.29264,0 1.93896,0.68392 1.93896,2.05176 z M 5.95963,8.21777 4.63297,8.40039 C 4.22476,8.45768 3.91682,8.55973 3.70914,8.70654 3.50145,8.84977 3.39761,9.10579 3.39761,9.47461 c 0,0.26855 0.09489,0.48877 0.28467,0.66069 0.19336,0.1682 0.44938,0.2524 0.76807,0.2524 0.43685,0 0.79671,-0.1522 1.07959,-0.45655 C 5.8164,9.62321 5.95963,9.2347 5.95963,8.76562 Z"
     id="path28"
     style="fill:#797979;image-rendering:auto;fill-opacity:1"
     inkscape:highlight-color="#797979" />
  <path
     d="M9.3475 10.2051H9.32601V11H8.44515V2.85742H9.32601V6.4668H9.3475C9.78076 5.73633 10.4146 5.37109 11.2489 5.37109C11.9543 5.37109 12.5057 5.61816 12.9032 6.1123C13.3042 6.60286 13.5047 7.26172 13.5047 8.08887C13.5047 9.00911 13.2809 9.74674 12.8333 10.3018C12.3857 10.8532 11.7734 11.1289 10.9964 11.1289C10.2695 11.1289 9.71989 10.821 9.3475 10.2051ZM9.32601 7.98682V8.75488C9.32601 9.20964 9.47282 9.59635 9.76644 9.91504C10.0636 10.2301 10.4396 10.3877 10.8944 10.3877C11.4279 10.3877 11.8451 10.1836 12.1458 9.77539C12.4502 9.36719 12.6024 8.79964 12.6024 8.07275C12.6024 7.46045 12.4609 6.98063 12.1781 6.6333C11.8952 6.28597 11.512 6.1123 11.0286 6.1123C10.5166 6.1123 10.1048 6.29134 9.7933 6.64941C9.48177 7.00391 9.32601 7.44971 9.32601 7.98682Z"
     id="path30"
     style="fill:#797979;fill-opacity:1" />
</svg>
