<?xml version="1.0" encoding="UTF-8" standalone="no"?>
<!-- Created with Inkscape (http://www.inkscape.org/) -->

<svg
   xmlns:dc="http://purl.org/dc/elements/1.1/"
   xmlns:cc="http://creativecommons.org/ns#"
   xmlns:rdf="http://www.w3.org/1999/02/22-rdf-syntax-ns#"
   xmlns:svg="http://www.w3.org/2000/svg"
   xmlns="http://www.w3.org/2000/svg"
   xmlns:sodipodi="http://sodipodi.sourceforge.net/DTD/sodipodi-0.dtd"
   xmlns:inkscape="http://www.inkscape.org/namespaces/inkscape"
   width="16"
   height="16"
   id="svg2"
   version="1.1"
   inkscape:version="0.48.0 r9654"
   sodipodi:docname="font.svg"
   inkscape:export-filename="C:\Users\jmietling\Documents\rect3997-9-1.png"
   inkscape:export-xdpi="90"
   inkscape:export-ydpi="90">
  <defs
     id="defs4" />
  <sodipodi:namedview
     id="base"
     pagecolor="#ffffff"
     bordercolor="#666666"
     borderopacity="1.0"
     inkscape:pageopacity="0.0"
     inkscape:pageshadow="2"
     inkscape:zoom="31.999999"
     inkscape:cx="10.170642"
     inkscape:cy="4.1953582"
     inkscape:document-units="px"
     inkscape:current-layer="text7319"
     showgrid="true"
     inkscape:window-width="1241"
     inkscape:window-height="814"
     inkscape:window-x="1069"
     inkscape:window-y="696"
     inkscape:window-maximized="0"
     showguides="true"
     inkscape:guide-bbox="true"
     inkscape:snap-global="false">
    <inkscape:grid
       type="xygrid"
       id="grid3999"
       empspacing="5"
       visible="true"
       enabled="true"
       snapvisiblegridlinesonly="true" />
  </sodipodi:namedview>
  <metadata
     id="metadata7">
    <rdf:RDF>
      <cc:Work
         rdf:about="">
        <dc:format>image/svg+xml</dc:format>
        <dc:type
           rdf:resource="http://purl.org/dc/dcmitype/StillImage" />
        <dc:title />
      </cc:Work>
    </rdf:RDF>
  </metadata>
  <g
     inkscape:label="Layer 1"
     inkscape:groupmode="layer"
     id="layer1"
     style="display:inline"
     transform="translate(0,-1036.3622)">
    <path
       inkscape:connector-curvature="0"
       id="path4719"
       d="m 14.464118,1049.2149 c -0.423701,0 -0.784673,-0.1086 -1.082887,-0.3248 -0.327307,-0.2449 -0.501742,-0.5743 -0.523298,-0.9886 -0.483034,0.8661 -1.115289,1.2992 -1.89675,1.2992 -0.706167,0 -1.268019,-0.2164 -1.685572,-0.6495 -0.417843,-0.4426 -0.637261,-1.0217 -0.658246,-1.7372 -0.02899,-0.9886 0.302696,-1.8784 0.995072,-2.6693 0.692364,-0.7909 1.523441,-1.1863 2.493226,-1.1863 0.932125,0 1.447444,0.3954 1.545972,1.1863 l 0.28047,-1.031 1.610026,0 c -0.239065,0.8381 -0.473417,1.676 -0.703042,2.5139 -0.322726,1.1959 -0.477998,2.0008 -0.465847,2.4151 0.01269,0.4331 0.174396,0.6497 0.485117,0.6497 m -1.655353,-4.4347 c -0.01354,-0.4613 -0.227442,-0.692 -0.641712,-0.692 -0.583757,0 -1.095142,0.5413 -1.534151,1.6241 -0.386941,0.9322 -0.570468,1.7372 -0.550585,2.4151 0.01905,0.6497 0.282794,0.9745 0.791232,0.9745 0.508425,0 0.980339,-0.6026 1.41577,-1.8078 0.365073,-1.0356 0.538211,-1.8737 0.519446,-2.5139"
       style="font-size:11.05178356px;font-style:normal;font-variant:normal;font-weight:normal;font-stretch:normal;text-align:start;line-height:125%;letter-spacing:0px;word-spacing:0px;writing-mode:lr-tb;text-anchor:start;fill:#236298;fill-opacity:1;stroke:#236298;stroke-width:0.31768805;stroke-miterlimit:4;stroke-opacity:1;stroke-dasharray:none;display:inline;font-family:AustralianFlyingCorpsStencil;-inkscape-font-specification:AustralianFlyingCorpsStencil"
       sodipodi:nodetypes="cccscssscccccccsccscc" />
    <g
       transform="scale(0.93822513,1.0658423)"
       style="font-size:10.25895119px;font-style:normal;font-weight:bold;line-height:125%;letter-spacing:0px;word-spacing:0px;fill:#236298;fill-opacity:1;stroke:none;font-family:Sans;-inkscape-font-specification:DejaVu Serif Bold Italic"
       id="text7319">
      <path
         d="m 0.49347803,984.61603 0.11521283,-0.60612 0.61112894,0 4.1526711,-6.8727 1.1972116,0 1.4827391,6.8727 0.711314,0 -0.1152129,0.60612 -3.5014682,0 0.1152129,-0.60612 0.731351,0 -0.315583,-1.52782 -2.8101912,0 -0.9267119,1.52782 0.8916471,0 -0.1152128,0.60612 -2.22410857,0 m 2.73505237,-2.74006 2.3192844,0 -0.5961011,-2.86029 -1.7231833,2.86029"
         style="font-style:italic;font-variant:normal;font-stretch:normal;fill:#236298;font-family:DejaVu Serif;-inkscape-font-specification:DejaVu Serif Bold Italic"
         id="path7303" />
    </g>
  </g>
</svg>
