<?xml version="1.0" encoding="UTF-8" standalone="no"?>
<!-- Created with Inkscape (http://www.inkscape.org/) -->

<svg
   xmlns:dc="http://purl.org/dc/elements/1.1/"
   xmlns:cc="http://creativecommons.org/ns#"
   xmlns:rdf="http://www.w3.org/1999/02/22-rdf-syntax-ns#"
   xmlns:svg="http://www.w3.org/2000/svg"
   xmlns="http://www.w3.org/2000/svg"
   xmlns:xlink="http://www.w3.org/1999/xlink"
   xmlns:sodipodi="http://sodipodi.sourceforge.net/DTD/sodipodi-0.dtd"
   xmlns:inkscape="http://www.inkscape.org/namespaces/inkscape"
   width="16"
   height="16"
   id="svg2"
   version="1.1"
   inkscape:version="0.91 r13725"
   sodipodi:docname="warn_tsk.svg">
  <defs
     id="defs4">
    <linearGradient
       inkscape:collect="always"
       id="linearGradient5091">
      <stop
         style="stop-color:#c6852e;stop-opacity:1"
         offset="0"
         id="stop5093" />
      <stop
         style="stop-color:#e1a555;stop-opacity:1"
         offset="1"
         id="stop5095" />
    </linearGradient>
    <linearGradient
       id="linearGradient5081">
      <stop
         style="stop-color:#ffe296;stop-opacity:1"
         offset="0"
         id="stop5083" />
      <stop
         id="stop5089"
         offset="0.5"
         style="stop-color:#f8d880;stop-opacity:1" />
      <stop
         style="stop-color:#fffcd3;stop-opacity:1"
         offset="1"
         id="stop5085" />
    </linearGradient>
    <linearGradient
       inkscape:collect="always"
       xlink:href="#linearGradient5081"
       id="linearGradient4198"
       gradientUnits="userSpaceOnUse"
       x1="3.3833356"
       y1="7.0159616"
       x2="3.3833356"
       y2="0.98171616"
       gradientTransform="matrix(1.0686937,0,0,1.0924875,15.427671,1043.3065)" />
    <linearGradient
       inkscape:collect="always"
       xlink:href="#linearGradient5091"
       id="linearGradient4200"
       gradientUnits="userSpaceOnUse"
       x1="6.3885393"
       y1="7.2369323"
       x2="6.3885393"
       y2="0.39338252"
       gradientTransform="matrix(1.0686937,0,0,1.0924875,15.427671,1043.3065)" />
  </defs>
  <sodipodi:namedview
     id="base"
     pagecolor="#ffffff"
     bordercolor="#666666"
     borderopacity="1.0"
     inkscape:pageopacity="0.0"
     inkscape:pageshadow="2"
     inkscape:zoom="32"
     inkscape:cx="0.71005768"
     inkscape:cy="8.7906593"
     inkscape:document-units="px"
     inkscape:current-layer="g4193"
     showgrid="true"
     inkscape:window-width="1638"
     inkscape:window-height="1174"
     inkscape:window-x="398"
     inkscape:window-y="172"
     inkscape:window-maximized="0"
     showguides="true"
     inkscape:guide-bbox="true"
     inkscape:snap-global="false">
    <inkscape:grid
       type="xygrid"
       id="grid4202"
       empspacing="5"
       visible="true"
       enabled="true"
       snapvisiblegridlinesonly="true" />
  </sodipodi:namedview>
  <metadata
     id="metadata7">
    <rdf:RDF>
      <cc:Work
         rdf:about="">
        <dc:format>image/svg+xml</dc:format>
        <dc:type
           rdf:resource="http://purl.org/dc/dcmitype/StillImage" />
        <dc:title />
      </cc:Work>
    </rdf:RDF>
  </metadata>
  <g
     inkscape:label="Layer 1"
     inkscape:groupmode="layer"
     id="layer1"
     style="display:inline"
     transform="translate(0,-1036.3622)">
    <g
       style="display:inline"
       id="g8472"
       transform="matrix(0.9346781,0,0,0.9346781,-14.571811,69.044514)">
      <g
         id="g4193"
         transform="matrix(1.4166388,0,0,1.4166388,-3.2411359,-441.17622)">
        <path
           sodipodi:nodetypes="ccccccccc"
           inkscape:connector-curvature="0"
           id="path4292-2"
           d="m 17.77336,1043.2949 -2.548759,5.4323 c -0.873093,1.4312 -0.277787,3.7716 1.350634,3.7972 l 1.845867,0 1.890117,0 1.845867,0 c 1.628421,-0.024 2.223727,-2.4133 1.350634,-3.8444 l -2.619561,-5.3851 c -0.423981,-0.7773 -2.745708,-0.6522 -3.114799,0 z"
           style="display:inline;fill:#ffffff;fill-opacity:1;stroke:none;stroke-width:0.93301046;stroke-linecap:butt;stroke-linejoin:miter;stroke-miterlimit:4;stroke-dasharray:none;stroke-opacity:1" />
        <path
           sodipodi:nodetypes="ccccccccc"
           inkscape:connector-curvature="0"
           id="path4292"
           d="m 18.433373,1044.2966 -2.170784,4.4724 c -0.64766,1.1199 -0.206062,2.5932 1.0019,2.6133 l 1.369264,0 1.402088,0 1.369264,0 c 1.207962,-0.019 1.64956,-1.4935 1.0019,-2.6133 l -2.170784,-4.4724 c -0.314508,-0.6082 -1.529057,-0.5104 -1.802848,0 z"
           style="fill:url(#linearGradient4198);fill-opacity:1;stroke:url(#linearGradient4200);stroke-width:0.76273859;stroke-linecap:butt;stroke-linejoin:miter;stroke-miterlimit:4;stroke-dasharray:none;stroke-opacity:1" />
        <path
           transform="matrix(1.125929,0,0,1.125929,15.445014,1043.3905)"
           d="m 4.109375,5.484375 a 0.625,0.625 0 0 1 -0.625,0.625 0.625,0.625 0 0 1 -0.625,-0.625 0.625,0.625 0 0 1 0.625,-0.625 0.625,0.625 0 0 1 0.625,0.625 z"
           sodipodi:ry="0.625"
           sodipodi:rx="0.625"
           sodipodi:cy="5.484375"
           sodipodi:cx="3.484375"
           id="path4253"
           style="fill:#502800;fill-opacity:1;stroke:none"
           sodipodi:type="arc" />
        <path
           sodipodi:nodetypes="ccsccc"
           inkscape:connector-curvature="0"
           id="path4253-7"
           d="m 18.48263,1046.4854 0.09137,0.8464 c 0,0.3887 0.464638,0.7037 0.801057,0.7037 0.336419,0 0.75099,-0.315 0.75099,-0.7037 l 0.06091,-0.8464 c -0.34003,-1.1674 -1.417226,-0.9954 -1.704327,0 z"
           style="fill:#502800;fill-opacity:1;stroke:none;display:inline" />
      </g>
    </g>
  </g>
</svg>
