<?xml version="1.0" encoding="UTF-8" standalone="no"?>
<!-- Created with Inkscape (http://www.inkscape.org/) -->

<svg
   xmlns:dc="http://purl.org/dc/elements/1.1/"
   xmlns:cc="http://creativecommons.org/ns#"
   xmlns:rdf="http://www.w3.org/1999/02/22-rdf-syntax-ns#"
   xmlns:svg="http://www.w3.org/2000/svg"
   xmlns="http://www.w3.org/2000/svg"
   xmlns:xlink="http://www.w3.org/1999/xlink"
   xmlns:sodipodi="http://sodipodi.sourceforge.net/DTD/sodipodi-0.dtd"
   xmlns:inkscape="http://www.inkscape.org/namespaces/inkscape"
   width="16"
   height="16"
   id="svg2"
   version="1.1"
   inkscape:version="0.91 r13725"
   sodipodi:docname="alphab_sort_co.svg">
  <defs
     id="defs4">
    <linearGradient
       id="linearGradient4789">
      <stop
         style="stop-color:#4e8fbd;stop-opacity:1;"
         offset="0"
         id="stop4791" />
      <stop
         style="stop-color:#30495a;stop-opacity:1;"
         offset="1"
         id="stop4793" />
    </linearGradient>
    <linearGradient
       id="linearGradient4773">
      <stop
         style="stop-color:#8e4694;stop-opacity:1"
         offset="0"
         id="stop4775" />
      <stop
         style="stop-color:#8e4694;stop-opacity:1"
         offset="1"
         id="stop4777" />
    </linearGradient>
    <linearGradient
       id="linearGradient4763">
      <stop
         style="stop-color:#1b867b;stop-opacity:1"
         offset="0"
         id="stop4765" />
      <stop
         style="stop-color:#1b867b;stop-opacity:1"
         offset="1"
         id="stop4767" />
    </linearGradient>
    <linearGradient
       inkscape:collect="always"
       xlink:href="#linearGradient4763"
       id="linearGradient4769"
       x1="4.8479562"
       y1="1040.7981"
       x2="10.96875"
       y2="1040.7981"
       gradientUnits="userSpaceOnUse"
       gradientTransform="matrix(1.202507,0,0,1.1456525,-1.151621,-151.52504)" />
    <linearGradient
       inkscape:collect="always"
       xlink:href="#linearGradient4773"
       id="linearGradient4779"
       x1="14.683416"
       y1="11.370661"
       x2="9.6459417"
       y2="11.370661"
       gradientUnits="userSpaceOnUse"
       gradientTransform="matrix(1.1372459,0,0,1.1494028,-0.51614402,1035.7772)" />
    <linearGradient
       inkscape:collect="always"
       xlink:href="#linearGradient4789"
       id="linearGradient4795"
       x1="-2.2873085"
       y1="1044.6919"
       x2="-2.2873085"
       y2="1049.5981"
       gradientUnits="userSpaceOnUse"
       gradientTransform="translate(4.9742695,1.0602)" />
    <linearGradient
       inkscape:collect="always"
       xlink:href="#linearGradient4789-1"
       id="linearGradient3041"
       gradientUnits="userSpaceOnUse"
       gradientTransform="matrix(1.1126308,0,0,1.1126308,-15.752685,-116.8453)"
       x1="-2.2873085"
       y1="1044.6919"
       x2="-2.2873085"
       y2="1049.5981" />
    <linearGradient
       id="linearGradient4789-1">
      <stop
         style="stop-color:#4e8fbd;stop-opacity:1;"
         offset="0"
         id="stop4791-6" />
      <stop
         style="stop-color:#30495a;stop-opacity:1;"
         offset="1"
         id="stop4793-2" />
    </linearGradient>
    <linearGradient
       y2="1049.5981"
       x2="-2.2873085"
       y1="1044.6919"
       x1="-2.2873085"
       gradientTransform="translate(4.9742691,1.060117)"
       gradientUnits="userSpaceOnUse"
       id="linearGradient3058"
       xlink:href="#linearGradient4789-1"
       inkscape:collect="always" />
  </defs>
  <sodipodi:namedview
     id="base"
     pagecolor="#ffffff"
     bordercolor="#666666"
     borderopacity="1.0"
     inkscape:pageopacity="0.0"
     inkscape:pageshadow="2"
     inkscape:zoom="1"
     inkscape:cx="10.206363"
     inkscape:cy="4.3980937"
     inkscape:document-units="px"
     inkscape:current-layer="layer1"
     showgrid="false"
     inkscape:window-width="1184"
     inkscape:window-height="961"
     inkscape:window-x="1200"
     inkscape:window-y="561"
     inkscape:window-maximized="0"
     inkscape:snap-global="false">
    <inkscape:grid
       type="xygrid"
       id="grid3909" />
  </sodipodi:namedview>
  <metadata
     id="metadata7">
    <rdf:RDF>
      <cc:Work
         rdf:about="">
        <dc:format>image/svg+xml</dc:format>
        <dc:type
           rdf:resource="http://purl.org/dc/dcmitype/StillImage" />
        <dc:title />
      </cc:Work>
    </rdf:RDF>
  </metadata>
  <g
     inkscape:label="Layer 1"
     inkscape:groupmode="layer"
     id="layer1"
     style="display:inline"
     transform="translate(0,-1036.3622)">
    <path
       style="fill:url(#linearGradient4769);fill-opacity:1;stroke:none"
       d="m 8.1567592,1037.3502 c -0.421829,0.011 -0.7139886,0.035 -0.7139886,0.035 0,0 -0.3868943,0.03 -0.837905,0.4318 -0.4510107,0.4018 -0.5856127,0.3914 -0.570291,0.9137 0.015322,0.5222 0.2050854,0.6206 0.6388984,0.6206 0.433813,0 0.3812665,-0.3285 0.806876,-0.6445 0.3154103,-0.234 1.3061981,-0.4867 1.6081281,0.5869 0.079771,0.2837 -0.037579,1.1457 -0.037579,1.1457 0,0 -1.8953484,-0.073 -2.536538,0.1253 -0.6411895,0.1988 -0.8346682,0.2646 -1.2199608,0.8469 -0.2643448,0.4362 -0.3336462,1.2957 -0.2007866,1.7006 0.1328595,0.4052 0.8911979,1.2653 1.6086391,1.2653 0.7174414,0 5.3361252,-0.035 5.3361252,-0.035 l 0,-1.0025 -1.052194,0 0,-4.2245 c 0,-0.7526 -0.516052,-1.6978 -1.260066,-1.7737 -0.7036207,0 -1.1475294,-8e-4 -1.5693583,0.01 z m -0.1945741,4.0923 c 1.2676785,0 1.0600143,-0.2126 1.0600143,0.9309 0,1.2126 0.2076642,0.9666 -1.0600143,0.9666 -1.1951288,0 -0.9283099,0.3151 -0.9283099,-0.9666 0,-1.1896 -0.3151853,-0.9309 0.9283099,-0.9309 z"
       id="path4758"
       inkscape:connector-curvature="0"
       sodipodi:nodetypes="cczzzcsczccscccscccsssss" />
    <path
       style="fill:url(#linearGradient4779);fill-opacity:1;stroke:none"
       d="m 10.063511,1045.3797 5.905508,0 0,1.6001 -3.719214,3.759 0,0.635 2.110905,0 1.633439,-1.9304 0,2.9209 -5.980898,0 0,-2.0065 4.071032,-3.9366 -2.261684,0 -1.834477,1.854 z"
       id="path4771"
       inkscape:connector-curvature="0" />
    <path
       style="fill:url(#linearGradient3058);fill-opacity:1;stroke:none;display:inline"
       d="m 1.9797422,1038.3503 1.0827571,0 0,10.0119 1.8119613,0 -2.4057108,3 -2.43355109,-2.9779 1.96664059,0 z"
       id="path3986"
       inkscape:connector-curvature="0"
       sodipodi:nodetypes="cccccccc" />
  </g>
</svg>
