<?xml version="1.0" encoding="UTF-8" standalone="no"?>
<!-- Created with Inkscape (http://www.inkscape.org/) -->

<svg
   xmlns:dc="http://purl.org/dc/elements/1.1/"
   xmlns:cc="http://creativecommons.org/ns#"
   xmlns:rdf="http://www.w3.org/1999/02/22-rdf-syntax-ns#"
   xmlns:svg="http://www.w3.org/2000/svg"
   xmlns="http://www.w3.org/2000/svg"
   xmlns:xlink="http://www.w3.org/1999/xlink"
   xmlns:sodipodi="http://sodipodi.sourceforge.net/DTD/sodipodi-0.dtd"
   xmlns:inkscape="http://www.inkscape.org/namespaces/inkscape"
   width="16"
   height="16"
   id="svg2"
   version="1.1"
   inkscape:version="0.48.0 r9654"
   sodipodi:docname="alphab_sort_co.svg">
  <defs
     id="defs4">
    <linearGradient
       id="linearGradient4789">
      <stop
         style="stop-color:#4e8fbd;stop-opacity:1;"
         offset="0"
         id="stop4791" />
      <stop
         style="stop-color:#30495a;stop-opacity:1;"
         offset="1"
         id="stop4793" />
    </linearGradient>
    <linearGradient
       id="linearGradient4773">
      <stop
         style="stop-color:#8e4694;stop-opacity:1;"
         offset="0"
         id="stop4775" />
      <stop
         style="stop-color:#bc7bc1;stop-opacity:1;"
         offset="1"
         id="stop4777" />
    </linearGradient>
    <linearGradient
       id="linearGradient4763">
      <stop
         style="stop-color:#77a29d;stop-opacity:1;"
         offset="0"
         id="stop4765" />
      <stop
         style="stop-color:#1b867b;stop-opacity:1;"
         offset="1"
         id="stop4767" />
    </linearGradient>
    <linearGradient
       inkscape:collect="always"
       xlink:href="#linearGradient4763"
       id="linearGradient4769"
       x1="4.8479562"
       y1="1040.7981"
       x2="10.96875"
       y2="1040.7981"
       gradientUnits="userSpaceOnUse" />
    <linearGradient
       inkscape:collect="always"
       xlink:href="#linearGradient4773"
       id="linearGradient4779"
       x1="14.683416"
       y1="11.370661"
       x2="9.6459417"
       y2="11.370661"
       gradientUnits="userSpaceOnUse" />
    <linearGradient
       inkscape:collect="always"
       xlink:href="#linearGradient4789"
       id="linearGradient4795"
       x1="-2.2873085"
       y1="1044.6919"
       x2="-2.2873085"
       y2="1049.5981"
       gradientUnits="userSpaceOnUse"
       gradientTransform="translate(5.09375,0)" />
  </defs>
  <sodipodi:namedview
     id="base"
     pagecolor="#ffffff"
     bordercolor="#666666"
     borderopacity="1.0"
     inkscape:pageopacity="0.0"
     inkscape:pageshadow="2"
     inkscape:zoom="11.313708"
     inkscape:cx="7.1175134"
     inkscape:cy="0.85901507"
     inkscape:document-units="px"
     inkscape:current-layer="layer1"
     showgrid="true"
     inkscape:window-width="1184"
     inkscape:window-height="961"
     inkscape:window-x="175"
     inkscape:window-y="175"
     inkscape:window-maximized="0">
    <inkscape:grid
       type="xygrid"
       id="grid3909" />
  </sodipodi:namedview>
  <metadata
     id="metadata7">
    <rdf:RDF>
      <cc:Work
         rdf:about="">
        <dc:format>image/svg+xml</dc:format>
        <dc:type
           rdf:resource="http://purl.org/dc/dcmitype/StillImage" />
        <dc:title />
      </cc:Work>
    </rdf:RDF>
  </metadata>
  <g
     inkscape:label="Layer 1"
     inkscape:groupmode="layer"
     id="layer1"
     style="display:inline"
     transform="translate(0,-1036.3622)">
    <path
       style="fill:url(#linearGradient4795);fill-opacity:1;stroke:none"
       d="m 2.276,1038.6178 0.9059805,0 0,8.6842 1.8119611,0 -2.1876116,2.6516 -2.20970869,-2.6295 1.70147569,0 z"
       id="path3986"
       inkscape:connector-curvature="0" />
    <path
       style="fill:url(#linearGradient4769);fill-opacity:1;stroke:#29776f;stroke-width:0.2;stroke-miterlimit:4;stroke-opacity:1;stroke-dasharray:none"
       d="m 7.75,1037.7372 c -0.3507913,0.01 -0.59375,0.031 -0.59375,0.031 0,0 -0.6243495,0.1776 -1,0.5312 -0.3756504,0.3536 -0.5479854,0.8011 -0.4375,1 0.1104854,0.1988 0.3339466,0.3255 0.6875,0.2813 0.3535534,-0.044 0.4273149,-0.2867 0.78125,-0.5625 0.262294,-0.2043 1.0770413,-0.5309 1.328125,0.4062 0.066337,0.2476 -0.03125,1 -0.03125,1 0,0 -1.5761643,-0.064 -2.109375,0.1094 -0.5332107,0.1736 -0.6941068,0.231 -1.0145146,0.7393 -0.2198281,0.3807 -0.2774588,1.1309 -0.1669733,1.4844 0.1104854,0.3536 0.7411166,1.1044 1.3377379,1.1044 0.5966214,0 4.4375,-0.031 4.4375,-0.031 l 0,-0.875 -0.875,0 0,-3.6875 c 0,-0.6569 -0.6312816,-1.4337 -1.25,-1.5 -0.3093592,-0.033 -0.7429587,-0.039 -1.09375,-0.031 z m -0.28125,3.5625 c 0.5916503,0 1.0625,0.3574 1.0625,0.8125 0,0.4551 -0.4708497,0.8438 -1.0625,0.8438 -0.5916503,0 -1.09375,-0.3887 -1.09375,-0.8438 0,-0.4551 0.5020997,-0.8125 1.09375,-0.8125 z"
       id="path4758"
       inkscape:connector-curvature="0"
       sodipodi:nodetypes="ccscccsczccscccscccsssss" />
    <path
       style="fill:url(#linearGradient4779);stroke:#711a78;stroke-width:0.20000000000000001;stroke-linecap:butt;stroke-linejoin:miter;stroke-opacity:1;fill-opacity:1;stroke-miterlimit:4;stroke-dasharray:none"
       d="m 9.3028736,8.3544079 5.1928154,0 0,1.3921165 -3.270369,3.2703686 0,0.552427 1.856155,0 1.436311,-1.679378 0,2.541165 -5.2591066,0 0,-1.74567 3.5797286,-3.4250485 -1.988738,0 -1.6130876,1.6130875 z"
       id="path4771"
       inkscape:connector-curvature="0"
       transform="translate(0,1036.3622)" />
  </g>
</svg>
