<?xml version="1.0" encoding="UTF-8" standalone="no"?>
<!-- Created with Inkscape (http://www.inkscape.org/) -->

<svg
   xmlns:dc="http://purl.org/dc/elements/1.1/"
   xmlns:cc="http://creativecommons.org/ns#"
   xmlns:rdf="http://www.w3.org/1999/02/22-rdf-syntax-ns#"
   xmlns:svg="http://www.w3.org/2000/svg"
   xmlns="http://www.w3.org/2000/svg"
   xmlns:sodipodi="http://sodipodi.sourceforge.net/DTD/sodipodi-0.dtd"
   xmlns:inkscape="http://www.inkscape.org/namespaces/inkscape"
   width="16"
   height="16"
   id="svg2"
   version="1.1"
   inkscape:version="0.48.0 r9654"
   sodipodi:docname="variable_view.svg">
  <defs
     id="defs4" />
  <sodipodi:namedview
     id="base"
     pagecolor="#ffffff"
     bordercolor="#666666"
     borderopacity="1.0"
     inkscape:pageopacity="0.0"
     inkscape:pageshadow="2"
     inkscape:zoom="31.999998"
     inkscape:cx="7.9946714"
     inkscape:cy="8.0787728"
     inkscape:document-units="px"
     inkscape:current-layer="g8159"
     showgrid="true"
     inkscape:window-width="1245"
     inkscape:window-height="967"
     inkscape:window-x="225"
     inkscape:window-y="225"
     inkscape:window-maximized="0"
     showguides="true"
     inkscape:guide-bbox="true"
     inkscape:snap-global="false">
    <inkscape:grid
       type="xygrid"
       id="grid4092" />
  </sodipodi:namedview>
  <metadata
     id="metadata7">
    <rdf:RDF>
      <cc:Work
         rdf:about="">
        <dc:format>image/svg+xml</dc:format>
        <dc:type
           rdf:resource="http://purl.org/dc/dcmitype/StillImage" />
        <dc:title />
      </cc:Work>
    </rdf:RDF>
  </metadata>
  <g
     inkscape:label="Layer 1"
     inkscape:groupmode="layer"
     id="layer1"
     style="display:inline"
     transform="translate(0,-1036.3622)">
    <g
       style="display:inline"
       id="g8159"
       transform="translate(-8.2201163,-12.904699)">
      <text
         xml:space="preserve"
         style="font-size:10px;font-style:normal;font-variant:normal;font-weight:normal;font-stretch:normal;text-align:start;line-height:125%;letter-spacing:0px;word-spacing:0px;writing-mode:lr;text-anchor:start;fill:#000000;fill-opacity:1;stroke:none;display:inline;font-family:Gautami;-inkscape-font-specification:Gautami"
         x="31.619894"
         y="1061.2869"
         id="text4105-1"
         sodipodi:linespacing="125%"><tspan
           sodipodi:role="line"
           id="tspan4107-7"
           x="31.619894"
           y="1061.2869">Gautami</tspan></text>
      <path
         style="font-size:10px;font-style:normal;font-variant:normal;font-weight:normal;font-stretch:normal;text-align:start;line-height:125%;letter-spacing:0px;word-spacing:0px;writing-mode:lr-tb;text-anchor:start;fill:#334c6f;fill-opacity:1;stroke:none;display:inline;font-family:Gautami;-inkscape-font-specification:Gautami"
         d="M 9.0625 3.0625 L 8.5 3.65625 C 8.9915396 4.1738346 9.3876981 4.7867898 9.65625 5.46875 C 9.9248069 6.1507207 10.062502 6.846358 10.0625 7.5625 C 10.062502 8.2949243 9.9199241 8.9921892 9.65625 9.65625 C 9.3795601 10.346355 8.9830761 10.917969 8.46875 11.40625 L 9.0625 12.0625 C 9.6777369 11.486327 10.151695 10.791016 10.5 10 C 10.848309 9.2089858 11.031251 8.402346 11.03125 7.5625 C 11.031251 6.7291706 10.848309 5.9160204 10.5 5.125 C 10.151695 4.3339907 9.6777369 3.6354237 9.0625 3.0625 z M 1.96875 3.125 C 1.3535131 3.6979237 0.8795553 4.3964907 0.53125 5.1875 C 0.18294141 5.9785204 -1.1230469e-006 6.7916706 0 7.625 C -1.1230469e-006 8.464846 0.18294141 9.2714858 0.53125 10.0625 C 0.8795553 10.853516 1.3535131 11.548827 1.96875 12.125 L 2.5625 11.46875 C 2.0481739 10.980469 1.6516899 10.408855 1.375 9.71875 C 1.1113259 9.0546892 0.96874791 8.3574243 0.96875 7.625 C 0.96874791 6.908858 1.1064431 6.2132207 1.375 5.53125 C 1.6435519 4.8492898 2.0084604 4.2363346 2.5 3.71875 L 1.96875 3.125 z M 3.28125 5 L 4.96875 7.40625 L 3.125 9.96875 L 4.21875 9.96875 L 5.46875 8.03125 L 6.6875 9.96875 L 7.8125 9.96875 L 5.96875 7.40625 L 7.65625 5 L 6.5625 5 L 5.46875 6.75 L 4.375 5 L 3.28125 5 z M 11.96875 6.09375 L 11.96875 6.90625 L 16.03125 6.90625 L 16.03125 6.09375 L 11.96875 6.09375 z M 11.96875 8.0625 L 11.96875 8.875 L 16.03125 8.875 L 16.03125 8.0625 L 11.96875 8.0625 z "
         transform="translate(8.2201163,1049.2669)"
         id="text4105-1-1-4" />
    </g>
  </g>
</svg>
